  0
SECTION
  2
HEADER
  9
$ACADVER
  1
AC1014
  9
$ACADMAINTVER
 70
     9
  9
$DWGCODEPAGE
  3
ANSI_1252
  9
$INSBASE
 10
0.0
 20
0.0
 30
0.0
  9
$EXTMIN
 10
0.0
 20
0.0
 30
0.0
  9
$EXTMAX
 10
500.0
 20
500.0
 30
0.0
  9
$LIMMIN
 10
0.0
 20
0.0
  9
$LIMMAX
 10
500.0
 20
500.0
  9
$ORTHOMODE
 70
     0
  9
$REGENMODE
 70
     1
  9
$FILLMODE
 70
     1
  9
$QTEXTMODE
 70
     0
  9
$MIRRTEXT
 70
     1
  9
$DRAGMODE
 70
     2
  9
$LTSCALE
 40
1.0
  9
$OSMODE
 70
    37
  9
$ATTMODE
 70
     1
  9
$TEXTSIZE
 40
3.5
  9
$TRACEWID
 40
1.0
  9
$TEXTSTYLE
  7
STANDARD
  9
$CLAYER
  8
0
  9
$CELTYPE
  6
BYLAYER
  9
$CECOLOR
 62
   256
  9
$CELTSCALE
 40
1.0
  9
$DELOBJ
 70
     1
  9
$DISPSILH
 70
     0
  9
$DIMSCALE
 40
1.0
  9
$DIMASZ
 40
3.302
  9
$DIMEXO
 40
1.0
  9
$DIMDLI
 40
3.75
  9
$DIMRND
 40
0.0
  9
$DIMDLE
 40
0.0
  9
$DIMEXE
 40
1.0
  9
$DIMTP
 40
0.0
  9
$DIMTM
 40
0.0
  9
$DIMTXT
 40
3.5
  9
$DIMCEN
 40
2.5
  9
$DIMTSZ
 40
0.0
  9
$DIMTOL
 70
     0
  9
$DIMLIM
 70
     0
  9
$DIMTIH
 70
     1
  9
$DIMTOH
 70
     1
  9
$DIMSE1
 70
     0
  9
$DIMSE2
 70
     0
  9
$DIMTAD
 70
     1
  9
$DIMZIN
 70
     1
  9
$DIMBLK
  1

  9
$DIMASO
 70
     1
  9
$DIMSHO
 70
     1
  9
$DIMPOST
  1

  9
$DIMAPOST
  1

  9
$DIMALT
 70
     0
  9
$DIMALTD
 70
     3
  9
$DIMALTF
 40
0.0393700787
  9
$DIMLFAC
 40
1.0
  9
$DIMTOFL
 70
     1
  9
$DIMTVP
 40
0.0
  9
$DIMTIX
 70
     0
  9
$DIMSOXD
 70
     0
  9
$DIMSAH
 70
     0
  9
$DIMBLK1
  1

  9
$DIMBLK2
  1

  9
$DIMSTYLE
  2
ISO-25
  9
$DIMCLRD
 70
     0
  9
$DIMCLRE
 70
     0
  9
$DIMCLRT
 70
     0
  9
$DIMTFAC
 40
1.0
  9
$DIMGAP
 40
1.524
  9
$DIMJUST
 70
     0
  9
$DIMSD1
 70
     0
  9
$DIMSD2
 70
     0
  9
$DIMTOLJ
 70
     0
  9
$DIMTZIN
 70
     1
  9
$DIMALTZ
 70
     0
  9
$DIMALTTZ
 70
     0
  9
$DIMFIT
 70
     3
  9
$DIMUPT
 70
     0
  9
$DIMUNIT
 70
     2
  9
$DIMDEC
 70
     2
  9
$DIMTDEC
 70
     2
  9
$DIMALTU
 70
     2
  9
$DIMALTTD
 70
     3
  9
$DIMTXSTY
  7
STANDARD
  9
$DIMAUNIT
 70
     0
  9
$LUNITS
 70
     2
  9
$LUPREC
 70
     2
  9
$SKETCHINC
 40
1.0
  9
$FILLETRAD
 40
10.0
  9
$AUNITS
 70
     0
  9
$AUPREC
 70
     2
  9
$MENU
  1
.
  9
$ELEVATION
 40
0.0
  9
$PELEVATION
 40
0.0
  9
$THICKNESS
 40
0.0
  9
$LIMCHECK
 70
     0
  9
$CHAMFERA
 40
0.0
  9
$CHAMFERB
 40
0.0
  9
$CHAMFERC
 40
0.0
  9
$CHAMFERD
 40
0.0
  9
$SKPOLY
 70
     0
  9
$TDCREATE
 40
2458935.639640104
  9
$TDUPDATE
 40
2458935.639640335
  9
$TDINDWG
 40
0.0000000116
  9
$TDUSRTIMER
 40
0.0000000116
  9
$USRTIMER
 70
     1
  9
$ANGBASE
 50
0.0
  9
$ANGDIR
 70
     0
  9
$PDMODE
 70
     0
  9
$PDSIZE
 40
-1.0
  9
$PLINEWID
 40
0.0
  9
$COORDS
 70
     1
  9
$SPLFRAME
 70
     0
  9
$SPLINETYPE
 70
     6
  9
$SPLINESEGS
 70
     8
  9
$ATTDIA
 70
     0
  9
$ATTREQ
 70
     1
  9
$HANDLING
 70
     1
  9
$HANDSEED
  5
86
  9
$SURFTAB1
 70
     6
  9
$SURFTAB2
 70
     6
  9
$SURFTYPE
 70
     6
  9
$SURFU
 70
     6
  9
$SURFV
 70
     6
  9
$UCSNAME
  2

  9
$UCSORG
 10
0.0
 20
0.0
 30
0.0
  9
$UCSXDIR
 10
1.0
 20
0.0
 30
0.0
  9
$UCSYDIR
 10
0.0
 20
1.0
 30
0.0
  9
$PUCSNAME
  2

  9
$PUCSORG
 10
0.0
 20
0.0
 30
0.0
  9
$PUCSXDIR
 10
1.0
 20
0.0
 30
0.0
  9
$PUCSYDIR
 10
0.0
 20
1.0
 30
0.0
  9
$USERI1
 70
     0
  9
$USERI2
 70
     0
  9
$USERI3
 70
     0
  9
$USERI4
 70
     0
  9
$USERI5
 70
     0
  9
$USERR1
 40
0.0
  9
$USERR2
 40
0.0
  9
$USERR3
 40
0.0
  9
$USERR4
 40
0.0
  9
$USERR5
 40
0.0
  9
$WORLDVIEW
 70
     1
  9
$SHADEDGE
 70
     3
  9
$SHADEDIF
 70
    70
  9
$TILEMODE
 70
     1
  9
$MAXACTVP
 70
    64
  9
$PINSBASE
 10
0.0
 20
0.0
 30
0.0
  9
$PLIMCHECK
 70
     0
  9
$PEXTMIN
 10
1.0000000000E+20
 20
1.0000000000E+20
 30
1.0000000000E+20
  9
$PEXTMAX
 10
-1.0000000000E+20
 20
-1.0000000000E+20
 30
-1.0000000000E+20
  9
$PLIMMIN
 10
0.0
 20
0.0
  9
$PLIMMAX
 10
420.0
 20
297.0
  9
$UNITMODE
 70
     0
  9
$VISRETAIN
 70
     1
  9
$PLINEGEN
 70
     0
  9
$PSLTSCALE
 70
     1
  9
$TREEDEPTH
 70
  3020
  9
$PICKSTYLE
 70
     1
  9
$CMLSTYLE
  2
STANDARD
  9
$CMLJUST
 70
     0
  9
$CMLSCALE
 40
20.0
  9
$PROXYGRAPHICS
 70
     1
  9
$MEASUREMENT
 70
     1
  0
ENDSEC
  0
SECTION
  2
CLASSES
  0
CLASS
  1
ACDBDICTIONARYWDFLT
  2
AcDbDictionaryWithDefault
  3
ObjectDBX Classes
 90
        0
280
     0
281
     0
  0
CLASS
  1
VISUALSTYLE
  2
AcDbVisualStyle
  3
ObjectDBX Classes
 90
     4095
280
     0
281
     0
  0
CLASS
  1
MATERIAL
  2
AcDbMaterial
  3
ObjectDBX Classes
 90
     1153
280
     0
281
     0
  0
CLASS
  1
SCALE
  2
AcDbScale
  3
ObjectDBX Classes
 90
     1153
280
     0
281
     0
  0
CLASS
  1
TABLESTYLE
  2
AcDbTableStyle
  3
ObjectDBX Classes
 90
     4095
280
     0
281
     0
  0
CLASS
  1
MLEADERSTYLE
  2
AcDbMLeaderStyle
  3
ACDB_MLEADERSTYLE_CLASS
 90
     4095
280
     0
281
     0
  0
CLASS
  1
SUN
  2
AcDbSun
  3
SCENEOE
 90
     1153
280
     0
281
     0
  0
CLASS
  1
XRECORD
  2
AcDbXrecord
  3
ObjectDBX Classes
 90
        0
280
     0
281
     0
  0
CLASS
  1
LWPOLYLINE
  2
AcDbPolyline
  3
ObjectDBX Classes
 90
        0
280
     0
281
     1
  0
CLASS
  1
HATCH
  2
AcDbHatch
  3
ObjectDBX Classes
 90
        0
280
     0
281
     1
  0
ENDSEC
  0
SECTION
  2
TABLES
  0
TABLE
  2
VPORT
  5
8
330
0
100
AcDbSymbolTable
 70
     1
  0
VPORT
  5
29
330
8
100
AcDbSymbolTableRecord
100
AcDbViewportTableRecord
  2
*ACTIVE
 70
     0
 10
0.0
 20
0.0
 11
1.0
 21
1.0
 12
250.0
 22
250.0
 13
0.0
 23
0.0
 14
10.0
 24
10.0
 15
10.0
 25
10.0
 16
0.0
 26
0.0
 36
1.0
 17
0.0
 27
0.0
 37
0.0
 40
500.0
 41
1.0
 42
50.0
 43
0.0
 44
0.0
 50
0.0
 51
0.0
 71
     0
 72
  2000
 73
     1
 74
     3
 75
     0
 76
     0
 77
     0
 78
     0
  0
ENDTAB
  0
TABLE
  2
LTYPE
  5
5
330
0
100
AcDbSymbolTable
 70
     6
  0
LTYPE
  5
14
330
5
100
AcDbSymbolTableRecord
100
AcDbLinetypeTableRecord
  2
BYBLOCK
 70
     0
  3

 72
    65
 73
     0
 40
0.0
  0
LTYPE
  5
15
330
5
100
AcDbSymbolTableRecord
100
AcDbLinetypeTableRecord
  2
BYLAYER
 70
     0
  3

 72
    65
 73
     0
 40
0.0
  0
LTYPE
  5
16
330
5
100
AcDbSymbolTableRecord
100
AcDbLinetypeTableRecord
  2
CONTINUOUS
 70
     0
  3
Solid line
 72
    65
 73
     0
 40
0.0
  0
LTYPE
  5
6E
330
5
100
AcDbSymbolTableRecord
100
AcDbLinetypeTableRecord
  2
HIDDEN
 70
     0
  3
Hidden __ __ __ __ __ __ __ __ __ __ __ __ __ __
 72
    65
 73
     2
 40
1.905
 49
1.27
 74
     0
 49
-0.635
 74
     0
  0
LTYPE
  5
6F
330
5
100
AcDbSymbolTableRecord
100
AcDbLinetypeTableRecord
  2
PHANTOM
 70
     0
  3
Phantom ______  __  __  ______  __  __  ______
 72
    65
 73
     6
 40
12.7
 49
6.35
 74
     0
 49
-1.27
 74
     0
 49
1.27
 74
     0
 49
-1.27
 74
     0
 49
1.27
 74
     0
 49
-1.27
 74
     0
  0
LTYPE
  5
70
330
5
100
AcDbSymbolTableRecord
100
AcDbLinetypeTableRecord
  2
CENTER
 70
     0
  3
Center ____ _ ____ _ ____ _ ____ _ ____ _ ____
 72
    65
 73
     4
 40
10.16
 49
6.35
 74
     0
 49
-1.27
 74
     0
 49
1.27
 74
     0
 49
-1.27
 74
     0
  0
LTYPE
  5
71
330
5
100
AcDbSymbolTableRecord
100
AcDbLinetypeTableRecord
  2
CENTERX2
 70
     0
  3
Center (2x) ________  __  ________  __  _____
 72
    65
 73
     4
 40
20.32
 49
12.7
 74
     0
 49
-2.54
 74
     0
 49
2.54
 74
     0
 49
-2.54
 74
     0
  0
LTYPE
  5
72
330
5
100
AcDbSymbolTableRecord
100
AcDbLinetypeTableRecord
  2
DOT2
 70
     0
  3
Dot (.5x) ........................................
 72
    65
 73
     2
 40
0.635
 49
0.0
 74
     0
 49
-0.635
 74
     0
  0
ENDTAB
  0
TABLE
  2
LAYER
  5
2
330
0
100
AcDbSymbolTable
 70
     2
  0
LAYER
  5
10
330
2
100
AcDbSymbolTableRecord
100
AcDbLayerTableRecord
  2
0
 70
     0
 62
     7
  6
CONTINUOUS
  0
LAYER
  5
73
330
2
100
AcDbSymbolTableRecord
100
AcDbLayerTableRecord
  2
DEFAULT
 70
     0
 62
     7
  6
CONTINUOUS
  0
ENDTAB
  0
TABLE
  2
STYLE
  5
3
330
0
100
AcDbSymbolTable
 70
     1
  0
STYLE
  5
11
330
3
100
AcDbSymbolTableRecord
100
AcDbTextStyleTableRecord
  2
STANDARD
 70
     0
 40
0.0
 41
1.0
 50
0.0
 71
     0
 42
3.5
  3
txt
  4

  0
ENDTAB
  0
TABLE
  2
VIEW
  5
6
330
0
100
AcDbSymbolTable
 70
     0
  0
ENDTAB
  0
TABLE
  2
UCS
  5
7
330
0
100
AcDbSymbolTable
 70
     0
  0
ENDTAB
  0
TABLE
  2
APPID
  5
9
330
0
100
AcDbSymbolTable
 70
     1
  0
APPID
  5
12
330
9
100
AcDbSymbolTableRecord
100
AcDbRegAppTableRecord
  2
ACAD
 70
     0
  0
ENDTAB
  0
TABLE
  2
DIMSTYLE
  5
A
330
0
100
AcDbSymbolTable
 70
     1
  0
DIMSTYLE
105
27
330
A
100
AcDbSymbolTableRecord
100
AcDbDimStyleTableRecord
  2
ISO-25
 70
     0
  3

  4

  5

  6

  7

 40
1.0
 41
2.5
 42
0.625
 43
3.75
 44
1.25
 45
0.0
 46
0.0
 47
0.0
 48
0.0
140
2.5
141
2.5
142
0.0
143
0.0393700787
144
1.0
145
0.0
146
1.0
147
0.625
 71
     0
 72
     0
 73
     0
 74
     0
 75
     0
 76
     0
 77
     1
 78
     8
170
     0
171
     3
172
     1
173
     0
174
     0
175
     0
176
     0
177
     0
178
     0
270
     2
271
     2
272
     2
273
     2
274
     3
340
11
275
     0
280
     0
281
     0
282
     0
283
     0
284
     8
285
     0
286
     0
287
     3
288
     0
  0
ENDTAB
  0
TABLE
  2
BLOCK_RECORD
  5
1
330
0
100
AcDbSymbolTable
 70
     1
  0
BLOCK_RECORD
  5
1F
330
1
100
AcDbSymbolTableRecord
100
AcDbBlockTableRecord
  2
*MODEL_SPACE
  0
BLOCK_RECORD
  5
1B
330
1
100
AcDbSymbolTableRecord
100
AcDbBlockTableRecord
  2
*PAPER_SPACE
  0
BLOCK_RECORD
  5
23
330
1
100
AcDbSymbolTableRecord
100
AcDbBlockTableRecord
  2
*PAPER_SPACE0
  0
ENDTAB
  0
ENDSEC
  0
SECTION
  2
BLOCKS
  0
BLOCK
  5
20
330
1F
100
AcDbEntity
  8
0
100
AcDbBlockBegin
  2
*MODEL_SPACE
 70
     0
 10
0.0
 20
0.0
 30
0.0
  3
*MODEL_SPACE
  1

  0
ENDBLK
  5
21
330
1F
100
AcDbEntity
  8
0
100
AcDbBlockEnd
  0
BLOCK
  5
1C
330
1B
100
AcDbEntity
 67
     1
  8
0
100
AcDbBlockBegin
  2
*PAPER_SPACE
 70
     0
 10
0.0
 20
0.0
 30
0.0
  3
*PAPER_SPACE
  1

  0
ENDBLK
  5
1D
330
1B
100
AcDbEntity
 67
     1
  8
0
100
AcDbBlockEnd
  0
BLOCK
  5
24
330
23
100
AcDbEntity
  8
0
100
AcDbBlockBegin
  2
*PAPER_SPACE0
 70
     0
 10
0.0
 20
0.0
 30
0.0
  3
*PAPER_SPACE0
  1

  0
ENDBLK
  5
25
330
23
100
AcDbEntity
  8
0
100
AcDbBlockEnd
  0
ENDSEC
  0
SECTION
  2
ENTITIES
  0
SPLINE
  5
74
330
1F
100
AcDbEntity
  8
0
  6
CONTINUOUS
 62
     7
100
AcDbSpline
210
0.0
220
0.0
230
1.0
 70
     8
 71
     3
 72
    14
 73
    10
 74
     0
 42
0.000000001
 43
0.00000001
 40
0.0
 40
0.0
 40
0.0
 40
0.0
 40
0.25
 40
0.25
 40
0.5
 40
0.5
 40
0.75
 40
0.75
 40
1.0
 40
1.0
 40
1.0
 40
1.0
 10
231.0719776004149
 20
325.643128572648
 30
0.0
 10
232.6999799937891
 20
326.783068120712
 30
0.0
 10
234.4597789536736
 20
327.7943156121003
 30
0.0
 10
238.1707766918962
 20
329.4854916076044
 30
0.0
 10
240.1215547497068
 20
330.1649892419183
 30
0.0
 10
244.1163497303923
 20
331.1474533327225
 30
0.0
 10
246.1597666679272
 20
331.4502722311894
 30
0.0
 10
250.231850576771
 20
331.6732365785591
 30
0.0
 10
252.2599449737047
 20
331.5935686102409
 30
0.0
 10
254.2309665158552
 20
331.3387587861536
 30
0.0
  0
SPLINE
  5
75
330
1F
100
AcDbEntity
  8
0
  6
CONTINUOUS
 62
     7
100
AcDbSpline
210
0.0
220
0.0
230
1.0
 70
     8
 71
     3
 72
     8
 73
     4
 74
     0
 42
0.000000001
 43
0.00000001
 40
0.0
 40
0.0
 40
0.0
 40
0.0
 40
1.0
 40
1.0
 40
1.0
 40
1.0
 10
292.4161753874557
 20
256.1744752229951
 30
0.0
 10
289.9538423177967
 20
253.7133293484646
 30
0.0
 10
287.2664029552038
 20
251.4588520566184
 30
0.0
 10
284.414586181062
 20
249.4619884537714
 30
0.0
  0
SPLINE
  5
76
330
1F
100
AcDbEntity
  8
0
  6
CONTINUOUS
 62
     7
100
AcDbSpline
210
0.0
220
0.0
230
1.0
 70
     8
 71
     3
 72
    38
 73
    34
 74
     0
 42
0.000000001
 43
0.00000001
 40
0.0
 40
0.0
 40
0.0
 40
0.0
 40
0.0625
 40
0.0625
 40
0.125
 40
0.125
 40
0.1875
 40
0.1875
 40
0.25
 40
0.25
 40
0.3125
 40
0.3125
 40
0.375
 40
0.375
 40
0.4375
 40
0.4375
 40
0.5
 40
0.5
 40
0.5625
 40
0.5625
 40
0.625
 40
0.625
 40
0.6875
 40
0.6875
 40
0.75
 40
0.75
 40
0.8125
 40
0.8125
 40
0.875
 40
0.875
 40
0.9375
 40
0.9375
 40
1.0
 40
1.0
 40
1.0
 40
1.0
 10
268.9280223995839
 20
271.5790936495745
 30
0.0
 10
269.5939921681814
 20
271.8089674261187
 30
0.0
 10
270.2943810025017
 20
271.9943584960992
 30
0.0
 10
271.7450809811286
 20
272.2557231541276
 30
0.0
 10
272.4953411328029
 20
272.3315808998455
 30
0.0
 10
274.0193798211575
 20
272.3589356490539
 30
0.0
 10
274.7930494071391
 20
272.3103450885826
 30
0.0
 10
276.3324176386226
 20
272.0827772586622
 30
0.0
 10
277.0979702278262
 20
271.9037726622881
 30
0.0
 10
278.5884583767611
 20
271.4201050586058
 30
0.0
 10
279.3132496511307
 20
271.115488872304
 30
0.0
 10
280.6929289176956
 20
270.395817564882
 30
0.0
 10
281.3477147288306
 20
269.9808703244091
 30
0.0
 10
282.5653012026956
 20
269.0638504857107
 30
0.0
 10
283.1280650895434
 20
268.5619127401329
 30
0.0
 10
284.1488820604621
 20
267.4985338686394
 30
0.0
 10
284.6069618877403
 20
266.9372164540604
 30
0.0
 10
285.4151615647764
 20
265.7829876962517
 30
0.0
 10
285.7859548689946
 20
265.1605516002419
 30
0.0
 10
286.4360641809339
 20
263.8376004314588
 30
0.0
 10
286.7152547913092
 20
263.13710254006
 30
0.0
 10
287.1605324665458
 20
261.6793062587361
 30
0.0
 10
287.3265053894615
 20
260.9220885491581
 30
0.0
 10
287.5308971059434
 20
259.3794720396037
 30
0.0
 10
287.5692494728421
 20
258.5942061557705
 30
0.0
 10
287.5139713806117
 20
257.0281813777138
 30
0.0
 10
287.4203462726285
 20
256.2475740811079
 30
0.0
 10
287.1076951399699
 20
254.7232083315047
 30
0.0
 10
286.8887447484006
 20
253.9795777801747
 30
0.0
 10
286.3417877618011
 20
252.5568057461805
 30
0.0
 10
286.0139007133133
 20
251.8777366950452
 30
0.0
 10
285.2721296582172
 20
250.6039166079542
 30
0.0
 10
284.858371948299
 20
250.0091738689886
 30
0.0
 10
284.414586181062
 20
249.4619884537714
 30
0.0
  0
SPLINE
  5
77
330
1F
100
AcDbEntity
  8
0
  6
CONTINUOUS
 62
     7
100
AcDbSpline
210
0.0
220
0.0
230
1.0
 70
     8
 71
     3
 72
    14
 73
    10
 74
     0
 42
0.000000001
 43
0.00000001
 40
0.0
 40
0.0
 40
0.0
 40
0.0
 40
0.25
 40
0.25
 40
0.5
 40
0.5
 40
0.75
 40
0.75
 40
1.0
 40
1.0
 40
1.0
 40
1.0
 10
268.9280223995839
 20
271.5790936495744
 30
0.0
 10
267.3000200062097
 20
270.4391541015103
 30
0.0
 10
265.5402210463252
 20
269.4279066101221
 30
0.0
 10
261.8292233081027
 20
267.736730614618
 30
0.0
 10
259.878445250292
 20
267.0572329803041
 30
0.0
 10
255.8836502696065
 20
266.0747688894998
 30
0.0
 10
253.8402333320716
 20
265.771949991033
 30
0.0
 10
249.7681494232278
 20
265.5489856436633
 30
0.0
 10
247.7400550262942
 20
265.6286536119814
 30
0.0
 10
245.7690334841436
 20
265.8834634360687
 30
0.0
  0
SPLINE
  5
78
330
1F
100
AcDbEntity
  8
0
  6
CONTINUOUS
 62
     7
100
AcDbSpline
210
0.0
220
0.0
230
1.0
 70
     8
 71
     3
 72
    38
 73
    34
 74
     0
 42
0.000000001
 43
0.00000001
 40
0.0
 40
0.0
 40
0.0
 40
0.0
 40
0.0624999999999998
 40
0.0624999999999998
 40
0.1249999999999996
 40
0.1249999999999996
 40
0.1874999999999994
 40
0.1874999999999994
 40
0.2499999999999992
 40
0.2499999999999992
 40
0.312499999999999
 40
0.312499999999999
 40
0.3749999999999988
 40
0.3749999999999988
 40
0.4374999999999987
 40
0.4374999999999987
 40
0.4999999999999984
 40
0.4999999999999984
 40
0.5624999999999982
 40
0.5624999999999982
 40
0.6249999999999984
 40
0.6249999999999984
 40
0.6874999999999988
 40
0.6874999999999988
 40
0.749999999999999
 40
0.749999999999999
 40
0.8124999999999992
 40
0.8124999999999992
 40
0.8749999999999994
 40
0.8749999999999994
 40
0.9374999999999998
 40
0.9374999999999998
 40
1.0
 40
1.0
 40
1.0
 40
1.0
 10
245.7690334841436
 20
265.8834634360687
 30
0.0
 10
243.7805244885212
 20
266.091909110121
 30
0.0
 10
241.7740166090579
 20
266.4227030065588
 30
0.0
 10
237.7700810946265
 20
267.3415874960467
 30
0.0
 10
235.7727608711849
 20
267.9297403850805
 30
0.0
 10
231.8364380301504
 20
269.3648115680871
 30
0.0
 10
229.8975655162675
 20
270.2117501138785
 30
0.0
 10
226.1277704546139
 20
272.1532582812607
 30
0.0
 10
224.2969810025516
 20
273.2477977781316
 30
0.0
 10
220.7893494184967
 20
275.6608952766541
 30
0.0
 10
219.1126210715727
 20
276.9793749991429
 30
0.0
 10
215.9516844050316
 20
279.8059078860904
 30
0.0
 10
214.4675518024057
 20
281.3138475212419
 30
0.0
 10
211.7200454469147
 20
284.4769592226655
 30
0.0
 10
210.4566992942782
 20
286.1320025436894
 30
0.0
 10
208.1670918807159
 20
289.5428010133307
 30
0.0
 10
207.1408108418889
 20
291.2984335778537
 30
0.0
 10
205.3296425249403
 20
294.8635618822055
 30
0.0
 10
204.5169853147419
 20
296.7277203333522
 30
0.0
 10
203.1125979926892
 20
300.5882312527
 30
0.0
 10
202.5209785445242
 20
302.5845274041766
 30
0.0
 10
201.5866555683282
 20
306.6687785454873
 30
0.0
 10
201.2440397402467
 20
308.7566353221333
 30
0.0
 10
200.8253475999817
 20
312.9762923772219
 30
0.0
 10
200.7493183240291
 20
315.1079645558627
 30
0.0
 10
200.8689724902532
 20
319.3638078033683
 30
0.0
 10
201.0646520509339
 20
321.4878408157118
 30
0.0
 10
201.719768942883
 20
325.6773074439071
 30
0.0
 10
202.1791521147922
 20
327.742615805098
 30
0.0
 10
203.3414773741611
 20
331.7679191229336
 30
0.0
 10
204.0443263819918
 20
333.7278209490563
 30
0.0
 10
205.6634023375566
 20
337.5033263932132
 30
0.0
 10
206.5795156321971
 20
339.3188800012491
 30
0.0
 10
207.5838246125432
 20
341.0477469992273
 30
0.0
  0
SPLINE
  5
79
330
1F
100
AcDbEntity
  8
0
  6
CONTINUOUS
 62
     7
100
AcDbSpline
210
0.0
220
0.0
230
1.0
 70
     8
 71
     3
 72
     8
 73
     4
 74
     0
 42
0.000000001
 43
0.00000001
 40
0.0
 40
0.0
 40
0.0
 40
0.0
 40
1.0
 40
1.0
 40
1.0
 40
1.0
 10
207.5838246125432
 20
341.0477469992273
 30
0.0
 10
210.0461576822018
 20
343.5088928737576
 30
0.0
 10
212.7335970447949
 20
345.7633701656038
 30
0.0
 10
215.5854138189369
 20
347.7602337684507
 30
0.0
  0
SPLINE
  5
7A
330
1F
100
AcDbEntity
  8
0
  6
CONTINUOUS
 62
     7
100
AcDbSpline
210
0.0
220
0.0
230
1.0
 70
     8
 71
     3
 72
    38
 73
    34
 74
     0
 42
0.000000001
 43
0.00000001
 40
0.0
 40
0.0
 40
0.0
 40
0.0
 40
0.0625
 40
0.0625
 40
0.125
 40
0.125
 40
0.1875
 40
0.1875
 40
0.25
 40
0.25
 40
0.3125
 40
0.3125
 40
0.375
 40
0.375
 40
0.4375
 40
0.4375
 40
0.5
 40
0.5
 40
0.5625
 40
0.5625
 40
0.625
 40
0.625
 40
0.6875
 40
0.6875
 40
0.75
 40
0.75
 40
0.8125
 40
0.8125
 40
0.875
 40
0.875
 40
0.9375
 40
0.9375
 40
1.0
 40
1.0
 40
1.0
 40
1.0
 10
231.0719776004149
 20
325.643128572648
 30
0.0
 10
230.4060078318173
 20
325.4132547961038
 30
0.0
 10
229.7056189974972
 20
325.2278637261234
 30
0.0
 10
228.2549190188702
 20
324.9664990680948
 30
0.0
 10
227.5046588671958
 20
324.890641322377
 30
0.0
 10
225.9806201788413
 20
324.8632865731685
 30
0.0
 10
225.2069505928596
 20
324.9118771336399
 30
0.0
 10
223.6675823613761
 20
325.1394449635603
 30
0.0
 10
222.9020297721725
 20
325.3184495599344
 30
0.0
 10
221.4115416232376
 20
325.8021171636168
 30
0.0
 10
220.6867503488681
 20
326.1067333499187
 30
0.0
 10
219.3070710823032
 20
326.8264046573407
 30
0.0
 10
218.6522852711682
 20
327.2413518978135
 30
0.0
 10
217.4346987973032
 20
328.1583717365121
 30
0.0
 10
216.8719349104554
 20
328.6603094820899
 30
0.0
 10
215.8511179395367
 20
329.7236883535834
 30
0.0
 10
215.3930381122585
 20
330.2850057681625
 30
0.0
 10
214.5848384352223
 20
331.4392345259712
 30
0.0
 10
214.2140451310041
 20
332.0616706219811
 30
0.0
 10
213.5639358190649
 20
333.3846217907641
 30
0.0
 10
213.2847452086897
 20
334.0851196821628
 30
0.0
 10
212.839467533453
 20
335.5429159634866
 30
0.0
 10
212.6734946105374
 20
336.3001336730646
 30
0.0
 10
212.4691028940554
 20
337.8427501826189
 30
0.0
 10
212.4307505271566
 20
338.6280160664522
 30
0.0
 10
212.486028619387
 20
340.1940408445088
 30
0.0
 10
212.5796537273702
 20
340.9746481411146
 30
0.0
 10
212.8923048600289
 20
342.4990138907178
 30
0.0
 10
213.1112552515982
 20
343.2426444420478
 30
0.0
 10
213.6582122381977
 20
344.665416476042
 30
0.0
 10
213.9860992866855
 20
345.3444855271773
 30
0.0
 10
214.7278703417815
 20
346.6183056142681
 30
0.0
 10
215.1416280516997
 20
347.2130483532337
 30
0.0
 10
215.5854138189368
 20
347.7602337684508
 30
0.0
  0
ARC
  5
7B
330
1F
100
AcDbEntity
  8
0
  6
CONTINUOUS
 62
     7
100
AcDbCircle
 10
244.1900331045
 20
284.763099536
 30
0.0
 40
1.000000000000024
100
AcDbArc
 50
160.0
 51
340.0
  0
LINE
  5
7C
330
1F
100
AcDbEntity
  8
0
  6
CONTINUOUS
 62
     7
100
AcDbLine
 10
245.1297257253
 20
284.4210793927
 30
0.0
 11
253.0076746636
 21
281.5537404721
 31
0.0
  0
LINE
  5
7D
330
1F
100
AcDbEntity
  8
0
  6
CONTINUOUS
 62
     7
100
AcDbLine
 10
253.0076746636
 20
281.5537404721
 30
0.0
 11
266.275953627
 21
292.6871484566
 31
0.0
  0
LINE
  5
7E
330
1F
100
AcDbEntity
  8
0
  6
CONTINUOUS
 62
     7
100
AcDbLine
 10
266.275953627
 20
292.6871484566
 30
0.0
 11
263.2682789634
 21
309.7445190956
 31
0.0
  0
LINE
  5
7F
330
1F
100
AcDbEntity
  8
0
  6
CONTINUOUS
 62
     7
100
AcDbLine
 10
263.2682789634
 20
309.7445190956
 30
0.0
 11
246.9923253364
 21
315.6684817502
 31
0.0
  0
LINE
  5
80
330
1F
100
AcDbEntity
  8
0
  6
CONTINUOUS
 62
     7
100
AcDbLine
 10
246.9923253364
 20
315.6684817502
 30
0.0
 11
233.724046373
 21
304.5350737656
 31
0.0
  0
LINE
  5
81
330
1F
100
AcDbEntity
  8
0
  6
CONTINUOUS
 62
     7
100
AcDbLine
 10
233.724046373
 20
304.5350737656
 30
0.0
 11
234.9286385586
 21
297.7034920032
 31
0.0
  0
ARC
  5
82
330
1F
100
AcDbEntity
  8
0
  6
CONTINUOUS
 62
     7
100
AcDbCircle
 10
235.1022867363
 20
296.7186842502
 30
0.0
 40
0.999999999999998
100
AcDbArc
 50
100.0
 51
280.0
  0
LINE
  5
83
330
1F
100
AcDbEntity
  8
0
  6
CONTINUOUS
 62
     7
100
AcDbLine
 10
235.275934914
 20
295.7338764972
 30
0.0
 11
236.7317210366
 21
287.4777031266
 31
0.0
  0
LINE
  5
84
330
1F
100
AcDbEntity
  8
0
  6
CONTINUOUS
 62
     7
100
AcDbLine
 10
236.7317210366
 20
287.4777031266
 30
0.0
 11
243.2503404837
 21
285.1051196793
 31
0.0
  0
SPLINE
  5
85
330
1F
100
AcDbEntity
  8
0
  6
CONTINUOUS
 62
     7
100
AcDbSpline
210
0.0
220
0.0
230
1.0
 70
     8
 71
     3
 72
    38
 73
    34
 74
     0
 42
0.000000001
 43
0.00000001
 40
0.0
 40
0.0
 40
0.0
 40
0.0
 40
0.0624999999999998
 40
0.0624999999999998
 40
0.1249999999999996
 40
0.1249999999999996
 40
0.1874999999999994
 40
0.1874999999999994
 40
0.2499999999999992
 40
0.2499999999999992
 40
0.312499999999999
 40
0.312499999999999
 40
0.3749999999999988
 40
0.3749999999999988
 40
0.4374999999999987
 40
0.4374999999999987
 40
0.4999999999999984
 40
0.4999999999999984
 40
0.5624999999999982
 40
0.5624999999999982
 40
0.6249999999999984
 40
0.6249999999999984
 40
0.6874999999999988
 40
0.6874999999999988
 40
0.749999999999999
 40
0.749999999999999
 40
0.8124999999999992
 40
0.8124999999999992
 40
0.8749999999999994
 40
0.8749999999999994
 40
0.9374999999999998
 40
0.9374999999999998
 40
1.0
 40
1.0
 40
1.0
 40
1.0
 10
254.2309665158552
 20
331.3387587861537
 30
0.0
 10
256.2194755114776
 20
331.1303131121014
 30
0.0
 10
258.225983390941
 20
330.7995192156635
 30
0.0
 10
262.2299189053725
 20
329.8806347261757
 30
0.0
 10
264.2272391288139
 20
329.2924818371418
 30
0.0
 10
268.1635619698485
 20
327.8574106541352
 30
0.0
 10
270.1024344837314
 20
327.0104721083438
 30
0.0
 10
273.8722295453849
 20
325.0689639409616
 30
0.0
 10
275.7030189974473
 20
323.9744244440907
 30
0.0
 10
279.210650581502
 20
321.5613269455684
 30
0.0
 10
280.8873789284261
 20
320.2428472230794
 30
0.0
 10
284.0483155949672
 20
317.4163143361319
 30
0.0
 10
285.532448197593
 20
315.9083747009805
 30
0.0
 10
288.279954553084
 20
312.745262999557
 30
0.0
 10
289.5433007057205
 20
311.090219678533
 30
0.0
 10
291.8329081192828
 20
307.6794212088918
 30
0.0
 10
292.8591891581098
 20
305.9237886443689
 30
0.0
 10
294.6703574750584
 20
302.358660340017
 30
0.0
 10
295.4830146852567
 20
300.4945018888703
 30
0.0
 10
296.8874020073095
 20
296.6339909695224
 30
0.0
 10
297.4790214554745
 20
294.6376948180457
 30
0.0
 10
298.4133444316706
 20
290.5534436767351
 30
0.0
 10
298.7559602597519
 20
288.4655869000892
 30
0.0
 10
299.174652400017
 20
284.2459298450005
 30
0.0
 10
299.2506816759695
 20
282.1142576663597
 30
0.0
 10
299.1310275097455
 20
277.8584144188541
 30
0.0
 10
298.9353479490649
 20
275.7343814065106
 30
0.0
 10
298.2802310571159
 20
271.5449147783152
 30
0.0
 10
297.8208478852067
 20
269.4796064171244
 30
0.0
 10
296.6585226258377
 20
265.4543030992888
 30
0.0
 10
295.9556736180069
 20
263.4944012731663
 30
0.0
 10
294.3365976624423
 20
259.7188958290093
 30
0.0
 10
293.4204843678019
 20
257.9033422209733
 30
0.0
 10
292.4161753874557
 20
256.1744752229951
 30
0.0
  0
ENDSEC
  0
SECTION
  2
OBJECTS
  0
DICTIONARY
  5
C
330
0
100
AcDbDictionary
  3
ACAD_GROUP
350
D
  3
ACAD_MLINESTYLE
350
17
  3
ACAD_SCALELIST
350
47
  0
DICTIONARY
  5
D
102
{ACAD_REACTORS
330
C
102
}
330
C
100
AcDbDictionary
  0
DICTIONARY
  5
17
102
{ACAD_REACTORS
330
C
102
}
330
C
100
AcDbDictionary
  3
STANDARD
350
18
  0
DICTIONARY
  5
47
102
{ACAD_REACTORS
330
C
102
}
330
C
100
AcDbDictionary
  0
MLINESTYLE
  5
18
102
{ACAD_REACTORS
330
17
102
}
330
17
100
AcDbMlineStyle
  2
Standard
 70
     0
  3

 62
   256
 51
90.0
 52
90.0
 71
     2
 49
0.5
 62
   256
  6
BYLAYER
 49
-0.5
 62
   256
  6
BYLAYER
  0
ENDSEC
  0
EOF
