  0
SECTION
  2
HEADER
  9
$ACADVER
  1
AC1014
  9
$ACADMAINTVER
 70
     9
  9
$DWGCODEPAGE
  3
ANSI_1252
  9
$INSBASE
 10
0.0
 20
0.0
 30
0.0
  9
$EXTMIN
 10
0.0
 20
0.0
 30
0.0
  9
$EXTMAX
 10
500.0
 20
500.0
 30
0.0
  9
$LIMMIN
 10
0.0
 20
0.0
  9
$LIMMAX
 10
500.0
 20
500.0
  9
$ORTHOMODE
 70
     0
  9
$REGENMODE
 70
     1
  9
$FILLMODE
 70
     1
  9
$QTEXTMODE
 70
     0
  9
$MIRRTEXT
 70
     1
  9
$DRAGMODE
 70
     2
  9
$LTSCALE
 40
1.0
  9
$OSMODE
 70
    37
  9
$ATTMODE
 70
     1
  9
$TEXTSIZE
 40
3.5
  9
$TRACEWID
 40
1.0
  9
$TEXTSTYLE
  7
STANDARD
  9
$CLAYER
  8
0
  9
$CELTYPE
  6
BYLAYER
  9
$CECOLOR
 62
   256
  9
$CELTSCALE
 40
1.0
  9
$DELOBJ
 70
     1
  9
$DISPSILH
 70
     0
  9
$DIMSCALE
 40
1.0
  9
$DIMASZ
 40
3.302
  9
$DIMEXO
 40
1.0
  9
$DIMDLI
 40
3.75
  9
$DIMRND
 40
0.0
  9
$DIMDLE
 40
0.0
  9
$DIMEXE
 40
1.0
  9
$DIMTP
 40
0.0
  9
$DIMTM
 40
0.0
  9
$DIMTXT
 40
3.5
  9
$DIMCEN
 40
2.5
  9
$DIMTSZ
 40
0.0
  9
$DIMTOL
 70
     0
  9
$DIMLIM
 70
     0
  9
$DIMTIH
 70
     1
  9
$DIMTOH
 70
     1
  9
$DIMSE1
 70
     0
  9
$DIMSE2
 70
     0
  9
$DIMTAD
 70
     1
  9
$DIMZIN
 70
     1
  9
$DIMBLK
  1

  9
$DIMASO
 70
     1
  9
$DIMSHO
 70
     1
  9
$DIMPOST
  1

  9
$DIMAPOST
  1

  9
$DIMALT
 70
     0
  9
$DIMALTD
 70
     3
  9
$DIMALTF
 40
0.0393700787
  9
$DIMLFAC
 40
1.0
  9
$DIMTOFL
 70
     1
  9
$DIMTVP
 40
0.0
  9
$DIMTIX
 70
     0
  9
$DIMSOXD
 70
     0
  9
$DIMSAH
 70
     0
  9
$DIMBLK1
  1

  9
$DIMBLK2
  1

  9
$DIMSTYLE
  2
ISO-25
  9
$DIMCLRD
 70
     0
  9
$DIMCLRE
 70
     0
  9
$DIMCLRT
 70
     0
  9
$DIMTFAC
 40
1.0
  9
$DIMGAP
 40
1.524
  9
$DIMJUST
 70
     0
  9
$DIMSD1
 70
     0
  9
$DIMSD2
 70
     0
  9
$DIMTOLJ
 70
     0
  9
$DIMTZIN
 70
     1
  9
$DIMALTZ
 70
     0
  9
$DIMALTTZ
 70
     0
  9
$DIMFIT
 70
     3
  9
$DIMUPT
 70
     0
  9
$DIMUNIT
 70
     2
  9
$DIMDEC
 70
     2
  9
$DIMTDEC
 70
     2
  9
$DIMALTU
 70
     2
  9
$DIMALTTD
 70
     3
  9
$DIMTXSTY
  7
STANDARD
  9
$DIMAUNIT
 70
     0
  9
$LUNITS
 70
     2
  9
$LUPREC
 70
     2
  9
$SKETCHINC
 40
1.0
  9
$FILLETRAD
 40
10.0
  9
$AUNITS
 70
     0
  9
$AUPREC
 70
     2
  9
$MENU
  1
.
  9
$ELEVATION
 40
0.0
  9
$PELEVATION
 40
0.0
  9
$THICKNESS
 40
0.0
  9
$LIMCHECK
 70
     0
  9
$CHAMFERA
 40
0.0
  9
$CHAMFERB
 40
0.0
  9
$CHAMFERC
 40
0.0
  9
$CHAMFERD
 40
0.0
  9
$SKPOLY
 70
     0
  9
$TDCREATE
 40
2458935.638721875
  9
$TDUPDATE
 40
2458935.638722106
  9
$TDINDWG
 40
0.0000000116
  9
$TDUSRTIMER
 40
0.0000000116
  9
$USRTIMER
 70
     1
  9
$ANGBASE
 50
0.0
  9
$ANGDIR
 70
     0
  9
$PDMODE
 70
     0
  9
$PDSIZE
 40
-1.0
  9
$PLINEWID
 40
0.0
  9
$COORDS
 70
     1
  9
$SPLFRAME
 70
     0
  9
$SPLINETYPE
 70
     6
  9
$SPLINESEGS
 70
     8
  9
$ATTDIA
 70
     0
  9
$ATTREQ
 70
     1
  9
$HANDLING
 70
     1
  9
$HANDSEED
  5
82
  9
$SURFTAB1
 70
     6
  9
$SURFTAB2
 70
     6
  9
$SURFTYPE
 70
     6
  9
$SURFU
 70
     6
  9
$SURFV
 70
     6
  9
$UCSNAME
  2

  9
$UCSORG
 10
0.0
 20
0.0
 30
0.0
  9
$UCSXDIR
 10
1.0
 20
0.0
 30
0.0
  9
$UCSYDIR
 10
0.0
 20
1.0
 30
0.0
  9
$PUCSNAME
  2

  9
$PUCSORG
 10
0.0
 20
0.0
 30
0.0
  9
$PUCSXDIR
 10
1.0
 20
0.0
 30
0.0
  9
$PUCSYDIR
 10
0.0
 20
1.0
 30
0.0
  9
$USERI1
 70
     0
  9
$USERI2
 70
     0
  9
$USERI3
 70
     0
  9
$USERI4
 70
     0
  9
$USERI5
 70
     0
  9
$USERR1
 40
0.0
  9
$USERR2
 40
0.0
  9
$USERR3
 40
0.0
  9
$USERR4
 40
0.0
  9
$USERR5
 40
0.0
  9
$WORLDVIEW
 70
     1
  9
$SHADEDGE
 70
     3
  9
$SHADEDIF
 70
    70
  9
$TILEMODE
 70
     1
  9
$MAXACTVP
 70
    64
  9
$PINSBASE
 10
0.0
 20
0.0
 30
0.0
  9
$PLIMCHECK
 70
     0
  9
$PEXTMIN
 10
1.0000000000E+20
 20
1.0000000000E+20
 30
1.0000000000E+20
  9
$PEXTMAX
 10
-1.0000000000E+20
 20
-1.0000000000E+20
 30
-1.0000000000E+20
  9
$PLIMMIN
 10
0.0
 20
0.0
  9
$PLIMMAX
 10
420.0
 20
297.0
  9
$UNITMODE
 70
     0
  9
$VISRETAIN
 70
     1
  9
$PLINEGEN
 70
     0
  9
$PSLTSCALE
 70
     1
  9
$TREEDEPTH
 70
  3020
  9
$PICKSTYLE
 70
     1
  9
$CMLSTYLE
  2
STANDARD
  9
$CMLJUST
 70
     0
  9
$CMLSCALE
 40
20.0
  9
$PROXYGRAPHICS
 70
     1
  9
$MEASUREMENT
 70
     1
  0
ENDSEC
  0
SECTION
  2
CLASSES
  0
CLASS
  1
ACDBDICTIONARYWDFLT
  2
AcDbDictionaryWithDefault
  3
ObjectDBX Classes
 90
        0
280
     0
281
     0
  0
CLASS
  1
VISUALSTYLE
  2
AcDbVisualStyle
  3
ObjectDBX Classes
 90
     4095
280
     0
281
     0
  0
CLASS
  1
MATERIAL
  2
AcDbMaterial
  3
ObjectDBX Classes
 90
     1153
280
     0
281
     0
  0
CLASS
  1
SCALE
  2
AcDbScale
  3
ObjectDBX Classes
 90
     1153
280
     0
281
     0
  0
CLASS
  1
TABLESTYLE
  2
AcDbTableStyle
  3
ObjectDBX Classes
 90
     4095
280
     0
281
     0
  0
CLASS
  1
MLEADERSTYLE
  2
AcDbMLeaderStyle
  3
ACDB_MLEADERSTYLE_CLASS
 90
     4095
280
     0
281
     0
  0
CLASS
  1
SUN
  2
AcDbSun
  3
SCENEOE
 90
     1153
280
     0
281
     0
  0
CLASS
  1
XRECORD
  2
AcDbXrecord
  3
ObjectDBX Classes
 90
        0
280
     0
281
     0
  0
CLASS
  1
LWPOLYLINE
  2
AcDbPolyline
  3
ObjectDBX Classes
 90
        0
280
     0
281
     1
  0
CLASS
  1
HATCH
  2
AcDbHatch
  3
ObjectDBX Classes
 90
        0
280
     0
281
     1
  0
ENDSEC
  0
SECTION
  2
TABLES
  0
TABLE
  2
VPORT
  5
8
330
0
100
AcDbSymbolTable
 70
     1
  0
VPORT
  5
29
330
8
100
AcDbSymbolTableRecord
100
AcDbViewportTableRecord
  2
*ACTIVE
 70
     0
 10
0.0
 20
0.0
 11
1.0
 21
1.0
 12
250.0
 22
250.0
 13
0.0
 23
0.0
 14
10.0
 24
10.0
 15
10.0
 25
10.0
 16
0.0
 26
0.0
 36
1.0
 17
0.0
 27
0.0
 37
0.0
 40
500.0
 41
1.0
 42
50.0
 43
0.0
 44
0.0
 50
0.0
 51
0.0
 71
     0
 72
  2000
 73
     1
 74
     3
 75
     0
 76
     0
 77
     0
 78
     0
  0
ENDTAB
  0
TABLE
  2
LTYPE
  5
5
330
0
100
AcDbSymbolTable
 70
     6
  0
LTYPE
  5
14
330
5
100
AcDbSymbolTableRecord
100
AcDbLinetypeTableRecord
  2
BYBLOCK
 70
     0
  3

 72
    65
 73
     0
 40
0.0
  0
LTYPE
  5
15
330
5
100
AcDbSymbolTableRecord
100
AcDbLinetypeTableRecord
  2
BYLAYER
 70
     0
  3

 72
    65
 73
     0
 40
0.0
  0
LTYPE
  5
16
330
5
100
AcDbSymbolTableRecord
100
AcDbLinetypeTableRecord
  2
CONTINUOUS
 70
     0
  3
Solid line
 72
    65
 73
     0
 40
0.0
  0
LTYPE
  5
6E
330
5
100
AcDbSymbolTableRecord
100
AcDbLinetypeTableRecord
  2
HIDDEN
 70
     0
  3
Hidden __ __ __ __ __ __ __ __ __ __ __ __ __ __
 72
    65
 73
     2
 40
1.905
 49
1.27
 74
     0
 49
-0.635
 74
     0
  0
LTYPE
  5
6F
330
5
100
AcDbSymbolTableRecord
100
AcDbLinetypeTableRecord
  2
PHANTOM
 70
     0
  3
Phantom ______  __  __  ______  __  __  ______
 72
    65
 73
     6
 40
12.7
 49
6.35
 74
     0
 49
-1.27
 74
     0
 49
1.27
 74
     0
 49
-1.27
 74
     0
 49
1.27
 74
     0
 49
-1.27
 74
     0
  0
LTYPE
  5
70
330
5
100
AcDbSymbolTableRecord
100
AcDbLinetypeTableRecord
  2
CENTER
 70
     0
  3
Center ____ _ ____ _ ____ _ ____ _ ____ _ ____
 72
    65
 73
     4
 40
10.16
 49
6.35
 74
     0
 49
-1.27
 74
     0
 49
1.27
 74
     0
 49
-1.27
 74
     0
  0
LTYPE
  5
71
330
5
100
AcDbSymbolTableRecord
100
AcDbLinetypeTableRecord
  2
CENTERX2
 70
     0
  3
Center (2x) ________  __  ________  __  _____
 72
    65
 73
     4
 40
20.32
 49
12.7
 74
     0
 49
-2.54
 74
     0
 49
2.54
 74
     0
 49
-2.54
 74
     0
  0
LTYPE
  5
72
330
5
100
AcDbSymbolTableRecord
100
AcDbLinetypeTableRecord
  2
DOT2
 70
     0
  3
Dot (.5x) ........................................
 72
    65
 73
     2
 40
0.635
 49
0.0
 74
     0
 49
-0.635
 74
     0
  0
ENDTAB
  0
TABLE
  2
LAYER
  5
2
330
0
100
AcDbSymbolTable
 70
     2
  0
LAYER
  5
10
330
2
100
AcDbSymbolTableRecord
100
AcDbLayerTableRecord
  2
0
 70
     0
 62
     7
  6
CONTINUOUS
  0
LAYER
  5
73
330
2
100
AcDbSymbolTableRecord
100
AcDbLayerTableRecord
  2
DEFAULT
 70
     0
 62
     7
  6
CONTINUOUS
  0
ENDTAB
  0
TABLE
  2
STYLE
  5
3
330
0
100
AcDbSymbolTable
 70
     1
  0
STYLE
  5
11
330
3
100
AcDbSymbolTableRecord
100
AcDbTextStyleTableRecord
  2
STANDARD
 70
     0
 40
0.0
 41
1.0
 50
0.0
 71
     0
 42
3.5
  3
txt
  4

  0
ENDTAB
  0
TABLE
  2
VIEW
  5
6
330
0
100
AcDbSymbolTable
 70
     0
  0
ENDTAB
  0
TABLE
  2
UCS
  5
7
330
0
100
AcDbSymbolTable
 70
     0
  0
ENDTAB
  0
TABLE
  2
APPID
  5
9
330
0
100
AcDbSymbolTable
 70
     1
  0
APPID
  5
12
330
9
100
AcDbSymbolTableRecord
100
AcDbRegAppTableRecord
  2
ACAD
 70
     0
  0
ENDTAB
  0
TABLE
  2
DIMSTYLE
  5
A
330
0
100
AcDbSymbolTable
 70
     1
  0
DIMSTYLE
105
27
330
A
100
AcDbSymbolTableRecord
100
AcDbDimStyleTableRecord
  2
ISO-25
 70
     0
  3

  4

  5

  6

  7

 40
1.0
 41
2.5
 42
0.625
 43
3.75
 44
1.25
 45
0.0
 46
0.0
 47
0.0
 48
0.0
140
2.5
141
2.5
142
0.0
143
0.0393700787
144
1.0
145
0.0
146
1.0
147
0.625
 71
     0
 72
     0
 73
     0
 74
     0
 75
     0
 76
     0
 77
     1
 78
     8
170
     0
171
     3
172
     1
173
     0
174
     0
175
     0
176
     0
177
     0
178
     0
270
     2
271
     2
272
     2
273
     2
274
     3
340
11
275
     0
280
     0
281
     0
282
     0
283
     0
284
     8
285
     0
286
     0
287
     3
288
     0
  0
ENDTAB
  0
TABLE
  2
BLOCK_RECORD
  5
1
330
0
100
AcDbSymbolTable
 70
     1
  0
BLOCK_RECORD
  5
1F
330
1
100
AcDbSymbolTableRecord
100
AcDbBlockTableRecord
  2
*MODEL_SPACE
  0
BLOCK_RECORD
  5
1B
330
1
100
AcDbSymbolTableRecord
100
AcDbBlockTableRecord
  2
*PAPER_SPACE
  0
BLOCK_RECORD
  5
23
330
1
100
AcDbSymbolTableRecord
100
AcDbBlockTableRecord
  2
*PAPER_SPACE0
  0
ENDTAB
  0
ENDSEC
  0
SECTION
  2
BLOCKS
  0
BLOCK
  5
20
330
1F
100
AcDbEntity
  8
0
100
AcDbBlockBegin
  2
*MODEL_SPACE
 70
     0
 10
0.0
 20
0.0
 30
0.0
  3
*MODEL_SPACE
  1

  0
ENDBLK
  5
21
330
1F
100
AcDbEntity
  8
0
100
AcDbBlockEnd
  0
BLOCK
  5
1C
330
1B
100
AcDbEntity
 67
     1
  8
0
100
AcDbBlockBegin
  2
*PAPER_SPACE
 70
     0
 10
0.0
 20
0.0
 30
0.0
  3
*PAPER_SPACE
  1

  0
ENDBLK
  5
1D
330
1B
100
AcDbEntity
 67
     1
  8
0
100
AcDbBlockEnd
  0
BLOCK
  5
24
330
23
100
AcDbEntity
  8
0
100
AcDbBlockBegin
  2
*PAPER_SPACE0
 70
     0
 10
0.0
 20
0.0
 30
0.0
  3
*PAPER_SPACE0
  1

  0
ENDBLK
  5
25
330
23
100
AcDbEntity
  8
0
100
AcDbBlockEnd
  0
ENDSEC
  0
SECTION
  2
ENTITIES
  0
SPLINE
  5
74
330
1F
100
AcDbEntity
  8
0
  6
CONTINUOUS
 62
     7
100
AcDbSpline
210
0.0
220
0.0
230
1.0
 70
    11
 71
     3
 72
    54
 73
    50
 74
     0
 42
0.000000001
 43
0.00000001
 40
0.0
 40
0.0
 40
0.0
 40
0.0
 40
0.0625000000000028
 40
0.0625000000000028
 40
0.0937500000000031
 40
0.0937500000000031
 40
0.1250000000000034
 40
0.1250000000000034
 40
0.1562500000000037
 40
0.1562500000000037
 40
0.1875000000000041
 40
0.1875000000000041
 40
0.2500000000000043
 40
0.2500000000000043
 40
0.3125000000000045
 40
0.3125000000000045
 40
0.3437500000000046
 40
0.3437500000000046
 40
0.3750000000000047
 40
0.3750000000000047
 40
0.4062500000000048
 40
0.4062500000000048
 40
0.4375000000000049
 40
0.4375000000000049
 40
0.500000000000006
 40
0.500000000000006
 40
0.5625000000000072
 40
0.5625000000000072
 40
0.5937500000000067
 40
0.5937500000000067
 40
0.6250000000000062
 40
0.6250000000000062
 40
0.6562500000000057
 40
0.6562500000000057
 40
0.6875000000000052
 40
0.6875000000000052
 40
0.7500000000000037
 40
0.7500000000000037
 40
0.8125000000000022
 40
0.8125000000000022
 40
0.8437500000000016
 40
0.8437500000000016
 40
0.8750000000000008
 40
0.8750000000000008
 40
0.9062500000000001
 40
0.9062500000000001
 40
0.9374999999999993
 40
0.9374999999999993
 40
1.0
 40
1.0
 40
1.0
 40
1.0
 10
303.1798858773599
 20
222.7914917686446
 30
0.0
 10
303.1798858773599
 20
223.4102102021828
 30
0.0
 10
303.2926492561309
 20
224.0777300043291
 30
0.0
 10
303.6764213171078
 20
225.0471184886021
 30
0.0
 10
303.8394346332417
 20
225.3642034308473
 30
0.0
 10
304.2318842536823
 20
225.9644825169859
 30
0.0
 10
304.4612937096687
 20
226.2475208034123
 30
0.0
 10
304.9738568425923
 20
226.7600839363357
 30
0.0
 10
305.2568951290186
 20
226.9894933923223
 30
0.0
 10
305.8571742151572
 20
227.3819430127629
 30
0.0
 10
306.1742591574024
 20
227.5449563288967
 30
0.0
 10
307.1436476416753
 20
227.9287283898738
 30
0.0
 10
307.8111674438217
 20
228.0414917686446
 30
0.0
 10
309.048604310898
 20
228.0414917686446
 30
0.0
 10
309.7161241130444
 20
227.9287283898739
 30
0.0
 10
310.6855125973174
 20
227.5449563288968
 30
0.0
 10
311.0025975395627
 20
227.3819430127628
 30
0.0
 10
311.6028766257012
 20
226.9894933923224
 30
0.0
 10
311.8859149121275
 20
226.7600839363358
 30
0.0
 10
312.398478045051
 20
226.2475208034123
 30
0.0
 10
312.6278875010374
 20
225.9644825169859
 30
0.0
 10
313.020337121478
 20
225.3642034308474
 30
0.0
 10
313.1833504376119
 20
225.0471184886023
 30
0.0
 10
313.5671224985891
 20
224.0777300043292
 30
0.0
 10
313.6798858773598
 20
223.4102102021829
 30
0.0
 10
313.6798858773599
 20
222.1727733351065
 30
0.0
 10
313.5671224985891
 20
221.5052535329604
 30
0.0
 10
313.183350437612
 20
220.5358650486872
 30
0.0
 10
313.020337121478
 20
220.218780106442
 30
0.0
 10
312.6278875010375
 20
219.6185010203034
 30
0.0
 10
312.3984780450511
 20
219.3354627338772
 30
0.0
 10
311.8859149121276
 20
218.8228996009536
 30
0.0
 10
311.6028766257012
 20
218.593490144967
 30
0.0
 10
311.0025975395627
 20
218.2010405245265
 30
0.0
 10
310.6855125973175
 20
218.0380272083927
 30
0.0
 10
309.7161241130444
 20
217.6542551474155
 30
0.0
 10
309.0486043108982
 20
217.5414917686446
 30
0.0
 10
307.8111674438217
 20
217.5414917686446
 30
0.0
 10
307.1436476416756
 20
217.6542551474155
 30
0.0
 10
306.1742591574024
 20
218.0380272083925
 30
0.0
 10
305.8571742151573
 20
218.2010405245265
 30
0.0
 10
305.2568951290187
 20
218.593490144967
 30
0.0
 10
304.9738568425923
 20
218.8228996009535
 30
0.0
 10
304.4612937096688
 20
219.335462733877
 30
0.0
 10
304.2318842536824
 20
219.6185010203034
 30
0.0
 10
303.8394346332418
 20
220.2187801064419
 30
0.0
 10
303.6764213171078
 20
220.535865048687
 30
0.0
 10
303.2926492561307
 20
221.5052535329601
 30
0.0
 10
303.1798858773599
 20
222.1727733351064
 30
0.0
 10
303.1798858773599
 20
222.7914917686446
 30
0.0
  0
SPLINE
  5
75
330
1F
100
AcDbEntity
  8
0
  6
CONTINUOUS
 62
     7
100
AcDbSpline
210
0.0
220
0.0
230
1.0
 70
    11
 71
     3
 72
    54
 73
    50
 74
     0
 42
0.000000001
 43
0.00000001
 40
0.0
 40
0.0
 40
0.0
 40
0.0
 40
0.0625000000000006
 40
0.0625000000000006
 40
0.0937500000000004
 40
0.0937500000000004
 40
0.1250000000000003
 40
0.1250000000000003
 40
0.1562500000000001
 40
0.1562500000000001
 40
0.1874999999999999
 40
0.1874999999999999
 40
0.2499999999999996
 40
0.2499999999999996
 40
0.3124999999999993
 40
0.3124999999999993
 40
0.3437499999999996
 40
0.3437499999999996
 40
0.3749999999999998
 40
0.3749999999999998
 40
0.4062500000000002
 40
0.4062500000000002
 40
0.4375000000000004
 40
0.4375000000000004
 40
0.500000000000002
 40
0.500000000000002
 40
0.5625000000000034
 40
0.5625000000000034
 40
0.5937500000000027
 40
0.5937500000000027
 40
0.6250000000000019
 40
0.6250000000000019
 40
0.656250000000001
 40
0.656250000000001
 40
0.6875000000000002
 40
0.6875000000000002
 40
0.7499999999999993
 40
0.7499999999999993
 40
0.8124999999999987
 40
0.8124999999999987
 40
0.8437499999999988
 40
0.8437499999999988
 40
0.8749999999999988
 40
0.8749999999999988
 40
0.9062499999999989
 40
0.9062499999999989
 40
0.937499999999999
 40
0.937499999999999
 40
1.0
 40
1.0
 40
1.0
 40
1.0
 10
303.1798858773588
 20
328.1999993059264
 30
0.0
 10
303.1798858773588
 20
328.8187177394647
 30
0.0
 10
303.2926492561298
 20
329.4862375416108
 30
0.0
 10
303.6764213171066
 20
330.455626025884
 30
0.0
 10
303.8394346332407
 20
330.7727109681292
 30
0.0
 10
304.2318842536812
 20
331.3729900542677
 30
0.0
 10
304.4612937096676
 20
331.6560283406941
 30
0.0
 10
304.9738568425911
 20
332.1685914736175
 30
0.0
 10
305.2568951290176
 20
332.3980009296042
 30
0.0
 10
305.8571742151562
 20
332.7904505500447
 30
0.0
 10
306.1742591574013
 20
332.9534638661785
 30
0.0
 10
307.1436476416744
 20
333.3372359271556
 30
0.0
 10
307.8111674438205
 20
333.4499993059265
 30
0.0
 10
309.048604310897
 20
333.4499993059265
 30
0.0
 10
309.7161241130435
 20
333.3372359271558
 30
0.0
 10
310.6855125973162
 20
332.9534638661786
 30
0.0
 10
311.0025975395614
 20
332.7904505500446
 30
0.0
 10
311.6028766257
 20
332.3980009296042
 30
0.0
 10
311.8859149121265
 20
332.1685914736178
 30
0.0
 10
312.39847804505
 20
331.6560283406942
 30
0.0
 10
312.6278875010364
 20
331.3729900542679
 30
0.0
 10
313.0203371214769
 20
330.7727109681292
 30
0.0
 10
313.1833504376108
 20
330.455626025884
 30
0.0
 10
313.567122498588
 20
329.4862375416109
 30
0.0
 10
313.6798858773587
 20
328.8187177394648
 30
0.0
 10
313.6798858773587
 20
327.5812808723882
 30
0.0
 10
313.567122498588
 20
326.9137610702422
 30
0.0
 10
313.1833504376109
 20
325.9443725859689
 30
0.0
 10
313.0203371214769
 20
325.6272876437238
 30
0.0
 10
312.6278875010364
 20
325.0270085575852
 30
0.0
 10
312.3984780450499
 20
324.7439702711588
 30
0.0
 10
311.8859149121263
 20
324.2314071382353
 30
0.0
 10
311.6028766257002
 20
324.0019976822488
 30
0.0
 10
311.0025975395616
 20
323.6095480618083
 30
0.0
 10
310.6855125973164
 20
323.4465347456744
 30
0.0
 10
309.7161241130434
 20
323.0627626846972
 30
0.0
 10
309.0486043108971
 20
322.9499993059265
 30
0.0
 10
307.8111674438206
 20
322.9499993059264
 30
0.0
 10
307.1436476416744
 20
323.0627626846972
 30
0.0
 10
306.1742591574013
 20
323.4465347456743
 30
0.0
 10
305.8571742151562
 20
323.6095480618082
 30
0.0
 10
305.2568951290177
 20
324.0019976822488
 30
0.0
 10
304.9738568425912
 20
324.2314071382352
 30
0.0
 10
304.4612937096677
 20
324.7439702711587
 30
0.0
 10
304.2318842536812
 20
325.0270085575851
 30
0.0
 10
303.8394346332407
 20
325.6272876437236
 30
0.0
 10
303.6764213171068
 20
325.9443725859689
 30
0.0
 10
303.2926492561297
 20
326.9137610702419
 30
0.0
 10
303.1798858773589
 20
327.5812808723881
 30
0.0
 10
303.1798858773589
 20
328.1999993059264
 30
0.0
  0
LINE
  5
76
330
1F
100
AcDbEntity
  8
0
  6
CONTINUOUS
 62
     7
100
AcDbLine
 10
301.4298882615
 20
338.1999981138
 30
0.0
 11
301.4298882615
 21
343.1999933455
 31
0.0
  0
LINE
  5
77
330
1F
100
AcDbEntity
  8
0
  6
CONTINUOUS
 62
     7
100
AcDbLine
 10
301.4298882615
 20
343.1999933455
 30
0.0
 11
316.4298888576
 21
343.1999933455
 31
0.0
  0
LINE
  5
78
330
1F
100
AcDbEntity
  8
0
  6
CONTINUOUS
 62
     7
100
AcDbLine
 10
316.4298888576
 20
211.2000015113
 30
0.0
 11
316.4298888576
 21
343.1999933455
 31
0.0
  0
LINE
  5
79
330
1F
100
AcDbEntity
  8
0
  6
CONTINUOUS
 62
     7
100
AcDbLine
 10
300.429886235
 20
211.2000015113
 30
0.0
 11
316.4298888576
 21
211.2000015113
 31
0.0
  0
LINE
  5
7A
330
1F
100
AcDbEntity
  8
0
  6
CONTINUOUS
 62
     7
100
AcDbLine
 10
300.429886235
 20
252.2293728325
 30
0.0
 11
300.429886235
 21
211.2000015113
 31
0.0
  0
LWPOLYLINE
  5
7B
330
1F
100
AcDbEntity
  8
0
  6
CONTINUOUS
 62
     7
100
AcDbPolyline
 90
        3
 70
   128
 43
0.0
 10
302.9298838508
 20
256.7000043127
 10
301.5298899543
 20
254.1964453194
 10
300.429886235
 20
252.2293728325
  0
LWPOLYLINE
  5
7C
330
1F
100
AcDbEntity
  8
0
  6
CONTINUOUS
 62
     7
100
AcDbPolyline
 90
        3
 70
   128
 43
0.0
 10
300.429886235
 20
257.8001421425
 10
301.8298801315
 20
257.1840685341
 10
302.9298838508
 20
256.7000043127
  0
LINE
  5
7D
330
1F
100
AcDbEntity
  8
0
  6
CONTINUOUS
 62
     7
100
AcDbLine
 10
300.429886235
 20
269.1999923918
 30
0.0
 11
300.429886235
 21
257.8001421425
 31
0.0
  0
SPLINE
  5
7E
330
1F
100
AcDbEntity
  8
0
  6
CONTINUOUS
 62
     7
100
AcDbSpline
210
0.0
220
0.0
230
1.0
 70
     8
 71
     3
 72
    14
 73
    10
 74
     0
 42
0.000000001
 43
0.00000001
 40
0.0
 40
0.0
 40
0.0
 40
0.0
 40
0.25
 40
0.25
 40
0.5
 40
0.5
 40
0.75
 40
0.75
 40
1.0
 40
1.0
 40
1.0
 40
1.0
 10
300.4298873673518
 20
269.1999993059264
 30
0.0
 10
300.4298873673519
 20
269.6714038267174
 30
0.0
 10
300.3439724120979
 20
270.1799903426384
 30
0.0
 10
299.9541087311052
 20
271.1647659457093
 30
0.0
 10
299.6488387838492
 20
271.6379021389213
 30
0.0
 10
298.8677902003467
 20
272.4189507224238
 30
0.0
 10
298.3946540071348
 20
272.7242206696797
 30
0.0
 10
297.4098784040638
 20
273.1140843506724
 30
0.0
 10
296.9012918881428
 20
273.1999993059263
 30
0.0
 10
296.4298873673517
 20
273.1999993059263
 30
0.0
  0
LINE
  5
7F
330
1F
100
AcDbEntity
  8
0
  6
CONTINUOUS
 62
     7
100
AcDbLine
 10
266.8579872978
 20
273.200000498
 30
0.0
 11
296.4298930299
 21
273.200000498
 31
0.0
  0
SPLINE
  5
80
330
1F
100
AcDbEntity
  8
0
  6
CONTINUOUS
 62
     7
100
AcDbSpline
210
0.0
220
0.0
230
1.0
 70
     8
 71
     3
 72
    14
 73
    10
 74
     0
 42
0.000000001
 43
0.00000001
 40
0.0
 40
0.0
 40
0.0
 40
0.0
 40
0.25
 40
0.25
 40
0.5
 40
0.5
 40
0.75
 40
0.75
 40
1.0
 40
1.0
 40
1.0
 40
1.0
 10
261.9532216144542
 20
292.597176577059
 30
0.0
 10
262.9684292823189
 20
291.2745789041731
 30
0.0
 10
263.8726194666563
 20
289.822953378999
 30
0.0
 10
265.3790890544293
 20
286.7303729625414
 30
0.0
 10
265.9808015856224
 20
285.0899058165683
 30
0.0
 10
266.8330713004966
 20
281.7193827271217
 30
0.0
 10
267.0834393666544
 20
279.9900746982672
 30
0.0
 10
267.2280244278038
 20
276.5531284648742
 30
0.0
 10
267.1225083229057
 20
274.8461888331367
 30
0.0
 10
266.8579875227473
 20
273.199999305926
 30
0.0
  0
SPLINE
  5
81
330
1F
100
AcDbEntity
  8
0
  6
CONTINUOUS
 62
     7
100
AcDbSpline
210
0.0
220
0.0
230
1.0
 70
     8
 71
     3
 72
    22
 73
    18
 74
     0
 42
0.000000001
 43
0.00000001
 40
0.0
 40
0.0
 40
0.0
 40
0.0
 40
0.125
 40
0.125
 40
0.25
 40
0.25
 40
0.375
 40
0.375
 40
0.5
 40
0.5
 40
0.625
 40
0.625
 40
0.75
 40
0.75
 40
0.875
 40
0.875
 40
1.0
 40
1.0
 40
1.0
 40
1.0
 10
301.4298858773571
 20
338.1999993059248
 30
0.0
 10
301.3481952847678
 20
335.6881590764628
 30
0.0
 10
301.065512286959
 20
333.1115790938634
 30
0.0
 10
300.0464548896326
 20
327.926598072809
 30
0.0
 10
299.3096640970867
 20
325.3185720719194
 30
0.0
 10
297.3627513300993
 20
320.1905627478001
 30
0.0
 10
296.152424615192
 20
317.6711708118401
 30
0.0
 10
293.2817401644601
 20
312.8474982374344
 30
0.0
 10
291.6215064406322
 20
310.5438760380793
 30
0.0
 10
287.9188233134331
 20
306.2665946257918
 30
0.0
 10
285.8768226744693
 20
304.2934538184572
 30
0.0
 10
281.5141866367723
 20
300.7613081358253
 30
0.0
 10
279.1941851177992
 20
299.202520326096
 30
0.0
 10
274.3980054685277
 20
296.5410151650214
 30
0.0
 10
271.9224419573952
 20
295.4381799118457
 30
0.0
 10
266.9369468751623
 20
293.6867961866813
 30
0.0
 10
264.4274461283035
 20
293.0378893478383
 30
0.0
 10
261.9532216144542
 20
292.597176577059
 30
0.0
  0
ENDSEC
  0
SECTION
  2
OBJECTS
  0
DICTIONARY
  5
C
330
0
100
AcDbDictionary
  3
ACAD_GROUP
350
D
  3
ACAD_MLINESTYLE
350
17
  3
ACAD_SCALELIST
350
47
  0
DICTIONARY
  5
D
102
{ACAD_REACTORS
330
C
102
}
330
C
100
AcDbDictionary
  0
DICTIONARY
  5
17
102
{ACAD_REACTORS
330
C
102
}
330
C
100
AcDbDictionary
  3
STANDARD
350
18
  0
DICTIONARY
  5
47
102
{ACAD_REACTORS
330
C
102
}
330
C
100
AcDbDictionary
  0
MLINESTYLE
  5
18
102
{ACAD_REACTORS
330
17
102
}
330
17
100
AcDbMlineStyle
  2
Standard
 70
     0
  3

 62
   256
 51
90.0
 52
90.0
 71
     2
 49
0.5
 62
   256
  6
BYLAYER
 49
-0.5
 62
   256
  6
BYLAYER
  0
ENDSEC
  0
EOF
