  0
SECTION
  2
HEADER
  9
$ACADVER
  1
AC1014
  9
$ACADMAINTVER
 70
     9
  9
$DWGCODEPAGE
  3
ANSI_1252
  9
$INSBASE
 10
0.0
 20
0.0
 30
0.0
  9
$EXTMIN
 10
0.0
 20
0.0
 30
0.0
  9
$EXTMAX
 10
500.0
 20
500.0
 30
0.0
  9
$LIMMIN
 10
0.0
 20
0.0
  9
$LIMMAX
 10
500.0
 20
500.0
  9
$ORTHOMODE
 70
     0
  9
$REGENMODE
 70
     1
  9
$FILLMODE
 70
     1
  9
$QTEXTMODE
 70
     0
  9
$MIRRTEXT
 70
     1
  9
$DRAGMODE
 70
     2
  9
$LTSCALE
 40
1.0
  9
$OSMODE
 70
    37
  9
$ATTMODE
 70
     1
  9
$TEXTSIZE
 40
3.5
  9
$TRACEWID
 40
1.0
  9
$TEXTSTYLE
  7
STANDARD
  9
$CLAYER
  8
0
  9
$CELTYPE
  6
BYLAYER
  9
$CECOLOR
 62
   256
  9
$CELTSCALE
 40
1.0
  9
$DELOBJ
 70
     1
  9
$DISPSILH
 70
     0
  9
$DIMSCALE
 40
1.0
  9
$DIMASZ
 40
3.302
  9
$DIMEXO
 40
1.0
  9
$DIMDLI
 40
3.75
  9
$DIMRND
 40
0.0
  9
$DIMDLE
 40
0.0
  9
$DIMEXE
 40
1.0
  9
$DIMTP
 40
0.0
  9
$DIMTM
 40
0.0
  9
$DIMTXT
 40
3.5
  9
$DIMCEN
 40
2.5
  9
$DIMTSZ
 40
0.0
  9
$DIMTOL
 70
     0
  9
$DIMLIM
 70
     0
  9
$DIMTIH
 70
     1
  9
$DIMTOH
 70
     1
  9
$DIMSE1
 70
     0
  9
$DIMSE2
 70
     0
  9
$DIMTAD
 70
     1
  9
$DIMZIN
 70
     1
  9
$DIMBLK
  1

  9
$DIMASO
 70
     1
  9
$DIMSHO
 70
     1
  9
$DIMPOST
  1

  9
$DIMAPOST
  1

  9
$DIMALT
 70
     0
  9
$DIMALTD
 70
     3
  9
$DIMALTF
 40
0.0393700787
  9
$DIMLFAC
 40
1.0
  9
$DIMTOFL
 70
     1
  9
$DIMTVP
 40
0.0
  9
$DIMTIX
 70
     0
  9
$DIMSOXD
 70
     0
  9
$DIMSAH
 70
     0
  9
$DIMBLK1
  1

  9
$DIMBLK2
  1

  9
$DIMSTYLE
  2
ISO-25
  9
$DIMCLRD
 70
     0
  9
$DIMCLRE
 70
     0
  9
$DIMCLRT
 70
     0
  9
$DIMTFAC
 40
1.0
  9
$DIMGAP
 40
1.524
  9
$DIMJUST
 70
     0
  9
$DIMSD1
 70
     0
  9
$DIMSD2
 70
     0
  9
$DIMTOLJ
 70
     0
  9
$DIMTZIN
 70
     1
  9
$DIMALTZ
 70
     0
  9
$DIMALTTZ
 70
     0
  9
$DIMFIT
 70
     3
  9
$DIMUPT
 70
     0
  9
$DIMUNIT
 70
     2
  9
$DIMDEC
 70
     2
  9
$DIMTDEC
 70
     2
  9
$DIMALTU
 70
     2
  9
$DIMALTTD
 70
     3
  9
$DIMTXSTY
  7
STANDARD
  9
$DIMAUNIT
 70
     0
  9
$LUNITS
 70
     2
  9
$LUPREC
 70
     2
  9
$SKETCHINC
 40
1.0
  9
$FILLETRAD
 40
10.0
  9
$AUNITS
 70
     0
  9
$AUPREC
 70
     2
  9
$MENU
  1
.
  9
$ELEVATION
 40
0.0
  9
$PELEVATION
 40
0.0
  9
$THICKNESS
 40
0.0
  9
$LIMCHECK
 70
     0
  9
$CHAMFERA
 40
0.0
  9
$CHAMFERB
 40
0.0
  9
$CHAMFERC
 40
0.0
  9
$CHAMFERD
 40
0.0
  9
$SKPOLY
 70
     0
  9
$TDCREATE
 40
2458935.639114595
  9
$TDUPDATE
 40
2458935.639114826
  9
$TDINDWG
 40
0.0000000116
  9
$TDUSRTIMER
 40
0.0000000116
  9
$USRTIMER
 70
     1
  9
$ANGBASE
 50
0.0
  9
$ANGDIR
 70
     0
  9
$PDMODE
 70
     0
  9
$PDSIZE
 40
-1.0
  9
$PLINEWID
 40
0.0
  9
$COORDS
 70
     1
  9
$SPLFRAME
 70
     0
  9
$SPLINETYPE
 70
     6
  9
$SPLINESEGS
 70
     8
  9
$ATTDIA
 70
     0
  9
$ATTREQ
 70
     1
  9
$HANDLING
 70
     1
  9
$HANDSEED
  5
82
  9
$SURFTAB1
 70
     6
  9
$SURFTAB2
 70
     6
  9
$SURFTYPE
 70
     6
  9
$SURFU
 70
     6
  9
$SURFV
 70
     6
  9
$UCSNAME
  2

  9
$UCSORG
 10
0.0
 20
0.0
 30
0.0
  9
$UCSXDIR
 10
1.0
 20
0.0
 30
0.0
  9
$UCSYDIR
 10
0.0
 20
1.0
 30
0.0
  9
$PUCSNAME
  2

  9
$PUCSORG
 10
0.0
 20
0.0
 30
0.0
  9
$PUCSXDIR
 10
1.0
 20
0.0
 30
0.0
  9
$PUCSYDIR
 10
0.0
 20
1.0
 30
0.0
  9
$USERI1
 70
     0
  9
$USERI2
 70
     0
  9
$USERI3
 70
     0
  9
$USERI4
 70
     0
  9
$USERI5
 70
     0
  9
$USERR1
 40
0.0
  9
$USERR2
 40
0.0
  9
$USERR3
 40
0.0
  9
$USERR4
 40
0.0
  9
$USERR5
 40
0.0
  9
$WORLDVIEW
 70
     1
  9
$SHADEDGE
 70
     3
  9
$SHADEDIF
 70
    70
  9
$TILEMODE
 70
     1
  9
$MAXACTVP
 70
    64
  9
$PINSBASE
 10
0.0
 20
0.0
 30
0.0
  9
$PLIMCHECK
 70
     0
  9
$PEXTMIN
 10
1.0000000000E+20
 20
1.0000000000E+20
 30
1.0000000000E+20
  9
$PEXTMAX
 10
-1.0000000000E+20
 20
-1.0000000000E+20
 30
-1.0000000000E+20
  9
$PLIMMIN
 10
0.0
 20
0.0
  9
$PLIMMAX
 10
420.0
 20
297.0
  9
$UNITMODE
 70
     0
  9
$VISRETAIN
 70
     1
  9
$PLINEGEN
 70
     0
  9
$PSLTSCALE
 70
     1
  9
$TREEDEPTH
 70
  3020
  9
$PICKSTYLE
 70
     1
  9
$CMLSTYLE
  2
STANDARD
  9
$CMLJUST
 70
     0
  9
$CMLSCALE
 40
20.0
  9
$PROXYGRAPHICS
 70
     1
  9
$MEASUREMENT
 70
     1
  0
ENDSEC
  0
SECTION
  2
CLASSES
  0
CLASS
  1
ACDBDICTIONARYWDFLT
  2
AcDbDictionaryWithDefault
  3
ObjectDBX Classes
 90
        0
280
     0
281
     0
  0
CLASS
  1
VISUALSTYLE
  2
AcDbVisualStyle
  3
ObjectDBX Classes
 90
     4095
280
     0
281
     0
  0
CLASS
  1
MATERIAL
  2
AcDbMaterial
  3
ObjectDBX Classes
 90
     1153
280
     0
281
     0
  0
CLASS
  1
SCALE
  2
AcDbScale
  3
ObjectDBX Classes
 90
     1153
280
     0
281
     0
  0
CLASS
  1
TABLESTYLE
  2
AcDbTableStyle
  3
ObjectDBX Classes
 90
     4095
280
     0
281
     0
  0
CLASS
  1
MLEADERSTYLE
  2
AcDbMLeaderStyle
  3
ACDB_MLEADERSTYLE_CLASS
 90
     4095
280
     0
281
     0
  0
CLASS
  1
SUN
  2
AcDbSun
  3
SCENEOE
 90
     1153
280
     0
281
     0
  0
CLASS
  1
XRECORD
  2
AcDbXrecord
  3
ObjectDBX Classes
 90
        0
280
     0
281
     0
  0
CLASS
  1
LWPOLYLINE
  2
AcDbPolyline
  3
ObjectDBX Classes
 90
        0
280
     0
281
     1
  0
CLASS
  1
HATCH
  2
AcDbHatch
  3
ObjectDBX Classes
 90
        0
280
     0
281
     1
  0
ENDSEC
  0
SECTION
  2
TABLES
  0
TABLE
  2
VPORT
  5
8
330
0
100
AcDbSymbolTable
 70
     1
  0
VPORT
  5
29
330
8
100
AcDbSymbolTableRecord
100
AcDbViewportTableRecord
  2
*ACTIVE
 70
     0
 10
0.0
 20
0.0
 11
1.0
 21
1.0
 12
250.0
 22
250.0
 13
0.0
 23
0.0
 14
10.0
 24
10.0
 15
10.0
 25
10.0
 16
0.0
 26
0.0
 36
1.0
 17
0.0
 27
0.0
 37
0.0
 40
500.0
 41
1.0
 42
50.0
 43
0.0
 44
0.0
 50
0.0
 51
0.0
 71
     0
 72
  2000
 73
     1
 74
     3
 75
     0
 76
     0
 77
     0
 78
     0
  0
ENDTAB
  0
TABLE
  2
LTYPE
  5
5
330
0
100
AcDbSymbolTable
 70
     6
  0
LTYPE
  5
14
330
5
100
AcDbSymbolTableRecord
100
AcDbLinetypeTableRecord
  2
BYBLOCK
 70
     0
  3

 72
    65
 73
     0
 40
0.0
  0
LTYPE
  5
15
330
5
100
AcDbSymbolTableRecord
100
AcDbLinetypeTableRecord
  2
BYLAYER
 70
     0
  3

 72
    65
 73
     0
 40
0.0
  0
LTYPE
  5
16
330
5
100
AcDbSymbolTableRecord
100
AcDbLinetypeTableRecord
  2
CONTINUOUS
 70
     0
  3
Solid line
 72
    65
 73
     0
 40
0.0
  0
LTYPE
  5
6E
330
5
100
AcDbSymbolTableRecord
100
AcDbLinetypeTableRecord
  2
HIDDEN
 70
     0
  3
Hidden __ __ __ __ __ __ __ __ __ __ __ __ __ __
 72
    65
 73
     2
 40
1.905
 49
1.27
 74
     0
 49
-0.635
 74
     0
  0
LTYPE
  5
6F
330
5
100
AcDbSymbolTableRecord
100
AcDbLinetypeTableRecord
  2
PHANTOM
 70
     0
  3
Phantom ______  __  __  ______  __  __  ______
 72
    65
 73
     6
 40
12.7
 49
6.35
 74
     0
 49
-1.27
 74
     0
 49
1.27
 74
     0
 49
-1.27
 74
     0
 49
1.27
 74
     0
 49
-1.27
 74
     0
  0
LTYPE
  5
70
330
5
100
AcDbSymbolTableRecord
100
AcDbLinetypeTableRecord
  2
CENTER
 70
     0
  3
Center ____ _ ____ _ ____ _ ____ _ ____ _ ____
 72
    65
 73
     4
 40
10.16
 49
6.35
 74
     0
 49
-1.27
 74
     0
 49
1.27
 74
     0
 49
-1.27
 74
     0
  0
LTYPE
  5
71
330
5
100
AcDbSymbolTableRecord
100
AcDbLinetypeTableRecord
  2
CENTERX2
 70
     0
  3
Center (2x) ________  __  ________  __  _____
 72
    65
 73
     4
 40
20.32
 49
12.7
 74
     0
 49
-2.54
 74
     0
 49
2.54
 74
     0
 49
-2.54
 74
     0
  0
LTYPE
  5
72
330
5
100
AcDbSymbolTableRecord
100
AcDbLinetypeTableRecord
  2
DOT2
 70
     0
  3
Dot (.5x) ........................................
 72
    65
 73
     2
 40
0.635
 49
0.0
 74
     0
 49
-0.635
 74
     0
  0
ENDTAB
  0
TABLE
  2
LAYER
  5
2
330
0
100
AcDbSymbolTable
 70
     2
  0
LAYER
  5
10
330
2
100
AcDbSymbolTableRecord
100
AcDbLayerTableRecord
  2
0
 70
     0
 62
     7
  6
CONTINUOUS
  0
LAYER
  5
73
330
2
100
AcDbSymbolTableRecord
100
AcDbLayerTableRecord
  2
DEFAULT
 70
     0
 62
     7
  6
CONTINUOUS
  0
ENDTAB
  0
TABLE
  2
STYLE
  5
3
330
0
100
AcDbSymbolTable
 70
     1
  0
STYLE
  5
11
330
3
100
AcDbSymbolTableRecord
100
AcDbTextStyleTableRecord
  2
STANDARD
 70
     0
 40
0.0
 41
1.0
 50
0.0
 71
     0
 42
3.5
  3
txt
  4

  0
ENDTAB
  0
TABLE
  2
VIEW
  5
6
330
0
100
AcDbSymbolTable
 70
     0
  0
ENDTAB
  0
TABLE
  2
UCS
  5
7
330
0
100
AcDbSymbolTable
 70
     0
  0
ENDTAB
  0
TABLE
  2
APPID
  5
9
330
0
100
AcDbSymbolTable
 70
     1
  0
APPID
  5
12
330
9
100
AcDbSymbolTableRecord
100
AcDbRegAppTableRecord
  2
ACAD
 70
     0
  0
ENDTAB
  0
TABLE
  2
DIMSTYLE
  5
A
330
0
100
AcDbSymbolTable
 70
     1
  0
DIMSTYLE
105
27
330
A
100
AcDbSymbolTableRecord
100
AcDbDimStyleTableRecord
  2
ISO-25
 70
     0
  3

  4

  5

  6

  7

 40
1.0
 41
2.5
 42
0.625
 43
3.75
 44
1.25
 45
0.0
 46
0.0
 47
0.0
 48
0.0
140
2.5
141
2.5
142
0.0
143
0.0393700787
144
1.0
145
0.0
146
1.0
147
0.625
 71
     0
 72
     0
 73
     0
 74
     0
 75
     0
 76
     0
 77
     1
 78
     8
170
     0
171
     3
172
     1
173
     0
174
     0
175
     0
176
     0
177
     0
178
     0
270
     2
271
     2
272
     2
273
     2
274
     3
340
11
275
     0
280
     0
281
     0
282
     0
283
     0
284
     8
285
     0
286
     0
287
     3
288
     0
  0
ENDTAB
  0
TABLE
  2
BLOCK_RECORD
  5
1
330
0
100
AcDbSymbolTable
 70
     1
  0
BLOCK_RECORD
  5
1F
330
1
100
AcDbSymbolTableRecord
100
AcDbBlockTableRecord
  2
*MODEL_SPACE
  0
BLOCK_RECORD
  5
1B
330
1
100
AcDbSymbolTableRecord
100
AcDbBlockTableRecord
  2
*PAPER_SPACE
  0
BLOCK_RECORD
  5
23
330
1
100
AcDbSymbolTableRecord
100
AcDbBlockTableRecord
  2
*PAPER_SPACE0
  0
ENDTAB
  0
ENDSEC
  0
SECTION
  2
BLOCKS
  0
BLOCK
  5
20
330
1F
100
AcDbEntity
  8
0
100
AcDbBlockBegin
  2
*MODEL_SPACE
 70
     0
 10
0.0
 20
0.0
 30
0.0
  3
*MODEL_SPACE
  1

  0
ENDBLK
  5
21
330
1F
100
AcDbEntity
  8
0
100
AcDbBlockEnd
  0
BLOCK
  5
1C
330
1B
100
AcDbEntity
 67
     1
  8
0
100
AcDbBlockBegin
  2
*PAPER_SPACE
 70
     0
 10
0.0
 20
0.0
 30
0.0
  3
*PAPER_SPACE
  1

  0
ENDBLK
  5
1D
330
1B
100
AcDbEntity
 67
     1
  8
0
100
AcDbBlockEnd
  0
BLOCK
  5
24
330
23
100
AcDbEntity
  8
0
100
AcDbBlockBegin
  2
*PAPER_SPACE0
 70
     0
 10
0.0
 20
0.0
 30
0.0
  3
*PAPER_SPACE0
  1

  0
ENDBLK
  5
25
330
23
100
AcDbEntity
  8
0
100
AcDbBlockEnd
  0
ENDSEC
  0
SECTION
  2
ENTITIES
  0
LINE
  5
74
330
1F
100
AcDbEntity
  8
0
  6
CONTINUOUS
 62
     7
100
AcDbLine
 10
232.6794919243
 20
298.6111111111
 30
0.0
 11
241.3397459622
 21
283.6111111111
 31
0.0
  0
LINE
  5
75
330
1F
100
AcDbEntity
  8
0
  6
CONTINUOUS
 62
     7
100
AcDbLine
 10
241.3397459622
 20
283.6111111111
 30
0.0
 11
258.6602540378
 21
283.6111111111
 31
0.0
  0
LINE
  5
76
330
1F
100
AcDbEntity
  8
0
  6
CONTINUOUS
 62
     7
100
AcDbLine
 10
258.6602540378
 20
283.6111111111
 30
0.0
 11
267.3205080757
 21
298.6111111111
 31
0.0
  0
LINE
  5
77
330
1F
100
AcDbEntity
  8
0
  6
CONTINUOUS
 62
     7
100
AcDbLine
 10
267.3205080757
 20
298.6111111111
 30
0.0
 11
258.6602540378
 21
313.6111111111
 31
0.0
  0
LINE
  5
78
330
1F
100
AcDbEntity
  8
0
  6
CONTINUOUS
 62
     7
100
AcDbLine
 10
258.6602540378
 20
313.6111111111
 30
0.0
 11
241.3397459622
 21
313.6111111111
 31
0.0
  0
LINE
  5
79
330
1F
100
AcDbEntity
  8
0
  6
CONTINUOUS
 62
     7
100
AcDbLine
 10
241.3397459622
 20
313.6111111111
 30
0.0
 11
232.6794919243
 21
298.6111111111
 31
0.0
  0
SPLINE
  5
7A
330
1F
100
AcDbEntity
  8
0
  6
CONTINUOUS
 62
     7
100
AcDbSpline
210
0.0
220
0.0
230
1.0
 70
     8
 71
     3
 72
    14
 73
    10
 74
     0
 42
0.000000001
 43
0.00000001
 40
0.0
 40
0.0
 40
0.0
 40
0.0
 40
0.25
 40
0.25
 40
0.5
 40
0.5
 40
0.75
 40
0.75
 40
1.0
 40
1.0
 40
1.0
 40
1.0
 10
231.0719776004147
 20
325.6431285726482
 30
0.0
 10
232.6999799937889
 20
326.7830681207122
 30
0.0
 10
234.4597789536734
 20
327.7943156121005
 30
0.0
 10
238.170776691896
 20
329.4854916076046
 30
0.0
 10
240.1215547497066
 20
330.1649892419185
 30
0.0
 10
244.1163497303922
 20
331.1474533327226
 30
0.0
 10
246.159766667927
 20
331.4502722311896
 30
0.0
 10
250.2318505767709
 20
331.6732365785593
 30
0.0
 10
252.2599449737045
 20
331.5935686102411
 30
0.0
 10
254.230966515855
 20
331.3387587861538
 30
0.0
  0
SPLINE
  5
7B
330
1F
100
AcDbEntity
  8
0
  6
CONTINUOUS
 62
     7
100
AcDbSpline
210
0.0
220
0.0
230
1.0
 70
     8
 71
     3
 72
     8
 73
     4
 74
     0
 42
0.000000001
 43
0.00000001
 40
0.0
 40
0.0
 40
0.0
 40
0.0
 40
1.0
 40
1.0
 40
1.0
 40
1.0
 10
292.4161753874554
 20
256.1744752229952
 30
0.0
 10
289.9538423177966
 20
253.7133293484648
 30
0.0
 10
287.2664029552038
 20
251.4588520566186
 30
0.0
 10
284.414586181062
 20
249.4619884537715
 30
0.0
  0
SPLINE
  5
7C
330
1F
100
AcDbEntity
  8
0
  6
CONTINUOUS
 62
     7
100
AcDbSpline
210
0.0
220
0.0
230
1.0
 70
     8
 71
     3
 72
    38
 73
    34
 74
     0
 42
0.000000001
 43
0.00000001
 40
0.0
 40
0.0
 40
0.0
 40
0.0
 40
0.0625
 40
0.0625
 40
0.125
 40
0.125
 40
0.1875
 40
0.1875
 40
0.25
 40
0.25
 40
0.3125
 40
0.3125
 40
0.375
 40
0.375
 40
0.4375
 40
0.4375
 40
0.5
 40
0.5
 40
0.5625
 40
0.5625
 40
0.625
 40
0.625
 40
0.6875
 40
0.6875
 40
0.75
 40
0.75
 40
0.8125
 40
0.8125
 40
0.875
 40
0.875
 40
0.9375
 40
0.9375
 40
1.0
 40
1.0
 40
1.0
 40
1.0
 10
268.9280223995838
 20
271.5790936495746
 30
0.0
 10
269.5939921681813
 20
271.8089674261188
 30
0.0
 10
270.2943810025016
 20
271.9943584960993
 30
0.0
 10
271.7450809811285
 20
272.2557231541277
 30
0.0
 10
272.4953411328028
 20
272.3315808998457
 30
0.0
 10
274.0193798211574
 20
272.358935649054
 30
0.0
 10
274.7930494071389
 20
272.3103450885828
 30
0.0
 10
276.3324176386225
 20
272.0827772586624
 30
0.0
 10
277.0979702278261
 20
271.9037726622883
 30
0.0
 10
278.588458376761
 20
271.420105058606
 30
0.0
 10
279.3132496511306
 20
271.1154888723041
 30
0.0
 10
280.6929289176955
 20
270.3958175648821
 30
0.0
 10
281.3477147288306
 20
269.9808703244093
 30
0.0
 10
282.5653012026955
 20
269.0638504857109
 30
0.0
 10
283.1280650895434
 20
268.561912740133
 30
0.0
 10
284.1488820604621
 20
267.4985338686395
 30
0.0
 10
284.6069618877403
 20
266.9372164540605
 30
0.0
 10
285.4151615647764
 20
265.7829876962518
 30
0.0
 10
285.7859548689946
 20
265.160551600242
 30
0.0
 10
286.4360641809339
 20
263.837600431459
 30
0.0
 10
286.7152547913091
 20
263.1371025400602
 30
0.0
 10
287.1605324665457
 20
261.6793062587362
 30
0.0
 10
287.3265053894614
 20
260.9220885491582
 30
0.0
 10
287.5308971059433
 20
259.3794720396039
 30
0.0
 10
287.569249472842
 20
258.5942061557706
 30
0.0
 10
287.5139713806117
 20
257.028181377714
 30
0.0
 10
287.4203462726285
 20
256.247574081108
 30
0.0
 10
287.1076951399698
 20
254.7232083315048
 30
0.0
 10
286.8887447484005
 20
253.9795777801747
 30
0.0
 10
286.341787761801
 20
252.5568057461805
 30
0.0
 10
286.0139007133131
 20
251.8777366950452
 30
0.0
 10
285.2721296582171
 20
250.6039166079543
 30
0.0
 10
284.858371948299
 20
250.0091738689887
 30
0.0
 10
284.414586181062
 20
249.4619884537715
 30
0.0
  0
SPLINE
  5
7D
330
1F
100
AcDbEntity
  8
0
  6
CONTINUOUS
 62
     7
100
AcDbSpline
210
0.0
220
0.0
230
1.0
 70
     8
 71
     3
 72
    14
 73
    10
 74
     0
 42
0.000000001
 43
0.00000001
 40
0.0
 40
0.0
 40
0.0
 40
0.0
 40
0.25
 40
0.25
 40
0.5
 40
0.5
 40
0.75
 40
0.75
 40
1.0
 40
1.0
 40
1.0
 40
1.0
 10
268.9280223995839
 20
271.5790936495745
 30
0.0
 10
267.3000200062096
 20
270.4391541015105
 30
0.0
 10
265.5402210463251
 20
269.4279066101222
 30
0.0
 10
261.8292233081025
 20
267.736730614618
 30
0.0
 10
259.8784452502919
 20
267.0572329803041
 30
0.0
 10
255.8836502696062
 20
266.0747688894999
 30
0.0
 10
253.8402333320714
 20
265.771949991033
 30
0.0
 10
249.7681494232276
 20
265.5489856436632
 30
0.0
 10
247.7400550262939
 20
265.6286536119814
 30
0.0
 10
245.7690334841434
 20
265.8834634360687
 30
0.0
  0
SPLINE
  5
7E
330
1F
100
AcDbEntity
  8
0
  6
CONTINUOUS
 62
     7
100
AcDbSpline
210
0.0
220
0.0
230
1.0
 70
     8
 71
     3
 72
    38
 73
    34
 74
     0
 42
0.000000001
 43
0.00000001
 40
0.0
 40
0.0
 40
0.0
 40
0.0
 40
0.0625
 40
0.0625
 40
0.125
 40
0.125
 40
0.1875
 40
0.1875
 40
0.25
 40
0.25
 40
0.3125
 40
0.3125
 40
0.375
 40
0.375
 40
0.4375
 40
0.4375
 40
0.5
 40
0.5
 40
0.5625
 40
0.5625
 40
0.625
 40
0.625
 40
0.6875
 40
0.6875
 40
0.75
 40
0.75
 40
0.8125
 40
0.8125
 40
0.875
 40
0.875
 40
0.9375
 40
0.9375
 40
1.0
 40
1.0
 40
1.0
 40
1.0
 10
245.7690334841434
 20
265.8834634360687
 30
0.0
 10
243.780524488521
 20
266.091909110121
 30
0.0
 10
241.7740166090576
 20
266.4227030065588
 30
0.0
 10
237.7700810946262
 20
267.3415874960467
 30
0.0
 10
235.7727608711847
 20
267.9297403850805
 30
0.0
 10
231.8364380301502
 20
269.3648115680871
 30
0.0
 10
229.8975655162673
 20
270.2117501138786
 30
0.0
 10
226.1277704546137
 20
272.1532582812608
 30
0.0
 10
224.2969810025512
 20
273.2477977781317
 30
0.0
 10
220.7893494184965
 20
275.6608952766542
 30
0.0
 10
219.1126210715725
 20
276.979374999143
 30
0.0
 10
215.9516844050314
 20
279.8059078860906
 30
0.0
 10
214.4675518024055
 20
281.3138475212421
 30
0.0
 10
211.7200454469146
 20
284.4769592226656
 30
0.0
 10
210.4566992942779
 20
286.1320025436895
 30
0.0
 10
208.1670918807157
 20
289.5428010133308
 30
0.0
 10
207.1408108418887
 20
291.2984335778538
 30
0.0
 10
205.3296425249401
 20
294.8635618822057
 30
0.0
 10
204.5169853147417
 20
296.7277203333524
 30
0.0
 10
203.112597992689
 20
300.5882312527002
 30
0.0
 10
202.520978544524
 20
302.5845274041769
 30
0.0
 10
201.586655568328
 20
306.6687785454876
 30
0.0
 10
201.2440397402464
 20
308.7566353221334
 30
0.0
 10
200.8253475999815
 20
312.9762923772221
 30
0.0
 10
200.749318324029
 20
315.107964555863
 30
0.0
 10
200.868972490253
 20
319.3638078033686
 30
0.0
 10
201.0646520509337
 20
321.487840815712
 30
0.0
 10
201.7197689428828
 20
325.6773074439075
 30
0.0
 10
202.1791521147919
 20
327.7426158050982
 30
0.0
 10
203.3414773741609
 20
331.7679191229339
 30
0.0
 10
204.0443263819917
 20
333.7278209490565
 30
0.0
 10
205.6634023375564
 20
337.5033263932135
 30
0.0
 10
206.5795156321967
 20
339.3188800012493
 30
0.0
 10
207.583824612543
 20
341.0477469992276
 30
0.0
  0
SPLINE
  5
7F
330
1F
100
AcDbEntity
  8
0
  6
CONTINUOUS
 62
     7
100
AcDbSpline
210
0.0
220
0.0
230
1.0
 70
     8
 71
     3
 72
     8
 73
     4
 74
     0
 42
0.000000001
 43
0.00000001
 40
0.0
 40
0.0
 40
0.0
 40
0.0
 40
1.0
 40
1.0
 40
1.0
 40
1.0
 10
207.583824612543
 20
341.0477469992276
 30
0.0
 10
210.0461576822016
 20
343.5088928737579
 30
0.0
 10
212.7335970447946
 20
345.763370165604
 30
0.0
 10
215.5854138189366
 20
347.7602337684509
 30
0.0
  0
SPLINE
  5
80
330
1F
100
AcDbEntity
  8
0
  6
CONTINUOUS
 62
     7
100
AcDbSpline
210
0.0
220
0.0
230
1.0
 70
     8
 71
     3
 72
    38
 73
    34
 74
     0
 42
0.000000001
 43
0.00000001
 40
0.0
 40
0.0
 40
0.0
 40
0.0
 40
0.0625
 40
0.0625
 40
0.125
 40
0.125
 40
0.1875
 40
0.1875
 40
0.25
 40
0.25
 40
0.3125
 40
0.3125
 40
0.375
 40
0.375
 40
0.4375
 40
0.4375
 40
0.5
 40
0.5
 40
0.5625
 40
0.5625
 40
0.625
 40
0.625
 40
0.6875
 40
0.6875
 40
0.75
 40
0.75
 40
0.8125
 40
0.8125
 40
0.875
 40
0.875
 40
0.9375
 40
0.9375
 40
1.0
 40
1.0
 40
1.0
 40
1.0
 10
231.0719776004147
 20
325.6431285726482
 30
0.0
 10
230.4060078318172
 20
325.4132547961041
 30
0.0
 10
229.705618997497
 20
325.2278637261235
 30
0.0
 10
228.2549190188701
 20
324.9664990680951
 30
0.0
 10
227.5046588671956
 20
324.8906413223771
 30
0.0
 10
225.9806201788411
 20
324.8632865731686
 30
0.0
 10
225.2069505928596
 20
324.91187713364
 30
0.0
 10
223.6675823613759
 20
325.1394449635604
 30
0.0
 10
222.9020297721724
 20
325.3184495599345
 30
0.0
 10
221.4115416232374
 20
325.802117163617
 30
0.0
 10
220.6867503488679
 20
326.1067333499188
 30
0.0
 10
219.3070710823031
 20
326.8264046573408
 30
0.0
 10
218.652285271168
 20
327.2413518978136
 30
0.0
 10
217.434698797303
 20
328.1583717365122
 30
0.0
 10
216.8719349104553
 20
328.66030948209
 30
0.0
 10
215.8511179395366
 20
329.7236883535836
 30
0.0
 10
215.3930381122583
 20
330.2850057681626
 30
0.0
 10
214.5848384352222
 20
331.4392345259714
 30
0.0
 10
214.214045131004
 20
332.0616706219812
 30
0.0
 10
213.5639358190647
 20
333.3846217907642
 30
0.0
 10
213.2847452086895
 20
334.0851196821631
 30
0.0
 10
212.8394675334529
 20
335.5429159634868
 30
0.0
 10
212.6734946105372
 20
336.3001336730648
 30
0.0
 10
212.4691028940553
 20
337.8427501826191
 30
0.0
 10
212.4307505271565
 20
338.6280160664524
 30
0.0
 10
212.4860286193869
 20
340.194040844509
 30
0.0
 10
212.5796537273702
 20
340.9746481411149
 30
0.0
 10
212.8923048600287
 20
342.4990138907179
 30
0.0
 10
213.1112552515981
 20
343.2426444420481
 30
0.0
 10
213.6582122381976
 20
344.6654164760421
 30
0.0
 10
213.9860992866853
 20
345.3444855271774
 30
0.0
 10
214.7278703417814
 20
346.6183056142683
 30
0.0
 10
215.1416280516995
 20
347.2130483532338
 30
0.0
 10
215.5854138189366
 20
347.7602337684509
 30
0.0
  0
SPLINE
  5
81
330
1F
100
AcDbEntity
  8
0
  6
CONTINUOUS
 62
     7
100
AcDbSpline
210
0.0
220
0.0
230
1.0
 70
     8
 71
     3
 72
    38
 73
    34
 74
     0
 42
0.000000001
 43
0.00000001
 40
0.0
 40
0.0
 40
0.0
 40
0.0
 40
0.0625
 40
0.0625
 40
0.125
 40
0.125
 40
0.1875
 40
0.1875
 40
0.25
 40
0.25
 40
0.3125
 40
0.3125
 40
0.375
 40
0.375
 40
0.4375
 40
0.4375
 40
0.5
 40
0.5
 40
0.5625
 40
0.5625
 40
0.625
 40
0.625
 40
0.6875
 40
0.6875
 40
0.75
 40
0.75
 40
0.8125
 40
0.8125
 40
0.875
 40
0.875
 40
0.9375
 40
0.9375
 40
1.0
 40
1.0
 40
1.0
 40
1.0
 10
254.230966515855
 20
331.3387587861538
 30
0.0
 10
256.2194755114774
 20
331.1303131121015
 30
0.0
 10
258.2259833909408
 20
330.7995192156637
 30
0.0
 10
262.2299189053722
 20
329.8806347261757
 30
0.0
 10
264.2272391288137
 20
329.292481837142
 30
0.0
 10
268.1635619698483
 20
327.8574106541354
 30
0.0
 10
270.102434483731
 20
327.010472108344
 30
0.0
 10
273.8722295453847
 20
325.0689639409617
 30
0.0
 10
275.7030189974471
 20
323.9744244440909
 30
0.0
 10
279.2106505815018
 20
321.5613269455685
 30
0.0
 10
280.8873789284259
 20
320.2428472230796
 30
0.0
 10
284.0483155949671
 20
317.4163143361321
 30
0.0
 10
285.5324481975929
 20
315.9083747009805
 30
0.0
 10
288.2799545530839
 20
312.7452629995571
 30
0.0
 10
289.5433007057205
 20
311.0902196785332
 30
0.0
 10
291.8329081192828
 20
307.6794212088919
 30
0.0
 10
292.8591891581098
 20
305.923788644369
 30
0.0
 10
294.6703574750584
 20
302.3586603400171
 30
0.0
 10
295.4830146852568
 20
300.4945018888704
 30
0.0
 10
296.8874020073094
 20
296.6339909695225
 30
0.0
 10
297.4790214554744
 20
294.6376948180459
 30
0.0
 10
298.4133444316706
 20
290.5534436767351
 30
0.0
 10
298.7559602597519
 20
288.4655869000892
 30
0.0
 10
299.174652400017
 20
284.2459298450006
 30
0.0
 10
299.2506816759695
 20
282.1142576663598
 30
0.0
 10
299.1310275097455
 20
277.8584144188542
 30
0.0
 10
298.9353479490648
 20
275.7343814065107
 30
0.0
 10
298.2802310571158
 20
271.5449147783153
 30
0.0
 10
297.8208478852066
 20
269.4796064171246
 30
0.0
 10
296.6585226258376
 20
265.4543030992888
 30
0.0
 10
295.9556736180069
 20
263.4944012731663
 30
0.0
 10
294.3365976624422
 20
259.7188958290093
 30
0.0
 10
293.4204843678017
 20
257.9033422209735
 30
0.0
 10
292.4161753874556
 20
256.1744752229952
 30
0.0
  0
ENDSEC
  0
SECTION
  2
OBJECTS
  0
DICTIONARY
  5
C
330
0
100
AcDbDictionary
  3
ACAD_GROUP
350
D
  3
ACAD_MLINESTYLE
350
17
  3
ACAD_SCALELIST
350
47
  0
DICTIONARY
  5
D
102
{ACAD_REACTORS
330
C
102
}
330
C
100
AcDbDictionary
  0
DICTIONARY
  5
17
102
{ACAD_REACTORS
330
C
102
}
330
C
100
AcDbDictionary
  3
STANDARD
350
18
  0
DICTIONARY
  5
47
102
{ACAD_REACTORS
330
C
102
}
330
C
100
AcDbDictionary
  0
MLINESTYLE
  5
18
102
{ACAD_REACTORS
330
17
102
}
330
17
100
AcDbMlineStyle
  2
Standard
 70
     0
  3

 62
   256
 51
90.0
 52
90.0
 71
     2
 49
0.5
 62
   256
  6
BYLAYER
 49
-0.5
 62
   256
  6
BYLAYER
  0
ENDSEC
  0
EOF
