<?xml version="1.0" encoding="iso-8859-1"?>
<!-- Generator: Adobe Illustrator 19.0.0, SVG Export Plug-In . SVG Version: 6.00 Build 0)  -->
<svg xmlns="http://www.w3.org/2000/svg" xmlns:xlink="http://www.w3.org/1999/xlink" version="1.1" id="Layer_1" x="0px" y="0px" viewBox="0 0 512 512" style="enable-background:new 0 0 512 512;" xml:space="preserve">
<g>
	<g>
		<g>
			<path d="M157.854,177.042l91.583,74.115c1.958,1.583,4.333,2.375,6.708,2.375c2.344,0,4.698-0.771,6.635-2.313l91.969-73.115     c4.344-3.458,5.313-9.656,2.24-14.271c-6.063-9.083-15.896-14.5-26.323-14.5H181.333c-9.854,0-19.073,4.74-25.292,13     C152.583,166.927,153.385,173.427,157.854,177.042z"/>
			<path d="M356.635,211.521c-3.667-1.771-8.052-1.302-11.271,1.25l-76.719,60.844c-7.667,4.885-16.802,5.521-26.24-0.698     l-75.698-61.271c-3.208-2.594-7.625-3.115-11.302-1.333c-3.708,1.771-6.073,5.51-6.073,9.625V288c0,17.646,14.354,32,32,32     h149.333c17.646,0,32-14.354,32-32v-66.875C362.667,217.031,360.323,213.302,356.635,211.521z"/>
			<circle cx="373.333" cy="74.667" r="10.667"/>
			<path d="M405.333,0H106.667C83.135,0,64,19.135,64,42.667v426.667C64,492.865,83.135,512,106.667,512h298.667     C428.865,512,448,492.865,448,469.333V42.667C448,19.135,428.865,0,405.333,0z M256,480c-11.76,0-21.333-9.573-21.333-21.333     s9.573-21.333,21.333-21.333s21.333,9.573,21.333,21.333S267.76,480,256,480z M106.667,405.333V42.667h298.667l0.026,362.667     H106.667z"/>
		</g>
	</g>
</g>
<g>
</g>
<g>
</g>
<g>
</g>
<g>
</g>
<g>
</g>
<g>
</g>
<g>
</g>
<g>
</g>
<g>
</g>
<g>
</g>
<g>
</g>
<g>
</g>
<g>
</g>
<g>
</g>
<g>
</g>
</svg>
