<?xml version="1.0" encoding="iso-8859-1"?>
<!-- Generator: Adobe Illustrator 19.0.0, SVG Export Plug-In . SVG Version: 6.00 Build 0)  -->
<svg xmlns="http://www.w3.org/2000/svg" xmlns:xlink="http://www.w3.org/1999/xlink" version="1.1" id="Layer_1" x="0px" y="0px" viewBox="0 0 469.333 469.333" style="enable-background:new 0 0 469.333 469.333;" xml:space="preserve">
<g>
	<g>
		<path d="M464.845,173.091l-38.178-29.086v-26.672c0-2.954-1.201-5.624-3.138-7.555L316.888,3.138    C314.957,1.201,312.288,0,309.333,0h-224C61.802,0,42.667,19.135,42.667,42.667v101.339L4.488,173.091    C1.857,175.083,0,177.958,0,181.333v245.333c0,23.531,19.135,42.667,42.667,42.667h384c23.531,0,42.667-19.135,42.667-42.667    V181.333C469.333,177.958,467.477,175.083,464.845,173.091z M320,36.417l70.25,70.25h-48.917c-11.76,0-21.333-9.573-21.333-21.333    V36.417z M249.198,335.219c-2.573,2.281-7.938,6.115-14.865,6.115c-5.063,0-9.948-2.052-14.531-6.115    C178.56,298.698,63.99,209.267,28.246,181.478l17.879-13.41c0.255,0.243,0.375,0.589,0.656,0.807    c39.854,31.031,137.25,107.26,180.75,144.781c2,1.729,4.49,2.594,6.969,2.594c2.479,0,4.958-0.865,6.958-2.583    c43.562-37.531,141.146-113.771,181.083-144.802c0.281-0.217,0.4-0.564,0.655-0.806l17.882,13.411    C405.223,209.296,290.124,298.99,249.198,335.219z"/>
	</g>
</g>
<g>
</g>
<g>
</g>
<g>
</g>
<g>
</g>
<g>
</g>
<g>
</g>
<g>
</g>
<g>
</g>
<g>
</g>
<g>
</g>
<g>
</g>
<g>
</g>
<g>
</g>
<g>
</g>
<g>
</g>
</svg>
