<?xml version="1.0" encoding="iso-8859-1"?>
<!-- Generator: Adobe Illustrator 19.0.0, SVG Export Plug-In . SVG Version: 6.00 Build 0)  -->
<svg xmlns="http://www.w3.org/2000/svg" xmlns:xlink="http://www.w3.org/1999/xlink" version="1.1" id="Layer_1" x="0px" y="0px" viewBox="0 0 469.333 469.333" style="enable-background:new 0 0 469.333 469.333;" xml:space="preserve">
<g>
	<g>
		<path d="M465.063,172.802l-38.396-28.797v-26.672c0-0.491-0.215-0.91-0.279-1.384c-0.061-0.467-0.145-0.868-0.267-1.324    c-0.492-1.837-1.285-3.543-2.592-4.846L316.888,3.138c-1.298-1.302-2.997-2.092-4.826-2.587c-0.47-0.129-0.885-0.214-1.368-0.276    C310.228,0.212,309.816,0,309.333,0h-224C61.812,0,42.667,19.135,42.667,42.667v101.339L4.271,172.802    C1.733,174.767,0,177.8,0,181.333v245.333c0,23.531,19.146,42.667,42.667,42.667h384c23.521,0,42.667-19.135,42.667-42.667    c0,0,0-245.796,0-245.994C469.333,177.882,467.733,174.667,465.063,172.802z M320,36.417l70.25,70.25h-48.917    c-11.771,0-21.333-9.573-21.333-21.333V36.417z M234.667,64c35.292,0,64,28.708,64,64c0,35.292-28.708,64-64,64s-64-28.708-64-64    C170.667,92.708,199.375,64,234.667,64z M249.208,335.219c-4.479,3.948-18.542,9.625-29.417,0    c-41.32-36.582-155.82-125.971-191.542-153.745l17.875-13.406c0.251,0.24,0.37,0.581,0.646,0.797    c18.978,14.768,50.98,39.777,83.98,65.957c1.987-1.47,3.725-3.228,5.915-4.436c22.938-12.646,58.542-27.719,98-27.719    s75.062,15.073,98,27.719c2.16,1.191,3.872,2.928,5.835,4.375c33.029-26.155,65.051-51.137,84.04-65.896    c0.281-0.217,0.4-0.564,0.655-0.806l17.879,13.409C405.243,209.281,290.212,298.928,249.208,335.219z"/>
	</g>
</g>
<g>
</g>
<g>
</g>
<g>
</g>
<g>
</g>
<g>
</g>
<g>
</g>
<g>
</g>
<g>
</g>
<g>
</g>
<g>
</g>
<g>
</g>
<g>
</g>
<g>
</g>
<g>
</g>
<g>
</g>
</svg>
