<?xml version="1.0" encoding="iso-8859-1"?>
<!-- Generator: Adobe Illustrator 19.0.0, SVG Export Plug-In . SVG Version: 6.00 Build 0)  -->
<svg xmlns="http://www.w3.org/2000/svg" xmlns:xlink="http://www.w3.org/1999/xlink" version="1.1" id="Layer_1" x="0px" y="0px" viewBox="0 0 512 512" style="enable-background:new 0 0 512 512;" xml:space="preserve">
<g>
	<g>
		<g>
			<path d="M511.584,434.291c-0.958-163.328-78.353-258.7-213.16-263.44V95.999C298.424,78.354,284.081,64,266.45,64     c-7.931,0-15.591,3.042-21.524,8.562c0,0-134.828,124.829-173.609,163.755c-4.746,4.792-7.369,11.771-7.369,19.676     c0,7.906,2.623,14.885,7.369,19.687c38.781,38.915,173.609,163.745,173.609,163.745c5.933,5.521,13.593,8.562,21.524,8.562     c17.631,0,31.974-14.354,31.974-31.999v-74.581c122.088,1.896,191.844,36.613,191.844,95.914c0,5.896,4.767,10.666,10.658,10.666     c0.146,0.021,0.312,0.01,0.416,0c5.891,0,10.658-4.771,10.658-10.666C512,436.27,511.854,435.259,511.584,434.291z"/>
			<path d="M38.927,275.681c-4.746-4.802-7.369-11.781-7.369-19.687c0-7.906,2.623-14.885,7.369-19.676     C77.708,197.392,212.535,72.562,212.535,72.562c1.847-1.72,4.098-2.736,6.237-3.957C213.989,65.747,208.467,64,202.502,64     c-7.931,0-15.591,3.042-21.524,8.562c0,0-134.828,124.829-173.609,163.755C2.623,241.109,0,248.088,0,255.994     c0,7.906,2.623,14.885,7.369,19.687c38.781,38.915,173.609,163.745,173.609,163.745c5.933,5.521,13.593,8.562,21.524,8.562     c5.965,0,11.487-1.747,16.271-4.605c-2.139-1.221-4.39-2.237-6.237-3.957C212.535,439.426,77.708,314.596,38.927,275.681z"/>
		</g>
	</g>
</g>
<g>
</g>
<g>
</g>
<g>
</g>
<g>
</g>
<g>
</g>
<g>
</g>
<g>
</g>
<g>
</g>
<g>
</g>
<g>
</g>
<g>
</g>
<g>
</g>
<g>
</g>
<g>
</g>
<g>
</g>
</svg>
