<?xml version="1.0" encoding="iso-8859-1"?>
<!-- Generator: Adobe Illustrator 19.0.0, SVG Export Plug-In . SVG Version: 6.00 Build 0)  -->
<svg xmlns="http://www.w3.org/2000/svg" xmlns:xlink="http://www.w3.org/1999/xlink" version="1.1" id="Layer_1" x="0px" y="0px" viewBox="0 0 512 512" style="enable-background:new 0 0 512 512;" xml:space="preserve">
<g>
	<g>
		<g>
			<path d="M157.854,198.375l91.583,74.115c1.958,1.583,4.333,2.375,6.708,2.375c2.344,0,4.698-0.771,6.635-2.313l91.969-73.115     c4.344-3.458,5.313-9.656,2.24-14.271c-6.063-9.083-15.896-14.5-26.323-14.5H181.333c-9.854,0-19.073,4.74-25.292,13     C152.583,188.26,153.385,194.76,157.854,198.375z"/>
			<path d="M356.635,232.854c-3.646-1.781-8.063-1.313-11.271,1.25l-76.719,60.844c-7.677,4.875-16.792,5.531-26.24-0.698     l-75.698-61.271c-3.198-2.583-7.615-3.125-11.302-1.333c-3.708,1.771-6.073,5.51-6.073,9.625v68.063c0,17.646,14.354,32,32,32     h149.333c17.646,0,32-14.354,32-32v-66.875C362.667,238.365,360.323,234.635,356.635,232.854z"/>
			<path d="M245.333,85.333h21.333c5.896,0,10.667-4.771,10.667-10.667c0-5.896-4.771-10.667-10.667-10.667h-21.333     c-5.896,0-10.667,4.771-10.667,10.667C234.667,80.563,239.438,85.333,245.333,85.333z"/>
			<circle cx="352" cy="74.667" r="10.667"/>
			<path d="M384,0H128c-23.531,0-42.667,19.135-42.667,42.667v426.667C85.333,492.865,104.469,512,128,512h256     c23.531,0,42.667-19.135,42.667-42.667V42.667C426.667,19.135,407.531,0,384,0z M288,469.333h-64     c-5.896,0-10.667-4.771-10.667-10.667S218.104,448,224,448h64c5.896,0,10.667,4.771,10.667,10.667S293.896,469.333,288,469.333z      M128,405.333V42.667h256l0.026,362.667H128z"/>
		</g>
	</g>
</g>
<g>
</g>
<g>
</g>
<g>
</g>
<g>
</g>
<g>
</g>
<g>
</g>
<g>
</g>
<g>
</g>
<g>
</g>
<g>
</g>
<g>
</g>
<g>
</g>
<g>
</g>
<g>
</g>
<g>
</g>
</svg>
