<?xml version="1.0" encoding="iso-8859-1"?>
<!-- Generator: Adobe Illustrator 19.0.0, SVG Export Plug-In . SVG Version: 6.00 Build 0)  -->
<svg xmlns="http://www.w3.org/2000/svg" xmlns:xlink="http://www.w3.org/1999/xlink" version="1.1" id="Layer_1" x="0px" y="0px" viewBox="0 0 469.333 469.333" style="enable-background:new 0 0 469.333 469.333;" xml:space="preserve">
<g>
	<g>
		<path d="M426.667,362.667v-320c0-13.083-5.99-25.292-16.438-33.479c-4.542-3.573-11.031-2.865-14.719,1.5    C336,80.958,231.302,204.26,198.656,240.5c-8.906,9.833-8.917,21.125-0.042,30.969c18.542,20.583,62.406,71.531,130.365,151.438    c2.031,2.385,5,3.76,8.125,3.76H416c5.896,0,10.667-4.771,10.667-10.667v-32c11.76,0,21.333,9.573,21.333,21.333v21.333    c0,11.76-9.573,21.333-21.333,21.333h-384c-11.76,0-21.333-9.573-21.333-21.333v-21.333c0-11.76,9.573-21.333,21.333-21.333v32    c0,5.896,4.771,10.667,10.667,10.667h227.729c4.156,0,7.938-2.417,9.688-6.198c1.74-3.771,1.125-8.219-1.573-11.385    c-54.583-64.052-90.385-105.542-106.396-123.323c-7.927-8.781-12.115-19.073-12.115-29.76s4.198-20.979,12.135-29.781    c30.052-33.354,125-145.042,178.917-208.656c2.688-3.167,3.292-7.604,1.542-11.375C361.51,2.417,357.74,0,353.583,0H85.333    C61.802,0,42.667,19.135,42.667,42.667v320C19.135,362.667,0,381.802,0,405.333v21.333c0,23.531,19.135,42.667,42.667,42.667h384    c23.531,0,42.667-19.135,42.667-42.667v-21.333C469.333,381.802,450.198,362.667,426.667,362.667z"/>
	</g>
</g>
<g>
</g>
<g>
</g>
<g>
</g>
<g>
</g>
<g>
</g>
<g>
</g>
<g>
</g>
<g>
</g>
<g>
</g>
<g>
</g>
<g>
</g>
<g>
</g>
<g>
</g>
<g>
</g>
<g>
</g>
</svg>
