<?xml version="1.0" encoding="iso-8859-1"?>
<!-- Generator: Adobe Illustrator 19.0.0, SVG Export Plug-In . SVG Version: 6.00 Build 0)  -->
<svg xmlns="http://www.w3.org/2000/svg" xmlns:xlink="http://www.w3.org/1999/xlink" version="1.1" id="Layer_1" x="0px" y="0px" viewBox="0 0 469.333 469.333" style="enable-background:new 0 0 469.333 469.333;" xml:space="preserve">
<g>
	<g>
		<path d="M426.667,128H149.333v-21.333h117.333c5.896,0,10.667-4.771,10.667-10.667V10.667C277.333,4.771,272.563,0,266.667,0h-128    C132.771,0,128,4.771,128,10.667v298.667c0,5.885-4.792,10.667-10.667,10.667s-10.667-4.781-10.667-10.667V138.667    c0-5.896-4.771-10.667-10.667-10.667H42.667C19.146,128,0,147.135,0,170.667v256c0,23.531,19.146,42.667,42.667,42.667h384    c23.521,0,42.667-19.135,42.667-42.667v-256C469.333,147.135,450.188,128,426.667,128z"/>
	</g>
</g>
<g>
</g>
<g>
</g>
<g>
</g>
<g>
</g>
<g>
</g>
<g>
</g>
<g>
</g>
<g>
</g>
<g>
</g>
<g>
</g>
<g>
</g>
<g>
</g>
<g>
</g>
<g>
</g>
<g>
</g>
</svg>
