<?xml version="1.0" encoding="iso-8859-1"?>
<!-- Generator: Adobe Illustrator 19.0.0, SVG Export Plug-In . SVG Version: 6.00 Build 0)  -->
<svg xmlns="http://www.w3.org/2000/svg" xmlns:xlink="http://www.w3.org/1999/xlink" version="1.1" id="Layer_1" x="0px" y="0px" viewBox="0 0 469.333 469.333" style="enable-background:new 0 0 469.333 469.333;" xml:space="preserve">
<g>
	<g>
		<g>
			<path d="M464.521,253.156l-96-117.333C364.458,130.875,358.396,128,352,128h-64c-5.896,0-10.667,4.771-10.667,10.667V160     c0,5.896,4.771,10.667,10.667,10.667h53.896L411.702,256h-49.035C339.146,256,320,275.135,320,298.667     c0,11.76-9.563,21.333-21.333,21.333h-128c-11.771,0-21.333-9.573-21.333-21.333c0-23.531-19.146-42.667-42.667-42.667H57.632     l69.806-85.333h53.896c5.896,0,10.667-4.771,10.667-10.667v-21.333c0-5.896-4.771-10.667-10.667-10.667h-64     c-6.396,0-12.458,2.875-16.521,7.823l-96,117.333C2.198,256.354,0.494,260.105,0,263.92c0,1.148,0,162.746,0,162.746     c0,23.531,19.146,42.667,42.667,42.667h384c23.521,0,42.667-19.135,42.667-42.667c0,0,0-160.747,0-162.555     C468.841,260.294,467.137,256.357,464.521,253.156z"/>
			<path d="M163.124,107.957c4.167,4.165,10.919,4.165,15.086,0l35.124-35.124v204.5c0,5.891,4.776,10.667,10.667,10.667h21.333     c5.891,0,10.667-4.776,10.667-10.667v-204.5l35.124,35.124c4.167,4.165,10.919,4.165,15.086,0l15.081-15.082     c4.167-4.165,4.167-10.919,0-15.085L249.75,6.25C245.583,2.083,240.125,0,234.667,0s-10.917,2.083-15.083,6.25l-71.54,71.54     c-4.167,4.165-4.167,10.919,0,15.085L163.124,107.957z"/>
		</g>
	</g>
</g>
<g>
</g>
<g>
</g>
<g>
</g>
<g>
</g>
<g>
</g>
<g>
</g>
<g>
</g>
<g>
</g>
<g>
</g>
<g>
</g>
<g>
</g>
<g>
</g>
<g>
</g>
<g>
</g>
<g>
</g>
</svg>
