<?xml version="1.0" encoding="iso-8859-1"?>
<!-- Generator: Adobe Illustrator 19.0.0, SVG Export Plug-In . SVG Version: 6.00 Build 0)  -->
<svg xmlns="http://www.w3.org/2000/svg" xmlns:xlink="http://www.w3.org/1999/xlink" version="1.1" id="Layer_1" x="0px" y="0px" viewBox="0 0 512 512" style="enable-background:new 0 0 512 512;" xml:space="preserve">
<g>
	<g>
		<g>
			<path d="M510.208,239.417l-40.875-61.313v-69.688c0-4.031-2.271-7.708-5.854-9.521c-3.604-1.813-7.938-1.448-11.146,0.948     L278.125,228.427c-13.771,8.375-32.229,7.771-44.688-0.26L59.667,99.792c-3.25-2.385-7.542-2.76-11.146-0.938     c-3.583,1.813-5.854,5.49-5.854,9.521v69.729L1.792,239.417C0.933,240.6,0,242.904,0,245.317c0,0.331,0,160.017,0,160.017     C0,428.865,19.146,448,42.667,448h426.667C492.854,448,512,428.865,512,405.333c0,0,0-160.617,0-160.947     C512,243.299,511.2,240.767,510.208,239.417z M405.333,234.667c-23.521,0-42.667,19.135-42.667,42.667     c0,11.76-9.563,21.333-21.333,21.333H170.667c-11.771,0-21.333-9.573-21.333-21.333c0-23.531-19.146-42.667-42.667-42.667H30.598     l15.958-23.939c1.854,1.559,4.163,2.605,6.777,2.605h53.333c31.604,0,58.854,23.583,63.354,54.854     c0.771,5.25,5.25,9.146,10.563,9.146h150.833c5.313,0,9.792-3.896,10.563-9.146c4.5-31.271,31.75-54.854,63.354-54.854h53.333     c2.615,0,4.923-1.047,6.777-2.605l15.958,23.939H405.333z"/>
			<path d="M73.854,83.771l171.208,126.51c0.792,0.583,1.667,1.063,2.583,1.406c0.625,0.229,2.521,0.938,8.125,0.938     c5.125,0,8.833-0.854,12.208-3.073L438.167,83.76c3.458-2.542,5.042-6.906,4.042-11.073c-1.021-4.167-4.417-7.333-8.646-8.021     c-2.271-0.375-4.542-0.667-6.896-0.667H85.333c-2.354,0-4.646,0.292-6.896,0.667c-4.229,0.708-7.625,3.865-8.625,8.031     C68.813,76.865,70.396,81.219,73.854,83.771z"/>
		</g>
	</g>
</g>
<g>
</g>
<g>
</g>
<g>
</g>
<g>
</g>
<g>
</g>
<g>
</g>
<g>
</g>
<g>
</g>
<g>
</g>
<g>
</g>
<g>
</g>
<g>
</g>
<g>
</g>
<g>
</g>
<g>
</g>
</svg>
