<?xml version="1.0" encoding="iso-8859-1"?>
<!-- Generator: Adobe Illustrator 19.0.0, SVG Export Plug-In . SVG Version: 6.00 Build 0)  -->
<svg xmlns="http://www.w3.org/2000/svg" xmlns:xlink="http://www.w3.org/1999/xlink" version="1.1" id="Layer_1" x="0px" y="0px" viewBox="0 0 512 512" style="enable-background:new 0 0 512 512;" xml:space="preserve">
<g>
	<g>
		<path d="M469.333,170.667h-3.832L391.336,42.518c-5.695-9.819-14.891-16.837-25.893-19.751    c-10.951-2.895-22.404-1.375-32.204,4.268L21.206,206.727c-20.25,11.659-27.22,37.561-15.548,57.727L64,365.257V448    c0,23.531,19.135,42.667,42.667,42.667h362.667C492.865,490.667,512,471.532,512,448V213.334    C512,189.802,492.865,170.667,469.333,170.667z M64,322.636l-38.233-66.06L64,261.724V322.636z M64,213.334v26.861l-40.37-5.436    c1.76-3.893,4.361-7.443,8.339-9.736l32.756-18.863C64.326,208.503,64,210.876,64,213.334z M342.53,46.184l-44.156,124.483    H126.359L342.53,46.184z M234.667,352c0,5.896-4.771,10.667-10.667,10.667h-85.333c-5.896,0-10.667-4.771-10.667-10.667    c0-5.896,4.771-10.667,10.667-10.667H224C229.896,341.334,234.667,346.104,234.667,352z M309.333,426.667H138.667    c-5.896,0-10.667-4.771-10.667-10.667c0-5.896,4.771-10.667,10.667-10.667h170.667c5.896,0,10.667,4.771,10.667,10.667    C320,421.896,315.229,426.667,309.333,426.667z M365.284,45.841c2.993,1.814,5.668,4.085,7.473,7.199l68.077,117.626H321.005    L365.284,45.841z M448,352c0,5.896-4.771,10.667-10.667,10.667H352c-5.896,0-10.667-4.771-10.667-10.667V245.334    c0-5.896,4.771-10.667,10.667-10.667h85.333c5.896,0,10.667,4.771,10.667,10.667V352z"/>
	</g>
</g>
<g>
</g>
<g>
</g>
<g>
</g>
<g>
</g>
<g>
</g>
<g>
</g>
<g>
</g>
<g>
</g>
<g>
</g>
<g>
</g>
<g>
</g>
<g>
</g>
<g>
</g>
<g>
</g>
<g>
</g>
</svg>
