<?xml version="1.0" encoding="iso-8859-1"?>
<!-- Generator: Adobe Illustrator 19.0.0, SVG Export Plug-In . SVG Version: 6.00 Build 0)  -->
<svg xmlns="http://www.w3.org/2000/svg" xmlns:xlink="http://www.w3.org/1999/xlink" version="1.1" id="Layer_1" x="0px" y="0px" viewBox="0 0 469.333 469.333" style="enable-background:new 0 0 469.333 469.333;" xml:space="preserve">
<g>
	<g>
		<path d="M467.542,260.75l-40.875-61.312v-82.104c0-2.564-1.233-5.467-3.138-7.555L316.888,3.138    C315.034,1.284,312.331,0,309.333,0h-224C61.812,0,42.667,19.135,42.667,42.667v156.771L1.792,260.75    C0.633,262.567,0,264.9,0,266.667v160c0,23.531,19.146,42.667,42.667,42.667h384c23.521,0,42.667-19.135,42.667-42.667v-160    C469.333,264.733,468.639,262.414,467.542,260.75z M320,36.417l70.25,70.25h-48.917c-11.771,0-21.333-9.573-21.333-21.333V36.417z     M384,256c-23.521,0-42.667,19.135-42.667,42.667c0,11.76-9.563,21.333-21.333,21.333H149.333    C137.562,320,128,310.427,128,298.667C128,275.135,108.854,256,85.333,256H30.598l15.958-23.939    c1.854,1.559,4.163,2.605,6.777,2.605h32c31.604,0,58.854,23.583,63.354,54.854c0.771,5.25,5.25,9.146,10.563,9.146h150.833    c5.313,0,9.792-3.896,10.563-9.146c4.5-31.271,31.75-54.854,63.354-54.854h32c2.615,0,4.923-1.047,6.777-2.605L438.736,256H384z"/>
	</g>
</g>
<g>
</g>
<g>
</g>
<g>
</g>
<g>
</g>
<g>
</g>
<g>
</g>
<g>
</g>
<g>
</g>
<g>
</g>
<g>
</g>
<g>
</g>
<g>
</g>
<g>
</g>
<g>
</g>
<g>
</g>
</svg>
