<?xml version="1.0" encoding="iso-8859-1"?>
<!-- Generator: Adobe Illustrator 19.0.0, SVG Export Plug-In . SVG Version: 6.00 Build 0)  -->
<svg xmlns="http://www.w3.org/2000/svg" xmlns:xlink="http://www.w3.org/1999/xlink" version="1.1" id="Layer_1" x="0px" y="0px" viewBox="0 0 469.333 469.333" style="enable-background:new 0 0 469.333 469.333;" xml:space="preserve">
<g>
	<g>
		<g>
			<circle cx="234.667" cy="106.667" r="21.333"/>
			<path d="M77.854,169.125l2.833,0.688c2.646,0.51,5.375,0.854,8.125,0.854H224v-22.849c-18.346-4.77-32-21.326-32-41.151     C192,83.135,211.146,64,234.667,64s42.667,19.135,42.667,42.667c0,19.826-13.654,36.382-32,41.151v22.849h135.187     c12.688,0,24.563-5.5,32.583-15.094c21-25.042,56.229-77.156,56.229-144.906C469.333,4.771,464.563,0,458.667,0h-448     C4.771,0,0,4.771,0,10.667c0,67.75,35.229,119.865,56.229,144.906C61.687,162.104,69.104,166.771,77.854,169.125z"/>
			<circle cx="234.667" cy="256" r="21.333"/>
			<path d="M461.708,137.312c-4.625-1.333-9.417,0.469-11.979,4.417c-8.167,12.531-15.521,21.896-20.292,27.563     C417.375,183.719,399.542,192,380.521,192H245.333v22.849c18.346,4.77,32,21.326,32,41.151c0,23.531-19.146,42.667-42.667,42.667     S192,279.531,192,256c0-19.826,13.654-36.381,32-41.151V192H88.812c-19.021,0-36.854-8.281-48.938-22.729     c-4.854-5.781-12.292-15.25-20.271-27.521c-2.563-3.969-7.417-5.76-11.958-4.427C3.104,138.667,0,142.823,0,147.552v279.115     c0,23.531,19.146,42.667,42.667,42.667h384c23.521,0,42.667-19.135,42.667-42.667V147.542     C469.333,142.823,466.229,138.656,461.708,137.312z"/>
		</g>
	</g>
</g>
<g>
</g>
<g>
</g>
<g>
</g>
<g>
</g>
<g>
</g>
<g>
</g>
<g>
</g>
<g>
</g>
<g>
</g>
<g>
</g>
<g>
</g>
<g>
</g>
<g>
</g>
<g>
</g>
<g>
</g>
</svg>
