<?xml version="1.0" encoding="iso-8859-1"?>
<!-- Generator: Adobe Illustrator 19.0.0, SVG Export Plug-In . SVG Version: 6.00 Build 0)  -->
<svg xmlns="http://www.w3.org/2000/svg" xmlns:xlink="http://www.w3.org/1999/xlink" version="1.1" id="Layer_1" x="0px" y="0px" viewBox="0 0 469.333 469.333" style="enable-background:new 0 0 469.333 469.333;" xml:space="preserve">
<g>
	<g>
		<path d="M466.195,109.779L359.555,3.138C358.259,1.839,355.002,0,352,0H42.667C19.135,0,0,19.135,0,42.667v384    c0,23.531,19.135,42.667,42.667,42.667h384c23.531,0,42.667-19.135,42.667-42.667V117.333    C469.333,114.531,468.049,111.632,466.195,109.779z M234.667,85.333c41.167,0,74.667,33.5,74.667,74.667    c0,41.167-33.5,74.667-74.667,74.667S160,201.167,160,160C160,118.833,193.5,85.333,234.667,85.333z M384,353.333    C384,370.24,370.323,384,353.521,384H115.812c-16.802,0-30.479-13.76-30.479-30.667v-9.76c0-24.094,13.281-45.948,34.677-57.042    C146.865,272.604,188.562,256,234.667,256s87.802,16.604,114.656,30.531C370.719,297.625,384,319.479,384,343.573V353.333z     M384,106.667c-11.76,0-21.333-9.573-21.333-21.333V36.417l70.25,70.25H384z"/>
	</g>
</g>
<g>
</g>
<g>
</g>
<g>
</g>
<g>
</g>
<g>
</g>
<g>
</g>
<g>
</g>
<g>
</g>
<g>
</g>
<g>
</g>
<g>
</g>
<g>
</g>
<g>
</g>
<g>
</g>
<g>
</g>
</svg>
