<?xml version="1.0" encoding="iso-8859-1"?>
<!-- Generator: Adobe Illustrator 19.0.0, SVG Export Plug-In . SVG Version: 6.00 Build 0)  -->
<svg xmlns="http://www.w3.org/2000/svg" xmlns:xlink="http://www.w3.org/1999/xlink" version="1.1" id="Layer_1" x="0px" y="0px" viewBox="0 0 512 512" style="enable-background:new 0 0 512 512;" xml:space="preserve">
<g>
	<g>
		<g>
			<path d="M117.333,0h-10.667C83.146,0,64,19.135,64,42.667v426.667C64,492.865,83.146,512,106.667,512h10.667     c5.896,0,10.667-4.771,10.667-10.667V10.667C128,4.771,123.229,0,117.333,0z"/>
			<circle cx="298.667" cy="245.333" r="32"/>
			<path d="M405.333,0H160c-5.896,0-10.667,4.771-10.667,10.667v490.667c0,5.896,4.771,10.667,10.667,10.667h245.333     C428.854,512,448,492.865,448,469.333V42.667C448,19.135,428.854,0,405.333,0z M394.667,266.667c0,17.646-14.354,32-32,32     c-11.402,0-21.358-6.039-27.027-15.04c-9.599,9.27-22.602,15.04-36.973,15.04c-29.417,0-53.333-23.927-53.333-53.333     S269.25,192,298.667,192c13.595,0,25.879,5.266,35.306,13.665c1.915-1.839,4.492-2.999,7.361-2.999     c5.896,0,10.667,4.771,10.667,10.667v53.333c0,5.885,4.792,10.667,10.667,10.667s10.667-4.781,10.667-10.667v-21.333     c0-41.167-33.5-74.667-74.667-74.667c-41.167,0-74.667,33.5-74.667,74.667C224,286.5,257.5,320,298.667,320     c13.146,0,26.042-3.448,37.313-9.979c5.042-2.948,11.604-1.25,14.583,3.885c2.958,5.094,1.208,11.625-3.875,14.573     c-14.542,8.406-31.146,12.854-48.021,12.854c-52.938,0-96-43.063-96-96s43.063-96,96-96s96,43.063,96,96V266.667z"/>
		</g>
	</g>
</g>
<g>
</g>
<g>
</g>
<g>
</g>
<g>
</g>
<g>
</g>
<g>
</g>
<g>
</g>
<g>
</g>
<g>
</g>
<g>
</g>
<g>
</g>
<g>
</g>
<g>
</g>
<g>
</g>
<g>
</g>
</svg>
