<?xml version="1.0" encoding="iso-8859-1"?>
<!-- Generator: Adobe Illustrator 19.0.0, SVG Export Plug-In . SVG Version: 6.00 Build 0)  -->
<svg xmlns="http://www.w3.org/2000/svg" xmlns:xlink="http://www.w3.org/1999/xlink" version="1.1" id="Layer_1" x="0px" y="0px" viewBox="0 0 469.334 469.334" style="enable-background:new 0 0 469.334 469.334;" xml:space="preserve">
<g>
	<g>
		<path d="M465.069,173.152l0.244-0.305C448.222,159.243,427.088,142.408,405,124.8V85.334c0-23.564-19.103-42.667-42.667-42.667    h-60.145c-21.419-17.172-36.479-29.322-38.845-31.419C254.869,3.753,244.768,0.004,234.671,0    C224.565-0.004,214.463,3.746,206,11.248c-2.366,2.098-17.426,14.247-38.845,31.419h-60.488C83.103,42.667,64,61.77,64,85.334    v40.003c-21.846,17.415-43.059,34.044-59.979,47.51l0.243,0.305c-2.487,2-4.264,4.771-4.264,8.043v245.452    c0,23.576,19.112,42.688,42.688,42.688h383.979c23.564,0,42.667-19.102,42.667-42.667V181.195    C469.334,177.923,467.556,175.152,465.069,173.152z M220.146,27.225c5.667-5.003,18.75-9.12,29.052,0.01    c1.65,1.46,8.645,7.148,18.924,15.432h-66.908C211.499,34.38,218.496,28.687,220.146,27.225z M138.667,106.667h191.667    c5.896,0,10.667,4.771,10.667,10.667s-4.771,10.667-10.667,10.667H138.667c-5.896,0-10.667-4.771-10.667-10.667    S132.771,106.667,138.667,106.667z M138.667,170.667h191.667c5.896,0,10.667,4.771,10.667,10.667s-4.771,10.667-10.667,10.667    H138.667c-5.896,0-10.667-4.771-10.667-10.667S132.771,170.667,138.667,170.667z M288,245.334c0,5.896-4.771,10.667-10.667,10.667    h-86c-5.896,0-10.667-4.771-10.667-10.667s4.771-10.667,10.667-10.667h86C283.229,234.667,288,239.438,288,245.334z     M249.198,335.154c-2.573,2.283-7.938,6.117-14.865,6.117c-5.063,0-9.948-2.052-14.531-6.117    C178.438,298.507,63.305,208.606,27.927,181.092c8.322-6.626,20.974-16.703,35.74-28.471v24.214c0,3.281,1.51,6.385,4.094,8.406    c43.469,33.979,122.021,95.844,159.771,128.417c2,1.729,4.49,2.594,6.969,2.594c2.479,0,4.958-0.865,6.958-2.583    c37.562-32.375,116.021-94.052,159.437-127.948c2.594-2.021,4.104-5.125,4.104-8.406v-25.225    c15.044,11.99,27.953,22.272,36.397,28.996C405.921,208.63,290.314,298.749,249.198,335.154z"/>
	</g>
</g>
<g>
</g>
<g>
</g>
<g>
</g>
<g>
</g>
<g>
</g>
<g>
</g>
<g>
</g>
<g>
</g>
<g>
</g>
<g>
</g>
<g>
</g>
<g>
</g>
<g>
</g>
<g>
</g>
<g>
</g>
</svg>
