<?xml version="1.0" encoding="iso-8859-1"?>
<!-- Generator: Adobe Illustrator 19.0.0, SVG Export Plug-In . SVG Version: 6.00 Build 0)  -->
<svg xmlns="http://www.w3.org/2000/svg" xmlns:xlink="http://www.w3.org/1999/xlink" version="1.1" id="Layer_1" x="0px" y="0px" viewBox="0 0 512 512" style="enable-background:new 0 0 512 512;" xml:space="preserve">
<g>
	<g>
		<path d="M469.333,64H42.667C19.146,64,0,83.135,0,106.667v298.667C0,428.865,19.146,448,42.667,448h426.667    C492.854,448,512,428.865,512,405.333V106.667C512,83.135,492.854,64,469.333,64z M74.667,298.667H160    c5.896,0,10.667,4.771,10.667,10.667c0,5.896-4.771,10.667-10.667,10.667H74.667C68.771,320,64,315.229,64,309.333    C64,303.438,68.771,298.667,74.667,298.667z M245.333,384H74.667C68.771,384,64,379.229,64,373.333    c0-5.896,4.771-10.667,10.667-10.667h170.667c5.896,0,10.667,4.771,10.667,10.667C256,379.229,251.229,384,245.333,384z     M448,245.333c0,5.896-4.771,10.667-10.667,10.667H352c-5.896,0-10.667-4.771-10.667-10.667V138.667    c0-5.896,4.771-10.667,10.667-10.667h85.333c5.896,0,10.667,4.771,10.667,10.667V245.333z"/>
	</g>
</g>
<g>
</g>
<g>
</g>
<g>
</g>
<g>
</g>
<g>
</g>
<g>
</g>
<g>
</g>
<g>
</g>
<g>
</g>
<g>
</g>
<g>
</g>
<g>
</g>
<g>
</g>
<g>
</g>
<g>
</g>
</svg>
