<?xml version="1.0" encoding="iso-8859-1"?>
<!-- Generator: Adobe Illustrator 19.0.0, SVG Export Plug-In . SVG Version: 6.00 Build 0)  -->
<svg xmlns="http://www.w3.org/2000/svg" xmlns:xlink="http://www.w3.org/1999/xlink" version="1.1" id="Layer_1" x="0px" y="0px" viewBox="0 0 512 512" style="enable-background:new 0 0 512 512;" xml:space="preserve">
<g>
	<g>
		<path d="M469.333,85.333H249.75l-39.542-39.542c-2-2-4.708-3.125-7.542-3.125h-160C19.135,42.667,0,61.802,0,85.333v341.333    c0,23.531,19.135,42.667,42.667,42.667h426.667c23.531,0,42.667-19.135,42.667-42.667V128    C512,104.469,492.865,85.333,469.333,85.333z M442.542,293.969c-22.979,31.083-63.708,79.583-85.938,105.719    c-2.417,2.854-7.042,6.271-15.271,6.271c-8.229,0-12.854-3.417-15.281-6.271c-22.219-26.135-62.948-74.635-85.927-105.719    c-2.344-3.167-5.458-8.146-5.458-14.75c0-12.802,10.417-23.219,23.219-23.219h40.781v-77.177c0-16.26,13.229-29.49,29.49-29.49    h26.354c16.26,0,29.49,13.229,29.49,29.49V256h40.781C437.583,256,448,266.417,448,279.219    C448,285.823,444.885,290.802,442.542,293.969z"/>
	</g>
</g>
<g>
</g>
<g>
</g>
<g>
</g>
<g>
</g>
<g>
</g>
<g>
</g>
<g>
</g>
<g>
</g>
<g>
</g>
<g>
</g>
<g>
</g>
<g>
</g>
<g>
</g>
<g>
</g>
<g>
</g>
</svg>
