<?xml version="1.0" encoding="iso-8859-1"?>
<!-- Generator: Adobe Illustrator 19.0.0, SVG Export Plug-In . SVG Version: 6.00 Build 0)  -->
<svg xmlns="http://www.w3.org/2000/svg" xmlns:xlink="http://www.w3.org/1999/xlink" version="1.1" id="Layer_1" x="0px" y="0px" viewBox="0 0 512 512" style="enable-background:new 0 0 512 512;" xml:space="preserve">
<g>
	<g>
		<g>
			<path d="M157.854,134.375l91.583,74.115c1.958,1.583,4.333,2.375,6.708,2.375c2.344,0,4.698-0.771,6.635-2.313l91.969-73.115     c4.344-3.458,5.313-9.656,2.24-14.271c-6.063-9.083-15.896-14.5-26.323-14.5H181.333c-9.854,0-19.073,4.74-25.292,13     C152.583,124.26,153.385,130.76,157.854,134.375z"/>
			<path d="M356.635,168.854c-3.656-1.781-8.052-1.313-11.271,1.25l-76.719,60.844c-7.677,4.875-16.792,5.531-26.24-0.698     l-75.698-61.271c-3.208-2.583-7.625-3.115-11.302-1.333c-3.708,1.771-6.073,5.51-6.073,9.625v68.063c0,17.646,14.354,32,32,32     h149.333c17.646,0,32-14.354,32-32v-66.875C362.667,174.365,360.323,170.635,356.635,168.854z"/>
			<path d="M469.333,21.333H42.667C19.146,21.333,0,40.469,0,64v298.667c0,23.531,19.146,42.667,42.667,42.667h149.381     c-0.448,17.018-3.698,44.24-15.902,57.094c-4.479,4.708-9.604,6.906-16.146,6.906c-5.896,0-10.667,4.771-10.667,10.667     c0,5.896,4.771,10.667,10.667,10.667h192c5.896,0,10.667-4.771,10.667-10.667c0-5.896-4.771-10.667-10.667-10.667     c-6.542,0-11.667-2.188-16.125-6.896c-12.174-12.79-15.445-40.051-15.91-57.104h149.369c23.521,0,42.667-19.135,42.667-42.667V64     C512,40.469,492.854,21.333,469.333,21.333z M256,384.063c-11.792,0-21.396-9.604-21.396-21.396s9.604-21.396,21.396-21.396     s21.396,9.604,21.396,21.396S267.792,384.063,256,384.063z M42.667,320V64h426.667l0.018,256H42.667z"/>
		</g>
	</g>
</g>
<g>
</g>
<g>
</g>
<g>
</g>
<g>
</g>
<g>
</g>
<g>
</g>
<g>
</g>
<g>
</g>
<g>
</g>
<g>
</g>
<g>
</g>
<g>
</g>
<g>
</g>
<g>
</g>
<g>
</g>
</svg>
