<?xml version="1.0" encoding="UTF-8" standalone="no"?>
<svg
   xmlns:dc="http://purl.org/dc/elements/1.1/"
   xmlns:cc="http://creativecommons.org/ns#"
   xmlns:rdf="http://www.w3.org/1999/02/22-rdf-syntax-ns#"
   xmlns:svg="http://www.w3.org/2000/svg"
   xmlns="http://www.w3.org/2000/svg"
   xmlns:sodipodi="http://sodipodi.sourceforge.net/DTD/sodipodi-0.dtd"
   xmlns:inkscape="http://www.inkscape.org/namespaces/inkscape"
   width="500mm"
   height="297mm"
   version="1.1"
   id="svg36"
   sodipodi:docname="shield_cut_final.svg"
   inkscape:version="0.92.4 (5da689c313, 2019-01-14)">
  <metadata
     id="metadata40">
    <rdf:RDF>
      <cc:Work
         rdf:about="">
        <dc:format>image/svg+xml</dc:format>
        <dc:type
           rdf:resource="http://purl.org/dc/dcmitype/StillImage" />
        <dc:title></dc:title>
      </cc:Work>
    </rdf:RDF>
  </metadata>
  <sodipodi:namedview
     pagecolor="#ffffff"
     bordercolor="#666666"
     borderopacity="1"
     objecttolerance="10"
     gridtolerance="10"
     guidetolerance="10"
     inkscape:pageopacity="0"
     inkscape:pageshadow="2"
     inkscape:window-width="1920"
     inkscape:window-height="1001"
     id="namedview38"
     showgrid="false"
     units="mm"
     inkscape:zoom="0.29732611"
     inkscape:cx="326.55822"
     inkscape:cy="1000.3135"
     inkscape:window-x="-9"
     inkscape:window-y="-9"
     inkscape:window-maximized="1"
     inkscape:current-layer="g34" />
  <desc
     id="desc2">D:\Plasticpreneur\Moulds\Covid-19 Mask\Vorlagen\Prusa\shield_final.dxf - scale = 1.000000, origin = (0.000000, 0.000000), method = manual</desc>
  <defs
     id="defs16">
    <marker
       id="DistanceX"
       orient="auto"
       refX="0"
       refY="0"
       style="overflow:visible">
      <path
         d="M 3,-3 -3,3 M 0,-5 V 5"
         style="stroke:#000000;stroke-width:0.5"
         id="path4"
         inkscape:connector-curvature="0" />
    </marker>
    <pattern
       height="8"
       id="Hatch"
       patternUnits="userSpaceOnUse"
       width="8"
       x="0"
       y="0">
      <path
         d="M8 4 l-4,4"
         linecap="square"
         stroke="#000000"
         stroke-width="0.25"
         id="path7" />
      <path
         d="M6 2 l-4,4"
         linecap="square"
         stroke="#000000"
         stroke-width="0.25"
         id="path9" />
      <path
         d="M4 0 l-4,4"
         linecap="square"
         stroke="#000000"
         stroke-width="0.25"
         id="path11" />
    </pattern>
    <symbol
       id="*MODEL_SPACE" />
    <symbol
       id="*PAPER_SPACE" />
  </defs>
  <g
     inkscape:groupmode="layer"
     inkscape:label="0"
     id="g34"
     transform="translate(0,-3.1719058e-5)">
    <path
       d="m 1164.6048,89.83152 a 37.795526,37.281452 0 0 1 37.7955,37.28146 v 671.06613 a 188.97763,186.40726 0 0 1 -188.9776,186.40726 l -529.13604,0 A 188.97763,186.40726 0 0 1 295.30906,798.17911 l 0,-671.06613 a 37.795526,37.281452 0 0 1 37.7955,-37.28146 z"
       style="fill:none;stroke:#000000;stroke-width:0.37795275;stroke-miterlimit:4;stroke-dasharray:none"
       id="path18"
       inkscape:connector-curvature="0" />
    <path
       d="m 631.68962,138.02391 a 10.393701,10.393701 0 0 1 0,-20.7874 h 7.55905 a 10.393701,10.393701 0 0 1 0,20.7874 z"
       style="fill:none;stroke:#000000;stroke-width:0.37795275;stroke-miterlimit:4;stroke-dasharray:none"
       id="path20"
       inkscape:connector-curvature="0" />
    <path
       d="m 866.01894,138.02391 h -7.55906 a 10.393701,10.393701 0 0 1 0,-20.7874 h 7.55906 a 10.393701,10.393701 0 0 1 0,20.7874 z"
       style="fill:none;stroke:#000000;stroke-width:0.37795275;stroke-miterlimit:4;stroke-dasharray:none"
       id="path22"
       inkscape:connector-curvature="0" />
    <path
       d="m 1157.0426,117.23651 h 7.559 a 10.393701,10.393701 0 0 1 0,20.7874 h -7.559 a 10.393701,10.393701 0 0 1 0,-20.7874 z"
       style="fill:none;stroke:#000000;stroke-width:0.37795275;stroke-miterlimit:4;stroke-dasharray:none"
       id="path24"
       inkscape:connector-curvature="0" />
    <path
       d="m 340.666,117.23651 a 10.393701,10.393701 0 0 1 0,20.7874 h -7.55906 a 10.393701,10.393701 0 0 1 0,-20.7874 z"
       style="fill:none;stroke:#000000;stroke-width:0.37795275;stroke-miterlimit:4;stroke-dasharray:none"
       id="path26"
       inkscape:connector-curvature="0" />
  </g>
</svg>
