  0
SECTION
  2
HEADER
  9
$ACADVER
  1
AC1015
  9
$ACADMAINTVER
 70
     6
  9
$DWGCODEPAGE
  3
ANSI_1252
  9
$INSBASE
 10
0.0
 20
0.0
 30
0.0
  9
$EXTMIN
 10
0.0
 20
0.0
 30
0.0
  9
$EXTMAX
 10
420.0
 20
297.0
 30
0.0
  9
$LIMMIN
 10
0.0
 20
0.0
  9
$LIMMAX
 10
420.0
 20
297.0
  9
$ORTHOMODE
 70
     0
  9
$REGENMODE
 70
     1
  9
$FILLMODE
 70
     1
  9
$QTEXTMODE
 70
     0
  9
$MIRRTEXT
 70
     1
  9
$LTSCALE
 40
1.0
  9
$ATTMODE
 70
     1
  9
$TEXTSIZE
 40
5.0
  9
$TRACEWID
 40
1.0
  9
$TEXTSTYLE
  7
Standard
  9
$CLAYER
  8
0
  9
$CELTYPE
  6
ByLayer
  9
$CECOLOR
 62
   256
  9
$CELTSCALE
 40
1.0
  9
$DISPSILH
 70
     0
  9
$DIMSCALE
 40
1.0
  9
$DIMASZ
 40
4.0
  9
$DIMEXO
 40
1.0
  9
$DIMDLI
 40
3.75
  9
$DIMRND
 40
0.0
  9
$DIMDLE
 40
0.0
  9
$DIMEXE
 40
1.0
  9
$DIMTP
 40
0.0
  9
$DIMTM
 40
0.0
  9
$DIMTXT
 40
3.5
  9
$DIMCEN
 40
2.5
  9
$DIMTSZ
 40
0.0
  9
$DIMTOL
 70
     0
  9
$DIMLIM
 70
     0
  9
$DIMTIH
 70
     1
  9
$DIMTOH
 70
     1
  9
$DIMSE1
 70
     0
  9
$DIMSE2
 70
     0
  9
$DIMTAD
 70
     1
  9
$DIMZIN
 70
     0
  9
$DIMBLK
  1

  9
$DIMASO
 70
     1
  9
$DIMSHO
 70
     1
  9
$DIMPOST
  1

  9
$DIMAPOST
  1

  9
$DIMALT
 70
     0
  9
$DIMALTD
 70
     3
  9
$DIMALTF
 40
0.0393700787
  9
$DIMLFAC
 40
1.0
  9
$DIMTOFL
 70
     1
  9
$DIMTVP
 40
0.0
  9
$DIMTIX
 70
     0
  9
$DIMSOXD
 70
     0
  9
$DIMSAH
 70
     0
  9
$DIMBLK1
  1

  9
$DIMBLK2
  1

  9
$DIMSTYLE
  2
ISO-25
  9
$DIMCLRD
 70
     0
  9
$DIMCLRE
 70
     0
  9
$DIMCLRT
 70
     0
  9
$DIMTFAC
 40
1.0
  9
$DIMGAP
 40
1.524
  9
$DIMJUST
 70
     0
  9
$DIMSD1
 70
     0
  9
$DIMSD2
 70
     0
  9
$DIMTOLJ
 70
     0
  9
$DIMTZIN
 70
     0
  9
$DIMALTZ
 70
     0
  9
$DIMALTTZ
 70
     0
  9
$DIMUPT
 70
     0
  9
$DIMDEC
 70
     2
  9
$DIMTDEC
 70
     2
  9
$DIMALTU
 70
     2
  9
$DIMALTTD
 70
     3
  9
$DIMTXSTY
  7
Standard
  9
$DIMAUNIT
 70
     0
  9
$DIMADEC
 70
     2
  9
$DIMALTRND
 40
0.0
  9
$DIMAZIN
 70
     0
  9
$DIMDSEP
 70
    44
  9
$DIMATFIT
 70
     3
  9
$DIMFRAC
 70
     0
  9
$DIMLDRBLK
  1

  9
$DIMLUNIT
 70
     2
  9
$DIMLWD
 70
    -2
  9
$DIMLWE
 70
    -2
  9
$DIMTMOVE
 70
     0
  9
$LUNITS
 70
     2
  9
$LUPREC
 70
     2
  9
$SKETCHINC
 40
1.0
  9
$FILLETRAD
 40
10.0
  9
$AUNITS
 70
     0
  9
$AUPREC
 70
     2
  9
$MENU
  1
.
  9
$ELEVATION
 40
0.0
  9
$PELEVATION
 40
0.0
  9
$THICKNESS
 40
0.0
  9
$LIMCHECK
 70
     0
  9
$CHAMFERA
 40
10.0
  9
$CHAMFERB
 40
10.0
  9
$CHAMFERC
 40
20.0
  9
$CHAMFERD
 40
0.0
  9
$SKPOLY
 70
     0
  9
$TDCREATE
 40
2455786.886502129
  9
$TDUCREATE
 40
2455786.803168796
  9
$TDUPDATE
 40
2455786.886502141
  9
$TDUUPDATE
 40
2455786.803168808
  9
$TDINDWG
 40
0.0000000116
  9
$TDUSRTIMER
 40
0.0000000116
  9
$USRTIMER
 70
     1
  9
$ANGBASE
 50
0.0
  9
$ANGDIR
 70
     0
  9
$PDMODE
 70
     0
  9
$PDSIZE
 40
-1.0
  9
$PLINEWID
 40
0.0
  9
$SPLFRAME
 70
     0
  9
$SPLINETYPE
 70
     6
  9
$SPLINESEGS
 70
     8
  9
$HANDSEED
  5
266
  9
$SURFTAB1
 70
     6
  9
$SURFTAB2
 70
     6
  9
$SURFTYPE
 70
     6
  9
$SURFU
 70
     6
  9
$SURFV
 70
     6
  9
$UCSBASE
  2

  9
$UCSNAME
  2

  9
$UCSORG
 10
0.0
 20
0.0
 30
0.0
  9
$UCSXDIR
 10
1.0
 20
0.0
 30
0.0
  9
$UCSYDIR
 10
0.0
 20
1.0
 30
0.0
  9
$UCSORTHOREF
  2

  9
$UCSORTHOVIEW
 70
     0
  9
$UCSORGTOP
 10
0.0
 20
0.0
 30
0.0
  9
$UCSORGBOTTOM
 10
0.0
 20
0.0
 30
0.0
  9
$UCSORGLEFT
 10
0.0
 20
0.0
 30
0.0
  9
$UCSORGRIGHT
 10
0.0
 20
0.0
 30
0.0
  9
$UCSORGFRONT
 10
0.0
 20
0.0
 30
0.0
  9
$UCSORGBACK
 10
0.0
 20
0.0
 30
0.0
  9
$PUCSBASE
  2

  9
$PUCSNAME
  2

  9
$PUCSORG
 10
0.0
 20
0.0
 30
0.0
  9
$PUCSXDIR
 10
1.0
 20
0.0
 30
0.0
  9
$PUCSYDIR
 10
0.0
 20
1.0
 30
0.0
  9
$PUCSORTHOREF
  2

  9
$PUCSORTHOVIEW
 70
     0
  9
$PUCSORGTOP
 10
0.0
 20
0.0
 30
0.0
  9
$PUCSORGBOTTOM
 10
0.0
 20
0.0
 30
0.0
  9
$PUCSORGLEFT
 10
0.0
 20
0.0
 30
0.0
  9
$PUCSORGRIGHT
 10
0.0
 20
0.0
 30
0.0
  9
$PUCSORGFRONT
 10
0.0
 20
0.0
 30
0.0
  9
$PUCSORGBACK
 10
0.0
 20
0.0
 30
0.0
  9
$USERI1
 70
     0
  9
$USERI2
 70
     0
  9
$USERI3
 70
     0
  9
$USERI4
 70
     0
  9
$USERI5
 70
     0
  9
$USERR1
 40
0.0
  9
$USERR2
 40
0.0
  9
$USERR3
 40
0.0
  9
$USERR4
 40
0.0
  9
$USERR5
 40
0.0
  9
$WORLDVIEW
 70
     1
  9
$SHADEDGE
 70
     3
  9
$SHADEDIF
 70
    70
  9
$TILEMODE
 70
     1
  9
$MAXACTVP
 70
    64
  9
$PINSBASE
 10
0.0
 20
0.0
 30
0.0
  9
$PLIMCHECK
 70
     0
  9
$PEXTMIN
 10
1.0000000000E+20
 20
1.0000000000E+20
 30
1.0000000000E+20
  9
$PEXTMAX
 10
-1.0000000000E+20
 20
-1.0000000000E+20
 30
-1.0000000000E+20
  9
$PLIMMIN
 10
0.0
 20
0.0
  9
$PLIMMAX
 10
420.0
 20
297.0
  9
$UNITMODE
 70
     0
  9
$VISRETAIN
 70
     1
  9
$PLINEGEN
 70
     0
  9
$PSLTSCALE
 70
     1
  9
$TREEDEPTH
 70
  3020
  9
$CMLSTYLE
  2
Standard
  9
$CMLJUST
 70
     0
  9
$CMLSCALE
 40
20.0
  9
$PROXYGRAPHICS
 70
     1
  9
$MEASUREMENT
 70
     1
  9
$CELWEIGHT
370
    -1
  9
$ENDCAPS
280
     0
  9
$JOINSTYLE
280
     0
  9
$LWDISPLAY
290
     1
  9
$INSUNITS
 70
     4
  9
$HYPERLINKBASE
  1

  9
$STYLESHEET
  1

  9
$XEDIT
290
     1
  9
$CEPSNTYPE
380
     0
  9
$PSTYLEMODE
290
     1
  9
$FINGERPRINTGUID
  2
{DF2D99A1-E92A-45B9-87B3-AA627A555B77}
  9
$VERSIONGUID
  2
{FAEB1C32-E019-11D5-929B-00C0DF256EC4}
  9
$EXTNAMES
290
     1
  9
$PSVPSCALE
 40
0.0
  9
$OLESTARTUP
290
     0
  0
ENDSEC
  0
SECTION
  2
CLASSES
  0
CLASS
  1
ACDBDICTIONARYWDFLT
  2
AcDbDictionaryWithDefault
  3
ObjectDBX Classes
 90
        0
280
     0
281
     0
  0
CLASS
  1
VISUALSTYLE
  2
AcDbVisualStyle
  3
ObjectDBX Classes
 90
     4095
280
     0
281
     0
  0
CLASS
  1
MATERIAL
  2
AcDbMaterial
  3
ObjectDBX Classes
 90
     1153
280
     0
281
     0
  0
CLASS
  1
SCALE
  2
AcDbScale
  3
ObjectDBX Classes
 90
     1153
280
     0
281
     0
  0
CLASS
  1
DICTIONARYVAR
  2
AcDbDictionaryVar
  3
ObjectDBX Classes
 90
        0
280
     0
281
     0
  0
CLASS
  1
ACDBPLACEHOLDER
  2
AcDbPlaceHolder
  3
ObjectDBX Classes
 90
        0
280
     0
281
     0
  0
CLASS
  1
LAYOUT
  2
AcDbLayout
  3
ObjectDBX Classes
 90
        0
280
     0
281
     0
  0
ENDSEC
  0
SECTION
  2
TABLES
  0
TABLE
  2
VPORT
  5
8
330
0
100
AcDbSymbolTable
 70
     1
  0
VPORT
  5
29
330
8
100
AcDbSymbolTableRecord
100
AcDbViewportTableRecord
  2
*Active
 70
     0
 10
0.0
 20
0.0
 11
1.0
 21
1.0
 12
210.0
 22
148.5
 13
0.0
 23
0.0
 14
10.0
 24
10.0
 15
10.0
 25
10.0
 16
0.0
 26
0.0
 36
1.0
 17
0.0
 27
0.0
 37
0.0
 40
297.0
 41
1.4141414141
 42
50.0
 43
0.0
 44
0.0
 50
0.0
 51
0.0
 71
     0
 72
  2000
 73
     1
 74
     3
 75
     0
 76
     0
 77
     0
 78
     0
281
     0
 65
     1
110
0.0
120
0.0
130
0.0
111
1.0
121
0.0
131
0.0
112
0.0
122
1.0
132
0.0
 79
     0
146
0.0
  0
ENDTAB
  0
TABLE
  2
LTYPE
  5
5
330
0
100
AcDbSymbolTable
 70
     6
  0
LTYPE
  5
14
330
5
100
AcDbSymbolTableRecord
100
AcDbLinetypeTableRecord
  2
ByBlock
 70
     0
  3

 72
    65
 73
     0
 40
0.0
  0
LTYPE
  5
15
330
5
100
AcDbSymbolTableRecord
100
AcDbLinetypeTableRecord
  2
ByLayer
 70
     0
  3

 72
    65
 73
     0
 40
0.0
  0
LTYPE
  5
16
330
5
100
AcDbSymbolTableRecord
100
AcDbLinetypeTableRecord
  2
Continuous
 70
     0
  3
Solid line
 72
    65
 73
     0
 40
0.0
  0
LTYPE
  5
3F
330
5
100
AcDbSymbolTableRecord
100
AcDbLinetypeTableRecord
  2
HIDDEN
 70
     0
  3
Hidden __ __ __ __ __ __ __ __ __ __ __ __ __ __
 72
    65
 73
     2
 40
1.905
 49
1.27
 74
     0
 49
-0.635
 74
     0
  0
LTYPE
  5
40
330
5
100
AcDbSymbolTableRecord
100
AcDbLinetypeTableRecord
  2
PHANTOM
 70
     0
  3
Phantom ______  __  __  ______  __  __  ______
 72
    65
 73
     6
 40
12.7
 49
6.35
 74
     0
 49
-1.27
 74
     0
 49
1.27
 74
     0
 49
-1.27
 74
     0
 49
1.27
 74
     0
 49
-1.27
 74
     0
  0
LTYPE
  5
41
330
5
100
AcDbSymbolTableRecord
100
AcDbLinetypeTableRecord
  2
CENTER
 70
     0
  3
Center ____ _ ____ _ ____ _ ____ _ ____ _ ____
 72
    65
 73
     4
 40
10.16
 49
6.35
 74
     0
 49
-1.27
 74
     0
 49
1.27
 74
     0
 49
-1.27
 74
     0
  0
LTYPE
  5
42
330
5
100
AcDbSymbolTableRecord
100
AcDbLinetypeTableRecord
  2
CENTERX2
 70
     0
  3
Center (2x) ________  __  ________  __  _____
 72
    65
 73
     4
 40
20.32
 49
12.7
 74
     0
 49
-2.54
 74
     0
 49
2.54
 74
     0
 49
-2.54
 74
     0
  0
LTYPE
  5
43
330
5
100
AcDbSymbolTableRecord
100
AcDbLinetypeTableRecord
  2
DOT2
 70
     0
  3
Dot (.5x) ........................................
 72
    65
 73
     2
 40
0.635
 49
0.0
 74
     0
 49
-0.635
 74
     0
  0
ENDTAB
  0
TABLE
  2
LAYER
  5
2
330
0
100
AcDbSymbolTable
 70
     2
  0
LAYER
  5
10
330
2
100
AcDbSymbolTableRecord
100
AcDbLayerTableRecord
  2
0
 70
     0
 62
     7
  6
Continuous
370
    -3
390
F
  0
LAYER
  5
44
330
2
100
AcDbSymbolTableRecord
100
AcDbLayerTableRecord
  2
SLD-0
 70
     0
 62
     7
  6
Continuous
370
    -3
390
F
  0
ENDTAB
  0
TABLE
  2
STYLE
  5
3
330
0
100
AcDbSymbolTable
 70
     9
  0
STYLE
  5
11
330
3
100
AcDbSymbolTableRecord
100
AcDbTextStyleTableRecord
  2
Standard
 70
     0
 40
0.0
 41
1.0
 50
0.0
 71
     0
 42
2.5
  3
txt
  4

  0
STYLE
  5
4C
330
3
100
AcDbSymbolTableRecord
100
AcDbTextStyleTableRecord
  2
SLDTEXTSTYLE0
 70
     0
 40
0.0
 41
0.605
 50
0.0
 71
     0
 42
0.2
  3
TXT
  4

  0
STYLE
  5
8C
330
3
100
AcDbSymbolTableRecord
100
AcDbTextStyleTableRecord
  2
SLDTEXTSTYLE1
 70
     0
 40
0.0
 41
0.554583535
 50
0.0
 71
     0
 42
0.2
  3
TXT
  4

  0
STYLE
  5
9F
330
3
100
AcDbSymbolTableRecord
100
AcDbTextStyleTableRecord
  2
SLDTEXTSTYLE2
 70
     0
 40
0.0
 41
0.4915625
 50
0.0
 71
     0
 42
0.2
  3
TXT
  4

  0
STYLE
  5
FC
330
3
100
AcDbSymbolTableRecord
100
AcDbTextStyleTableRecord
  2
SLDTEXTSTYLE3
 70
     0
 40
0.0
 41
0.75
 50
0.0
 71
     0
 42
0.2
  3
TXT
  4

  0
STYLE
  5
11D
330
3
100
AcDbSymbolTableRecord
100
AcDbTextStyleTableRecord
  2
SLDTEXTSTYLE4
 70
     0
 40
0.0
 41
0.57
 50
0.0
 71
     0
 42
0.2
  3
TXT
  4

  0
STYLE
  5
121
330
3
100
AcDbSymbolTableRecord
100
AcDbTextStyleTableRecord
  2
SLDTEXTSTYLE5
 70
     0
 40
0.0
 41
0.5375
 50
0.0
 71
     0
 42
0.2
  3
TXT
  4

  0
STYLE
  5
129
330
3
100
AcDbSymbolTableRecord
100
AcDbTextStyleTableRecord
  2
SLDTEXTSTYLE6
 70
     0
 40
0.0
 41
0.5484615385
 50
0.0
 71
     0
 42
0.2
  3
TXT
  4

  0
STYLE
  5
1EF
330
3
100
AcDbSymbolTableRecord
100
AcDbTextStyleTableRecord
  2
SLDTEXTSTYLE7
 70
     0
 40
0.0
 41
1.0
 50
0.0
 71
     0
 42
0.2
  3
TXT
  4

  0
ENDTAB
  0
TABLE
  2
VIEW
  5
6
330
0
100
AcDbSymbolTable
 70
     0
  0
ENDTAB
  0
TABLE
  2
UCS
  5
7
330
0
100
AcDbSymbolTable
 70
     0
  0
ENDTAB
  0
TABLE
  2
APPID
  5
9
330
0
100
AcDbSymbolTable
 70
     1
  0
APPID
  5
12
330
9
100
AcDbSymbolTableRecord
100
AcDbRegAppTableRecord
  2
ACAD
 70
     0
  0
ENDTAB
  0
TABLE
  2
DIMSTYLE
  5
A
330
0
100
AcDbSymbolTable
 70
    11
100
AcDbDimStyleTable
  0
DIMSTYLE
105
27
330
A
100
AcDbSymbolTableRecord
100
AcDbDimStyleTableRecord
  2
ISO-25
 70
     0
 41
2.5
 42
0.625
 43
3.75
 44
1.25
 73
     0
 74
     0
 77
     1
 78
     8
140
2.5
141
2.5
143
0.0393700787
147
0.625
171
     3
172
     1
271
     2
272
     2
274
     3
278
    44
283
     0
284
     8
340
11
  0
DIMSTYLE
105
19A
102
{ACAD_REACTORS
330
199
102
}
330
A
100
AcDbSymbolTableRecord
100
AcDbDimStyleTableRecord
  2
SLDDIMSTYLE0
 70
     0
 41
4.0
 44
0.0
 45
0.000000001
 73
     0
 74
     0
 77
     1
 78
    12
140
3.5
147
0.875
173
     1
271
     2
272
     2
276
     2
284
    12
340
4C
  0
DIMSTYLE
105
1AA
102
{ACAD_REACTORS
330
1A9
102
}
330
A
100
AcDbSymbolTableRecord
100
AcDbDimStyleTableRecord
  2
SLDDIMSTYLE1
 70
     0
 41
4.0
 44
0.0
 45
0.000000001
 48
0.2
 71
     1
 73
     0
 74
     0
 77
     1
 78
    12
140
3.5
147
0.875
173
     1
271
     2
272
     1
276
     2
284
     8
340
4C
  0
DIMSTYLE
105
1B9
102
{ACAD_REACTORS
330
1B8
330
1C5
102
}
330
A
100
AcDbSymbolTableRecord
100
AcDbDimStyleTableRecord
  2
SLDDIMSTYLE2
 70
     0
 41
4.0
 44
0.0
 45
0.000000001
 47
0.02
 48
0.02
 71
     1
 73
     0
 74
     0
 77
     1
 78
    12
140
3.5
147
0.875
173
     1
271
     2
272
     2
276
     2
284
     8
340
4C
  0
DIMSTYLE
105
1D2
102
{ACAD_REACTORS
330
1D1
102
}
330
A
100
AcDbSymbolTableRecord
100
AcDbDimStyleTableRecord
  2
SLDDIMSTYLE3
 70
     0
 41
4.0
 44
0.0
 45
0.000000001
 73
     0
 74
     0
 77
     1
 78
    12
140
3.5
147
0.875
173
     1
271
     2
272
     2
276
     2
284
    12
340
4C
  0
DIMSTYLE
105
1DF
102
{ACAD_REACTORS
330
1DE
102
}
330
A
100
AcDbSymbolTableRecord
100
AcDbDimStyleTableRecord
  2
SLDDIMSTYLE4
 70
     0
 41
4.0
 44
0.0
 45
0.000000001
 48
0.1
 71
     1
 73
     0
 74
     0
 77
     1
 78
    12
140
3.5
147
0.875
173
     1
271
     2
272
     1
276
     2
284
     8
340
4C
  0
DIMSTYLE
105
1F0
102
{ACAD_REACTORS
330
1F4
330
1F7
330
1F9
102
}
330
A
100
AcDbSymbolTableRecord
100
AcDbDimStyleTableRecord
  2
SLDDIMSTYLE5
 70
     0
 41
0.0
 44
0.0
 45
0.000000001
140
3.5
147
0.875
173
     1
271
     0
272
     0
276
     2
340
1EF
341
1F1
343
1F1
344
1F1
  0
DIMSTYLE
105
1F5
330
A
100
AcDbSymbolTableRecord
100
AcDbDimStyleTableRecord
  2
SLDDIMSTYLE6
 70
     0
 41
4.0
 44
0.0
 45
0.000000001
140
0.0
146
4.0
147
0.0
173
     1
271
     0
272
     0
276
     2
340
11
  0
DIMSTYLE
105
1FA
330
A
100
AcDbSymbolTableRecord
100
AcDbDimStyleTableRecord
  2
SLDDIMSTYLE7
 70
     0
 41
4.0
 44
0.0
 45
0.000000001
140
0.0
146
4.0
147
0.0
173
     1
271
     0
272
     0
276
     2
340
11
341
1F1
343
1F1
344
1F1
  0
DIMSTYLE
105
235
102
{ACAD_REACTORS
330
234
102
}
330
A
100
AcDbSymbolTableRecord
100
AcDbDimStyleTableRecord
  2
SLDDIMSTYLE8
 70
     0
 41
4.0
 44
0.0
 45
0.000000001
 47
0.2
 71
     1
 73
     0
 74
     0
 77
     1
 78
    12
140
3.5
144
0.5
147
0.875
173
     1
271
     2
272
     1
276
     2
284
     8
340
4C
  0
DIMSTYLE
105
245
102
{ACAD_REACTORS
330
244
330
254
102
}
330
A
100
AcDbSymbolTableRecord
100
AcDbDimStyleTableRecord
  2
SLDDIMSTYLE9
 70
     0
 41
4.0
 44
0.0
 45
0.000000001
 47
0.1
 71
     1
 73
     0
 74
     0
 77
     1
 78
    12
140
3.5
144
0.5
147
0.875
173
     1
271
     2
272
     1
276
     2
284
     8
340
4C
  0
ENDTAB
  0
TABLE
  2
BLOCK_RECORD
  5
1
330
0
100
AcDbSymbolTable
 70
    25
  0
BLOCK_RECORD
  5
1F
330
1
100
AcDbSymbolTableRecord
100
AcDbBlockTableRecord
  2
*Model_Space
340
22
  0
BLOCK_RECORD
  5
1B
330
1
100
AcDbSymbolTableRecord
100
AcDbBlockTableRecord
  2
*Paper_Space
340
1E
  0
BLOCK_RECORD
  5
23
330
1
100
AcDbSymbolTableRecord
100
AcDbBlockTableRecord
  2
*Paper_Space0
340
26
  0
BLOCK_RECORD
  5
45
330
1
100
AcDbSymbolTableRecord
100
AcDbBlockTableRecord
  2
Block22
340
0
102
{BLKREFS
331
F5
102
}
  0
BLOCK_RECORD
  5
70
330
1
100
AcDbSymbolTableRecord
100
AcDbBlockTableRecord
  2
Block23
340
0
102
{BLKREFS
331
F6
102
}
  0
BLOCK_RECORD
  5
74
330
1
100
AcDbSymbolTableRecord
100
AcDbBlockTableRecord
  2
Block24
340
0
102
{BLKREFS
331
F7
102
}
  0
BLOCK_RECORD
  5
7C
330
1
100
AcDbSymbolTableRecord
100
AcDbBlockTableRecord
  2
Block25
340
0
102
{BLKREFS
331
F8
102
}
  0
BLOCK_RECORD
  5
80
330
1
100
AcDbSymbolTableRecord
100
AcDbBlockTableRecord
  2
Block26
340
0
102
{BLKREFS
331
F9
102
}
  0
BLOCK_RECORD
  5
8E
330
1
100
AcDbSymbolTableRecord
100
AcDbBlockTableRecord
  2
Block27
340
0
102
{BLKREFS
331
FA
102
}
  0
BLOCK_RECORD
  5
98
330
1
100
AcDbSymbolTableRecord
100
AcDbBlockTableRecord
  2
Block28
340
0
102
{BLKREFS
331
FB
102
}
  0
BLOCK_RECORD
  5
118
330
1
100
AcDbSymbolTableRecord
100
AcDbBlockTableRecord
  2
SW_NOTE_0
340
0
102
{BLKREFS
331
11F
102
}
  0
BLOCK_RECORD
  5
130
330
1
100
AcDbSymbolTableRecord
100
AcDbBlockTableRecord
  2
SW_NOTE_1
340
0
102
{BLKREFS
331
135
102
}
  0
BLOCK_RECORD
  5
142
330
1
100
AcDbSymbolTableRecord
100
AcDbBlockTableRecord
  2
SW_NOTE_2
340
0
102
{BLKREFS
331
147
102
}
  0
BLOCK_RECORD
  5
14E
330
1
100
AcDbSymbolTableRecord
100
AcDbBlockTableRecord
  2
SW_CENTERMARKSYMBOL_0
340
0
102
{BLKREFS
331
159
102
}
  0
BLOCK_RECORD
  5
19B
330
1
100
AcDbSymbolTableRecord
100
AcDbBlockTableRecord
  2
*D12
340
0
  0
BLOCK_RECORD
  5
1AB
330
1
100
AcDbSymbolTableRecord
100
AcDbBlockTableRecord
  2
*D13
340
0
  0
BLOCK_RECORD
  5
1BA
330
1
100
AcDbSymbolTableRecord
100
AcDbBlockTableRecord
  2
*D14
340
0
  0
BLOCK_RECORD
  5
1C6
330
1
100
AcDbSymbolTableRecord
100
AcDbBlockTableRecord
  2
*D15
340
0
  0
BLOCK_RECORD
  5
1D3
330
1
100
AcDbSymbolTableRecord
100
AcDbBlockTableRecord
  2
*D16
340
0
  0
BLOCK_RECORD
  5
1E0
330
1
100
AcDbSymbolTableRecord
100
AcDbBlockTableRecord
  2
*D17
340
0
  0
BLOCK_RECORD
  5
1F1
330
1
100
AcDbSymbolTableRecord
100
AcDbBlockTableRecord
  2
_NONE
340
0
  0
BLOCK_RECORD
  5
1FE
330
1
100
AcDbSymbolTableRecord
100
AcDbBlockTableRecord
  2
SW_SFSYMBOL_0
340
0
102
{BLKREFS
331
207
102
}
  0
BLOCK_RECORD
  5
208
330
1
100
AcDbSymbolTableRecord
100
AcDbBlockTableRecord
  2
SW_DATUMTAG_0
340
0
102
{BLKREFS
331
212
102
}
  0
BLOCK_RECORD
  5
225
330
1
100
AcDbSymbolTableRecord
100
AcDbBlockTableRecord
  2
SW_HATCH_0
340
0
102
{BLKREFS
331
233
102
}
  0
BLOCK_RECORD
  5
236
330
1
100
AcDbSymbolTableRecord
100
AcDbBlockTableRecord
  2
*D22
340
0
  0
BLOCK_RECORD
  5
246
330
1
100
AcDbSymbolTableRecord
100
AcDbBlockTableRecord
  2
*D23
340
0
  0
BLOCK_RECORD
  5
255
330
1
100
AcDbSymbolTableRecord
100
AcDbBlockTableRecord
  2
*D24
340
0
  0
ENDTAB
  0
ENDSEC
  0
SECTION
  2
BLOCKS
  0
BLOCK
  5
20
330
1F
100
AcDbEntity
  8
0
100
AcDbBlockBegin
  2
*Model_Space
 70
     0
 10
0.0
 20
0.0
 30
0.0
  3
*Model_Space
  1

  0
ENDBLK
  5
21
330
1F
100
AcDbEntity
  8
0
100
AcDbBlockEnd
  0
BLOCK
  5
1C
330
1B
100
AcDbEntity
 67
     1
  8
0
100
AcDbBlockBegin
  2
*Paper_Space
 70
     0
 10
0.0
 20
0.0
 30
0.0
  3
*Paper_Space
  1

  0
ENDBLK
  5
1D
330
1B
100
AcDbEntity
 67
     1
  8
0
100
AcDbBlockEnd
  0
BLOCK
  5
24
330
23
100
AcDbEntity
  8
0
100
AcDbBlockBegin
  2
*Paper_Space0
 70
     0
 10
0.0
 20
0.0
 30
0.0
  3
*Paper_Space0
  1

  0
ENDBLK
  5
25
330
23
100
AcDbEntity
  8
0
100
AcDbBlockEnd
  0
BLOCK
  5
46
330
45
100
AcDbEntity
  8
0
100
AcDbBlockBegin
  2
Block22
 70
     0
 10
0.0
 20
0.0
 30
0.0
  3
Block22
  1

  0
LINE
  5
48
330
45
100
AcDbEntity
  8
0
  6
Continuous
 62
     7
370
     0
100
AcDbLine
 10
0.0
 20
3.864899348
 30
0.0
 11
4.4628013579
 21
3.864899348
 31
0.0
  0
LINE
  5
49
330
45
100
AcDbEntity
  8
0
  6
Continuous
 62
     7
370
     0
100
AcDbLine
 10
6.5136600154
 20
7.4170907419
 30
0.0
 11
16.6568042521
 21
7.4170907419
 31
0.0
  0
LINE
  5
4A
330
45
100
AcDbEntity
  8
0
  6
Continuous
 62
     7
370
     0
100
AcDbLine
 10
2.231400679
 20
0.0
 30
0.0
 11
6.5136600154
 21
7.4170907419
 31
0.0
  0
LINE
  5
4B
330
45
100
AcDbEntity
  8
0
  6
Continuous
 62
     7
370
     0
100
AcDbLine
 10
0.0
 20
3.864899348
 30
0.0
 11
2.231400679
 21
0.0
 31
0.0
  0
MTEXT
  5
6F
330
45
100
AcDbEntity
  8
0
  6
Continuous
 62
     7
370
     0
100
AcDbMText
 10
7.6317977377
 20
6.3223381278
 30
0.0
 40
2.5
 41
0.0
 71
     1
 72
     1
  1
12,5
  7
SLDTEXTSTYLE0
 73
     1
 44
1.0
  0
ENDBLK
  5
47
330
45
100
AcDbEntity
  8
0
100
AcDbBlockEnd
  0
BLOCK
  5
71
330
70
100
AcDbEntity
  8
0
100
AcDbBlockBegin
  2
Block23
 70
     0
 10
0.0
 20
0.0
 30
0.0
  3
Block23
  1

  0
ARC
  5
73
330
70
100
AcDbEntity
  8
0
  6
Continuous
 62
     7
370
     0
100
AcDbCircle
 10
-6.8605124406
 20
4.9778125893
 30
0.0
 40
8.565662244009438
100
AcDbArc
 50
324.4695347441
 51
36.7808119753
  0
ENDBLK
  5
72
330
70
100
AcDbEntity
  8
0
100
AcDbBlockEnd
  0
BLOCK
  5
75
330
74
100
AcDbEntity
  8
0
100
AcDbBlockBegin
  2
Block24
 70
     0
 10
0.0
 20
0.0
 30
0.0
  3
Block24
  1

  0
LINE
  5
77
330
74
100
AcDbEntity
  8
SLD-0
  6
Continuous
 62
     7
370
     0
100
AcDbLine
 10
6.5136600154
 20
7.4170907419
 30
0.0
 11
13.678671711
 21
7.4170907419
 31
0.0
  0
LINE
  5
78
330
74
100
AcDbEntity
  8
SLD-0
  6
Continuous
 62
     7
370
     0
100
AcDbLine
 10
6.5136600154
 20
7.4170907419
 30
0.0
 11
2.231400679
 21
0.0
 31
0.0
  0
LINE
  5
79
330
74
100
AcDbEntity
  8
SLD-0
  6
Continuous
 62
     7
370
     0
100
AcDbLine
 10
2.231400679
 20
0.0
 30
0.0
 11
0.0
 21
3.864899348
 31
0.0
  0
LINE
  5
7A
330
74
100
AcDbEntity
  8
SLD-0
  6
Continuous
 62
     7
370
     0
100
AcDbLine
 10
0.0
 20
3.864899348
 30
0.0
 11
4.4628013579
 21
3.864899348
 31
0.0
  0
MTEXT
  5
7B
330
74
100
AcDbEntity
  8
SLD-0
100
AcDbMText
 10
7.8653322651
 20
6.3375858014
 30
0.0
 40
2.5
 41
0.0
 71
     1
 72
     1
  1
3,2
  7
SLDTEXTSTYLE0
 73
     1
 44
1.0
  0
ENDBLK
  5
76
330
74
100
AcDbEntity
  8
0
100
AcDbBlockEnd
  0
BLOCK
  5
7D
330
7C
100
AcDbEntity
  8
0
100
AcDbBlockBegin
  2
Block25
 70
     0
 10
0.0
 20
0.0
 30
0.0
  3
Block25
  1

  0
ARC
  5
7F
330
7C
100
AcDbEntity
  8
0
  6
Continuous
 62
     7
370
     0
100
AcDbCircle
 10
8.565662244
 20
4.9778125893
 30
0.0
 40
8.56566224400945
100
AcDbArc
 50
143.2191880247
 51
215.5304652559
  0
ENDBLK
  5
7E
330
7C
100
AcDbEntity
  8
0
100
AcDbBlockEnd
  0
BLOCK
  5
81
330
80
100
AcDbEntity
  8
0
100
AcDbBlockBegin
  2
Block26
 70
     0
 10
0.0
 20
0.0
 30
0.0
  3
Block26
  1

  0
LINE
  5
83
330
80
100
AcDbEntity
  8
0
  6
Continuous
 62
     9
370
     0
100
AcDbLine
 10
0.0
 20
0.0
 30
0.0
 11
3.896194
 21
3.896195
 31
0.0
  0
LINE
  5
84
330
80
100
AcDbEntity
  8
0
  6
Continuous
 62
     9
370
     0
100
AcDbLine
 10
5.096194
 20
4.596195
 30
0.0
 11
5.096194
 21
8.596195
 31
0.0
  0
LINE
  5
85
330
80
100
AcDbEntity
  8
0
  6
Continuous
 62
     9
370
     0
100
AcDbLine
 10
5.096194
 20
4.596195
 30
0.0
 11
9.096194
 21
4.596195
 31
0.0
  0
LINE
  5
86
330
80
100
AcDbEntity
  8
0
  6
Continuous
 62
     9
370
     0
100
AcDbLine
 10
0.0
 20
0.0
 30
0.0
 11
0.0
 21
4.0
 31
0.0
  0
LINE
  5
87
330
80
100
AcDbEntity
  8
0
  6
Continuous
 62
     9
370
     0
100
AcDbLine
 10
0.0
 20
0.0
 30
0.0
 11
4.0
 21
0.0
 31
0.0
  0
LINE
  5
88
330
80
100
AcDbEntity
  8
0
  6
Continuous
 62
     9
370
     0
100
AcDbLine
 10
0.0
 20
0.0
 30
0.0
 11
2.14905
 21
2.800698
 31
0.0
  0
LINE
  5
89
330
80
100
AcDbEntity
  8
0
  6
Continuous
 62
     9
370
     0
100
AcDbLine
 10
0.0
 20
0.0
 30
0.0
 11
2.800697
 21
2.149051
 31
0.0
  0
LINE
  5
8A
330
80
100
AcDbEntity
  8
0
  6
Continuous
 62
     9
370
     0
100
AcDbLine
 10
2.14905
 20
2.800698
 30
0.0
 11
2.800697
 21
2.149051
 31
0.0
  0
LINE
  5
8B
330
80
100
AcDbEntity
  8
0
  6
Continuous
 62
     9
370
     0
100
AcDbLine
 10
3.896194
 20
3.896195
 30
0.0
 11
10.955845
 21
3.896195
 31
0.0
  0
MTEXT
  5
8D
330
80
100
AcDbEntity
  8
0
  6
Continuous
 62
     7
370
     0
100
AcDbMText
 10
6.1126695865
 20
8.0541323256
 30
0.0
 40
2.5
 41
0.0
 71
     1
 72
     1
  1
+0,3
  7
SLDTEXTSTYLE1
 73
     1
 44
1.0
  0
ENDBLK
  5
82
330
80
100
AcDbEntity
  8
0
100
AcDbBlockEnd
  0
BLOCK
  5
8F
330
8E
100
AcDbEntity
  8
0
100
AcDbBlockBegin
  2
Block27
 70
     0
 10
0.0
 20
0.0
 30
0.0
  3
Block27
  1

  0
LINE
  5
91
330
8E
100
AcDbEntity
  8
0
  6
Continuous
 62
     9
370
     0
100
AcDbLine
 10
0.0
 20
0.0
 30
0.0
 11
3.896194
 21
3.896194
 31
0.0
  0
LINE
  5
92
330
8E
100
AcDbEntity
  8
0
  6
Continuous
 62
     9
370
     0
100
AcDbLine
 10
3.896194
 20
3.896194
 30
0.0
 11
10.010473
 21
3.896194
 31
0.0
  0
LINE
  5
93
330
8E
100
AcDbEntity
  8
0
  6
Continuous
 62
     9
370
     0
100
AcDbLine
 10
4.596194
 20
4.596194
 30
0.0
 11
4.596194
 21
8.596194
 31
0.0
  0
LINE
  5
94
330
8E
100
AcDbEntity
  8
0
  6
Continuous
 62
     9
370
     0
100
AcDbLine
 10
4.596194
 20
4.596194
 30
0.0
 11
8.596194
 21
4.596194
 31
0.0
  0
LINE
  5
95
330
8E
100
AcDbEntity
  8
0
  6
Continuous
 62
     9
370
     0
100
AcDbLine
 10
0.0
 20
0.0
 30
0.0
 11
2.800697
 21
2.14905
 31
0.0
  0
LINE
  5
96
330
8E
100
AcDbEntity
  8
0
  6
Continuous
 62
     9
370
     0
100
AcDbLine
 10
0.0
 20
0.0
 30
0.0
 11
2.149051
 21
2.800697
 31
0.0
  0
LINE
  5
97
330
8E
100
AcDbEntity
  8
0
  6
Continuous
 62
     9
370
     0
100
AcDbLine
 10
2.149051
 20
2.800697
 30
0.0
 11
2.800697
 21
2.14905
 31
0.0
  0
ENDBLK
  5
90
330
8E
100
AcDbEntity
  8
0
100
AcDbBlockEnd
  0
BLOCK
  5
99
330
98
100
AcDbEntity
  8
0
100
AcDbBlockBegin
  2
Block28
 70
     0
 10
0.0
 20
0.0
 30
0.0
  3
Block28
  1

  0
LINE
  5
9B
330
98
100
AcDbEntity
  8
SLD-0
100
AcDbLine
 10
0.0
 20
4.7127298493
 30
0.0
 11
2.7661675202
 21
0.0
 31
0.0
  0
LINE
  5
9C
330
98
100
AcDbEntity
  8
SLD-0
100
AcDbLine
 10
2.7661675202
 20
0.0
 30
0.0
 11
7.5813480184
 21
10.0401635919
 31
0.0
  0
LINE
  5
9D
330
98
100
AcDbEntity
  8
SLD-0
100
AcDbLine
 10
7.5813480184
 20
10.0401635919
 30
0.0
 11
10.8597687831
 21
10.0401635919
 31
0.0
  0
MTEXT
  5
9E
330
98
100
AcDbEntity
  8
SLD-0
100
AcDbMText
 10
8.2169871206
 20
8.2336938939
 30
0.0
 40
3.0
 41
0.0
 71
     1
 72
     1
  1
a
  7
SLDTEXTSTYLE0
 73
     1
 44
1.0
  0
MTEXT
  5
A0
330
98
100
AcDbEntity
  8
SLD-0
100
AcDbMText
 10
26.6849431315
 20
2.7752902649
 30
0.0
 40
2.0
 41
0.0
 71
     1
 72
     1
  1
a
  7
SLDTEXTSTYLE2
 73
     1
 44
1.0
  0
MTEXT
  5
A1
330
98
100
AcDbEntity
  8
SLD-0
100
AcDbMText
 10
12.0146705052
 20
3.0341890755
 30
0.0
 40
2.0
 41
0.0
 71
     1
 72
     1
  1
Rauheitswert R
  7
SLDTEXTSTYLE2
 73
     1
 44
1.0
  0
MTEXT
  5
A2
330
98
100
AcDbEntity
  8
SLD-0
100
AcDbMText
 10
9.2361751193
 20
3.0820056441
 30
0.0
 40
2.0
 41
0.0
 71
     1
 72
     1
  1
a=
  7
SLDTEXTSTYLE2
 73
     1
 44
1.0
  0
ENDBLK
  5
9A
330
98
100
AcDbEntity
  8
0
100
AcDbBlockEnd
  0
BLOCK
  5
119
330
118
100
AcDbEntity
  8
0
100
AcDbBlockBegin
  2
SW_NOTE_0
 70
     0
 10
0.0
 20
0.0
 30
0.0
  3
SW_NOTE_0
  1

  0
MTEXT
  5
11B
330
118
100
AcDbEntity
  8
0
  6
Continuous
 62
     0
370
     0
100
AcDbMText
 10
0.0
 20
3.8672032193
 30
0.0
 40
3.0
 41
0.0
 71
     1
 72
     1
  1
3.2315 - AW6082 / 
  7
SLDTEXTSTYLE0
 73
     1
 44
1.0
  0
MTEXT
  5
11C
330
118
100
AcDbEntity
  8
0
  6
Continuous
 62
     0
370
     0
100
AcDbMText
 10
34.8750017583
 20
3.8672032193
 30
0.0
 40
3.0
 41
0.0
 71
     1
 72
     1
  1
%%c
  7
SLDTEXTSTYLE0
 73
     1
 44
1.0
  0
MTEXT
  5
11E
330
118
100
AcDbEntity
  8
0
  6
Continuous
 62
     0
370
     0
100
AcDbMText
 10
39.24895823
 20
3.8672032193
 30
0.0
 40
3.0
 41
0.0
 71
     1
 72
     1
  1
83 x 8
  7
SLDTEXTSTYLE4
 73
     1
 44
1.0
  0
ENDBLK
  5
11A
330
118
100
AcDbEntity
  8
0
100
AcDbBlockEnd
  0
BLOCK
  5
131
330
130
100
AcDbEntity
  8
0
100
AcDbBlockBegin
  2
SW_NOTE_1
 70
     0
 10
0.0
 20
0.0
 30
0.0
  3
SW_NOTE_1
  1

  0
MTEXT
  5
133
330
130
100
AcDbEntity
  8
0
  6
Continuous
 62
     0
370
     0
100
AcDbMText
 10
0.0
 20
2.8359490275
 30
0.0
 40
2.2
 41
0.0
 71
     1
 72
     1
  1
     Oberfläche
  7
SLDTEXTSTYLE0
 73
     1
 44
1.0
  0
MTEXT
  5
134
330
130
100
AcDbEntity
  8
0
  6
Continuous
 62
     0
370
     0
100
AcDbMText
 10
0.0
 20
-1.3640508227
 30
0.0
 40
2.2
 41
0.0
 71
     1
 72
     1
  1
DIN EN ISO 1302
  7
SLDTEXTSTYLE0
 73
     1
 44
1.0
  0
ENDBLK
  5
132
330
130
100
AcDbEntity
  8
0
100
AcDbBlockEnd
  0
BLOCK
  5
143
330
142
100
AcDbEntity
  8
0
100
AcDbBlockBegin
  2
SW_NOTE_2
 70
     0
 10
0.0
 20
0.0
 30
0.0
  3
SW_NOTE_2
  1

  0
MTEXT
  5
145
330
142
100
AcDbEntity
  8
0
  6
Continuous
 62
     0
370
     0
100
AcDbMText
 10
0.0
 20
2.8359490275
 30
0.0
 40
2.2
 41
0.0
 71
     1
 72
     1
  1
Allgemeintoleranz
  7
SLDTEXTSTYLE0
 73
     1
 44
1.0
  0
MTEXT
  5
146
330
142
100
AcDbEntity
  8
0
  6
Continuous
 62
     0
370
     0
100
AcDbMText
 10
0.0
 20
-1.3640508227
 30
0.0
 40
2.2
 41
0.0
 71
     1
 72
     1
  1
DIN ISO 2768-mK
  7
SLDTEXTSTYLE0
 73
     1
 44
1.0
  0
ENDBLK
  5
144
330
142
100
AcDbEntity
  8
0
100
AcDbBlockEnd
  0
BLOCK
  5
14F
330
14E
100
AcDbEntity
  8
0
100
AcDbBlockBegin
  2
SW_CENTERMARKSYMBOL_0
 70
     0
 10
0.0
 20
0.0
 30
0.0
  3
SW_CENTERMARKSYMBOL_0
  1

  0
LINE
  5
151
330
14E
100
AcDbEntity
  8
0
  6
Continuous
 62
     0
370
     0
100
AcDbLine
 10
0.0
 20
0.0
 30
0.0
 11
0.0
 21
3.0
 31
0.0
  0
LINE
  5
152
330
14E
100
AcDbEntity
  8
0
  6
Continuous
 62
     0
370
     0
100
AcDbLine
 10
0.0
 20
0.0
 30
0.0
 11
-3.0
 21
0.0
 31
0.0
  0
LINE
  5
153
330
14E
100
AcDbEntity
  8
0
  6
Continuous
 62
     0
370
     0
100
AcDbLine
 10
0.0
 20
0.0
 30
0.0
 11
0.0
 21
-3.0
 31
0.0
  0
LINE
  5
154
330
14E
100
AcDbEntity
  8
0
  6
Continuous
 62
     0
370
     0
100
AcDbLine
 10
0.0
 20
0.0
 30
0.0
 11
3.0
 21
0.0
 31
0.0
  0
LINE
  5
155
330
14E
100
AcDbEntity
  8
0
  6
Continuous
 62
     0
370
     0
100
AcDbLine
 10
0.0
 20
6.0
 30
0.0
 11
0.0
 21
44.5
 31
0.0
  0
LINE
  5
156
330
14E
100
AcDbEntity
  8
0
  6
Continuous
 62
     0
370
     0
100
AcDbLine
 10
-6.0
 20
0.0
 30
0.0
 11
-44.5
 21
0.0
 31
0.0
  0
LINE
  5
157
330
14E
100
AcDbEntity
  8
0
  6
Continuous
 62
     0
370
     0
100
AcDbLine
 10
0.0
 20
-6.0
 30
0.0
 11
0.0
 21
-44.5
 31
0.0
  0
LINE
  5
158
330
14E
100
AcDbEntity
  8
0
  6
Continuous
 62
     0
370
     0
100
AcDbLine
 10
6.0
 20
0.0
 30
0.0
 11
44.5
 21
0.0
 31
0.0
  0
ENDBLK
  5
150
330
14E
100
AcDbEntity
  8
0
100
AcDbBlockEnd
  0
BLOCK
  5
19C
330
19B
100
AcDbEntity
  8
0
100
AcDbBlockBegin
  2
*D12
 70
     1
 10
0.0
 20
0.0
 30
0.0
  3
*D12
  1

  0
SOLID
  5
19E
330
19B
100
AcDbEntity
  8
0
  6
Continuous
 62
     7
370
    15
100
AcDbTrace
 10
202.4805098799
 20
228.3687307011
 30
0.0
 11
202.0305098799
 21
224.3687307011
 31
0.0
 12
202.9305098799
 22
224.3687307011
 32
0.0
 13
202.9305098799
 23
224.3687307011
 33
0.0
  0
SOLID
  5
19F
330
19B
100
AcDbEntity
  8
0
  6
Continuous
 62
     7
370
    15
100
AcDbTrace
 10
202.4805098799
 20
168.3687307011
 30
0.0
 11
202.9305098799
 21
172.3687307011
 31
0.0
 12
202.0305098799
 22
172.3687307011
 32
0.0
 13
202.0305098799
 23
172.3687307011
 33
0.0
  0
SOLID
  5
1A0
330
19B
100
AcDbEntity
  8
0
  6
Continuous
 62
     7
370
    15
100
AcDbTrace
 10
202.4805098799
 20
228.3687307011
 30
0.0
 11
202.9305098799
 21
232.3687307011
 31
0.0
 12
202.0305098799
 22
232.3687307011
 32
0.0
 13
202.0305098799
 23
232.3687307011
 33
0.0
  0
LINE
  5
1A1
330
19B
100
AcDbEntity
  8
0
  6
Continuous
 62
     7
370
    15
100
AcDbLine
 10
229.4805098799
 20
228.3687307011
 30
0.0
 11
201.4805098799
 21
228.3687307011
 31
0.0
  0
LINE
  5
1A2
330
19B
100
AcDbEntity
  8
0
  6
Continuous
 62
     7
370
    15
100
AcDbLine
 10
229.4805098799
 20
168.3687307011
 30
0.0
 11
201.4805098799
 21
168.3687307011
 31
0.0
  0
LINE
  5
1A3
330
19B
100
AcDbEntity
  8
0
  6
Continuous
 62
     7
370
    15
100
AcDbLine
 10
202.4805098799
 20
228.3687307011
 30
0.0
 11
202.4805098799
 21
168.3687307011
 31
0.0
  0
LINE
  5
1A4
330
19B
100
AcDbEntity
  8
0
  6
Continuous
 62
     7
370
    15
100
AcDbLine
 10
202.4805098799
 20
228.3687307011
 30
0.0
 11
202.4805098799
 21
251.5464660378
 31
0.0
  0
LINE
  5
1A5
330
19B
100
AcDbEntity
  8
0
  6
Continuous
 62
     7
370
    15
100
AcDbLine
 10
202.4805098799
 20
251.5464660378
 30
0.0
 11
194.4805098799
 21
251.5464660378
 31
0.0
  0
MTEXT
  5
1A6
330
19B
100
AcDbEntity
  8
0
  6
Continuous
 62
     7
370
    15
100
AcDbMText
 10
197.9687727907
 20
190.5321620444
 30
0.0
 40
3.5
 41
0.0
 71
     1
 72
     1
  1
%%c
  7
SLDTEXTSTYLE0
 11
-7.044195017643634E-15
 21
1.0
 31
0.0
 73
     1
 44
1.0
  0
MTEXT
  5
1A7
330
19B
100
AcDbEntity
  8
0
  6
Continuous
 62
     7
370
    15
100
AcDbMText
 10
197.9687731399
 20
195.633227716
 30
0.0
 40
3.5
 41
0.0
 71
     1
 72
     1
  1
60
  7
SLDTEXTSTYLE0
 11
-7.044195017643634E-15
 21
1.0
 31
0.0
 73
     1
 44
1.0
  0
MTEXT
  5
1A8
330
19B
100
AcDbEntity
  8
0
  6
Continuous
 62
     7
370
    15
100
AcDbMText
 10
195.2611714129
 20
201.9098814473
 30
0.0
 40
2.45
 41
0.0
 71
     1
 72
     1
  1
H7
  7
SLDTEXTSTYLE0
 11
-7.044195017643634E-15
 21
1.0
 31
0.0
 73
     1
 44
1.0
  0
ENDBLK
  5
19D
330
19B
100
AcDbEntity
  8
0
100
AcDbBlockEnd
  0
BLOCK
  5
1AC
330
1AB
100
AcDbEntity
  8
0
100
AcDbBlockBegin
  2
*D13
 70
     1
 10
0.0
 20
0.0
 30
0.0
  3
*D13
  1

  0
SOLID
  5
1AE
330
1AB
100
AcDbEntity
  8
0
  6
Continuous
 62
     7
370
    15
100
AcDbTrace
 10
192.4805098799
 20
239.8687307011
 30
0.0
 11
192.0305098799
 21
235.8687307011
 31
0.0
 12
192.9305098799
 22
235.8687307011
 32
0.0
 13
192.9305098799
 23
235.8687307011
 33
0.0
  0
SOLID
  5
1AF
330
1AB
100
AcDbEntity
  8
0
  6
Continuous
 62
     7
370
    15
100
AcDbTrace
 10
192.4805098799
 20
156.8687307011
 30
0.0
 11
192.9305098799
 21
160.8687307011
 31
0.0
 12
192.0305098799
 22
160.8687307011
 32
0.0
 13
192.0305098799
 23
160.8687307011
 33
0.0
  0
LINE
  5
1B0
330
1AB
100
AcDbEntity
  8
0
  6
Continuous
 62
     7
370
    15
100
AcDbLine
 10
229.4805098799
 20
239.8687307011
 30
0.0
 11
191.4805098799
 21
239.8687307011
 31
0.0
  0
LINE
  5
1B1
330
1AB
100
AcDbEntity
  8
0
  6
Continuous
 62
     7
370
    15
100
AcDbLine
 10
229.4805098799
 20
156.8687307011
 30
0.0
 11
191.4805098799
 21
156.8687307011
 31
0.0
  0
LINE
  5
1B2
330
1AB
100
AcDbEntity
  8
0
  6
Continuous
 62
     7
370
    15
100
AcDbLine
 10
192.4805098799
 20
239.8687307011
 30
0.0
 11
192.4805098799
 21
156.8687307011
 31
0.0
  0
MTEXT
  5
1B3
330
1AB
100
AcDbEntity
  8
0
  6
Continuous
 62
     7
370
    15
100
AcDbMText
 10
187.9687727907
 20
189.3586292085
 30
0.0
 40
3.5
 41
0.0
 71
     1
 72
     1
  1
%%c
  7
SLDTEXTSTYLE0
 11
-7.044195017643634E-15
 21
1.0
 31
0.0
 73
     1
 44
1.0
  0
MTEXT
  5
1B4
330
1AB
100
AcDbEntity
  8
0
  6
Continuous
 62
     7
370
    15
100
AcDbMText
 10
187.9687731399
 20
194.4596948802
 30
0.0
 40
3.5
 41
0.0
 71
     1
 72
     1
  1
83
  7
SLDTEXTSTYLE0
 11
-7.044195017643634E-15
 21
1.0
 31
0.0
 73
     1
 44
1.0
  0
MTEXT
  5
1B5
330
1AB
100
AcDbEntity
  8
0
  6
Continuous
 62
     7
370
    15
100
AcDbMText
 10
189.0181206667
 20
201.1597247309
 30
0.0
 40
2.45
 41
0.0
 71
     1
 72
     1
  1
-
  7
SLDTEXTSTYLE0
 11
-7.044195017643634E-15
 21
1.0
 31
0.0
 73
     1
 44
1.0
  0
MTEXT
  5
1B6
330
1AB
100
AcDbEntity
  8
0
  6
Continuous
 62
     7
370
    15
100
AcDbMText
 10
189.0181206667
 20
202.7011426414
 30
0.0
 40
2.45
 41
0.0
 71
     1
 72
     1
  1
0,2
  7
SLDTEXTSTYLE0
 11
-7.044195017643634E-15
 21
1.0
 31
0.0
 73
     1
 44
1.0
  0
MTEXT
  5
1B7
330
1AB
100
AcDbEntity
  8
0
  6
Continuous
 62
     7
370
    15
100
AcDbMText
 10
185.2611714129
 20
202.7011426414
 30
0.0
 40
2.45
 41
0.0
 71
     1
 72
     1
  1
0
  7
SLDTEXTSTYLE0
 11
-7.044195017643634E-15
 21
1.0
 31
0.0
 73
     1
 44
1.0
  0
ENDBLK
  5
1AD
330
1AB
100
AcDbEntity
  8
0
100
AcDbBlockEnd
  0
BLOCK
  5
1BB
330
1BA
100
AcDbEntity
  8
0
100
AcDbBlockBegin
  2
*D14
 70
     1
 10
0.0
 20
0.0
 30
0.0
  3
*D14
  1

  0
SOLID
  5
1BD
330
1BA
100
AcDbEntity
  8
0
  6
Continuous
 62
     7
370
    15
100
AcDbTrace
 10
263.8281798924
 20
161.1187307011
 30
0.0
 11
264.2781798924
 21
165.1187307011
 31
0.0
 12
263.3781798924
 22
165.1187307011
 32
0.0
 13
263.3781798924
 23
165.1187307011
 33
0.0
  0
SOLID
  5
1BE
330
1BA
100
AcDbEntity
  8
0
  6
Continuous
 62
     7
370
    15
100
AcDbTrace
 10
263.8281798924
 20
235.6187307011
 30
0.0
 11
263.3781798924
 21
231.6187307011
 31
0.0
 12
264.2781798924
 22
231.6187307011
 32
0.0
 13
264.2781798924
 23
231.6187307011
 33
0.0
  0
LINE
  5
1BF
330
1BA
100
AcDbEntity
  8
0
  6
Continuous
 62
     7
370
    15
100
AcDbLine
 10
239.4805098799
 20
161.1187307011
 30
0.0
 11
264.8281798924
 21
161.1187307011
 31
0.0
  0
LINE
  5
1C0
330
1BA
100
AcDbEntity
  8
0
  6
Continuous
 62
     7
370
    15
100
AcDbLine
 10
239.4805098799
 20
235.6187307011
 30
0.0
 11
264.8281798924
 21
235.6187307011
 31
0.0
  0
LINE
  5
1C1
330
1BA
100
AcDbEntity
  8
0
  6
Continuous
 62
     7
370
    15
100
AcDbLine
 10
263.8281798924
 20
161.1187307011
 30
0.0
 11
263.8281798924
 21
235.6187307011
 31
0.0
  0
MTEXT
  5
1C2
330
1BA
100
AcDbEntity
  8
0
  6
Continuous
 62
     7
370
    15
100
AcDbMText
 10
259.3164428032
 20
186.4751501041
 30
0.0
 40
3.5
 41
0.0
 71
     1
 72
     1
  1
%%c
  7
SLDTEXTSTYLE0
 11
6.123233995736766E-17
 21
1.0
 31
0.0
 73
     1
 44
1.0
  0
MTEXT
  5
1C3
330
1BA
100
AcDbEntity
  8
0
  6
Continuous
 62
     7
370
    15
100
AcDbMText
 10
259.3164431524
 20
191.5762157757
 30
0.0
 40
3.5
 41
0.0
 71
     1
 72
     1
  1
74,5
  7
SLDTEXTSTYLE0
 11
6.123233995736766E-17
 21
1.0
 31
0.0
 73
     1
 44
1.0
  0
MTEXT
  5
1C4
330
1BA
100
AcDbEntity
  8
0
  6
Continuous
 62
     7
370
    15
100
AcDbMText
 10
260.3657906792
 20
202.2674904026
 30
0.0
 40
2.45
 41
0.0
 71
     1
 72
     1
  1
±0,02
  7
SLDTEXTSTYLE0
 11
6.123233995736766E-17
 21
1.0
 31
0.0
 73
     1
 44
1.0
  0
ENDBLK
  5
1BC
330
1BA
100
AcDbEntity
  8
0
100
AcDbBlockEnd
  0
BLOCK
  5
1C7
330
1C6
100
AcDbEntity
  8
0
100
AcDbBlockBegin
  2
*D15
 70
     1
 10
0.0
 20
0.0
 30
0.0
  3
*D15
  1

  0
SOLID
  5
1C9
330
1C6
100
AcDbEntity
  8
0
  6
Continuous
 62
     7
370
    15
100
AcDbTrace
 10
253.301257704
 20
230.6187307011
 30
0.0
 11
252.851257704
 21
226.6187307011
 31
0.0
 12
253.751257704
 22
226.6187307011
 32
0.0
 13
253.751257704
 23
226.6187307011
 33
0.0
  0
SOLID
  5
1CA
330
1C6
100
AcDbEntity
  8
0
  6
Continuous
 62
     7
370
    15
100
AcDbTrace
 10
253.301257704
 20
166.1187307011
 30
0.0
 11
253.751257704
 21
170.1187307011
 31
0.0
 12
252.851257704
 22
170.1187307011
 32
0.0
 13
252.851257704
 23
170.1187307011
 33
0.0
  0
LINE
  5
1CB
330
1C6
100
AcDbEntity
  8
0
  6
Continuous
 62
     7
370
    15
100
AcDbLine
 10
239.4805098799
 20
230.6187307011
 30
0.0
 11
254.301257704
 21
230.6187307011
 31
0.0
  0
LINE
  5
1CC
330
1C6
100
AcDbEntity
  8
0
  6
Continuous
 62
     7
370
    15
100
AcDbLine
 10
239.4805098799
 20
166.1187307011
 30
0.0
 11
254.301257704
 21
166.1187307011
 31
0.0
  0
LINE
  5
1CD
330
1C6
100
AcDbEntity
  8
0
  6
Continuous
 62
     7
370
    15
100
AcDbLine
 10
253.301257704
 20
230.6187307011
 30
0.0
 11
253.301257704
 21
166.1187307011
 31
0.0
  0
MTEXT
  5
1CE
330
1C6
100
AcDbEntity
  8
0
  6
Continuous
 62
     7
370
    15
100
AcDbMText
 10
248.7895206148
 20
186.4751501041
 30
0.0
 40
3.5
 41
0.0
 71
     1
 72
     1
  1
%%c
  7
SLDTEXTSTYLE0
 11
-7.044195017643634E-15
 21
1.0
 31
0.0
 73
     1
 44
1.0
  0
MTEXT
  5
1CF
330
1C6
100
AcDbEntity
  8
0
  6
Continuous
 62
     7
370
    15
100
AcDbMText
 10
248.7895209641
 20
191.5762157757
 30
0.0
 40
3.5
 41
0.0
 71
     1
 72
     1
  1
64,5
  7
SLDTEXTSTYLE0
 11
-7.044195017643634E-15
 21
1.0
 31
0.0
 73
     1
 44
1.0
  0
MTEXT
  5
1D0
330
1C6
100
AcDbEntity
  8
0
  6
Continuous
 62
     7
370
    15
100
AcDbMText
 10
249.8388684908
 20
202.2674904026
 30
0.0
 40
2.45
 41
0.0
 71
     1
 72
     1
  1
±0,02
  7
SLDTEXTSTYLE0
 11
-7.044195017643634E-15
 21
1.0
 31
0.0
 73
     1
 44
1.0
  0
ENDBLK
  5
1C8
330
1C6
100
AcDbEntity
  8
0
100
AcDbBlockEnd
  0
BLOCK
  5
1D4
330
1D3
100
AcDbEntity
  8
0
100
AcDbBlockBegin
  2
*D16
 70
     1
 10
0.0
 20
0.0
 30
0.0
  3
*D16
  1

  0
SOLID
  5
1D6
330
1D3
100
AcDbEntity
  8
0
  6
Continuous
 62
     7
370
    15
100
AcDbTrace
 10
238.4805098799
 20
249.1136076643
 30
0.0
 11
242.4805098799
 21
248.6636076643
 31
0.0
 12
242.4805098799
 22
249.5636076643
 32
0.0
 13
242.4805098799
 23
249.5636076643
 33
0.0
  0
SOLID
  5
1D7
330
1D3
100
AcDbEntity
  8
0
  6
Continuous
 62
     7
370
    15
100
AcDbTrace
 10
237.9805098799
 20
249.1136076643
 30
0.0
 11
233.9805098799
 21
249.5636076643
 31
0.0
 12
233.9805098799
 22
248.6636076643
 32
0.0
 13
233.9805098799
 23
248.6636076643
 33
0.0
  0
LINE
  5
1D8
330
1D3
100
AcDbEntity
  8
0
  6
Continuous
 62
     7
370
    15
100
AcDbLine
 10
238.4805098799
 20
236.6187307011
 30
0.0
 11
238.4805098799
 21
250.1136076643
 31
0.0
  0
LINE
  5
1D9
330
1D3
100
AcDbEntity
  8
0
  6
Continuous
 62
     7
370
    15
100
AcDbLine
 10
237.9805098799
 20
240.8687307011
 30
0.0
 11
237.9805098799
 21
250.1136076643
 31
0.0
  0
LINE
  5
1DA
330
1D3
100
AcDbEntity
  8
0
  6
Continuous
 62
     7
370
    15
100
AcDbLine
 10
238.4805098799
 20
249.1136076643
 30
0.0
 11
252.3625027359
 21
249.1136076643
 31
0.0
  0
LINE
  5
1DB
330
1D3
100
AcDbEntity
  8
0
  6
Continuous
 62
     7
370
    15
100
AcDbLine
 10
238.4805098799
 20
249.1136076643
 30
0.0
 11
237.9805098799
 21
249.1136076643
 31
0.0
  0
LINE
  5
1DC
330
1D3
100
AcDbEntity
  8
0
  6
Continuous
 62
     7
370
    15
100
AcDbLine
 10
237.9805098799
 20
249.1136076643
 30
0.0
 11
229.9805098799
 21
249.1136076643
 31
0.0
  0
MTEXT
  5
1DD
330
1D3
100
AcDbEntity
  8
0
  6
Continuous
 62
     7
370
    15
100
AcDbMText
 10
244.0914146762
 20
253.6253444043
 30
0.0
 40
3.5
 41
0.0
 71
     1
 72
     1
  1
0,5
  7
SLDTEXTSTYLE0
 73
     1
 44
1.0
  0
ENDBLK
  5
1D5
330
1D3
100
AcDbEntity
  8
0
100
AcDbBlockEnd
  0
BLOCK
  5
1E1
330
1E0
100
AcDbEntity
  8
0
100
AcDbBlockBegin
  2
*D17
 70
     1
 10
0.0
 20
0.0
 30
0.0
  3
*D17
  1

  0
SOLID
  5
1E3
330
1E0
100
AcDbEntity
  8
0
  6
Continuous
 62
     7
370
    15
100
AcDbTrace
 10
230.4805098799
 20
138.8687307011
 30
0.0
 11
226.4805098799
 21
139.3187307011
 31
0.0
 12
226.4805098799
 22
138.4187307011
 32
0.0
 13
226.4805098799
 23
138.4187307011
 33
0.0
  0
SOLID
  5
1E4
330
1E0
100
AcDbEntity
  8
0
  6
Continuous
 62
     7
370
    15
100
AcDbTrace
 10
238.4805098799
 20
138.8687307011
 30
0.0
 11
242.4805098799
 21
138.4187307011
 31
0.0
 12
242.4805098799
 22
139.3187307011
 32
0.0
 13
242.4805098799
 23
139.3187307011
 33
0.0
  0
LINE
  5
1E5
330
1E0
100
AcDbEntity
  8
0
  6
Continuous
 62
     7
370
    15
100
AcDbLine
 10
230.4805098799
 20
155.8687307011
 30
0.0
 11
230.4805098799
 21
137.8687307011
 31
0.0
  0
LINE
  5
1E6
330
1E0
100
AcDbEntity
  8
0
  6
Continuous
 62
     7
370
    15
100
AcDbLine
 10
238.4805098799
 20
165.1187307011
 30
0.0
 11
238.4805098799
 21
137.8687307011
 31
0.0
  0
LINE
  5
1E7
330
1E0
100
AcDbEntity
  8
0
  6
Continuous
 62
     7
370
    15
100
AcDbLine
 10
230.4805098799
 20
138.8687307011
 30
0.0
 11
214.1189838254
 21
138.8687307011
 31
0.0
  0
LINE
  5
1E8
330
1E0
100
AcDbEntity
  8
0
  6
Continuous
 62
     7
370
    15
100
AcDbLine
 10
230.4805098799
 20
138.8687307011
 30
0.0
 11
238.4805098799
 21
138.8687307011
 31
0.0
  0
LINE
  5
1E9
330
1E0
100
AcDbEntity
  8
0
  6
Continuous
 62
     7
370
    15
100
AcDbLine
 10
238.4805098799
 20
138.8687307011
 30
0.0
 11
246.4805098799
 21
138.8687307011
 31
0.0
  0
MTEXT
  5
1EA
330
1E0
100
AcDbEntity
  8
0
  6
Continuous
 62
     7
370
    15
100
AcDbMText
 10
215.7064838254
 20
143.380467441
 30
0.0
 40
3.5
 41
0.0
 71
     1
 72
     1
  1
8
  7
SLDTEXTSTYLE0
 73
     1
 44
1.0
  0
MTEXT
  5
1EB
330
1E0
100
AcDbEntity
  8
0
  6
Continuous
 62
     7
370
    15
100
AcDbMText
 10
219.7347226314
 20
142.3311199143
 30
0.0
 40
2.45
 41
0.0
 71
     1
 72
     1
  1
-
  7
SLDTEXTSTYLE0
 73
     1
 44
1.0
  0
MTEXT
  5
1EC
330
1E0
100
AcDbEntity
  8
0
  6
Continuous
 62
     7
370
    15
100
AcDbMText
 10
221.2761405418
 20
142.3311199143
 30
0.0
 40
2.45
 41
0.0
 71
     1
 72
     1
  1
0,1
  7
SLDTEXTSTYLE0
 73
     1
 44
1.0
  0
MTEXT
  5
1ED
330
1E0
100
AcDbEntity
  8
0
  6
Continuous
 62
     7
370
    15
100
AcDbMText
 10
221.2761405418
 20
146.088069168
 30
0.0
 40
2.45
 41
0.0
 71
     1
 72
     1
  1
0
  7
SLDTEXTSTYLE0
 73
     1
 44
1.0
  0
ENDBLK
  5
1E2
330
1E0
100
AcDbEntity
  8
0
100
AcDbBlockEnd
  0
BLOCK
  5
1F2
330
1F1
100
AcDbEntity
  8
0
100
AcDbBlockBegin
  2
_NONE
 70
     0
 10
0.0
 20
0.0
 30
0.0
  3
_NONE
  1

  0
ENDBLK
  5
1F3
330
1F1
100
AcDbEntity
  8
0
100
AcDbBlockEnd
  0
BLOCK
  5
1FF
330
1FE
100
AcDbEntity
  8
0
100
AcDbBlockBegin
  2
SW_SFSYMBOL_0
 70
     0
 10
0.0
 20
0.0
 30
0.0
  3
SW_SFSYMBOL_0
  1

  0
LINE
  5
201
330
1FE
100
AcDbEntity
  8
0
  6
Continuous
 62
     0
370
     0
100
AcDbLine
 10
11.1948337008
 20
-4.9997496508
 30
0.0
 11
-7.545
 21
-4.9997496508
 31
0.0
  0
LINE
  5
202
330
1FE
100
AcDbEntity
  8
0
  6
Continuous
 62
     0
370
     0
100
AcDbLine
 10
-6.545
 20
-4.9997496508
 30
0.0
 11
-9.49445
 21
0.0000003492
 31
0.0
  0
LINE
  5
203
330
1FE
100
AcDbEntity
  8
0
  6
Continuous
 62
     0
370
     0
100
AcDbLine
 10
-3.59555
 20
0.0000003492
 30
0.0
 11
-9.49445
 21
0.0000003492
 31
0.0
  0
LINE
  5
204
330
1FE
100
AcDbEntity
  8
0
  6
Continuous
 62
     0
370
     0
100
AcDbLine
 10
-6.545
 20
-4.9997496508
 30
0.0
 11
-0.6461
 21
4.9997503492
 31
0.0
  0
LINE
  5
205
330
1FE
100
AcDbEntity
  8
0
  6
Continuous
 62
     0
370
     0
100
AcDbLine
 10
-0.6461
 20
4.9997503492
 30
0.0
 11
6.6835880597
 21
4.9997503492
 31
0.0
  0
MTEXT
  5
206
330
1FE
100
AcDbEntity
  8
0
  6
Continuous
 62
     0
370
     0
100
AcDbMText
 10
0.0
 20
4.5117370892
 30
0.0
 40
3.5
 41
0.0
 71
     1
 72
     1
  1
3,2
  7
SLDTEXTSTYLE0
 73
     1
 44
1.0
  0
ENDBLK
  5
200
330
1FE
100
AcDbEntity
  8
0
100
AcDbBlockEnd
  0
BLOCK
  5
209
330
208
100
AcDbEntity
  8
0
100
AcDbBlockBegin
  2
SW_DATUMTAG_0
 70
     0
 10
0.0
 20
0.0
 30
0.0
  3
SW_DATUMTAG_0
  1

  0
LINE
  5
20B
330
208
100
AcDbEntity
  8
0
  6
Continuous
 62
     0
370
     0
100
AcDbLine
 10
1.6041666968
 20
9.6296233539
 30
0.0
 11
1.6041666968
 21
6.1857642224
 31
0.0
  0
LINE
  5
20C
330
208
100
AcDbEntity
  8
0
  6
Continuous
 62
     0
370
     0
100
AcDbLine
 10
-1.8958333032
 20
6.1857642224
 30
0.0
 11
5.1041666968
 21
6.1857642224
 31
0.0
  0
LINE
  5
20D
330
208
100
AcDbEntity
  8
0
  6
Continuous
 62
     0
370
     0
100
AcDbLine
 10
5.1041666968
 20
6.1857642224
 30
0.0
 11
5.1041666968
 21
-0.8142357776
 31
0.0
  0
LINE
  5
20E
330
208
100
AcDbEntity
  8
0
  6
Continuous
 62
     0
370
     0
100
AcDbLine
 10
5.1041666968
 20
-0.8142357776
 30
0.0
 11
-1.8958333032
 21
-0.8142357776
 31
0.0
  0
LINE
  5
20F
330
208
100
AcDbEntity
  8
0
  6
Continuous
 62
     0
370
     0
100
AcDbLine
 10
-1.8958333032
 20
-0.8142357776
 30
0.0
 11
-1.8958333032
 21
6.1857642224
 31
0.0
  0
MTEXT
  5
210
330
208
100
AcDbEntity
  8
0
  6
Continuous
 62
     0
370
     0
100
AcDbMText
 10
0.0
 20
4.5117370892
 30
20.85
 40
3.5
 41
0.0
 71
     1
 72
     1
  1
A
  7
SLDTEXTSTYLE0
 73
     1
 44
1.0
  0
SOLID
  5
211
330
208
100
AcDbEntity
  8
0
  6
Continuous
 62
     0
370
     0
100
AcDbTrace
 10
0.2041666968
 20
9.6296233539
 30
0.0
 11
3.0041666968
 21
9.6296233539
 31
0.0
 12
1.6041666968
 22
7.1796233539
 32
0.0
 13
1.6041666968
 23
7.1796233539
 33
0.0
  0
ENDBLK
  5
20A
330
208
100
AcDbEntity
  8
0
100
AcDbBlockEnd
  0
BLOCK
  5
226
330
225
100
AcDbEntity
  8
0
100
AcDbBlockBegin
  2
SW_HATCH_0
 70
     0
 10
0.0
 20
0.0
 30
0.0
  3
SW_HATCH_0
  1

  0
LINE
  5
228
330
225
100
AcDbEntity
  8
0
  6
Continuous
 62
     0
370
     0
100
AcDbLine
 10
0.0
 20
0.0
 30
0.0
 11
0.9012809023
 21
0.9012818336
 31
0.0
  0
LINE
  5
229
330
225
100
AcDbEntity
  8
0
  6
Continuous
 62
     0
370
     0
100
AcDbLine
 10
0.0
 20
-4.4901259243
 30
0.0
 11
5.391409155
 21
0.9012818336
 31
0.0
  0
LINE
  5
22A
330
225
100
AcDbEntity
  8
0
  6
Continuous
 62
     0
370
     0
100
AcDbLine
 10
0.0
 20
-8.980255574
 30
0.0
 11
9.8815370584
 21
0.9012818336
 31
0.0
  0
LINE
  5
22B
330
225
100
AcDbEntity
  8
0
  6
Continuous
 62
     0
370
     0
100
AcDbLine
 10
0.0
 20
-13.4703852236
 30
0.0
 11
14.3716651946
 21
0.9012818336
 31
0.0
  0
LINE
  5
22C
330
225
100
AcDbEntity
  8
0
  6
Continuous
 62
     0
370
     0
100
AcDbLine
 10
14.3617931753
 20
-3.59871611
 30
0.0
 11
16.00000076
 21
-1.9605122507
 31
0.0
  0
LINE
  5
22D
330
225
100
AcDbEntity
  8
0
  6
Continuous
 62
     0
370
     0
100
AcDbLine
 10
0.0
 20
-17.9605148733
 30
0.0
 11
12.00000057
 21
-5.9605129063
 31
0.0
  0
LINE
  5
22E
330
225
100
AcDbEntity
  8
0
  6
Continuous
 62
     0
370
     0
100
AcDbLine
 10
0.3519211896
 20
-22.0987163484
 30
0.0
 11
13.8519210741
 21
-8.5987187922
 31
0.0
  0
LINE
  5
22F
330
225
100
AcDbEntity
  8
0
  6
Continuous
 62
     0
370
     0
100
AcDbLine
 10
13.3420494385
 20
-13.5987214744
 30
0.0
 11
16.00000076
 21
-10.9407715499
 31
0.0
  0
LINE
  5
230
330
225
100
AcDbEntity
  8
0
  6
Continuous
 62
     0
370
     0
100
AcDbLine
 10
4.8420494422
 20
-22.0987163484
 30
0.0
 11
12.00000057
 21
-14.940764755
 31
0.0
  0
LINE
  5
231
330
225
100
AcDbEntity
  8
0
  6
Continuous
 62
     0
370
     0
100
AcDbLine
 10
9.3321774621
 20
-22.0987163484
 30
0.0
 11
12.8321773373
 21
-18.598716706
 31
0.0
  0
LINE
  5
232
330
225
100
AcDbEntity
  8
0
  6
Continuous
 62
     0
370
     0
100
AcDbLine
 10
13.8223054819
 20
-22.0987163484
 30
0.0
 11
15.000000596
 21
-20.9210254252
 31
0.0
  0
ENDBLK
  5
227
330
225
100
AcDbEntity
  8
0
100
AcDbBlockEnd
  0
BLOCK
  5
237
330
236
100
AcDbEntity
  8
0
100
AcDbBlockBegin
  2
*D22
 70
     1
 10
0.0
 20
0.0
 30
0.0
  3
*D22
  1

  0
SOLID
  5
239
330
236
100
AcDbEntity
  8
0
  6
Continuous
 62
     7
370
    15
100
AcDbTrace
 10
346.7887542966
 20
185.0673554456
 30
0.0
 11
350.7887542966
 21
184.6173554456
 31
0.0
 12
350.7887542966
 22
185.5173554456
 32
0.0
 13
350.7887542966
 23
185.5173554456
 33
0.0
  0
SOLID
  5
23A
330
236
100
AcDbEntity
  8
0
  6
Continuous
 62
     7
370
    15
100
AcDbTrace
 10
342.7887542966
 20
185.0673554456
 30
0.0
 11
338.7887542966
 21
185.5173554456
 31
0.0
 12
338.7887542966
 22
184.6173554456
 32
0.0
 13
338.7887542966
 23
184.6173554456
 33
0.0
  0
LINE
  5
23B
330
236
100
AcDbEntity
  8
0
  6
Continuous
 62
     7
370
    15
100
AcDbLine
 10
346.7887542966
 20
214.0838902471
 30
0.0
 11
346.7887542966
 21
184.0673554456
 31
0.0
  0
LINE
  5
23C
330
236
100
AcDbEntity
  8
0
  6
Continuous
 62
     7
370
    15
100
AcDbLine
 10
342.7887542966
 20
209.0838902471
 30
0.0
 11
342.7887542966
 21
184.0673554456
 31
0.0
  0
LINE
  5
23D
330
236
100
AcDbEntity
  8
0
  6
Continuous
 62
     7
370
    15
100
AcDbLine
 10
346.7887542966
 20
185.0673554456
 30
0.0
 11
354.7887542966
 21
185.0673554456
 31
0.0
  0
LINE
  5
23E
330
236
100
AcDbEntity
  8
0
  6
Continuous
 62
     7
370
    15
100
AcDbLine
 10
346.7887542966
 20
185.0673554456
 30
0.0
 11
342.7887542966
 21
185.0673554456
 31
0.0
  0
LINE
  5
23F
330
236
100
AcDbEntity
  8
0
  6
Continuous
 62
     7
370
    15
100
AcDbLine
 10
342.7887542966
 20
185.0673554456
 30
0.0
 11
327.9879488558
 21
185.0673554456
 31
0.0
  0
MTEXT
  5
240
330
236
100
AcDbEntity
  8
0
  6
Continuous
 62
     7
370
    15
100
AcDbMText
 10
329.5754488558
 20
189.5790921856
 30
0.0
 40
3.5
 41
0.0
 71
     1
 72
     1
  1
2
  7
SLDTEXTSTYLE0
 73
     1
 44
1.0
  0
MTEXT
  5
241
330
236
100
AcDbEntity
  8
0
  6
Continuous
 62
     7
370
    15
100
AcDbMText
 10
335.1451055722
 20
188.5297446588
 30
0.0
 40
2.45
 41
0.0
 71
     1
 72
     1
  1
0
  7
SLDTEXTSTYLE0
 73
     1
 44
1.0
  0
MTEXT
  5
242
330
236
100
AcDbEntity
  8
0
  6
Continuous
 62
     7
370
    15
100
AcDbMText
 10
333.1803115423
 20
192.2866939125
 30
0.0
 40
2.45
 41
0.0
 71
     1
 72
     1
  1
+
  7
SLDTEXTSTYLE0
 73
     1
 44
1.0
  0
MTEXT
  5
243
330
236
100
AcDbEntity
  8
0
  6
Continuous
 62
     7
370
    15
100
AcDbMText
 10
335.1451055722
 20
192.2866939125
 30
0.0
 40
2.45
 41
0.0
 71
     1
 72
     1
  1
0,2
  7
SLDTEXTSTYLE0
 73
     1
 44
1.0
  0
ENDBLK
  5
238
330
236
100
AcDbEntity
  8
0
100
AcDbBlockEnd
  0
BLOCK
  5
247
330
246
100
AcDbEntity
  8
0
100
AcDbBlockBegin
  2
*D23
 70
     1
 10
0.0
 20
0.0
 30
0.0
  3
*D23
  1

  0
SOLID
  5
249
330
246
100
AcDbEntity
  8
0
  6
Continuous
 62
     7
370
    15
100
AcDbTrace
 10
370.007202211
 20
200.0838902471
 30
0.0
 11
369.557202211
 21
196.0838902471
 31
0.0
 12
370.457202211
 22
196.0838902471
 32
0.0
 13
370.457202211
 23
196.0838902471
 33
0.0
  0
SOLID
  5
24A
330
246
100
AcDbEntity
  8
0
  6
Continuous
 62
     7
370
    15
100
AcDbTrace
 10
370.007202211
 20
205.0838902471
 30
0.0
 11
370.457202211
 21
209.0838902471
 31
0.0
 12
369.557202211
 22
209.0838902471
 32
0.0
 13
369.557202211
 23
209.0838902471
 33
0.0
  0
LINE
  5
24B
330
246
100
AcDbEntity
  8
0
  6
Continuous
 62
     7
370
    15
100
AcDbLine
 10
346.7887542966
 20
200.0838902471
 30
0.0
 11
371.007202211
 21
200.0838902471
 31
0.0
  0
LINE
  5
24C
330
246
100
AcDbEntity
  8
0
  6
Continuous
 62
     7
370
    15
100
AcDbLine
 10
347.7887542966
 20
205.0838902471
 30
0.0
 11
371.007202211
 21
205.0838902471
 31
0.0
  0
LINE
  5
24D
330
246
100
AcDbEntity
  8
0
  6
Continuous
 62
     7
370
    15
100
AcDbLine
 10
370.007202211
 20
200.0838902471
 30
0.0
 11
370.007202211
 21
180.5743600884
 31
0.0
  0
LINE
  5
24E
330
246
100
AcDbEntity
  8
0
  6
Continuous
 62
     7
370
    15
100
AcDbLine
 10
370.007202211
 20
200.0838902471
 30
0.0
 11
370.007202211
 21
205.0838902471
 31
0.0
  0
LINE
  5
24F
330
246
100
AcDbEntity
  8
0
  6
Continuous
 62
     7
370
    15
100
AcDbLine
 10
370.007202211
 20
205.0838902471
 30
0.0
 11
370.007202211
 21
213.0838902471
 31
0.0
  0
MTEXT
  5
250
330
246
100
AcDbEntity
  8
0
  6
Continuous
 62
     7
370
    15
100
AcDbMText
 10
365.495465471
 20
182.1618600884
 30
0.0
 40
3.5
 41
0.0
 71
     1
 72
     1
  1
2,5
  7
SLDTEXTSTYLE0
 11
6.123233995736766E-17
 21
1.0
 31
0.0
 73
     1
 44
1.0
  0
MTEXT
  5
251
330
246
100
AcDbEntity
  8
0
  6
Continuous
 62
     7
370
    15
100
AcDbMText
 10
366.5448129978
 20
191.7433138198
 30
0.0
 40
2.45
 41
0.0
 71
     1
 72
     1
  1
0
  7
SLDTEXTSTYLE0
 11
6.123233995736766E-17
 21
1.0
 31
0.0
 73
     1
 44
1.0
  0
MTEXT
  5
252
330
246
100
AcDbEntity
  8
0
  6
Continuous
 62
     7
370
    15
100
AcDbMText
 10
362.787863744
 20
189.7785197899
 30
0.0
 40
2.45
 41
0.0
 71
     1
 72
     1
  1
+
  7
SLDTEXTSTYLE0
 11
6.123233995736766E-17
 21
1.0
 31
0.0
 73
     1
 44
1.0
  0
MTEXT
  5
253
330
246
100
AcDbEntity
  8
0
  6
Continuous
 62
     7
370
    15
100
AcDbMText
 10
362.787863744
 20
191.7433138198
 30
0.0
 40
2.45
 41
0.0
 71
     1
 72
     1
  1
0,1
  7
SLDTEXTSTYLE0
 11
6.123233995736766E-17
 21
1.0
 31
0.0
 73
     1
 44
1.0
  0
ENDBLK
  5
248
330
246
100
AcDbEntity
  8
0
100
AcDbBlockEnd
  0
BLOCK
  5
256
330
255
100
AcDbEntity
  8
0
100
AcDbBlockBegin
  2
*D24
 70
     1
 10
0.0
 20
0.0
 30
0.0
  3
*D24
  1

  0
SOLID
  5
258
330
255
100
AcDbEntity
  8
0
  6
Continuous
 62
     7
370
    15
100
AcDbTrace
 10
359.5688264059
 20
210.0838902471
 30
0.0
 11
359.1188264059
 21
206.0838902471
 31
0.0
 12
360.0188264059
 22
206.0838902471
 32
0.0
 13
360.0188264059
 23
206.0838902471
 33
0.0
  0
SOLID
  5
259
330
255
100
AcDbEntity
  8
0
  6
Continuous
 62
     7
370
    15
100
AcDbTrace
 10
359.5688264059
 20
215.0838902471
 30
0.0
 11
360.0188264059
 21
219.0838902471
 31
0.0
 12
359.1188264059
 22
219.0838902471
 32
0.0
 13
359.1188264059
 23
219.0838902471
 33
0.0
  0
LINE
  5
25A
330
255
100
AcDbEntity
  8
0
  6
Continuous
 62
     7
370
    15
100
AcDbLine
 10
347.7887542966
 20
210.0838902471
 30
0.0
 11
360.5688264059
 21
210.0838902471
 31
0.0
  0
LINE
  5
25B
330
255
100
AcDbEntity
  8
0
  6
Continuous
 62
     7
370
    15
100
AcDbLine
 10
347.7887542966
 20
215.0838902471
 30
0.0
 11
360.5688264059
 21
215.0838902471
 31
0.0
  0
LINE
  5
25C
330
255
100
AcDbEntity
  8
0
  6
Continuous
 62
     7
370
    15
100
AcDbLine
 10
359.5688264059
 20
210.0838902471
 30
0.0
 11
359.5688264059
 21
202.0838902471
 31
0.0
  0
LINE
  5
25D
330
255
100
AcDbEntity
  8
0
  6
Continuous
 62
     7
370
    15
100
AcDbLine
 10
359.5688264059
 20
210.0838902471
 30
0.0
 11
359.5688264059
 21
215.0838902471
 31
0.0
  0
LINE
  5
25E
330
255
100
AcDbEntity
  8
0
  6
Continuous
 62
     7
370
    15
100
AcDbLine
 10
359.5688264059
 20
215.0838902471
 30
0.0
 11
359.5688264059
 21
236.7946293933
 31
0.0
  0
MTEXT
  5
25F
330
255
100
AcDbEntity
  8
0
  6
Continuous
 62
     7
370
    15
100
AcDbMText
 10
355.0570896659
 20
220.9479861097
 30
0.0
 40
3.5
 41
0.0
 71
     1
 72
     1
  1
2,5
  7
SLDTEXTSTYLE0
 11
6.123233995736766E-17
 21
1.0
 31
0.0
 73
     1
 44
1.0
  0
MTEXT
  5
260
330
255
100
AcDbEntity
  8
0
  6
Continuous
 62
     7
370
    15
100
AcDbMText
 10
356.1064371927
 20
230.5294398411
 30
0.0
 40
2.45
 41
0.0
 71
     1
 72
     1
  1
0
  7
SLDTEXTSTYLE0
 11
6.123233995736766E-17
 21
1.0
 31
0.0
 73
     1
 44
1.0
  0
MTEXT
  5
261
330
255
100
AcDbEntity
  8
0
  6
Continuous
 62
     7
370
    15
100
AcDbMText
 10
352.349487939
 20
228.5646458112
 30
0.0
 40
2.45
 41
0.0
 71
     1
 72
     1
  1
+
  7
SLDTEXTSTYLE0
 11
6.123233995736766E-17
 21
1.0
 31
0.0
 73
     1
 44
1.0
  0
MTEXT
  5
262
330
255
100
AcDbEntity
  8
0
  6
Continuous
 62
     7
370
    15
100
AcDbMText
 10
352.349487939
 20
230.5294398411
 30
0.0
 40
2.45
 41
0.0
 71
     1
 72
     1
  1
0,1
  7
SLDTEXTSTYLE0
 11
6.123233995736766E-17
 21
1.0
 31
0.0
 73
     1
 44
1.0
  0
ENDBLK
  5
257
330
255
100
AcDbEntity
  8
0
100
AcDbBlockEnd
  0
ENDSEC
  0
SECTION
  2
ENTITIES
  0
LINE
  5
A3
330
1F
100
AcDbEntity
  8
0
  6
Continuous
 62
     7
370
    30
100
AcDbLine
 10
227.8
 20
74.25
 30
0.0
 11
227.8
 21
5.0173447686
 31
0.0
  0
LINE
  5
A4
330
1F
100
AcDbEntity
  8
0
  6
Continuous
 62
     7
370
     0
100
AcDbLine
 10
235.6
 20
43.25
 30
0.0
 11
235.6
 21
5.0
 31
0.0
  0
LINE
  5
A5
330
1F
100
AcDbEntity
  8
0
  6
Continuous
 62
     7
370
     0
100
AcDbLine
 10
261.6
 20
5.0
 30
0.0
 11
261.6
 21
43.25
 31
0.0
  0
LINE
  5
A6
330
1F
100
AcDbEntity
  8
0
  6
Continuous
 62
     7
370
     0
100
AcDbLine
 10
410.0
 20
287.0
 30
0.0
 11
410.0
 21
74.25
 31
0.0
  0
LINE
  5
A7
330
1F
100
AcDbEntity
  8
0
  6
Continuous
 62
     7
370
    15
100
AcDbLine
 10
227.8
 20
9.25
 30
0.0
 11
282.4
 21
9.25
 31
0.0
  0
LINE
  5
A8
330
1F
100
AcDbEntity
  8
0
  6
Continuous
 62
     7
370
    15
100
AcDbLine
 10
282.4
 20
22.0
 30
0.0
 11
415.0
 21
22.0
 31
0.0
  0
LINE
  5
A9
330
1F
100
AcDbEntity
  8
0
  6
Continuous
 62
     7
370
    15
100
AcDbLine
 10
415.0
 20
43.25
 30
0.0
 11
227.8
 21
43.25
 31
0.0
  0
LINE
  5
AA
330
1F
100
AcDbEntity
  8
0
  6
Continuous
 62
     7
370
    15
100
AcDbLine
 10
282.4
 20
60.25
 30
0.0
 11
415.0
 21
60.25
 31
0.0
  0
LINE
  5
AB
330
1F
100
AcDbEntity
  8
0
  6
Continuous
 62
     7
370
    30
100
AcDbLine
 10
415.0
 20
74.25
 30
0.0
 11
227.8
 21
74.25
 31
0.0
  0
LINE
  5
AC
330
1F
100
AcDbEntity
  8
0
  6
Continuous
 62
     7
370
    15
100
AcDbLine
 10
282.4
 20
5.0
 30
0.0
 11
282.4
 21
74.25
 31
0.0
  0
LINE
  5
AD
330
1F
100
AcDbEntity
  8
0
  6
Continuous
 62
     7
370
    15
100
AcDbLine
 10
326.6
 20
60.25
 30
0.0
 11
326.6
 21
5.0
 31
0.0
  0
LINE
  5
AE
330
1F
100
AcDbEntity
  8
0
  6
Continuous
 62
     7
370
     0
100
AcDbLine
 10
274.6
 20
43.25
 30
0.0
 11
274.6
 21
5.0
 31
0.0
  0
LINE
  5
AF
330
1F
100
AcDbEntity
  8
0
  6
Continuous
 62
     7
370
     0
100
AcDbLine
 10
292.8
 20
26.25
 30
0.0
 11
292.8
 21
43.25
 31
0.0
  0
LINE
  5
B0
330
1F
100
AcDbEntity
  8
0
  6
Continuous
 62
     7
370
     0
100
AcDbLine
 10
282.4
 20
13.5
 30
0.0
 11
227.8
 21
13.5
 31
0.0
  0
LINE
  5
B1
330
1F
100
AcDbEntity
  8
0
  6
Continuous
 62
     7
370
     0
100
AcDbLine
 10
308.4
 20
60.25
 30
0.0
 11
308.4
 21
22.0
 31
0.0
  0
LINE
  5
B2
330
1F
100
AcDbEntity
  8
0
  6
Continuous
 62
     7
370
     0
100
AcDbLine
 10
370.8
 20
5.0
 30
0.0
 11
370.8
 21
9.25
 31
0.0
  0
LINE
  5
B3
330
1F
100
AcDbEntity
  8
0
  6
Continuous
 62
     7
370
     0
100
AcDbLine
 10
360.8239054224
 20
60.25
 30
0.0
 11
360.8239054224
 21
53.875
 31
0.0
  0
LINE
  5
B4
330
1F
100
AcDbEntity
  8
0
  6
Continuous
 62
     7
370
     0
100
AcDbLine
 10
381.5537145669
 20
74.25
 30
0.0
 11
381.5537145669
 21
60.25
 31
0.0
  0
LINE
  5
B5
330
1F
100
AcDbEntity
  8
0
  6
Continuous
 62
     7
370
     0
100
AcDbLine
 10
402.0
 20
9.25
 30
0.0
 11
402.0
 21
22.0
 31
0.0
  0
LINE
  5
B6
330
1F
100
AcDbEntity
  8
0
  6
Continuous
 62
     7
370
     0
100
AcDbLine
 10
415.0
 20
53.875
 30
0.0
 11
326.6
 21
53.875
 31
0.0
  0
LINE
  5
B7
330
1F
100
AcDbEntity
  8
0
  6
Continuous
 62
     7
370
     0
100
AcDbLine
 10
308.4
 20
60.25
 30
0.0
 11
308.4
 21
74.25
 31
0.0
  0
LINE
  5
B8
330
1F
100
AcDbEntity
  8
0
  6
Continuous
 62
     7
370
    30
100
AcDbLine
 10
415.0
 20
5.0
 30
0.0
 11
415.0
 21
74.25
 31
0.0
  0
LINE
  5
B9
330
1F
100
AcDbEntity
  8
0
  6
Continuous
 62
     7
370
    30
100
AcDbLine
 10
227.8
 20
5.0173447686
 30
0.0
 11
415.0
 21
5.0
 31
0.0
  0
LINE
  5
BA
330
1F
100
AcDbEntity
  8
0
  6
Continuous
 62
     7
370
     0
100
AcDbLine
 10
282.4
 20
17.75
 30
0.0
 11
227.8
 21
17.75
 31
0.0
  0
LINE
  5
BB
330
1F
100
AcDbEntity
  8
0
  6
Continuous
 62
     7
370
     0
100
AcDbLine
 10
282.4
 20
22.0
 30
0.0
 11
227.8
 21
22.0
 31
0.0
  0
LINE
  5
BC
330
1F
100
AcDbEntity
  8
0
  6
Continuous
 62
     7
370
     0
100
AcDbLine
 10
326.6
 20
26.25
 30
0.0
 11
227.8
 21
26.25
 31
0.0
  0
LINE
  5
BD
330
1F
100
AcDbEntity
  8
0
  6
Continuous
 62
     7
370
     0
100
AcDbLine
 10
326.6
 20
30.5
 30
0.0
 11
227.8
 21
30.5
 31
0.0
  0
LINE
  5
BE
330
1F
100
AcDbEntity
  8
0
  6
Continuous
 62
     7
370
     0
100
AcDbLine
 10
326.6
 20
34.75
 30
0.0
 11
227.8
 21
34.75
 31
0.0
  0
LINE
  5
BF
330
1F
100
AcDbEntity
  8
0
  6
Continuous
 62
     7
370
     0
100
AcDbLine
 10
326.6
 20
39.0
 30
0.0
 11
227.8
 21
39.0
 31
0.0
  0
LINE
  5
C0
330
1F
100
AcDbEntity
  8
0
  6
Continuous
 62
     7
370
     0
100
AcDbLine
 10
415.0
 20
13.5
 30
0.0
 11
402.0
 21
13.5
 31
0.0
  0
LINE
  5
C1
330
1F
100
AcDbEntity
  8
0
  6
Continuous
 62
     9
370
     0
100
AcDbLine
 10
270.1370045219
 20
64.6849002133
 30
0.0
 11
274.0331985219
 21
68.5810952133
 31
0.0
  0
LINE
  5
C2
330
1F
100
AcDbEntity
  8
0
  6
Continuous
 62
     9
370
     0
100
AcDbLine
 10
266.1370045219
 20
64.6849002133
 30
0.0
 11
270.1370045219
 21
64.6849002133
 31
0.0
  0
LINE
  5
C3
330
1F
100
AcDbEntity
  8
0
  6
Continuous
 62
     9
370
     0
100
AcDbLine
 10
270.1370045219
 20
60.6849002133
 30
0.0
 11
270.1370045219
 21
64.6849002133
 31
0.0
  0
LINE
  5
C4
330
1F
100
AcDbEntity
  8
0
  6
Continuous
 62
     9
370
     0
100
AcDbLine
 10
275.2331985219
 20
69.2810952133
 30
0.0
 11
275.2331985219
 21
73.2810952133
 31
0.0
  0
LINE
  5
C5
330
1F
100
AcDbEntity
  8
0
  6
Continuous
 62
     9
370
     0
100
AcDbLine
 10
275.2331985219
 20
69.2810952133
 30
0.0
 11
279.2331985219
 21
69.2810952133
 31
0.0
  0
LINE
  5
C6
330
1F
100
AcDbEntity
  8
0
  6
Continuous
 62
     7
370
    30
100
AcDbLine
 10
415.0
 20
292.0
 30
0.0
 11
5.0
 21
292.0
 31
0.0
  0
LINE
  5
C7
330
1F
100
AcDbEntity
  8
0
  6
Continuous
 62
     7
370
     0
100
AcDbLine
 10
410.0
 20
287.0
 30
0.0
 11
10.0
 21
287.0
 31
0.0
  0
LINE
  5
C8
330
1F
100
AcDbEntity
  8
0
  6
Continuous
 62
     7
370
    30
100
AcDbLine
 10
5.0
 20
292.0
 30
0.0
 11
5.0
 21
5.0173447686
 31
0.0
  0
LINE
  5
C9
330
1F
100
AcDbEntity
  8
0
  6
Continuous
 62
     7
370
     0
100
AcDbLine
 10
10.0
 20
287.0
 30
0.0
 11
10.0
 21
10.0
 31
0.0
  0
LINE
  5
CA
330
1F
100
AcDbEntity
  8
0
  6
Continuous
 62
     7
370
     0
100
AcDbLine
 10
10.0
 20
48.5
 30
0.0
 11
5.0
 21
48.5
 31
0.0
  0
LINE
  5
CB
330
1F
100
AcDbEntity
  8
0
  6
Continuous
 62
     7
370
     0
100
AcDbLine
 10
5.0
 20
98.5
 30
0.0
 11
10.0
 21
98.5
 31
0.0
  0
LINE
  5
CC
330
1F
100
AcDbEntity
  8
0
  6
Continuous
 62
     7
370
     0
100
AcDbLine
 10
5.0
 20
198.5
 30
0.0
 11
10.0
 21
198.5
 31
0.0
  0
LINE
  5
CD
330
1F
100
AcDbEntity
  8
0
  6
Continuous
 62
     7
370
     0
100
AcDbLine
 10
5.0
 20
148.5
 30
0.0
 11
15.0
 21
148.5
 31
0.0
  0
LINE
  5
CE
330
1F
100
AcDbEntity
  8
0
  6
Continuous
 62
     7
370
    30
100
AcDbLine
 10
5.0
 20
5.0173447686
 30
0.0
 11
227.8
 21
5.0173447686
 31
0.0
  0
LINE
  5
CF
330
1F
100
AcDbEntity
  8
0
  6
Continuous
 62
     7
370
     0
100
AcDbLine
 10
10.0
 20
10.0
 30
0.0
 11
227.8
 21
10.0
 31
0.0
  0
LINE
  5
D0
330
1F
100
AcDbEntity
  8
0
  6
Continuous
 62
     7
370
     0
100
AcDbLine
 10
60.0
 20
5.0
 30
0.0
 11
60.0
 21
10.0
 31
0.0
  0
LINE
  5
D1
330
1F
100
AcDbEntity
  8
0
  6
Continuous
 62
     7
370
     0
100
AcDbLine
 10
110.0
 20
10.0
 30
0.0
 11
110.0
 21
5.0
 31
0.0
  0
LINE
  5
D2
330
1F
100
AcDbEntity
  8
0
  6
Continuous
 62
     7
370
     0
100
AcDbLine
 10
160.0
 20
5.0
 30
0.0
 11
160.0
 21
10.0
 31
0.0
  0
LINE
  5
D3
330
1F
100
AcDbEntity
  8
0
  6
Continuous
 62
     7
370
     0
100
AcDbLine
 10
10.0
 20
248.5
 30
0.0
 11
5.0
 21
248.5
 31
0.0
  0
LINE
  5
D4
330
1F
100
AcDbEntity
  8
0
  6
Continuous
 62
     7
370
     0
100
AcDbLine
 10
60.0
 20
287.0
 30
0.0
 11
60.0
 21
292.0
 31
0.0
  0
LINE
  5
D5
330
1F
100
AcDbEntity
  8
0
  6
Continuous
 62
     7
370
     0
100
AcDbLine
 10
110.0
 20
292.0
 30
0.0
 11
110.0
 21
287.0
 31
0.0
  0
LINE
  5
D6
330
1F
100
AcDbEntity
  8
0
  6
Continuous
 62
     7
370
     0
100
AcDbLine
 10
160.0
 20
287.0
 30
0.0
 11
160.0
 21
292.0
 31
0.0
  0
LINE
  5
D7
330
1F
100
AcDbEntity
  8
0
  6
Continuous
 62
     7
370
     0
100
AcDbLine
 10
260.0
 20
287.0
 30
0.0
 11
260.0
 21
292.0
 31
0.0
  0
LINE
  5
D8
330
1F
100
AcDbEntity
  8
0
  6
Continuous
 62
     7
370
    30
100
AcDbLine
 10
415.0
 20
74.25
 30
0.0
 11
415.0
 21
292.0
 31
0.0
  0
LINE
  5
D9
330
1F
100
AcDbEntity
  8
0
  6
Continuous
 62
     7
370
     0
100
AcDbLine
 10
210.0
 20
5.0
 30
0.0
 11
210.0
 21
15.0
 31
0.0
  0
LINE
  5
DA
330
1F
100
AcDbEntity
  8
0
  6
Continuous
 62
     7
370
     0
100
AcDbLine
 10
410.0
 20
198.5
 30
0.0
 11
415.0
 21
198.5
 31
0.0
  0
LINE
  5
DB
330
1F
100
AcDbEntity
  8
0
  6
Continuous
 62
     7
370
     0
100
AcDbLine
 10
410.0
 20
98.5
 30
0.0
 11
415.0
 21
98.5
 31
0.0
  0
LINE
  5
DC
330
1F
100
AcDbEntity
  8
0
  6
Continuous
 62
     7
370
     0
100
AcDbLine
 10
415.0
 20
148.5
 30
0.0
 11
405.0
 21
148.5
 31
0.0
  0
LINE
  5
DD
330
1F
100
AcDbEntity
  8
0
  6
Continuous
 62
     7
370
     0
100
AcDbLine
 10
310.0
 20
292.0
 30
0.0
 11
310.0
 21
287.0
 31
0.0
  0
LINE
  5
DE
330
1F
100
AcDbEntity
  8
0
  6
Continuous
 62
     7
370
     0
100
AcDbLine
 10
360.0
 20
287.0
 30
0.0
 11
360.0
 21
292.0
 31
0.0
  0
LINE
  5
DF
330
1F
100
AcDbEntity
  8
0
  6
Continuous
 62
     7
370
     0
100
AcDbLine
 10
210.0
 20
292.0
 30
0.0
 11
210.0
 21
282.0
 31
0.0
  0
LINE
  5
E0
330
1F
100
AcDbEntity
  8
0
  6
Continuous
 62
     7
370
     0
100
AcDbLine
 10
415.0
 20
248.5
 30
0.0
 11
410.0
 21
248.5
 31
0.0
  0
LINE
  5
E1
330
1F
100
AcDbEntity
  8
0
  6
Continuous
 62
     7
370
    15
100
AcDbLine
 10
282.4
 20
60.25
 30
0.0
 11
227.8
 21
60.25
 31
0.0
  0
LINE
  5
E2
330
1F
100
AcDbEntity
  8
0
  6
Continuous
 62
     7
370
     0
100
AcDbLine
 10
389.0
 20
60.25
 30
0.0
 11
389.0
 21
53.875
 31
0.0
  0
LINE
  5
E3
330
1F
100
AcDbEntity
  8
0
  6
CENTERX2
 62
     7
370
     0
100
AcDbLine
 10
308.9354804419
 20
51.7780917271
 30
0.0
 11
315.8888301279
 21
51.7780917271
 31
0.0
  0
LINE
  5
E4
330
1F
100
AcDbEntity
  8
0
  6
CENTERX2
 62
     7
370
     0
100
AcDbLine
 10
320.9642324408
 20
55.8323959328
 30
0.0
 11
320.9642324408
 21
47.6801928526
 31
0.0
  0
LINE
  5
E5
330
1F
100
AcDbEntity
  8
0
  6
Continuous
 62
     7
370
     0
100
AcDbLine
 10
0.0
 20
0.0173447686
 30
0.0
 11
419.7333188413
 21
0.0200017294
 31
0.0
  0
LINE
  5
E6
330
1F
100
AcDbEntity
  8
0
  6
Continuous
 62
     7
370
     0
100
AcDbLine
 10
0.0
 20
297.0
 30
0.0
 11
0.0
 21
0.0173447686
 31
0.0
  0
LINE
  5
E7
330
1F
100
AcDbEntity
  8
0
  6
CENTERX2
 62
     7
370
     0
100
AcDbLine
 10
316.891507512
 20
51.7780917271
 30
0.0
 11
325.2616839366
 21
51.7780917271
 31
0.0
  0
LINE
  5
E8
330
1F
100
AcDbEntity
  8
0
  6
Continuous
 62
     7
370
     0
100
AcDbLine
 10
420.0
 20
297.0
 30
0.0
 11
0.0
 21
297.0
 31
0.0
  0
LINE
  5
E9
330
1F
100
AcDbEntity
  8
0
  6
Continuous
 62
     7
370
    15
100
AcDbLine
 10
310.063519158
 20
53.7699437192
 30
0.0
 11
310.063519158
 21
49.741232308
 31
0.0
  0
LINE
  5
EA
330
1F
100
AcDbEntity
  8
0
  6
Continuous
 62
     7
370
    15
100
AcDbLine
 10
315.1345469489
 20
54.989865581
 30
0.0
 11
315.1345469489
 21
48.5213104462
 31
0.0
  0
LINE
  5
EB
330
1F
100
AcDbEntity
  8
0
  6
Continuous
 62
     7
370
    15
100
AcDbLine
 10
310.063519158
 20
53.7699437192
 30
0.0
 11
315.1345469489
 21
54.989865581
 31
0.0
  0
LINE
  5
EC
330
1F
100
AcDbEntity
  8
0
  6
Continuous
 62
     7
370
    15
100
AcDbLine
 10
315.1345469489
 20
48.5213104462
 30
0.0
 11
310.063519158
 21
49.741232308
 31
0.0
  0
LINE
  5
ED
330
1F
100
AcDbEntity
  8
0
  6
Continuous
 62
     7
370
     0
100
AcDbLine
 10
419.992718863
 20
0.0369839186
 30
0.0
 11
420.0
 21
297.0
 31
0.0
  0
LINE
  5
EE
330
1F
100
AcDbEntity
  8
0
  6
Continuous
 62
     7
370
     0
100
AcDbLine
 10
326.6
 20
9.25
 30
0.0
 11
415.0
 21
9.25
 31
0.0
  0
LINE
  5
EF
330
1F
100
AcDbEntity
  8
0
  6
Continuous
 62
     9
370
     0
100
AcDbLine
 10
270.1370045219
 20
64.6849002133
 30
0.0
 11
272.2860545219
 21
67.4855982133
 31
0.0
  0
LINE
  5
F0
330
1F
100
AcDbEntity
  8
0
  6
Continuous
 62
     9
370
     0
100
AcDbLine
 10
272.2860545219
 20
67.4855982133
 30
0.0
 11
272.9377015219
 21
66.8339512133
 31
0.0
  0
LINE
  5
F1
330
1F
100
AcDbEntity
  8
0
  6
Continuous
 62
     9
370
     0
100
AcDbLine
 10
270.1370045219
 20
64.6849002133
 30
0.0
 11
272.9377015219
 21
66.8339512133
 31
0.0
  0
LINE
  5
F2
330
1F
100
AcDbEntity
  8
0
  6
Continuous
 62
     9
370
     0
100
AcDbLine
 10
274.0331985219
 20
68.5810952133
 30
0.0
 11
280.1474775219
 21
68.5810952133
 31
0.0
  0
CIRCLE
  5
F3
330
1F
100
AcDbEntity
  8
0
  6
Continuous
 62
     7
370
    15
100
AcDbCircle
 10
320.9642324408
 20
51.7780917271
 30
0.0
 40
2.014355705611833
  0
CIRCLE
  5
F4
330
1F
100
AcDbEntity
  8
0
  6
Continuous
 62
     7
370
    15
100
AcDbCircle
 10
320.9642324408
 20
51.7780917271
 30
0.0
 40
3.234277567429402
  0
INSERT
  5
F5
330
1F
100
AcDbEntity
  8
0
  6
Continuous
 62
     7
100
AcDbBlockReference
  2
Block22
 10
313.1515711537
 20
62.8936185364
 30
0.0
  0
INSERT
  5
F6
330
1F
100
AcDbEntity
  8
0
  6
Continuous
 62
     7
100
AcDbBlockReference
  2
Block23
 10
375.3738830514
 20
62.3166635726
 30
0.0
  0
INSERT
  5
F7
330
1F
100
AcDbEntity
  8
0
  6
Continuous
 62
     7
100
AcDbBlockReference
  2
Block24
 10
342.587944157
 20
63.4295768139
 30
0.0
  0
INSERT
  5
F8
330
1F
100
AcDbEntity
  8
0
  6
Continuous
 62
     7
100
AcDbBlockReference
  2
Block25
 10
338.0636526332
 20
62.1469416604
 30
0.0
  0
INSERT
  5
F9
330
1F
100
AcDbEntity
  8
0
  6
Continuous
 62
     7
100
AcDbBlockReference
  2
Block26
 10
256.4699667914
 20
64.6849002133
 30
0.0
  0
INSERT
  5
FA
330
1F
100
AcDbEntity
  8
0
  6
Continuous
 62
     7
100
AcDbBlockReference
  2
Block27
 10
242.8527664461
 20
61.3416647272
 30
0.0
  0
INSERT
  5
FB
330
1F
100
AcDbEntity
  8
0
  6
Continuous
 62
     7
100
AcDbBlockReference
  2
Block28
 10
384.263639168
 20
61.6328894774
 30
0.0
  0
MTEXT
  5
FD
330
1F
100
AcDbEntity
  8
0
  6
Continuous
 62
     7
370
     0
100
AcDbMText
 10
6.6666666667
 20
124.6680204036
 30
0.0
 40
1.8520833333
 41
0.0
 71
     1
 72
     1
  1
D
  7
SLDTEXTSTYLE3
 73
     1
 44
1.0
  0
MTEXT
  5
FE
330
1F
100
AcDbEntity
  8
0
  6
Continuous
 62
     7
370
     0
100
AcDbMText
 10
6.6666666667
 20
74.6680204036
 30
0.0
 40
1.8520833333
 41
0.0
 71
     1
 72
     1
  1
E
  7
SLDTEXTSTYLE3
 73
     1
 44
1.0
  0
MTEXT
  5
FF
330
1F
100
AcDbEntity
  8
0
  6
Continuous
 62
     7
370
     0
100
AcDbMText
 10
6.6666666667
 20
24.6680204036
 30
0.0
 40
1.8520833333
 41
0.0
 71
     1
 72
     1
  1
F
  7
SLDTEXTSTYLE3
 73
     1
 44
1.0
  0
MTEXT
  5
100
330
1F
100
AcDbEntity
  8
0
  6
Continuous
 62
     7
370
     0
100
AcDbMText
 10
6.6666666667
 20
174.6680204036
 30
0.0
 40
1.8520833333
 41
0.0
 71
     1
 72
     1
  1
C
  7
SLDTEXTSTYLE3
 73
     1
 44
1.0
  0
MTEXT
  5
101
330
1F
100
AcDbEntity
  8
0
  6
Continuous
 62
     7
370
     0
100
AcDbMText
 10
34.5833333333
 20
8.6680244036
 30
0.0
 40
1.8520833333
 41
0.0
 71
     1
 72
     1
  1
1
  7
SLDTEXTSTYLE3
 73
     1
 44
1.0
  0
MTEXT
  5
102
330
1F
100
AcDbEntity
  8
0
  6
Continuous
 62
     7
370
     0
100
AcDbMText
 10
84.1666666667
 20
8.6680244036
 30
0.0
 40
1.8520833333
 41
0.0
 71
     1
 72
     1
  1
2
  7
SLDTEXTSTYLE3
 73
     1
 44
1.0
  0
MTEXT
  5
103
330
1F
100
AcDbEntity
  8
0
  6
Continuous
 62
     7
370
     0
100
AcDbMText
 10
134.1666666667
 20
8.6680244036
 30
0.0
 40
1.8520833333
 41
0.0
 71
     1
 72
     1
  1
3
  7
SLDTEXTSTYLE3
 73
     1
 44
1.0
  0
MTEXT
  5
104
330
1F
100
AcDbEntity
  8
0
  6
Continuous
 62
     7
370
     0
100
AcDbMText
 10
184.1666666667
 20
8.6680244036
 30
0.0
 40
1.8520833333
 41
0.0
 71
     1
 72
     1
  1
4
  7
SLDTEXTSTYLE3
 73
     1
 44
1.0
  0
MTEXT
  5
105
330
1F
100
AcDbEntity
  8
0
  6
Continuous
 62
     7
370
     0
100
AcDbMText
 10
6.6666666667
 20
224.6680204036
 30
0.0
 40
1.8520833333
 41
0.0
 71
     1
 72
     1
  1
B
  7
SLDTEXTSTYLE3
 73
     1
 44
1.0
  0
MTEXT
  5
106
330
1F
100
AcDbEntity
  8
0
  6
Continuous
 62
     7
370
     0
100
AcDbMText
 10
6.6666666667
 20
274.6680204036
 30
0.0
 40
1.8520833333
 41
0.0
 71
     1
 72
     1
  1
A
  7
SLDTEXTSTYLE3
 73
     1
 44
1.0
  0
MTEXT
  5
107
330
1F
100
AcDbEntity
  8
0
  6
Continuous
 62
     7
370
     0
100
AcDbMText
 10
134.1666666667
 20
290.6680244036
 30
0.0
 40
1.8520833333
 41
0.0
 71
     1
 72
     1
  1
3
  7
SLDTEXTSTYLE3
 73
     1
 44
1.0
  0
MTEXT
  5
108
330
1F
100
AcDbEntity
  8
0
  6
Continuous
 62
     7
370
     0
100
AcDbMText
 10
84.1666666667
 20
290.6680244036
 30
0.0
 40
1.8520833333
 41
0.0
 71
     1
 72
     1
  1
2
  7
SLDTEXTSTYLE3
 73
     1
 44
1.0
  0
MTEXT
  5
109
330
1F
100
AcDbEntity
  8
0
  6
Continuous
 62
     7
370
     0
100
AcDbMText
 10
34.5833333333
 20
290.6680244036
 30
0.0
 40
1.8520833333
 41
0.0
 71
     1
 72
     1
  1
1
  7
SLDTEXTSTYLE3
 73
     1
 44
1.0
  0
MTEXT
  5
10A
330
1F
100
AcDbEntity
  8
0
  6
Continuous
 62
     7
370
     0
100
AcDbMText
 10
234.1666666667
 20
290.6680244036
 30
0.0
 40
1.8520833333
 41
0.0
 71
     1
 72
     1
  1
5
  7
SLDTEXTSTYLE3
 73
     1
 44
1.0
  0
MTEXT
  5
10B
330
1F
100
AcDbEntity
  8
0
  6
Continuous
 62
     7
370
     0
100
AcDbMText
 10
411.6666666667
 20
174.6680204036
 30
0.0
 40
1.8520833333
 41
0.0
 71
     1
 72
     1
  1
C
  7
SLDTEXTSTYLE3
 73
     1
 44
1.0
  0
MTEXT
  5
10C
330
1F
100
AcDbEntity
  8
0
  6
Continuous
 62
     7
370
     0
100
AcDbMText
 10
411.6666666667
 20
124.6680204036
 30
0.0
 40
1.8520833333
 41
0.0
 71
     1
 72
     1
  1
D
  7
SLDTEXTSTYLE3
 73
     1
 44
1.0
  0
MTEXT
  5
10D
330
1F
100
AcDbEntity
  8
0
  6
Continuous
 62
     7
370
     0
100
AcDbMText
 10
184.1666666667
 20
290.6680244036
 30
0.0
 40
1.8520833333
 41
0.0
 71
     1
 72
     1
  1
4
  7
SLDTEXTSTYLE3
 73
     1
 44
1.0
  0
MTEXT
  5
10E
330
1F
100
AcDbEntity
  8
0
  6
Continuous
 62
     7
370
     0
100
AcDbMText
 10
284.1666666667
 20
290.6680244036
 30
0.0
 40
1.8520833333
 41
0.0
 71
     1
 72
     1
  1
6
  7
SLDTEXTSTYLE3
 73
     1
 44
1.0
  0
MTEXT
  5
10F
330
1F
100
AcDbEntity
  8
0
  6
Continuous
 62
     7
370
     0
100
AcDbMText
 10
334.1666666667
 20
290.6680244036
 30
0.0
 40
1.8520833333
 41
0.0
 71
     1
 72
     1
  1
7
  7
SLDTEXTSTYLE3
 73
     1
 44
1.0
  0
MTEXT
  5
110
330
1F
100
AcDbEntity
  8
0
  6
Continuous
 62
     7
370
     0
100
AcDbMText
 10
384.1666666667
 20
290.6680244036
 30
0.0
 40
1.8520833333
 41
0.0
 71
     1
 72
     1
  1
8
  7
SLDTEXTSTYLE3
 73
     1
 44
1.0
  0
MTEXT
  5
111
330
1F
100
AcDbEntity
  8
0
  6
Continuous
 62
     7
370
     0
100
AcDbMText
 10
411.6666666667
 20
274.6680204036
 30
0.0
 40
1.8520833333
 41
0.0
 71
     1
 72
     1
  1
A
  7
SLDTEXTSTYLE3
 73
     1
 44
1.0
  0
MTEXT
  5
112
330
1F
100
AcDbEntity
  8
0
  6
Continuous
 62
     7
370
     0
100
AcDbMText
 10
411.6666666667
 20
224.6680204036
 30
0.0
 40
1.8520833333
 41
0.0
 71
     1
 72
     1
  1
B
  7
SLDTEXTSTYLE3
 73
     1
 44
1.0
  0
MTEXT
  5
113
330
1F
100
AcDbEntity
  8
0
  6
Continuous
 62
     7
370
     0
100
AcDbMText
 10
329.0948201898
 20
17.0041680089
 30
0.0
 40
5.0
 41
0.0
 71
     1
 72
     1
  1
200901-00000.012.0
  7
SLDTEXTSTYLE0
 73
     1
 44
1.0
  0
MTEXT
  5
114
330
1F
100
AcDbEntity
  8
0
  6
Continuous
 62
     7
370
     0
100
AcDbMText
 10
328.2747753106
 20
37.3782183677
 30
0.0
 40
5.0
 41
0.0
 71
     1
 72
     1
  1
Labyrinthring
  7
SLDTEXTSTYLE0
 73
     1
 44
1.0
  0
MTEXT
  5
115
330
1F
100
AcDbEntity
  8
0
  6
Continuous
 62
     7
370
     0
100
AcDbMText
 10
293.2388954359
 20
38.0916221881
 30
0.0
 40
2.2
 41
0.0
 71
     1
 72
     1
  1
21.09.2009
  7
SLDTEXTSTYLE0
 73
     1
 44
1.0
  0
MTEXT
  5
116
330
1F
100
AcDbEntity
  8
0
  6
Continuous
 62
     7
370
     0
100
AcDbMText
 10
309.5393252846
 20
37.8103582329
 30
0.0
 40
2.2
 41
0.0
 71
     1
 72
     1
  1
Huning
  7
SLDTEXTSTYLE0
 73
     1
 44
1.0
  0
MTEXT
  5
117
330
1F
100
AcDbEntity
  8
0
  6
Continuous
 62
     7
370
     0
100
AcDbMText
 10
341.6780958178
 20
58.2797629795
 30
0.0
 40
3.0
 41
0.0
 71
     1
 72
     1
  1
1:1
  7
SLDTEXTSTYLE0
 73
     1
 44
1.0
  0
INSERT
  5
11F
330
1F
100
AcDbEntity
  8
0
  6
Continuous
 62
     7
370
     0
100
AcDbBlockReference
  2
SW_NOTE_0
 10
328.0405626618
 20
44.5087158992
 30
0.0
  0
MTEXT
  5
120
330
1F
100
AcDbEntity
  8
0
  6
Continuous
 62
     7
370
     0
100
AcDbMText
 10
328.2175320343
 20
57.6923950567
 30
0.0
 40
1.8
 41
0.0
 71
     1
 72
     1
  1
Maßstab:
  7
SLDTEXTSTYLE0
 73
     1
 44
1.0
  0
MTEXT
  5
122
330
1F
100
AcDbEntity
  8
0
  6
Continuous
 62
     7
370
     0
100
AcDbMText
 10
361.3457083659
 20
57.598041947
 30
0.0
 40
1.8
 41
0.0
 71
     1
 72
     1
  1
Gewicht:                  kg
  7
SLDTEXTSTYLE5
 73
     1
 44
1.0
  0
MTEXT
  5
123
330
1F
100
AcDbEntity
  8
0
  6
Continuous
 62
     7
370
     0
100
AcDbMText
 10
390.1552301225
 20
57.6242328284
 30
0.0
 40
1.8
 41
0.0
 71
     1
 72
     1
  1
Format:
  7
SLDTEXTSTYLE0
 73
     1
 44
1.0
  0
MTEXT
  5
124
330
1F
100
AcDbEntity
  8
0
  6
Continuous
 62
     7
370
     0
100
AcDbMText
 10
327.9465144731
 20
52.3440839959
 30
0.0
 40
1.8
 41
0.0
 71
     1
 72
     1
  1
Werkstoff / Abmessung:  
  7
SLDTEXTSTYLE0
 73
     1
 44
1.0
  0
MTEXT
  5
125
330
1F
100
AcDbEntity
  8
0
  6
Continuous
 62
     7
370
     0
100
AcDbMText
 10
374.7285771649
 20
58.3220731276
 30
0.0
 40
3.0
 41
0.0
 71
     1
 72
     1
  1
0,05
  7
SLDTEXTSTYLE0
 73
     1
 44
1.0
  0
MTEXT
  5
126
330
1F
100
AcDbEntity
  8
0
  6
Continuous
 62
     7
370
     0
100
AcDbMText
 10
328.0463366356
 20
41.9518009592
 30
0.0
 40
1.8
 41
0.0
 71
     1
 72
     1
  1
Benennung
  7
SLDTEXTSTYLE0
 73
     1
 44
1.0
  0
MTEXT
  5
127
330
1F
100
AcDbEntity
  8
0
  6
Continuous
 62
     7
370
     0
100
AcDbMText
 10
328.2666252449
 20
20.9883384812
 30
0.0
 40
1.8
 41
0.0
 71
     1
 72
     1
  1
Sach-Nr. des Erstellers
  7
SLDTEXTSTYLE0
 73
     1
 44
1.0
  0
MTEXT
  5
128
330
1F
100
AcDbEntity
  8
0
  6
Continuous
 62
     7
370
     0
100
AcDbMText
 10
405.364073443
 20
20.7622462577
 30
0.0
 40
1.8
 41
0.0
 71
     1
 72
     1
  1
Blatt
  7
SLDTEXTSTYLE0
 73
     1
 44
1.0
  0
MTEXT
  5
12A
330
1F
100
AcDbEntity
  8
0
  6
Continuous
 62
     7
370
     0
100
AcDbMText
 10
402.7822723004
 20
12.1042980349
 30
0.0
 40
1.8
 41
0.0
 71
     1
 72
     1
  1
von       Bl.
  7
SLDTEXTSTYLE6
 73
     1
 44
1.0
  0
MTEXT
  5
12B
330
1F
100
AcDbEntity
  8
0
  6
Continuous
 62
     7
370
     0
100
AcDbMText
 10
295.6650571518
 20
41.9801252783
 30
0.0
 40
1.8
 41
0.0
 71
     1
 72
     1
  1
Datum
  7
SLDTEXTSTYLE0
 73
     1
 44
1.0
  0
MTEXT
  5
12C
330
1F
100
AcDbEntity
  8
0
  6
Continuous
 62
     7
370
     0
100
AcDbMText
 10
312.4311800975
 20
42.0292487262
 30
0.0
 40
1.8
 41
0.0
 71
     1
 72
     1
  1
Name
  7
SLDTEXTSTYLE0
 73
     1
 44
1.0
  0
MTEXT
  5
12D
330
1F
100
AcDbEntity
  8
0
  6
Continuous
 62
     7
370
     0
100
AcDbMText
 10
283.7509628629
 20
37.6071020564
 30
0.0
 40
1.8
 41
0.0
 71
     1
 72
     1
  1
Bearb.
  7
SLDTEXTSTYLE0
 73
     1
 44
1.0
  0
MTEXT
  5
12E
330
1F
100
AcDbEntity
  8
0
  6
Continuous
 62
     7
370
     0
100
AcDbMText
 10
283.8224741858
 20
33.5020989868
 30
0.0
 40
1.8
 41
0.0
 71
     1
 72
     1
  1
Gepr.
  7
SLDTEXTSTYLE0
 73
     1
 44
1.0
  0
MTEXT
  5
12F
330
1F
100
AcDbEntity
  8
0
  6
Continuous
 62
     7
370
     0
100
AcDbMText
 10
283.9499288798
 20
29.2716663226
 30
0.0
 40
1.8
 41
0.0
 71
     1
 72
     1
  1
Norm
  7
SLDTEXTSTYLE0
 73
     1
 44
1.0
  0
INSERT
  5
135
330
1F
100
AcDbEntity
  8
0
  6
Continuous
 62
     7
370
     0
100
AcDbBlockReference
  2
SW_NOTE_1
 10
283.8691471626
 20
52.5039522767
 30
0.0
  0
MTEXT
  5
136
330
1F
100
AcDbEntity
  8
0
  6
Continuous
 62
     7
370
     0
100
AcDbMText
 10
403.7042433007
 20
58.2928141987
 30
0.0
 40
3.0
 41
0.0
 71
     1
 72
     1
  1
A3
  7
SLDTEXTSTYLE0
 73
     1
 44
1.0
  0
MTEXT
  5
137
330
1F
100
AcDbEntity
  8
0
  6
Continuous
 62
     7
370
     0
100
AcDbMText
 10
309.5432935089
 20
33.5810078281
 30
0.0
 40
2.2
 41
0.0
 71
     1
 72
     1
  1
-
  7
SLDTEXTSTYLE0
 73
     1
 44
1.0
  0
MTEXT
  5
138
330
1F
100
AcDbEntity
  8
0
  6
Continuous
 62
     7
370
     0
100
AcDbMText
 10
293.2251395128
 20
34.0004483498
 30
0.0
 40
2.2
 41
0.0
 71
     1
 72
     1
  1
-
  7
SLDTEXTSTYLE0
 73
     1
 44
1.0
  0
MTEXT
  5
139
330
1F
100
AcDbEntity
  8
0
  6
Continuous
 62
     7
370
     0
100
AcDbMText
 10
407.0822978081
 20
17.3479775572
 30
0.0
 40
2.2
 41
0.0
 71
     1
 72
     1
  1
1
  7
SLDTEXTSTYLE0
 73
     1
 44
1.0
  0
MTEXT
  5
13A
330
1F
100
AcDbEntity
  8
0
  6
Continuous
 62
     7
370
     0
100
AcDbMText
 10
407.3653589866
 20
12.306775204
 30
0.0
 40
2.0
 41
0.0
 71
     1
 72
     1
  1
1
  7
SLDTEXTSTYLE0
 73
     1
 44
1.0
  0
MTEXT
  5
13B
330
1F
100
AcDbEntity
  8
0
  6
Continuous
 62
     7
370
     0
100
AcDbMText
 10
229.2062245235
 20
7.9832582265
 30
0.0
 40
1.8
 41
0.0
 71
     1
 72
     1
  1
Zust.
  7
SLDTEXTSTYLE0
 73
     1
 44
1.0
  0
MTEXT
  5
13C
330
1F
100
AcDbEntity
  8
0
  6
Continuous
 62
     7
370
     0
100
AcDbMText
 10
239.5373262582
 20
8.1810205109
 30
0.0
 40
1.8
 41
0.0
 71
     1
 72
     1
  1
Änderung
  7
SLDTEXTSTYLE0
 73
     1
 44
1.0
  0
MTEXT
  5
13D
330
1F
100
AcDbEntity
  8
0
  6
Continuous
 62
     7
370
     0
100
AcDbMText
 10
263.7988033028
 20
8.1019155972
 30
0.0
 40
1.8
 41
0.0
 71
     1
 72
     1
  1
Datum
  7
SLDTEXTSTYLE0
 73
     1
 44
1.0
  0
MTEXT
  5
13E
330
1F
100
AcDbEntity
  8
0
  6
Continuous
 62
     7
370
     0
100
AcDbMText
 10
274.9763276145
 20
8.0307211748
 30
0.0
 40
1.8
 41
0.0
 71
     1
 72
     1
  1
Name
  7
SLDTEXTSTYLE0
 73
     1
 44
1.0
  0
MTEXT
  5
13F
330
1F
100
AcDbEntity
  8
0
  6
Continuous
 62
     7
370
     0
100
AcDbMText
 10
228.795404805
 20
73.0955106705
 30
0.0
 40
1.8
 41
0.0
 71
     1
 72
     1
  1
Werkstückkanten:    
  7
SLDTEXTSTYLE0
 73
     1
 44
1.0
  0
MTEXT
  5
140
330
1F
100
AcDbEntity
  8
0
  6
Continuous
 62
     7
370
     0
100
AcDbMText
 10
231.4848698583
 20
69.4602825255
 30
0.0
 40
2.0
 41
0.0
 71
     1
 72
     1
  1
ISO 13715
  7
SLDTEXTSTYLE1
 73
     1
 44
1.0
  0
MTEXT
  5
141
330
1F
100
AcDbEntity
  8
0
  6
Continuous
 62
     7
370
     0
100
AcDbMText
 10
276.4544003118
 20
72.7240458467
 30
0.0
 40
2.5
 41
0.0
 71
     1
 72
     1
  1
-0,3
  7
SLDTEXTSTYLE1
 73
     1
 44
1.0
  0
INSERT
  5
147
330
1F
100
AcDbEntity
  8
0
  6
Continuous
 62
     7
370
     0
100
AcDbBlockReference
  2
SW_NOTE_2
 10
283.6646858963
 20
67.1966617092
 30
0.0
  0
CIRCLE
  5
148
330
1F
100
AcDbEntity
  8
0
  6
Continuous
 62
     7
370
    40
100
AcDbCircle
 10
100.6993520097
 20
198.3687307011
 30
0.0
 40
37.25
  0
CIRCLE
  5
149
330
1F
100
AcDbEntity
  8
0
  6
Continuous
 62
     7
370
    40
100
AcDbCircle
 10
100.6993520097
 20
198.3687307011
 30
0.0
 40
34.75000000000001
  0
CIRCLE
  5
14A
330
1F
100
AcDbEntity
  8
0
  6
Continuous
 62
     7
370
    40
100
AcDbCircle
 10
100.6993520097
 20
198.3687307011
 30
0.0
 40
30.0
  0
CIRCLE
  5
14B
330
1F
100
AcDbEntity
  8
0
  6
Continuous
 62
     7
370
    40
100
AcDbCircle
 10
100.6993520097
 20
198.3687307011
 30
0.0
 40
32.25
  0
CIRCLE
  5
14C
330
1F
100
AcDbEntity
  8
0
  6
Continuous
 62
     7
370
    40
100
AcDbCircle
 10
100.6993520097
 20
198.3687307011
 30
0.0
 40
39.75
  0
CIRCLE
  5
14D
330
1F
100
AcDbEntity
  8
0
  6
Continuous
 62
     7
370
    40
100
AcDbCircle
 10
100.6993520097
 20
198.3687307011
 30
0.0
 40
41.5
  0
INSERT
  5
159
330
1F
100
AcDbEntity
  8
0
  6
Continuous
 62
     7
370
     0
100
AcDbBlockReference
  2
SW_CENTERMARKSYMBOL_0
 10
100.6993520097
 20
198.3687307011
 30
0.0
  0
LINE
  5
15A
330
1F
100
AcDbEntity
  8
0
  6
CENTER
 62
     7
370
    30
100
AcDbLine
 10
100.6993520097
 20
251.2717946061
 30
0.0
 11
100.6993520097
 21
145.6021326535
 31
0.0
  0
LINE
  5
15B
330
1F
100
AcDbEntity
  8
0
  6
Continuous
 62
     7
370
    30
100
AcDbLine
 10
82.6993520097
 20
249.2717946061
 30
0.0
 11
100.6993520097
 21
249.2717946061
 31
0.0
  0
SOLID
  5
15C
330
1F
100
AcDbEntity
  8
0
  6
Continuous
 62
     7
370
    30
100
AcDbTrace
 10
100.6993520097
 20
249.2717946061
 30
0.0
 11
90.6993520097
 21
251.2717946061
 31
0.0
 12
90.6993520097
 22
247.2717946061
 32
0.0
 13
90.6993520097
 23
247.2717946061
 33
0.0
  0
LINE
  5
15D
330
1F
100
AcDbEntity
  8
0
  6
Continuous
 62
     7
370
    30
100
AcDbLine
 10
82.6993520097
 20
147.6021326535
 30
0.0
 11
100.6993520097
 21
147.6021326535
 31
0.0
  0
SOLID
  5
15E
330
1F
100
AcDbEntity
  8
0
  6
Continuous
 62
     7
370
    30
100
AcDbTrace
 10
100.6993520097
 20
147.6021326535
 30
0.0
 11
90.6993520097
 21
149.6021326535
 31
0.0
 12
90.6993520097
 22
145.6021326535
 32
0.0
 13
90.6993520097
 23
145.6021326535
 33
0.0
  0
MTEXT
  5
15F
330
1F
100
AcDbEntity
  8
0
  6
Continuous
 62
     7
100
AcDbMText
 10
82.6993520097
 20
256.9418901285
 30
0.0
 40
5.0
 41
0.0
 71
     1
 72
     1
  1
A
  7
SLDTEXTSTYLE0
 73
     1
 44
1.0
  0
MTEXT
  5
160
330
1F
100
AcDbEntity
  8
0
  6
Continuous
 62
     7
100
AcDbMText
 10
82.6993520097
 20
155.2722281759
 30
0.0
 40
5.0
 41
0.0
 71
     1
 72
     1
  1
A
  7
SLDTEXTSTYLE0
 73
     1
 44
1.0
  0
LINE
  5
161
330
1F
100
AcDbEntity
  8
0
  6
Continuous
 62
     7
370
    40
100
AcDbLine
 10
36.1233621451
 20
27.8416759156
 30
0.0
 11
41.4266632559
 21
24.7801453509
 31
0.0
  0
LINE
  5
162
330
1F
100
AcDbEntity
  8
0
  6
Continuous
 62
     7
370
    40
100
AcDbLine
 10
82.9232912614
 20
96.6622003283
 30
0.0
 11
77.6199901506
 21
99.723730893
 31
0.0
  0
LINE
  5
163
330
1F
100
AcDbEntity
  8
0
  6
Continuous
 62
     7
370
    40
100
AcDbLine
 10
37.8946368371
 20
31.7264851295
 30
0.0
 11
39.3088504666
 21
30.9100769789
 31
0.0
  0
LINE
  5
164
330
1F
100
AcDbEntity
  8
0
  6
Continuous
 62
     7
370
    40
100
AcDbLine
 10
76.5558222735
 20
95.4307176039
 30
0.0
 11
75.1416086439
 21
96.2471257545
 31
0.0
  0
LINE
  5
165
330
1F
100
AcDbEntity
  8
0
  6
Continuous
 62
     7
370
    40
100
AcDbLine
 10
40.3944335938
 20
36.0567300741
 30
0.0
 11
41.8086472233
 21
35.2403219235
 31
0.0
  0
LINE
  5
166
330
1F
100
AcDbEntity
  8
0
  6
Continuous
 62
     7
370
    40
100
AcDbLine
 10
74.0560255167
 20
91.1004726593
 30
0.0
 11
72.6418118872
 21
91.9168808099
 31
0.0
  0
LWPOLYLINE
  5
167
330
1F
100
AcDbEntity
  8
0
  6
Continuous
 62
     7
370
    40
100
AcDbPolyline
 90
      118
 70
   128
 43
0.0
 10
86.2166064502
 20
80.7231710799
 10
86.1743041852
 20
82.5176606266
 10
86.0475106598
 20
84.2581298745
 10
85.8365972932
 20
85.9395642966
 10
85.5421725803
 20
87.5571158848
 10
85.1650820925
 20
89.1061191199
 10
84.7064137453
 20
90.582107321
 10
84.1674898959
 20
91.9808263347
 10
83.5498673436
 20
93.2982440406
 10
82.8553215245
 20
94.5305587181
 10
82.0858623163
 20
95.6742210984
 10
81.2436997944
 20
96.725930565
 10
80.3312679394
 20
97.6826556846
 10
79.351198295
 20
98.5416418136
 10
78.3063120659
 20
99.3004065364
 10
77.1996253861
 20
99.9567655205
 10
76.034326928
 20
100.5088241538
 10
74.8137779027
 20
100.9549912324
 10
73.5414975721
 20
101.2939827648
 10
72.2211527121
 20
101.5248189306
 10
70.8565523441
 20
101.646833207
 10
69.4516306129
 20
101.6596776934
 10
68.0104362502
 20
101.5633139866
 10
66.5371266475
 20
101.3580158433
 10
65.0359487584
 20
101.0443794484
 10
63.5112311957
 20
100.6233097266
 10
61.9673700735
 20
100.0960182531
 10
60.4088168234
 20
99.4640253461
 10
58.8400650237
 20
98.7291524627
 10
57.2656378874
 20
97.8935210601
 10
55.6900749265
 20
96.9595418551
 10
54.117918781
 20
95.9299011368
 10
52.553702542
 20
94.8075747414
 10
51.0019359222
 20
93.5957957341
 10
49.4670932378
 20
92.2980565961
 10
47.9535999078
 20
90.9181014313
 10
46.4658201066
 20
89.4599066711
 10
45.0080429347
 20
87.9276761321
 10
43.584471223
 20
86.3258315115
 10
42.1992109967
 20
84.6589910955
 10
40.8562543525
 20
82.9319568326
 10
39.5594748491
 20
81.1497116728
 10
38.3126103853
 20
79.3173914316
 10
37.119256614
 20
77.4402794678
 10
35.9828537718
 20
75.5237899544
 10
34.9066800932
 20
73.5734503885
 10
33.8938360057
 20
71.5948787791
 10
32.94724413
 20
69.5937836468
 10
32.0696308401
 20
67.5759336074
 10
31.2635302155
 20
65.547147485
 10
30.531262967
 20
63.5132730215
 10
29.8749417052
 20
61.4801747086
 10
29.2964604044
 20
59.4537162978
 10
28.797486499
 20
57.4397402692
 10
28.3794556162
 20
55.4440511011
 10
28.0435742096
 20
53.4724042439
 10
27.7908142907
 20
51.5304859676
 10
27.6219002586
 20
49.623893021
 10
27.5373220703
 20
47.7581242652
 10
27.5373220703
 20
45.9385582415
 10
27.6219002586
 20
44.1704413833
 10
27.7908142907
 20
42.458872427
 10
28.0435742096
 20
40.8087845412
 10
28.3794556162
 20
39.2249381016
 10
28.797486499
 20
37.7118971174
 10
29.2964604044
 20
36.2740240971
 10
29.8749417052
 20
34.9154659797
 10
30.531262967
 20
33.640140066
 10
31.2635302155
 20
32.4517233716
 10
32.0696308401
 20
31.3536412198
 10
32.94724413
 20
30.3490619167
 10
33.8938360057
 20
29.4408785009
 10
34.9066800932
 20
28.6317117834
 10
35.9828537718
 20
27.923895899
 10
37.119256614
 20
27.3194691792
 10
38.3126103853
 20
26.820174152
 10
39.5594748491
 20
26.427452978
 10
40.8562543525
 20
26.1424375633
 10
42.1992109967
 20
25.9659480376
 10
43.584471223
 20
25.898495035
 10
45.0080429347
 20
25.9402713273
 10
46.4658201066
 20
26.0911544848
 10
47.9535999078
 20
26.3507137196
 10
49.4670932378
 20
26.7182007584
 10
51.0019359222
 20
27.1925532638
 10
52.553702542
 20
27.7724058596
 10
54.117918781
 20
28.4560850919
 10
55.6900749265
 20
29.2416172222
 10
57.2656378874
 20
30.1267442911
 10
58.8400650237
 20
31.1089077672
 10
60.4088168234
 20
32.1852771583
 10
61.9673700735
 20
33.3527515312
 10
63.5112311957
 20
34.6079641678
 10
65.0359487584
 20
35.9472958726
 10
66.5371266475
 20
37.3668825758
 10
68.0104362502
 20
38.862631492
 10
69.4516306129
 20
40.4302353778
 10
70.8565523441
 20
42.0651679678
 10
72.2211527121
 20
43.762716293
 10
73.5414975721
 20
45.5179901857
 10
74.8137779027
 20
47.3259253203
 10
76.034326928
 20
49.1813083075
 10
77.1996253861
 20
51.0787919024
 10
78.3063120659
 20
53.0129041293
 10
79.351198295
 20
54.9780688132
 10
80.3312679394
 20
56.9686192676
 10
81.2436997944
 20
58.9788157832
 10
82.0858623163
 20
61.0028654008
 10
82.8553215245
 20
63.0349264727
 10
83.5498673436
 20
65.069146684
 10
84.1674898959
 20
67.0996562102
 10
84.7064137453
 20
69.1206034558
 10
85.1650820925
 20
71.1261588586
 10
85.5421725803
 20
73.1105415036
 10
85.8365972932
 20
75.0680286294
 10
86.0475106598
 20
76.9929784413
 10
86.1743041852
 20
78.8798403776
 10
86.2166064502
 20
80.7231710799
  0
LWPOLYLINE
  5
168
330
1F
100
AcDbEntity
  8
0
  6
Continuous
 62
     7
370
    40
100
AcDbPolyline
 90
       61
 70
   128
 43
0.0
 10
82.9232912614
 20
96.6622003283
 10
83.0637996347
 20
96.5799803449
 10
84.1399733133
 20
95.8721644605
 10
85.1528174008
 20
95.062997743
 10
86.0994092766
 20
94.1548143272
 10
86.9770225664
 20
93.1502350241
 10
87.783123191
 20
92.0521528723
 10
88.5153904396
 20
90.8637361779
 10
89.1717117013
 20
89.5884102642
 10
89.7501930022
 20
88.2298521468
 10
90.2491669075
 20
86.7919791265
 10
90.6671977903
 20
85.2789381423
 10
91.003079197
 20
83.6950917027
 10
91.2558391158
 20
82.0450038169
 10
91.424753148
 20
80.3334348606
 10
91.5093313362
 20
78.5653180024
 10
91.5093313362
 20
76.7457519787
 10
91.424753148
 20
74.8799832229
 10
91.2558391158
 20
72.9733902763
 10
91.003079197
 20
71.0314719999
 10
90.6671977903
 20
69.0598251428
 10
90.2491669075
 20
67.0641359747
 10
89.7501930022
 20
65.0501599461
 10
89.1717117013
 20
63.0237015353
 10
88.5153904396
 20
60.9906032224
 10
87.783123191
 20
58.9567287589
 10
86.9770225664
 20
56.9279426365
 10
86.0994092766
 20
54.9100925971
 10
85.1528174008
 20
52.9089974648
 10
84.1399733133
 20
50.9304258554
 10
83.0637996347
 20
48.9800862895
 10
81.9273967925
 20
47.0635967761
 10
80.7340430212
 20
45.1864848123
 10
79.4871785574
 20
43.3541645711
 10
78.1903990541
 20
41.5719194113
 10
76.8474424098
 20
39.8448851484
 10
75.4621821835
 20
38.1780447324
 10
74.0386104719
 20
36.5762001118
 10
72.5808332999
 20
35.0439695728
 10
71.0930534988
 20
33.5857748126
 10
69.5795601687
 20
32.2058196478
 10
68.0447174843
 20
30.9080805098
 10
66.4929508646
 20
29.6963015025
 10
64.9287346255
 20
28.5739751071
 10
63.35657848
 20
27.5443343888
 10
61.7810155191
 20
26.6103551838
 10
60.2065883828
 20
25.7747237812
 10
58.6378365832
 20
25.0398508978
 10
57.079283333
 20
24.4078579908
 10
55.5354222108
 20
23.8805665173
 10
54.0107046482
 20
23.4594967955
 10
52.509526759
 20
23.1458604005
 10
51.0362171563
 20
22.9405622573
 10
49.5950227936
 20
22.8441985505
 10
48.1901010624
 20
22.8570430368
 10
46.8255006944
 20
22.9790573133
 10
45.5051558344
 20
23.2098934791
 10
44.2328755038
 20
23.5488850115
 10
43.0123264786
 20
23.9950520901
 10
41.8470280204
 20
24.5471107234
 10
41.4266632559
 20
24.7801453509
  0
LWPOLYLINE
  5
169
330
1F
100
AcDbEntity
  8
0
  6
Continuous
 62
     7
370
    40
100
AcDbPolyline
 90
      116
 70
   128
 43
0.0
 10
84.9791697096
 20
80.008814055
 10
84.937228327
 20
81.7570803519
 10
84.8115279855
 20
83.4517038512
 10
84.6024453725
 20
85.0876278196
 10
84.31059952
 20
86.6599673655
 10
83.9368676092
 20
88.1640337728
 10
83.4823638974
 20
89.5953375441
 10
82.9484423521
 20
90.9496055115
 10
82.336696651
 20
92.2227956651
 10
81.6489522796
 20
93.4111108425
 10
80.8872638966
 20
94.5110017705
 10
80.0539047977
 20
95.5191891198
 10
79.1513590128
 20
96.4326612243
 10
78.1823239402
 20
97.2486938529
 10
77.1496879561
 20
97.9648494508
 10
76.0565343659
 20
98.5789931096
 10
74.9061269161
 20
99.0892902864
 10
73.7018966238
 20
99.494218973
 10
72.4474378247
 20
99.7925719776
 10
71.1464963201
 20
99.9834546443
 10
69.8029522541
 20
100.0663023456
 10
68.4208161629
 20
100.0408660338
 10
67.0042125107
 20
99.9072179461
 10
65.5573698118
 20
99.6657611113
 10
64.084605484
 20
99.3172175639
 10
62.5903146532
 20
98.8626218817
 10
61.0789576416
 20
98.3033352548
 10
59.5550444911
 20
97.6410274267
 10
58.0231229455
 20
96.877669756
 10
56.4877650323
 20
96.0155457212
 10
54.9535528219
 20
95.057224449
 10
53.4250652566
 20
94.0055713618
 10
51.9068633333
 20
92.8637183306
 10
50.4034789908
 20
91.6350755112
 10
48.9193975756
 20
90.3233120964
 10
47.4590494459
 20
88.9323423434
 10
46.0267921907
 20
87.4663122672
 10
44.626899764
 20
85.9296024934
 10
43.2635506305
 20
84.3268001225
 10
41.9408139368
 20
82.6626846619
 10
40.6626369988
 20
80.9422238455
 10
39.4328341061
 20
79.1705504399
 10
38.2550759858
 20
77.3529561618
 10
37.1328753145
 20
75.4948605007
 10
36.0695854006
 20
73.6018130001
 10
35.0683751604
 20
71.6794605602
 10
34.132234386
 20
69.7335413532
 10
33.2639592573
 20
67.769862772
 10
32.4661378542
 20
65.7942854613
 10
31.7411514737
 20
63.8127043058
 10
31.0911654102
 20
61.8310339828
 10
30.5181157844
 20
59.8551861492
 10
30.0237200805
 20
57.8910625963
 10
29.6094455356
 20
55.9445195111
 10
29.2765328475
 20
54.0213693753
 10
29.0259751015
 20
52.1273509289
 10
28.858520404
 20
50.2681170027
 10
28.7746692489
 20
48.4492165523
 10
28.7746692489
 20
46.676076598
 10
28.858520404
 20
44.9539886306
 10
29.0259751015
 20
43.2880937828
 10
29.2765328475
 20
41.6833631524
 10
29.6094455356
 20
40.1445858246
 10
30.0237200805
 20
38.6763539477
 10
30.5181157844
 20
37.2830475244
 10
31.0911654102
 20
35.9688287055
 10
31.7411514737
 20
34.7376163176
 10
32.4661378542
 20
33.5930866199
 10
33.2639592573
 20
32.5386542939
 10
34.132234386
 20
31.5774648378
 10
35.0683751604
 20
30.7123907626
 10
36.0695854006
 20
29.9460110603
 10
37.1328753145
 20
29.2806119631
 10
38.2550759858
 20
28.7181816181
 10
39.4328341061
 20
28.2603979213
 10
40.6626369988
 20
27.9086247121
 10
41.9408139368
 20
27.6639155762
 10
43.2635506305
 20
27.5269993948
 10
44.626899764
 20
27.4982864279
 10
46.0267921907
 20
27.5778580466
 10
47.4590494459
 20
27.7654769982
 10
48.9193975756
 20
28.0605893065
 10
50.4034789908
 20
28.4623098212
 10
51.9068633333
 20
28.9694376168
 10
53.4250652566
 20
29.5804632151
 10
54.9535528219
 20
30.2935643069
 10
56.4877650323
 20
31.1066067483
 10
58.0231229455
 20
32.0171692274
 10
59.5550444911
 20
33.022530525
 10
61.0789576416
 20
34.1196953691
 10
62.5903146532
 20
35.305384405
 10
64.084605484
 20
36.5760601925
 10
65.5573698118
 20
37.9279341436
 10
67.0042125107
 20
39.3569663316
 10
68.4208161629
 20
40.8588940065
 10
69.8029522541
 20
42.4292380585
 10
71.1464963201
 20
44.0633087196
 10
72.4474378247
 20
45.7562264758
 10
73.7018966238
 20
47.5029467805
 10
74.9061269161
 20
49.2982501677
 10
76.0565343659
 20
51.1367795138
 10
77.1496879561
 20
53.0130514426
 10
78.1823239402
 20
54.9214631699
 10
79.1513590128
 20
56.8563198785
 10
80.0539047977
 20
58.8118491654
 10
80.8872638966
 20
60.7822124499
 10
81.6489522796
 20
62.7615300657
 10
82.336696651
 20
64.7438979925
 10
82.9484423521
 20
66.7233946984
 10
83.4823638974
 20
68.6941153604
 10
83.9368676092
 20
70.6501779476
 10
84.31059952
 20
72.5857460343
 10
84.6024453725
 20
74.4950436292
 10
84.8115279855
 20
76.3723692441
 10
84.937228327
 20
78.2121232685
 10
84.9791697096
 20
80.008814055
  0
LWPOLYLINE
  5
16A
330
1F
100
AcDbEntity
  8
0
  6
Continuous
 62
     7
370
    40
100
AcDbPolyline
 90
       22
 70
   128
 43
0.0
 10
77.2683160646
 20
97.8897375462
 10
77.117194588
 20
97.9666869966
 10
75.9667871383
 20
98.4769841734
 10
74.7625568459
 20
98.8819128601
 10
73.5080980468
 20
99.1802658647
 10
72.2071565422
 20
99.3711485314
 10
70.8636124763
 20
99.4539962327
 10
69.4814763851
 20
99.4285599209
 10
68.0648727329
 20
99.2949118332
 10
66.618030034
 20
99.0534549983
 10
65.1452657061
 20
98.704911451
 10
63.6509748754
 20
98.2503157687
 10
62.1396178638
 20
97.6910291418
 10
60.6157047133
 20
97.0287213138
 10
59.0837831676
 20
96.265363643
 10
57.5484252544
 20
95.4032396082
 10
56.0142130441
 20
94.4449183361
 10
54.4857254788
 20
93.3932652488
 10
52.9675235555
 20
92.2514122176
 10
51.4641392129
 20
91.0227693982
 10
49.9800577977
 20
89.7110059835
 10
49.2016522624
 20
88.9822662178
  0
LWPOLYLINE
  5
16B
330
1F
100
AcDbEntity
  8
0
  6
Continuous
 62
     7
370
    40
100
AcDbPolyline
 90
       22
 70
   128
 43
0.0
 10
31.213763225
 20
57.8229505994
 10
31.0843803026
 20
57.2787564833
 10
30.6701057577
 20
55.3322133981
 10
30.3371930697
 20
53.4090632623
 10
30.0866353237
 20
51.5150448159
 10
29.9191806262
 20
49.6558108897
 10
29.8353294711
 20
47.8369104394
 10
29.8353294711
 20
46.0637704851
 10
29.9191806262
 20
44.3416825177
 10
30.0866353237
 20
42.6757876699
 10
30.3371930697
 20
41.0710570394
 10
30.6701057577
 20
39.5322797116
 10
31.0843803026
 20
38.0640478348
 10
31.5787760066
 20
36.6707414114
 10
32.1518256323
 20
35.3565225925
 10
32.8018116959
 20
34.1253102046
 10
33.5267980764
 20
32.9807805069
 10
34.3246194794
 20
31.926348181
 10
35.1928946081
 20
30.9651587248
 10
36.1290353826
 20
30.1000846496
 10
37.1302456228
 20
29.3337049474
 10
37.5356969883
 20
29.0633641703
  0
LWPOLYLINE
  5
16C
330
1F
100
AcDbEntity
  8
0
  6
Continuous
 62
     7
370
    40
100
AcDbPolyline
 90
       15
 70
   128
 43
0.0
 10
84.2720646646
 20
78.3759987755
 10
84.2298756693
 20
80.0724384089
 10
84.1034509288
 20
81.7147375665
 10
83.8931908383
 20
83.297633047
 10
83.5997697473
 20
84.8160547811
 10
83.2241306916
 20
86.2651399003
 10
82.7674722222
 20
87.6402441452
 10
82.231258942
 20
88.9369642983
 10
81.6172083352
 20
90.1511457897
 10
80.9272907668
 20
91.2789024691
 10
80.163711044
 20
92.3166166077
 10
79.3289189523
 20
93.2609677945
 10
78.4255855481
 20
94.1089291367
 10
77.4566071103
 20
94.8577847496
 10
76.5558222735
 20
95.4307176039
  0
LWPOLYLINE
  5
16D
330
1F
100
AcDbEntity
  8
0
  6
Continuous
 62
     7
370
    40
100
AcDbPolyline
 90
       43
 70
   128
 43
0.0
 10
39.3088504666
 20
30.9100769789
 10
39.977773636
 20
30.5507061421
 10
41.0968528064
 20
30.0593945797
 10
42.2698601866
 20
29.6741480815
 10
43.4930394386
 20
29.3962004709
 10
44.7624722227
 20
29.2264426175
 10
46.0740926851
 20
29.165415592
 10
47.4236979947
 20
29.2133197906
 10
48.8069654653
 20
29.3699959215
 10
50.2194644096
 20
29.634945537
 10
51.6566699682
 20
30.0073177233
 10
53.1139785857
 20
30.4859241188
 10
54.5867215109
 20
31.0692284563
 10
56.070181754
 20
31.7553593939
 10
57.5596069286
 20
32.5421240125
 10
59.0502261267
 20
33.4270023482
 10
60.5372643245
 20
34.4071557082
 10
62.0159580224
 20
35.4794478679
 10
63.4815708862
 20
36.6404388899
 10
64.9294079873
 20
37.8864176807
 10
66.3548308675
 20
39.2133863516
 10
67.7532744964
 20
40.6170973853
 10
69.120258137
 20
42.0930507829
 10
70.451404444
 20
43.6365263817
 10
71.7424480247
 20
45.2425705465
 10
72.9892532195
 20
46.9060444571
 10
74.1878266146
 20
48.6216176433
 10
75.3343288954
 20
50.383796121
 10
76.4250867006
 20
52.186932277
 10
77.4566071103
 20
54.0252530048
 10
78.4255855481
 20
55.8928673084
 10
79.3289189523
 20
57.7837951989
 10
80.163711044
 20
59.6919768192
 10
80.9272907668
 20
61.6113013401
 10
81.6172083352
 20
63.5356198886
 10
82.231258942
 20
65.4587691199
 10
82.7674722222
 20
67.3745879484
 10
83.2241306916
 20
69.2769388394
 10
83.5997697473
 20
71.1597275807
 10
83.8931908383
 20
73.0169260953
 10
84.1034509288
 20
74.842582709
 10
84.2298756693
 20
76.6308487649
 10
84.2720646646
 20
78.3759987755
  0
LWPOLYLINE
  5
16E
330
1F
100
AcDbEntity
  8
0
  6
Continuous
 62
     7
370
    40
100
AcDbPolyline
 90
      112
 70
   128
 43
0.0
 10
82.8578510351
 20
79.1924069261
 10
82.8156620397
 20
80.8888465595
 10
82.6892372993
 20
82.5311457171
 10
82.4789772088
 20
84.1140411976
 10
82.1855561178
 20
85.6324629317
 10
81.8099170621
 20
87.0815480509
 10
81.3532585926
 20
88.4566522958
 10
80.8170453125
 20
89.7533724489
 10
80.2029947056
 20
90.9675539403
 10
79.5130771373
 20
92.0953106197
 10
78.7494974145
 20
93.1330247583
 10
77.9147053227
 20
94.0773759451
 10
77.0113719186
 20
94.9253372873
 10
76.0423934808
 20
95.6741929002
 10
75.0108730711
 20
96.3215455134
 10
73.9201152658
 20
96.8653195137
 10
72.773612985
 20
97.3037746342
 10
71.57503959
 20
97.6355044345
 10
70.3282343952
 20
97.8594477084
 10
69.0371908145
 20
97.9748846834
 10
67.7060445075
 20
97.9814514701
 10
66.3390608668
 20
97.8791191511
 10
64.940617238
 20
97.6682215388
 10
63.5151943577
 20
97.3494319832
 10
62.0673572566
 20
96.9237736387
 10
60.6017443929
 20
96.3926040669
 10
59.1230506949
 20
95.757632823
 10
57.6360124972
 20
95.0208884252
 10
56.145393299
 20
94.1847344679
 10
54.6559681244
 20
93.2518453838
 10
53.1725078813
 20
92.225209582
 10
51.6997649562
 20
91.1081211319
 10
50.2424563387
 20
89.9041548122
 10
48.8052507801
 20
88.6171647811
 10
47.3927518358
 20
87.2512778288
 10
46.0094843651
 20
85.8108673331
 10
44.6598790555
 20
84.3005504089
 10
43.3482585932
 20
82.7251586317
 10
42.0788258091
 20
81.0897448832
 10
40.855646557
 20
79.3995445688
 10
39.6826391769
 20
77.6599725771
 10
38.5635600065
 20
75.8765997068
 10
37.5019954792
 20
74.0551420209
 10
36.5013450019
 20
72.2014311904
 10
35.5648156862
 20
70.3214084108
 10
34.6954039097
 20
68.4210924648
 10
33.8958992668
 20
66.5065728775
 10
33.1688582275
 20
64.5839810213
 10
32.5166120392
 20
62.6594764269
 10
31.9412522393
 20
60.7392247311
 10
31.444617484
 20
58.8293748643
 10
31.0283014512
 20
56.9360461219
 10
30.6936370347
 20
55.0653030704
 10
30.441693711
 20
53.2231369163
 10
30.2732854411
 20
51.4154527677
 10
30.1889443289
 20
49.6480364615
 10
30.1889443289
 20
47.9265520898
 10
30.2732854411
 20
46.256513959
 10
30.441693711
 20
44.6432698601
 10
30.6936370347
 20
43.0919912758
 10
31.0283014512
 20
41.6076435348
 10
31.444617484
 20
40.1949830527
 10
31.9412522393
 20
38.8585354691
 10
32.5166120392
 20
37.6025800584
 10
33.1688582275
 20
36.4311428835
 10
33.8958992668
 20
35.3479747437
 10
34.6954039097
 20
34.3565435685
 10
35.5648156862
 20
33.4600290932
 10
36.5013450019
 20
32.6613000455
 10
37.5019954792
 20
31.9629156643
 10
38.5635600065
 20
31.3671142927
 10
39.6826391769
 20
30.8758027303
 10
40.855646557
 20
30.4905562321
 10
42.0788258091
 20
30.2126086215
 10
43.3482585932
 20
30.0428507681
 10
44.6598790555
 20
29.9818237426
 10
46.0094843651
 20
30.0297279412
 10
47.3927518358
 20
30.1864040721
 10
48.8052507801
 20
30.4513536876
 10
50.2424563387
 20
30.8237258739
 10
51.6997649562
 20
31.3023322694
 10
53.1725078813
 20
31.8856366069
 10
54.6559681244
 20
32.5717675445
 10
56.145393299
 20
33.3585321631
 10
57.6360124972
 20
34.2434104988
 10
59.1230506949
 20
35.2235638588
 10
60.6017443929
 20
36.2958560185
 10
62.0673572566
 20
37.4568470405
 10
63.5151943577
 20
38.7028258313
 10
64.940617238
 20
40.0297945022
 10
66.3390608668
 20
41.4335055359
 10
67.7060445075
 20
42.9094589335
 10
69.0371908145
 20
44.4529345323
 10
70.3282343952
 20
46.0589786971
 10
71.57503959
 20
47.7224526077
 10
72.773612985
 20
49.4380257939
 10
73.9201152658
 20
51.2002042716
 10
75.0108730711
 20
53.0033404276
 10
76.0423934808
 20
54.8416611554
 10
77.0113719186
 20
56.709275459
 10
77.9147053227
 20
58.6002033495
 10
78.7494974145
 20
60.5083849698
 10
79.5130771373
 20
62.4277094907
 10
80.2029947056
 20
64.3520280392
 10
80.8170453125
 20
66.2751772705
 10
81.3532585926
 20
68.190996099
 10
81.8099170621
 20
70.09334699
 10
82.1855561178
 20
71.9761357313
 10
82.4789772088
 20
73.8333342459
 10
82.6892372993
 20
75.6589908596
 10
82.8156620397
 20
77.4472569155
 10
82.8578510351
 20
79.1924069261
  0
LWPOLYLINE
  5
16F
330
1F
100
AcDbEntity
  8
0
  6
Continuous
 62
     7
370
    40
100
AcDbPolyline
 90
      108
 70
   128
 43
0.0
 10
31.9461623471
 20
49.801714645
 10
31.9885146615
 20
51.4914130171
 10
32.1154240908
 20
53.2241848184
 10
32.3264586296
 20
54.9940598855
 10
32.6208833424
 20
56.7949327207
 10
32.9976867048
 20
58.6205976617
 10
33.4555727012
 20
60.4647623799
 10
33.9929581906
 20
62.3210672726
 10
34.607992663
 20
64.1831147391
 10
35.2985556049
 20
66.0444851508
 10
36.0622670366
 20
67.8987611846
 10
36.8964954143
 20
69.7395536782
 10
37.7983615813
 20
71.5605145575
 10
38.7647598417
 20
73.3553672534
 10
39.7923566432
 20
75.1179241919
 10
40.8776116506
 20
76.8421111279
 10
42.0167830139
 20
78.5219823529
 10
43.2059418566
 20
80.1517473108
 10
44.440992032
 20
81.725789607
 10
45.717674074
 20
83.238681457
 10
47.0315875884
 20
84.6852072588
 10
48.3782031059
 20
86.0603826032
 10
49.7528785464
 20
87.359463778
 10
51.1508750235
 20
88.5779781851
 10
52.5673736378
 20
89.7117173047
 10
53.9974914465
 20
90.7567793748
 10
55.4362983384
 20
91.7095608816
 10
56.8788345267
 20
92.5667757839
 10
58.3201272183
 20
93.3254681775
 10
59.7552081476
 20
93.9830254593
 10
61.1791298757
 20
94.5371786108
 10
62.5869844348
 20
94.9860190455
 10
63.9739180228
 20
95.3279979658
 10
65.3351505942
 20
95.561940715
 10
66.6659887024
 20
95.6870328975
 10
67.9618442678
 20
95.7028494649
 10
69.2182523586
 20
95.6093360827
 10
70.4308790934
 20
95.4068106508
 10
71.595546666
 20
95.0959747082
 10
72.7082392717
 20
94.6779001237
 10
73.7651202304
 20
94.1540252928
 10
74.7625477909
 20
93.5261581775
 10
75.6970830339
 20
92.7964641382
 10
76.5655043594
 20
91.9674560467
 10
77.3648180244
 20
91.0419927638
 10
78.0922699955
 20
90.0232646899
 10
78.7453512182
 20
88.9147846385
 10
79.3218094704
 20
87.7203718655
 10
79.8196585817
 20
86.4441444639
 10
80.2371837023
 20
85.0905026328
 10
80.5729413026
 20
83.6641100465
 10
80.8257802468
 20
82.1698873879
 10
80.9948259878
 20
80.612984594
 10
81.0794937381
 20
78.9987665951
 10
81.0794937381
 20
77.3327996267
 10
80.9948259878
 20
75.6208263241
 10
80.8257802468
 20
73.868747472
 10
80.5729413026
 20
72.0826031822
 10
80.2371837023
 20
70.268553122
 10
79.8196585817
 20
68.4328470478
 10
79.3218094704
 20
66.5818152973
 10
78.7453512182
 20
64.7218379933
 10
78.0922699955
 20
62.8593264121
 10
77.3648180244
 20
61.0007001701
 10
76.5655043594
 20
59.1523689735
 10
75.6970830339
 20
57.3207029617
 10
74.7625477909
 20
55.5120174979
 10
73.7651202304
 20
53.7325450337
 10
72.7082392717
 20
51.9884214216
 10
71.595546666
 20
50.2856592999
 10
70.4308790934
 20
48.6301268007
 10
69.2182523586
 20
47.0275323421
 10
67.9618442678
 20
45.4834010555
 10
66.6659887024
 20
44.0030546338
 10
65.3351505942
 20
42.591593843
 10
63.9739180228
 20
41.2538909187
 10
62.5869844348
 20
39.9945504035
 10
61.1791298757
 20
38.8179165634
 10
59.7552081476
 20
37.7280446817
 10
58.3201272183
 20
36.7286927907
 10
56.8788345267
 20
35.8233040636
 10
55.4362983384
 20
35.0150021344
 10
53.9974914465
 20
34.3065725638
 10
52.5673736378
 20
33.7004557582
 10
51.1508750235
 20
33.1987403893
 10
49.7528785464
 20
32.8031624209
 10
48.3782031059
 20
32.5150771159
 10
47.0315875884
 20
32.3354832779
 10
45.717674074
 20
32.2649968266
 10
44.440992032
 20
32.3038629664
 10
43.2059418566
 20
32.4519466826
 10
42.0167830139
 20
32.7087380652
 10
40.8776116506
 20
33.0733500302
 10
39.7923566432
 20
33.5445282056
 10
38.7647598417
 20
34.1206471312
 10
37.7983615813
 20
34.7997201456
 10
36.8964954143
 20
35.5794085127
 10
36.0622670366
 20
36.4570214233
 10
35.2985556049
 20
37.4295350069
 10
34.607992663
 20
38.4935984169
 10
33.9929581906
 20
39.6455421967
 10
33.4555727012
 20
40.88139501
 10
32.9976867048
 20
42.1968958096
 10
32.6208833424
 20
43.5875128487
 10
32.3264586296
 20
45.0484501463
 10
32.1154240908
 20
46.5746699211
 10
31.9885146615
 20
48.1609152143
 10
31.9461623471
 20
49.801714645
  0
ARC
  5
170
330
1F
100
AcDbEntity
  8
0
  6
Continuous
 62
     7
370
    40
100
AcDbCircle
 10
74.2040094936
 20
48.6054306536
 30
0.0
 40
40.84540004114425
100
AcDbArc
 50
165.8748440471
 51
179.4671224624
  0
LWPOLYLINE
  5
171
330
1F
100
AcDbEntity
  8
0
  6
Continuous
 62
     7
370
    40
100
AcDbPolyline
 90
       20
 70
   128
 43
0.0
 10
50.2419793878
 20
85.6801508936
 10
51.1670921759
 20
86.5430556274
 10
52.565088653
 20
87.7615700345
 10
53.9815872674
 20
88.8953091541
 10
55.4117050761
 20
89.9403712242
 10
56.8505119679
 20
90.893152731
 10
58.2930481562
 20
91.7503676333
 10
59.7343408478
 20
92.5090600269
 10
61.1694217772
 20
93.1666173087
 10
62.5933435052
 20
93.7207704602
 10
64.0011980644
 20
94.1696108949
 10
65.3881316523
 20
94.5115898152
 10
66.7493642237
 20
94.7455325644
 10
68.0802023319
 20
94.8706247469
 10
69.3760578973
 20
94.8864413143
 10
70.6324659882
 20
94.7929279321
 10
71.845092723
 20
94.5904025002
 10
73.0097602955
 20
94.2795665576
 10
74.1224529013
 20
93.8614919731
 10
74.584427142
 20
93.648870349
  0
LWPOLYLINE
  5
172
330
1F
100
AcDbEntity
  8
0
  6
Continuous
 62
     7
370
    40
100
AcDbPolyline
 90
       14
 70
   128
 43
0.0
 10
39.866033121
 20
33.5083324779
 10
39.2125752108
 20
33.983311995
 10
38.3107090438
 20
34.7630003621
 10
37.4764806662
 20
35.6406132727
 10
36.7127692345
 20
36.6131268563
 10
36.0222062925
 20
37.6771902663
 10
35.4071718202
 20
38.8291340461
 10
34.8697863308
 20
40.0649868594
 10
34.4119003344
 20
41.380487659
 10
34.035096972
 20
42.7711046981
 10
33.7406722591
 20
44.2320419957
 10
33.5296377203
 20
45.7582617705
 10
33.4027282911
 20
47.3445070637
 10
33.3603759767
 20
48.9853064944
  0
LWPOLYLINE
  5
173
330
1F
100
AcDbEntity
  8
0
  6
Continuous
 62
     7
370
    40
100
AcDbPolyline
 90
       20
 70
   128
 43
0.0
 10
74.0560255167
 20
91.1004726593
 10
74.0573360203
 20
91.0997158757
 10
75.0015202574
 20
90.4865284087
 10
75.8834206719
 20
89.7736675917
 10
76.6998196156
 20
88.963733749
 10
77.4477378329
 20
88.0596838401
 10
78.1244476326
 20
87.064815488
 10
78.7274768386
 20
85.9827578535
 10
79.2546272292
 20
84.8174609871
 10
79.7039758546
 20
83.573176057
 10
80.0738829389
 20
82.2544450814
 10
80.3629945146
 20
80.8660762142
 10
80.5702621789
 20
79.4131391796
 10
80.6949246543
 20
77.9009334297
 10
80.7365288621
 20
76.3349774011
 10
80.6949246543
 20
74.7209861765
 10
80.5702621789
 20
73.0648481963
 10
80.3629945146
 20
71.3726050103
 10
80.0738829389
 20
69.6504350229
 10
79.8568885723
 20
68.5838282318
  0
LWPOLYLINE
  5
174
330
1F
100
AcDbEntity
  8
0
  6
Continuous
 62
     7
370
    40
100
AcDbPolyline
 90
       19
 70
   128
 43
0.0
 10
64.2084795581
 20
41.477051173
 10
63.3897371838
 20
40.752646979
 10
62.04290731
 20
39.6412832659
 10
60.6810780973
 20
38.6157709469
 10
59.309219334
 20
37.6798581148
 10
57.93233637
 20
36.8369574951
 10
56.5554534061
 20
36.0901428827
 10
55.1835946428
 20
35.4421413012
 10
53.82176543
 20
34.8953190793
 10
52.4749355563
 20
34.4516661195
 10
51.1480194099
 20
34.1128087811
 10
49.8458576223
 20
33.8799779893
 10
48.5732032384
 20
33.754024066
 10
47.3346989971
 20
33.7354066556
 10
46.1348644894
 20
33.8241964373
 10
44.9780783775
 20
34.0200663815
 10
43.8685599563
 20
34.3223023977
 10
42.8103592744
 20
34.7298021953
 10
41.8086472233
 20
35.2403219235
  0
LWPOLYLINE
  5
175
330
1F
100
AcDbEntity
  8
0
  6
Continuous
 62
     7
370
    40
100
AcDbPolyline
 90
      105
 70
   128
 43
0.0
 10
33.7139302484
 20
50.8222253323
 10
33.7555344562
 20
52.4362165568
 10
33.8801969316
 20
54.0923545371
 10
34.0874645959
 20
55.7845977231
 10
34.3765761716
 20
57.5067677104
 10
34.7464832559
 20
59.2525843147
 10
35.1958318813
 20
61.0156761247
 10
35.722982272
 20
62.7896078769
 10
36.3260114779
 20
64.5679082127
 10
37.0027212776
 20
66.3440890688
 10
37.7506394949
 20
68.1116669708
 10
38.5670384386
 20
69.8641949701
 10
39.4489388532
 20
71.5952763324
 10
40.3931230902
 20
73.2985957153
 10
41.3961456449
 20
74.9679374186
 10
42.4543463268
 20
76.5972097173
 10
43.563864748
 20
78.1804684354
 10
44.7206508598
 20
79.7119351953
 10
45.9204853676
 20
81.1860244127
 10
47.1589896089
 20
82.5973535621
 10
48.4316439927
 20
83.9407751138
 10
49.7338057803
 20
85.2113883203
 10
51.0607219267
 20
86.4045557544
 10
52.4075518005
 20
87.5159194674
 10
53.7693810132
 20
88.5414317864
 10
55.1412397765
 20
89.4773446185
 10
56.5181227405
 20
90.3202452382
 10
57.8950057045
 20
91.0670598507
 10
59.2668644677
 20
91.7150614321
 10
60.6286936805
 20
92.2618836541
 10
61.9755235543
 20
92.7055366138
 10
63.3024397006
 20
93.0443939523
 10
64.6046014882
 20
93.2772247441
 10
65.8772558721
 20
93.4031786674
 10
67.1157601134
 20
93.4217960777
 10
68.3155946211
 20
93.333006296
 10
69.472380733
 20
93.1371363519
 10
70.5818991542
 20
92.8349003356
 10
71.6400998361
 20
92.427400538
 10
72.6431223908
 20
91.9161240263
 10
73.5873066278
 20
91.3029365593
 10
74.4692070424
 20
90.5900757423
 10
75.285605986
 20
89.7801418996
 10
76.0335242034
 20
88.8760919907
 10
76.7102340031
 20
87.8812236386
 10
77.313263209
 20
86.7991660041
 10
77.8404135997
 20
85.6338691377
 10
78.2897622251
 20
84.3895842076
 10
78.6596693094
 20
83.070853232
 10
78.9487808851
 20
81.6824843648
 10
79.1560485494
 20
80.2295473302
 10
79.2807110247
 20
78.7173415803
 10
79.3223152326
 20
77.1513855517
 10
79.2807110247
 20
75.5373943271
 10
79.1560485494
 20
73.8812563469
 10
78.9487808851
 20
72.1890131609
 10
78.6596693094
 20
70.4668431735
 10
78.2897622251
 20
68.7210265692
 10
77.8404135997
 20
66.9579347593
 10
77.313263209
 20
65.184003007
 10
76.7102340031
 20
63.4057026713
 10
76.0335242034
 20
61.6295218151
 10
75.285605986
 20
59.8619439132
 10
74.4692070424
 20
58.1094159139
 10
73.5873066278
 20
56.3783345516
 10
72.6431223908
 20
54.6750151686
 10
71.6400998361
 20
53.0056734654
 10
70.5818991542
 20
51.3764011666
 10
69.472380733
 20
49.7931424486
 10
68.3155946211
 20
48.2616756887
 10
67.1157601134
 20
46.7875864712
 10
65.8772558721
 20
45.3762573219
 10
64.6046014882
 20
44.0328357701
 10
63.3024397006
 20
42.7622225637
 10
61.9755235543
 20
41.5690551296
 10
60.6286936805
 20
40.4576914165
 10
59.2668644677
 20
39.4321790975
 10
57.8950057045
 20
38.4962662654
 10
56.5181227405
 20
37.6533656457
 10
55.1412397765
 20
36.9065510333
 10
53.7693810132
 20
36.2585494518
 10
52.4075518005
 20
35.7117272299
 10
51.0607219267
 20
35.2680742701
 10
49.7338057803
 20
34.9292169317
 10
48.4316439927
 20
34.6963861399
 10
47.1589896089
 20
34.5704322166
 10
45.9204853676
 20
34.5518148062
 10
44.7206508598
 20
34.6406045879
 10
43.563864748
 20
34.8364745321
 10
42.4543463268
 20
35.1387105483
 10
41.3961456449
 20
35.5462103459
 10
40.3931230902
 20
36.0574868576
 10
39.4489388532
 20
36.6706743246
 10
38.5670384386
 20
37.3835351417
 10
37.7506394949
 20
38.1934689843
 10
37.0027212776
 20
39.0975188932
 10
36.3260114779
 20
40.0923872454
 10
35.722982272
 20
41.1744448799
 10
35.1958318813
 20
42.3397417462
 10
34.7464832559
 20
43.5840266764
 10
34.3765761716
 20
44.9027576519
 10
34.0874645959
 20
46.2911265191
 10
33.8801969316
 20
47.7440635537
 10
33.7555344562
 20
49.2562693036
 10
33.7139302484
 20
50.8222253323
  0
LWPOLYLINE
  5
176
330
1F
100
AcDbEntity
  8
0
  6
Continuous
 62
     7
370
    40
100
AcDbPolyline
 90
      101
 70
   128
 43
0.0
 10
35.304919779
 20
51.7406840384
 10
35.3467781851
 20
53.3029790668
 10
35.4721914012
 20
54.9074388653
 10
35.6806628848
 20
56.5477305357
 10
35.9713707724
 20
58.2173812851
 10
36.3431678794
 20
59.9098014299
 10
36.7945856517
 20
61.6183115821
 10
37.3238420677
 20
63.3361681241
 10
37.9288508584
 20
65.0565932457
 10
38.6072228245
 20
66.7727969982
 10
39.3562803238
 20
68.4780039083
 10
40.1730691258
 20
70.165487959
 10
41.0543623623
 20
71.8285862772
 10
41.9966855526
 20
73.4607379151
 10
42.9963179201
 20
75.0554982988
 10
44.0493147833
 20
76.60657801
 10
45.1515194092
 20
78.1078511496
 10
46.2985840871
 20
79.553396401
 10
47.4859800062
 20
80.9375072954
 10
48.7090216224
 20
82.2547199664
 10
49.9628824631
 20
83.4998390041
 10
51.2426135662
 20
84.667949621
 10
52.5431648832
 20
85.754440654
 10
53.8594033889
 20
86.7550241442
 10
55.1861346489
 20
87.6657523508
 10
56.5181227405
 20
88.483029251
 10
57.850110832
 20
89.2036330666
 10
59.176842092
 20
89.8247161673
 10
60.4930805978
 20
90.3438293081
 10
61.7936319148
 20
90.7589228637
 10
63.0733630179
 20
91.0683583279
 10
64.3272238586
 20
91.2709162022
 10
65.5502654748
 20
91.365797324
 10
66.7376613939
 20
91.3526245766
 10
67.8847260717
 20
91.2314520121
 10
68.9869306976
 20
91.0027572461
 10
70.0399275608
 20
90.6674418349
 10
71.0395599284
 20
90.2268324159
 10
71.9818831186
 20
89.6826639751
 10
72.8631763552
 20
89.0370851693
 10
73.6799651572
 20
88.2926453961
 10
74.4290226565
 20
87.452281866
 10
75.1073946225
 20
86.519309714
 10
75.7124034133
 20
85.4974128735
 10
76.2416598293
 20
84.3906227826
 10
76.6930776015
 20
83.2033084962
 10
77.0648747086
 20
81.940156154
 10
77.3555825962
 20
80.6061495873
 10
77.5640540798
 20
79.2065539685
 10
77.6894672959
 20
77.7468931871
 10
77.7313257019
 20
76.2329268456
 10
77.6894672959
 20
74.6706318172
 10
77.5640540798
 20
73.0661720186
 10
77.3555825962
 20
71.4258803482
 10
77.0648747086
 20
69.7562295989
 10
76.6930776015
 20
68.0638094541
 10
76.2416598293
 20
66.3552993018
 10
75.7124034133
 20
64.6374427599
 10
75.1073946225
 20
62.9170176382
 10
74.4290226565
 20
61.2008138858
 10
73.6799651572
 20
59.4956069757
 10
72.8631763552
 20
57.808122925
 10
71.9818831186
 20
56.1450246068
 10
71.0395599284
 20
54.5128729689
 10
70.0399275608
 20
52.9181125851
 10
68.9869306976
 20
51.3670328739
 10
67.8847260717
 20
49.8657597344
 10
66.7376613939
 20
48.420214483
 10
65.5502654748
 20
47.0361035886
 10
64.3272238586
 20
45.7188909176
 10
63.0733630179
 20
44.4737718799
 10
61.7936319148
 20
43.3056612629
 10
60.4930805978
 20
42.21917023
 10
59.176842092
 20
41.2185867398
 10
57.850110832
 20
40.3078585331
 10
56.5181227405
 20
39.4905816329
 10
55.1861346489
 20
38.7699778173
 10
53.8594033889
 20
38.1488947167
 10
52.5431648832
 20
37.6297815758
 10
51.2426135662
 20
37.2146880203
 10
49.9628824631
 20
36.905252556
 10
48.7090216224
 20
36.7026946818
 10
47.4859800062
 20
36.6078135599
 10
46.2985840871
 20
36.6209863074
 10
45.1515194092
 20
36.7421588718
 10
44.0493147833
 20
36.9708536379
 10
42.9963179201
 20
37.3061690491
 10
41.9966855526
 20
37.7467784681
 10
41.0543623623
 20
38.2909469089
 10
40.1730691258
 20
38.9365257147
 10
39.3562803238
 20
39.6809654879
 10
38.6072228245
 20
40.5213290179
 10
37.9288508584
 20
41.4543011699
 10
37.3238420677
 20
42.4761980104
 10
36.7945856517
 20
43.5829881014
 10
36.3431678794
 20
44.7703023877
 10
35.9713707724
 20
46.03345473
 10
35.6806628848
 20
47.3674612967
 10
35.4721914012
 20
48.7670569155
 10
35.3467781851
 20
50.2267176968
 10
35.304919779
 20
51.7406840384
  0
LWPOLYLINE
  5
177
330
1F
100
AcDbEntity
  8
0
  6
Continuous
 62
     7
370
    40
100
AcDbPolyline
 90
       36
 70
   128
 43
0.0
 10
40.9617742972
 20
48.475051436
 10
41.0036327032
 20
50.0373464644
 10
41.1290459193
 20
51.6418062629
 10
41.337517403
 20
53.2820979333
 10
41.6282252906
 20
54.9517486827
 10
42.0000223976
 20
56.6441688275
 10
42.4514401699
 20
58.3526789797
 10
42.9806965859
 20
60.0705355217
 10
43.5857053766
 20
61.7909606433
 10
44.2640773426
 20
63.5071643958
 10
45.013134842
 20
65.2123713059
 10
45.829923644
 20
66.8998553566
 10
46.7112168805
 20
68.5629536748
 10
47.6535400708
 20
70.1951053127
 10
48.6531724383
 20
71.7898656964
 10
49.7061693015
 20
73.3409454076
 10
50.8083739274
 20
74.8422185472
 10
51.9554386052
 20
76.2877637986
 10
53.1428345243
 20
77.671874693
 10
54.3658761406
 20
78.989087364
 10
55.6197369812
 20
80.2342064017
 10
56.8994680844
 20
81.4023170186
 10
58.2000194014
 20
82.4888080516
 10
59.5162579071
 20
83.4893915418
 10
60.8429891671
 20
84.4001197484
 10
62.1749772587
 20
85.2173966486
 10
63.5069653502
 20
85.9380004642
 10
64.8336966102
 20
86.5590835649
 10
66.149935116
 20
87.0781967057
 10
67.450486433
 20
87.4932902613
 10
68.7302175361
 20
87.8027257255
 10
69.9840783768
 20
88.0052835998
 10
71.207119993
 20
88.1001647216
 10
72.3945159121
 20
88.0869919742
 10
73.5415805899
 20
87.9658194097
 10
74.0763174133
 20
87.8694588899
  0
ARC
  5
178
330
1F
100
AcDbEntity
  8
0
  6
Continuous
 62
     7
370
    40
100
AcDbCircle
 10
58.1742733778
 20
47.4891791901
 30
0.0
 40
17.24070963400542
100
AcDbArc
 50
176.7218780859
 51
218.1529017753
  0
LINE
  5
179
330
1F
100
AcDbEntity
  8
0
  6
Continuous
 62
     7
370
    40
100
AcDbLine
 10
238.4805098799
 20
163.6187310587
 30
0.0
 11
236.4805097849
 21
163.6187310587
 31
0.0
  0
LINE
  5
17A
330
1F
100
AcDbEntity
  8
0
  6
Continuous
 62
     7
370
    40
100
AcDbLine
 10
238.4805098799
 20
163.6187310587
 30
0.0
 11
238.4805098799
 21
161.1187297176
 31
0.0
  0
LINE
  5
17B
330
1F
100
AcDbEntity
  8
0
  6
Continuous
 62
     7
370
    40
100
AcDbLine
 10
236.4805097849
 20
161.1187297176
 30
0.0
 11
238.4805098799
 21
161.1187297176
 31
0.0
  0
LINE
  5
17C
330
1F
100
AcDbEntity
  8
0
  6
Continuous
 62
     7
370
    40
100
AcDbLine
 10
236.4805097849
 20
158.6187321018
 30
0.0
 11
236.4805097849
 21
161.1187297176
 31
0.0
  0
LINE
  5
17D
330
1F
100
AcDbEntity
  8
0
  6
Continuous
 62
     7
370
    40
100
AcDbLine
 10
236.4805097849
 20
158.6187321018
 30
0.0
 11
237.9805098561
 21
158.6187321018
 31
0.0
  0
LINE
  5
17E
330
1F
100
AcDbEntity
  8
0
  6
Continuous
 62
     7
370
    40
100
AcDbLine
 10
237.9805098561
 20
156.8687322806
 30
0.0
 11
237.9805098561
 21
158.6187321018
 31
0.0
  0
LINE
  5
17F
330
1F
100
AcDbEntity
  8
0
  6
Continuous
 62
     7
370
    40
100
AcDbLine
 10
237.9805098561
 20
156.8687322806
 30
0.0
 11
230.4805094999
 21
156.8687322806
 31
0.0
  0
LINE
  5
180
330
1F
100
AcDbEntity
  8
0
  6
Continuous
 62
     7
370
    40
100
AcDbLine
 10
230.4805094999
 20
168.3687313716
 30
0.0
 11
230.4805094999
 21
156.8687322806
 31
0.0
  0
LINE
  5
181
330
1F
100
AcDbEntity
  8
0
  6
Continuous
 62
     7
370
    40
100
AcDbLine
 10
238.4805098799
 20
168.3687313716
 30
0.0
 11
230.4805094999
 21
168.3687313716
 31
0.0
  0
LINE
  5
182
330
1F
100
AcDbEntity
  8
0
  6
Continuous
 62
     7
370
    40
100
AcDbLine
 10
238.4805098799
 20
168.3687313716
 30
0.0
 11
238.4805098799
 21
166.1187323998
 31
0.0
  0
LINE
  5
183
330
1F
100
AcDbEntity
  8
0
  6
Continuous
 62
     7
370
    40
100
AcDbLine
 10
238.4805098799
 20
166.1187323998
 30
0.0
 11
236.4805097849
 21
166.1187323998
 31
0.0
  0
LINE
  5
184
330
1F
100
AcDbEntity
  8
0
  6
Continuous
 62
     7
370
    40
100
AcDbLine
 10
236.4805097849
 20
166.1187323998
 30
0.0
 11
236.4805097849
 21
163.6187310587
 31
0.0
  0
LINE
  5
185
330
1F
100
AcDbEntity
  8
0
  6
Continuous
 62
     7
370
    40
100
AcDbLine
 10
238.4805098799
 20
228.3687300305
 30
0.0
 11
238.4805098799
 21
168.3687313716
 31
0.0
  0
LINE
  5
186
330
1F
100
AcDbEntity
  8
0
  6
Continuous
 62
     7
370
    40
100
AcDbLine
 10
230.4805094999
 20
228.3687300305
 30
0.0
 11
230.4805094999
 21
168.3687313716
 31
0.0
  0
LINE
  5
187
330
1F
100
AcDbEntity
  8
0
  6
Continuous
 62
     7
370
    40
100
AcDbLine
 10
230.4805094999
 20
228.3687300305
 30
0.0
 11
238.4805098799
 21
228.3687300305
 31
0.0
  0
LINE
  5
188
330
1F
100
AcDbEntity
  8
0
  6
Continuous
 62
     7
370
    40
100
AcDbLine
 10
230.4805094999
 20
239.8687291215
 30
0.0
 11
237.9805098561
 21
239.8687291215
 31
0.0
  0
LINE
  5
189
330
1F
100
AcDbEntity
  8
0
  6
Continuous
 62
     7
370
    40
100
AcDbLine
 10
236.4805097849
 20
230.6187290023
 30
0.0
 11
238.4805098799
 21
230.6187290023
 31
0.0
  0
LINE
  5
18A
330
1F
100
AcDbEntity
  8
0
  6
Continuous
 62
     7
370
    40
100
AcDbLine
 10
238.4805098799
 20
230.6187290023
 30
0.0
 11
238.4805098799
 21
228.3687300305
 31
0.0
  0
LINE
  5
18B
330
1F
100
AcDbEntity
  8
0
  6
Continuous
 62
     7
370
    40
100
AcDbLine
 10
237.9805098561
 20
238.1187293004
 30
0.0
 11
237.9805098561
 21
239.8687291215
 31
0.0
  0
LINE
  5
18C
330
1F
100
AcDbEntity
  8
0
  6
Continuous
 62
     7
370
    40
100
AcDbLine
 10
237.9805098561
 20
238.1187293004
 30
0.0
 11
236.4805097849
 21
238.1187293004
 31
0.0
  0
LINE
  5
18D
330
1F
100
AcDbEntity
  8
0
  6
Continuous
 62
     7
370
    40
100
AcDbLine
 10
236.4805097849
 20
235.6187316845
 30
0.0
 11
236.4805097849
 21
238.1187293004
 31
0.0
  0
LINE
  5
18E
330
1F
100
AcDbEntity
  8
0
  6
Continuous
 62
     7
370
    40
100
AcDbLine
 10
238.4805098799
 20
235.6187316845
 30
0.0
 11
236.4805097849
 21
235.6187316845
 31
0.0
  0
LINE
  5
18F
330
1F
100
AcDbEntity
  8
0
  6
Continuous
 62
     7
370
    40
100
AcDbLine
 10
238.4805098799
 20
235.6187316845
 30
0.0
 11
238.4805098799
 21
233.1187303434
 31
0.0
  0
LINE
  5
190
330
1F
100
AcDbEntity
  8
0
  6
Continuous
 62
     7
370
    40
100
AcDbLine
 10
236.4805097849
 20
233.1187303434
 30
0.0
 11
238.4805098799
 21
233.1187303434
 31
0.0
  0
LINE
  5
191
330
1F
100
AcDbEntity
  8
0
  6
Continuous
 62
     7
370
    40
100
AcDbLine
 10
236.4805097849
 20
233.1187303434
 30
0.0
 11
236.4805097849
 21
230.6187290023
 31
0.0
  0
LINE
  5
192
330
1F
100
AcDbEntity
  8
0
  6
Continuous
 62
     7
370
    40
100
AcDbLine
 10
230.4805094999
 20
239.8687291215
 30
0.0
 11
230.4805094999
 21
228.3687300305
 31
0.0
  0
LINE
  5
193
330
1F
100
AcDbEntity
  8
0
  6
Continuous
 62
     7
370
    40
100
AcDbLine
 10
238.4805098799
 20
233.1187303434
 30
0.0
 11
238.4805098799
 21
230.6187290023
 31
0.0
  0
LINE
  5
194
330
1F
100
AcDbEntity
  8
0
  6
Continuous
 62
     7
370
    40
100
AcDbLine
 10
238.4805098799
 20
166.1187323998
 30
0.0
 11
238.4805098799
 21
163.6187310587
 31
0.0
  0
LINE
  5
195
330
1F
100
AcDbEntity
  8
0
  6
Continuous
 62
     7
370
    40
100
AcDbLine
 10
237.9805098561
 20
158.6187321018
 30
0.0
 11
237.9805098561
 21
161.1187297176
 31
0.0
  0
LINE
  5
196
330
1F
100
AcDbEntity
  8
0
  6
Continuous
 62
     7
370
    40
100
AcDbLine
 10
237.9805098561
 20
235.6187316845
 30
0.0
 11
237.9805098561
 21
238.1187293004
 31
0.0
  0
HATCH
  5
197
330
1F
100
AcDbEntity
  8
0
  6
Continuous
 62
     7
370
     0
100
AcDbHatch
 10
0.0
 20
0.0
 30
0.0
210
0.0
220
0.0
230
1.0
  2
ANSI31
 70
     0
 71
     0
 91
        1
 92
        0
 93
       12
 72
     1
 10
236.4805098798564
 20
163.6187307010698
 11
236.4805098798564
 21
166.1187307010698
 72
     1
 10
236.4805098798564
 20
166.1187307010698
 11
238.4805098798564
 21
166.1187307010698
 72
     1
 10
238.4805098798564
 20
166.1187307010698
 11
238.4805098798564
 21
168.3687307010698
 72
     1
 10
238.4805098798564
 20
168.3687307010698
 11
230.4805098798564
 21
168.3687307010698
 72
     1
 10
230.4805098798564
 20
168.3687307010698
 11
230.4805098798564
 21
156.8687307010698
 72
     1
 10
230.4805098798564
 20
156.8687307010698
 11
237.9805098798564
 21
156.8687307010698
 72
     1
 10
237.9805098798564
 20
156.8687307010698
 11
237.9805098798564
 21
158.6187307010698
 72
     1
 10
237.9805098798564
 20
158.6187307010698
 11
236.4805098798564
 21
158.6187307010698
 72
     1
 10
236.4805098798564
 20
158.6187307010698
 11
236.4805098798564
 21
161.1187307010698
 72
     1
 10
236.4805098798564
 20
161.1187307010698
 11
238.4805098798564
 21
161.1187307010698
 72
     1
 10
238.4805098798564
 20
161.1187307010698
 11
238.4805098798564
 21
163.6187307010698
 72
     1
 10
238.4805098798564
 20
163.6187307010698
 11
236.4805098798564
 21
163.6187307010698
 97
        0
 75
     0
 76
     1
 52
0.0
 41
1.0
 77
     0
 78
     1
 53
45.0
 43
0.0
 44
0.0
 45
-2.245064030267288
 46
2.245064030267288
 79
     0
 98
        1
 10
0.0
 20
0.0
  0
HATCH
  5
198
330
1F
100
AcDbEntity
  8
0
  6
Continuous
 62
     7
370
     0
100
AcDbHatch
 10
0.0
 20
0.0
 30
0.0
210
0.0
220
0.0
230
1.0
  2
ANSI31
 70
     0
 71
     0
 91
        1
 92
        0
 93
       12
 72
     1
 10
236.4805098798564
 20
230.6187307010698
 11
236.4805098798564
 21
233.1187307010698
 72
     1
 10
236.4805098798564
 20
233.1187307010698
 11
238.4805098798564
 21
233.1187307010698
 72
     1
 10
238.4805098798564
 20
233.1187307010698
 11
238.4805098798564
 21
235.6187307010698
 72
     1
 10
238.4805098798564
 20
235.6187307010698
 11
236.4805098798564
 21
235.6187307010698
 72
     1
 10
236.4805098798564
 20
235.6187307010698
 11
236.4805098798564
 21
238.1187307010698
 72
     1
 10
236.4805098798564
 20
238.1187307010698
 11
237.9805098798564
 21
238.1187307010698
 72
     1
 10
237.9805098798564
 20
238.1187307010698
 11
237.9805098798564
 21
239.8687307010698
 72
     1
 10
237.9805098798564
 20
239.8687307010698
 11
230.4805098798564
 21
239.8687307010698
 72
     1
 10
230.4805098798564
 20
239.8687307010698
 11
230.4805098798564
 21
228.3687307010698
 72
     1
 10
230.4805098798564
 20
228.3687307010698
 11
238.4805098798564
 21
228.3687307010698
 72
     1
 10
238.4805098798564
 20
228.3687307010698
 11
238.4805098798564
 21
230.6187307010698
 72
     1
 10
238.4805098798564
 20
230.6187307010698
 11
236.4805098798564
 21
230.6187307010698
 97
        0
 75
     0
 76
     1
 52
0.0
 41
1.0
 77
     0
 78
     1
 53
45.0
 43
0.0
 44
0.0
 45
-2.245064030267288
 46
2.245064030267288
 79
     0
 98
        1
 10
0.0
 20
0.0
  0
DIMENSION
  5
199
330
1F
100
AcDbEntity
  8
0
  6
Continuous
 62
     7
370
    15
100
AcDbDimension
  2
*D12
 10
202.4805098799
 20
168.3687307011
 30
0.0
 11
202.4805098799
 21
198.3687307011
 31
0.0
 70
   160
  1
%%c<>\SH7^ ;
 71
     2
 42
-1.0
  3
SLDDIMSTYLE0
100
AcDbAlignedDimension
 13
230.4805098799
 23
228.3687307011
 33
0.0
 14
230.4805098799
 24
168.3687307011
 34
0.0
 50
90.0
100
AcDbRotatedDimension
  0
DIMENSION
  5
1A9
330
1F
100
AcDbEntity
  8
0
  6
Continuous
 62
     7
370
    15
100
AcDbDimension
  2
*D13
 10
192.4805098799
 20
156.8687307011
 30
0.0
 11
192.4805098799
 21
198.3687307011
 31
0.0
 70
   160
  1
%%c<>
 71
     2
 42
-1.0
  3
SLDDIMSTYLE1
100
AcDbAlignedDimension
 13
230.4805098799
 23
239.8687307011
 33
0.0
 14
230.4805098799
 24
156.8687307011
 34
0.0
 50
90.0
100
AcDbRotatedDimension
  0
DIMENSION
  5
1B8
330
1F
100
AcDbEntity
  8
0
  6
Continuous
 62
     7
370
    15
100
AcDbDimension
  2
*D14
 10
263.8281798924
 20
235.6187307011
 30
0.0
 11
263.8281798924
 21
198.3687307011
 31
0.0
 70
   160
  1
%%c<>
 71
     2
 42
-1.0
  3
SLDDIMSTYLE2
100
AcDbAlignedDimension
 13
238.4805098799
 23
161.1187307011
 33
0.0
 14
238.4805098799
 24
235.6187307011
 34
0.0
 50
90.0
100
AcDbRotatedDimension
  0
DIMENSION
  5
1C5
330
1F
100
AcDbEntity
  8
0
  6
Continuous
 62
     7
370
    15
100
AcDbDimension
  2
*D15
 10
253.301257704
 20
166.1187307011
 30
0.0
 11
253.301257704
 21
198.3687307011
 31
0.0
 70
   160
  1
%%c<>
 71
     2
 42
-1.0
  3
SLDDIMSTYLE2
100
AcDbAlignedDimension
 13
238.4805098799
 23
230.6187307011
 33
0.0
 14
238.4805098799
 24
166.1187307011
 34
0.0
 50
90.0
100
AcDbRotatedDimension
  0
DIMENSION
  5
1D1
330
1F
100
AcDbEntity
  8
0
  6
Continuous
 62
     7
370
    15
100
AcDbDimension
  2
*D16
 10
237.9805098799
 20
249.1136076643
 30
0.0
 11
247.4332087061
 21
249.1136076643
 31
0.0
 70
   160
 71
     2
 42
-1.0
  3
SLDDIMSTYLE3
100
AcDbAlignedDimension
 13
238.4805098799
 23
235.6187307011
 33
0.0
 14
237.9805098799
 24
239.8687307011
 34
0.0
100
AcDbRotatedDimension
  0
DIMENSION
  5
1DE
330
1F
100
AcDbEntity
  8
0
  6
Continuous
 62
     7
370
    15
100
AcDbDimension
  2
*D17
 10
238.4805098799
 20
138.8687307011
 30
0.0
 11
220.8301569597
 21
138.8687307011
 31
0.0
 70
   160
 71
     2
 42
-1.0
  3
SLDDIMSTYLE4
100
AcDbAlignedDimension
 13
230.4805098799
 23
156.8687307011
 33
0.0
 14
238.4805098799
 24
166.1187307011
 34
0.0
100
AcDbRotatedDimension
  0
MTEXT
  5
1EE
330
1F
100
AcDbEntity
  8
0
  6
Continuous
 62
     7
370
     0
100
AcDbMText
 10
204.8109963258
 20
267.2082305852
 30
0.0
 40
5.0
 41
0.0
 71
     1
 72
     1
  1
A-A
  7
SLDTEXTSTYLE0
 73
     1
 44
1.0
  0
TOLERANCE
  5
1F4
102
{ACAD_REACTORS
330
1F6
102
}
330
1F
100
AcDbEntity
  8
0
  6
Continuous
 62
     7
370
     0
100
AcDbFcf
  3
SLDDIMSTYLE5
 10
172.7653636447
 20
148.4840953242
 30
0.0
  1
{\Fgdt;h}%%v0,02%%v%%vA%%v%%v%%v^J
  0
LEADER
  5
1F6
330
1F
100
AcDbEntity
  8
0
  6
Continuous
 62
     7
370
     0
100
AcDbLeader
  3
SLDDIMSTYLE6
 73
     1
 40
28.1155
 41
7.0
 76
     3
 10
230.4805098799
 20
161.8431154347
 30
0.0
 10
212.8808636447
 20
148.4840953242
 30
0.0
 10
200.8808636447
 20
148.4840953242
 30
0.0
340
1F4
  0
TOLERANCE
  5
1F7
102
{ACAD_REACTORS
330
1F8
102
}
330
1F
100
AcDbEntity
  8
0
  6
Continuous
 62
     7
370
     0
100
AcDbFcf
  3
SLDDIMSTYLE5
 10
274.3485761834
 20
178.0317893359
 30
0.0
  1
{\Fgdt;h}%%v0,02%%v%%vA%%v%%v%%v^J
  0
LEADER
  5
1F8
330
1F
100
AcDbEntity
  8
0
  6
Continuous
 62
     7
370
     0
100
AcDbLeader
  3
SLDDIMSTYLE6
 73
     1
 74
     0
 40
28.1155
 41
7.0
 76
     3
 10
238.4805098799
 20
178.0317893359
 30
0.0
 10
262.3485761834
 20
178.0317893359
 30
0.0
 10
274.3485761834
 20
178.0317893359
 30
0.0
340
1F7
  0
TOLERANCE
  5
1F9
102
{ACAD_REACTORS
330
1FB
102
}
330
1F
100
AcDbEntity
  8
0
  6
Continuous
 62
     7
370
     0
100
AcDbFcf
  3
SLDDIMSTYLE5
 10
172.5180098799
 20
251.5464660378
 30
0.0
  1
{\Fgdt;e}%%v0,02%%v%%v%%v%%v%%v^J
  0
LEADER
  5
1FB
330
1F
100
AcDbEntity
  8
0
  6
Continuous
 62
     7
370
     0
100
AcDbLeader
  3
SLDDIMSTYLE7
 71
     0
 73
     1
 40
21.9625
 41
7.0
 76
     3
 10
238.4805098799
 20
198.3687307011
 30
0.0
 10
206.4805098799
 20
251.5464660378
 30
0.0
 10
194.4805098799
 20
251.5464660378
 30
0.0
340
1F9
  0
CIRCLE
  5
1FC
330
1F
100
AcDbEntity
  8
0
  6
Continuous
 62
     7
370
     0
100
AcDbCircle
 10
234.0086811008
 20
162.5352613198
 30
0.0
 40
12.13248778233739
  0
MTEXT
  5
1FD
330
1F
100
AcDbEntity
  8
0
  6
Continuous
 62
     7
370
     0
100
AcDbMText
 10
246.764625872
 20
155.6480686567
 30
0.0
 40
5.0
 41
0.0
 71
     1
 72
     1
  1
Z
  7
SLDTEXTSTYLE0
 73
     1
 44
1.0
  0
INSERT
  5
207
330
1F
100
AcDbEntity
  8
0
  6
Continuous
 62
     7
370
     0
100
AcDbBlockReference
  2
SW_SFSYMBOL_0
 10
218.2856761791
 20
173.3684803518
 30
0.0
  0
INSERT
  5
212
330
1F
100
AcDbEntity
  8
0
  6
Continuous
 62
     7
370
     0
100
AcDbBlockReference
  2
SW_DATUMTAG_0
 10
200.8763431831
 20
158.7391073471
 30
0.0
  0
LINE
  5
213
330
1F
100
AcDbEntity
  8
0
  6
CENTERX2
 62
     7
370
     0
100
AcDbLine
 10
227.4805098799
 20
198.3687307011
 30
0.0
 11
241.4805098799
 21
198.3687307011
 31
0.0
  0
ARC
  5
214
330
1F
100
AcDbEntity
  8
0
  6
Continuous
 62
     7
370
     0
100
AcDbCircle
 10
337.8451012335
 20
207.9169666448
 30
0.0
 40
24.26496071989947
100
AcDbArc
 50
68.3717426391
 51
106.9060956651
  0
LINE
  5
215
330
1F
100
AcDbEntity
  8
0
  6
Continuous
 62
     7
370
    40
100
AcDbLine
 10
346.7887546766
 20
210.0838909623
 30
0.0
 11
342.7887544866
 21
210.0838909623
 31
0.0
  0
LINE
  5
216
330
1F
100
AcDbEntity
  8
0
  6
Continuous
 62
     7
370
    40
100
AcDbLine
 10
346.7887546766
 20
210.0838909623
 30
0.0
 11
346.7887546766
 21
205.0838882801
 31
0.0
  0
LINE
  5
217
330
1F
100
AcDbEntity
  8
0
  6
Continuous
 62
     7
370
    40
100
AcDbLine
 10
342.7887544866
 20
205.0838882801
 30
0.0
 11
346.7887546766
 21
205.0838882801
 31
0.0
  0
LINE
  5
218
330
1F
100
AcDbEntity
  8
0
  6
Continuous
 62
     7
370
    40
100
AcDbLine
 10
342.7887544866
 20
200.0838930485
 30
0.0
 11
342.7887544866
 21
205.0838882801
 31
0.0
  0
LINE
  5
219
330
1F
100
AcDbEntity
  8
0
  6
Continuous
 62
     7
370
    40
100
AcDbLine
 10
342.7887544866
 20
200.0838930485
 30
0.0
 11
345.7887545127
 21
200.0838930485
 31
0.0
  0
LINE
  5
21A
330
1F
100
AcDbEntity
  8
0
  6
Continuous
 62
     7
370
    40
100
AcDbLine
 10
345.7887545127
 20
196.5838934061
 30
0.0
 11
345.7887545127
 21
200.0838930485
 31
0.0
  0
LINE
  5
21B
330
1F
100
AcDbEntity
  8
0
  6
Continuous
 62
     7
370
    40
100
AcDbLine
 10
345.7887545127
 20
196.5838934061
 30
0.0
 11
330.7887539166
 21
196.5838934061
 31
0.0
  0
LINE
  5
21C
330
1F
100
AcDbEntity
  8
0
  6
Continuous
 62
     7
370
    40
100
AcDbLine
 10
330.7887539166
 20
219.5838915882
 30
0.0
 11
330.7887539166
 21
196.5838934061
 31
0.0
  0
LINE
  5
21D
330
1F
100
AcDbEntity
  8
0
  6
Continuous
 62
     7
370
    40
100
AcDbLine
 10
346.7887546766
 20
219.5838915882
 30
0.0
 11
330.7887539166
 21
219.5838915882
 31
0.0
  0
LINE
  5
21E
330
1F
100
AcDbEntity
  8
0
  6
Continuous
 62
     7
370
    40
100
AcDbLine
 10
346.7887546766
 20
219.5838915882
 30
0.0
 11
346.7887546766
 21
215.0838936445
 31
0.0
  0
LINE
  5
21F
330
1F
100
AcDbEntity
  8
0
  6
Continuous
 62
     7
370
    40
100
AcDbLine
 10
346.7887546766
 20
215.0838936445
 30
0.0
 11
342.7887544866
 21
215.0838936445
 31
0.0
  0
LINE
  5
220
330
1F
100
AcDbEntity
  8
0
  6
Continuous
 62
     7
370
    40
100
AcDbLine
 10
342.7887544866
 20
215.0838936445
 30
0.0
 11
342.7887544866
 21
210.0838909623
 31
0.0
  0
LINE
  5
221
330
1F
100
AcDbEntity
  8
0
  6
Continuous
 62
     7
370
    40
100
AcDbLine
 10
346.7887546766
 20
230.4735484299
 30
0.0
 11
346.7887546766
 21
219.5838915882
 31
0.0
  0
LINE
  5
222
330
1F
100
AcDbEntity
  8
0
  6
Continuous
 62
     7
370
    40
100
AcDbLine
 10
330.7887539166
 20
231.1332600889
 30
0.0
 11
330.7887539166
 21
219.5838915882
 31
0.0
  0
LINE
  5
223
330
1F
100
AcDbEntity
  8
0
  6
Continuous
 62
     7
370
    40
100
AcDbLine
 10
346.7887546766
 20
215.0838936445
 30
0.0
 11
346.7887546766
 21
210.0838909623
 31
0.0
  0
LINE
  5
224
330
1F
100
AcDbEntity
  8
0
  6
Continuous
 62
     7
370
    40
100
AcDbLine
 10
345.7887545127
 20
200.0838930485
 30
0.0
 11
345.7887545127
 21
205.0838882801
 31
0.0
  0
INSERT
  5
233
330
1F
100
AcDbEntity
  8
0
  6
Continuous
 62
     7
370
     0
100
AcDbBlockReference
  2
SW_HATCH_0
 10
330.7887539166
 20
218.6826097545
 30
0.0
  0
DIMENSION
  5
234
330
1F
100
AcDbEntity
  8
0
  6
Continuous
 62
     7
370
    15
100
AcDbDimension
  2
*D22
 10
342.7887542966
 20
185.0673554456
 30
0.0
 11
334.6991219901
 21
185.0673554456
 31
0.0
 70
   160
 71
     2
 42
-1.0
  3
SLDDIMSTYLE8
100
AcDbAlignedDimension
 13
346.7887542966
 23
215.0838902471
 33
0.0
 14
342.7887542966
 24
210.0838902471
 34
0.0
100
AcDbRotatedDimension
  0
DIMENSION
  5
244
330
1F
100
AcDbEntity
  8
0
  6
Continuous
 62
     7
370
    15
100
AcDbDimension
  2
*D23
 10
370.007202211
 20
205.0838902471
 30
0.0
 11
370.007202211
 21
189.2914317302
 31
0.0
 70
   160
 71
     2
 42
-1.0
  3
SLDDIMSTYLE9
100
AcDbAlignedDimension
 13
345.7887542966
 23
200.0838902471
 33
0.0
 14
346.7887542966
 24
205.0838902471
 34
0.0
 50
90.0
100
AcDbRotatedDimension
  0
DIMENSION
  5
254
330
1F
100
AcDbEntity
  8
0
  6
Continuous
 62
     7
370
    15
100
AcDbDimension
  2
*D24
 10
359.5688264059
 20
215.0838902471
 30
0.0
 11
359.5688264059
 21
228.0775577515
 31
0.0
 70
   160
 71
     2
 42
-1.0
  3
SLDDIMSTYLE9
100
AcDbAlignedDimension
 13
346.7887542966
 23
210.0838902471
 33
0.0
 14
346.7887542966
 24
215.0838902471
 34
0.0
 50
90.0
100
AcDbRotatedDimension
  0
MTEXT
  5
263
330
1F
100
AcDbEntity
  8
0
  6
Continuous
 62
     7
370
     0
100
AcDbMText
 10
316.2185216009
 20
252.8418894764
 30
0.0
 40
5.0
 41
0.0
 71
     1
 72
     1
  1
Z  2:1
  7
SLDTEXTSTYLE4
 73
     1
 44
1.0
  0
ENDSEC
  0
SECTION
  2
OBJECTS
  0
DICTIONARY
  5
C
330
0
100
AcDbDictionary
281
     1
  3
ACAD_GROUP
350
D
  3
ACAD_LAYOUT
350
1A
  3
ACAD_MLINESTYLE
350
17
  3
ACAD_PLOTSETTINGS
350
19
  3
ACAD_PLOTSTYLENAME
350
E
  3
ACAD_SCALELIST
350
4D
  3
AcDbVariableDictionary
350
264
  0
DICTIONARY
  5
D
102
{ACAD_REACTORS
330
C
102
}
330
C
100
AcDbDictionary
281
     1
  0
DICTIONARY
  5
1A
102
{ACAD_REACTORS
330
C
102
}
330
C
100
AcDbDictionary
281
     1
  3
Layout1
350
1E
  3
Layout2
350
26
  3
Model
350
22
  0
DICTIONARY
  5
17
102
{ACAD_REACTORS
330
C
102
}
330
C
100
AcDbDictionary
281
     1
  3
Standard
350
18
  0
DICTIONARY
  5
19
102
{ACAD_REACTORS
330
C
102
}
330
C
100
AcDbDictionary
281
     1
  0
ACDBDICTIONARYWDFLT
  5
E
102
{ACAD_REACTORS
330
C
102
}
330
C
100
AcDbDictionary
281
     1
  3
Normal
350
F
100
AcDbDictionaryWithDefault
340
F
  0
DICTIONARY
  5
4D
102
{ACAD_REACTORS
330
C
102
}
330
C
100
AcDbDictionary
281
     1
  3
A0
350
4E
  3
A1
350
4F
  3
A2
350
50
  3
A3
350
51
  3
A4
350
52
  3
A5
350
53
  3
A6
350
54
  3
A7
350
55
  3
A8
350
56
  3
A9
350
57
  3
B0
350
58
  3
B1
350
59
  3
B2
350
5A
  3
B3
350
5B
  3
B4
350
5C
  3
B5
350
5D
  3
B6
350
5E
  3
B7
350
5F
  3
B8
350
60
  3
B9
350
61
  3
C0
350
62
  3
C1
350
63
  3
C2
350
64
  3
C3
350
65
  3
C4
350
66
  3
C5
350
67
  3
C6
350
68
  3
C7
350
69
  3
C8
350
6A
  3
C9
350
6B
  3
D0
350
6C
  3
D1
350
6D
  3
D2
350
6E
  0
DICTIONARY
  5
264
102
{ACAD_REACTORS
330
C
102
}
330
C
100
AcDbDictionary
281
     1
  3
CANNOSCALE
350
265
  0
LAYOUT
  5
1E
102
{ACAD_REACTORS
330
1A
102
}
330
1A
100
AcDbPlotSettings
  1

  2
none_device
  4

  6

 40
0.0
 41
0.0
 42
0.0
 43
0.0
 44
0.0
 45
0.0
 46
0.0
 47
0.0
 48
0.0
 49
0.0
140
0.0
141
0.0
142
1.0
143
1.0
 70
   688
 72
     0
 73
     0
 74
     5
  7

 75
    16
147
1.0
148
0.0
149
0.0
100
AcDbLayout
  1
Layout1
 70
     1
 71
     1
 10
0.0
 20
0.0
 11
420.0
 21
297.0
 12
0.0
 22
0.0
 32
0.0
 14
1.0000000000E+20
 24
1.0000000000E+20
 34
1.0000000000E+20
 15
-1.0000000000E+20
 25
-1.0000000000E+20
 35
-1.0000000000E+20
146
0.0
 13
0.0
 23
0.0
 33
0.0
 16
1.0
 26
0.0
 36
0.0
 17
0.0
 27
1.0
 37
0.0
 76
     0
330
1B
  0
LAYOUT
  5
26
102
{ACAD_REACTORS
330
1A
102
}
330
1A
100
AcDbPlotSettings
  1

  2
none_device
  4

  6

 40
0.0
 41
0.0
 42
0.0
 43
0.0
 44
0.0
 45
0.0
 46
0.0
 47
0.0
 48
0.0
 49
0.0
140
0.0
141
0.0
142
1.0
143
1.0
 70
   688
 72
     0
 73
     0
 74
     5
  7

 75
    16
147
1.0
148
0.0
149
0.0
100
AcDbLayout
  1
Layout2
 70
     1
 71
     2
 10
0.0
 20
0.0
 11
0.0
 21
0.0
 12
0.0
 22
0.0
 32
0.0
 14
0.0
 24
0.0
 34
0.0
 15
0.0
 25
0.0
 35
0.0
146
0.0
 13
0.0
 23
0.0
 33
0.0
 16
1.0
 26
0.0
 36
0.0
 17
0.0
 27
1.0
 37
0.0
 76
     0
330
23
  0
LAYOUT
  5
22
102
{ACAD_REACTORS
330
1A
102
}
330
1A
100
AcDbPlotSettings
  1

  2
none_device
  4

  6

 40
0.0
 41
0.0
 42
0.0
 43
0.0
 44
0.0
 45
0.0
 46
0.0
 47
0.0
 48
0.0
 49
0.0
140
0.0
141
0.0
142
1.0
143
1.0
 70
  1712
 72
     0
 73
     0
 74
     0
  7

 75
     0
147
1.0
148
0.0
149
0.0
100
AcDbLayout
  1
Model
 70
     1
 71
     0
 10
0.0
 20
0.0
 11
420.0
 21
297.0
 12
0.0
 22
0.0
 32
0.0
 14
0.0
 24
0.0
 34
0.0
 15
420.0
 25
297.0
 35
0.0
146
0.0
 13
0.0
 23
0.0
 33
0.0
 16
1.0
 26
0.0
 36
0.0
 17
0.0
 27
1.0
 37
0.0
 76
     0
330
1F
331
29
  0
MLINESTYLE
  5
18
102
{ACAD_REACTORS
330
17
102
}
330
17
100
AcDbMlineStyle
  2
Standard
 70
     0
  3

 62
   256
 51
90.0
 52
90.0
 71
     2
 49
0.5
 62
   256
  6
BYLAYER
 49
-0.5
 62
   256
  6
BYLAYER
  0
ACDBPLACEHOLDER
  5
F
102
{ACAD_REACTORS
330
E
102
}
330
E
  0
SCALE
  5
4E
102
{ACAD_REACTORS
330
4D
102
}
330
4D
100
AcDbScale
 70
     0
300
1:1
140
1.0
141
1.0
290
     1
  0
SCALE
  5
4F
102
{ACAD_REACTORS
330
4D
102
}
330
4D
100
AcDbScale
 70
     0
300
1:2
140
1.0
141
2.0
290
     0
  0
SCALE
  5
50
102
{ACAD_REACTORS
330
4D
102
}
330
4D
100
AcDbScale
 70
     0
300
1:4
140
1.0
141
4.0
290
     0
  0
SCALE
  5
51
102
{ACAD_REACTORS
330
4D
102
}
330
4D
100
AcDbScale
 70
     0
300
1:5
140
1.0
141
5.0
290
     0
  0
SCALE
  5
52
102
{ACAD_REACTORS
330
4D
102
}
330
4D
100
AcDbScale
 70
     0
300
1:8
140
1.0
141
8.0
290
     0
  0
SCALE
  5
53
102
{ACAD_REACTORS
330
4D
102
}
330
4D
100
AcDbScale
 70
     0
300
1:10
140
1.0
141
10.0
290
     0
  0
SCALE
  5
54
102
{ACAD_REACTORS
330
4D
102
}
330
4D
100
AcDbScale
 70
     0
300
1:16
140
1.0
141
16.0
290
     0
  0
SCALE
  5
55
102
{ACAD_REACTORS
330
4D
102
}
330
4D
100
AcDbScale
 70
     0
300
1:20
140
1.0
141
20.0
290
     0
  0
SCALE
  5
56
102
{ACAD_REACTORS
330
4D
102
}
330
4D
100
AcDbScale
 70
     0
300
1:30
140
1.0
141
30.0
290
     0
  0
SCALE
  5
57
102
{ACAD_REACTORS
330
4D
102
}
330
4D
100
AcDbScale
 70
     0
300
1:40
140
1.0
141
40.0
290
     0
  0
SCALE
  5
58
102
{ACAD_REACTORS
330
4D
102
}
330
4D
100
AcDbScale
 70
     0
300
1:50
140
1.0
141
50.0
290
     0
  0
SCALE
  5
59
102
{ACAD_REACTORS
330
4D
102
}
330
4D
100
AcDbScale
 70
     0
300
1:100
140
1.0
141
100.0
290
     0
  0
SCALE
  5
5A
102
{ACAD_REACTORS
330
4D
102
}
330
4D
100
AcDbScale
 70
     0
300
2:1
140
2.0
141
1.0
290
     0
  0
SCALE
  5
5B
102
{ACAD_REACTORS
330
4D
102
}
330
4D
100
AcDbScale
 70
     0
300
4:1
140
4.0
141
1.0
290
     0
  0
SCALE
  5
5C
102
{ACAD_REACTORS
330
4D
102
}
330
4D
100
AcDbScale
 70
     0
300
8:1
140
8.0
141
1.0
290
     0
  0
SCALE
  5
5D
102
{ACAD_REACTORS
330
4D
102
}
330
4D
100
AcDbScale
 70
     0
300
10:1
140
10.0
141
1.0
290
     0
  0
SCALE
  5
5E
102
{ACAD_REACTORS
330
4D
102
}
330
4D
100
AcDbScale
 70
     0
300
100:1
140
100.0
141
1.0
290
     0
  0
SCALE
  5
5F
102
{ACAD_REACTORS
330
4D
102
}
330
4D
100
AcDbScale
 70
     0
300
1/128" = 1'-0"
140
0.0078125
141
12.0
290
     0
  0
SCALE
  5
60
102
{ACAD_REACTORS
330
4D
102
}
330
4D
100
AcDbScale
 70
     0
300
1/64" = 1'-0"
140
0.015625
141
12.0
290
     0
  0
SCALE
  5
61
102
{ACAD_REACTORS
330
4D
102
}
330
4D
100
AcDbScale
 70
     0
300
1/32" = 1'-0"
140
0.03125
141
12.0
290
     0
  0
SCALE
  5
62
102
{ACAD_REACTORS
330
4D
102
}
330
4D
100
AcDbScale
 70
     0
300
1/16" = 1'-0"
140
0.0625
141
12.0
290
     0
  0
SCALE
  5
63
102
{ACAD_REACTORS
330
4D
102
}
330
4D
100
AcDbScale
 70
     0
300
3/32" = 1'-0"
140
0.09375
141
12.0
290
     0
  0
SCALE
  5
64
102
{ACAD_REACTORS
330
4D
102
}
330
4D
100
AcDbScale
 70
     0
300
1/8" = 1'-0"
140
0.125
141
12.0
290
     0
  0
SCALE
  5
65
102
{ACAD_REACTORS
330
4D
102
}
330
4D
100
AcDbScale
 70
     0
300
3/16" = 1'-0"
140
0.1875
141
12.0
290
     0
  0
SCALE
  5
66
102
{ACAD_REACTORS
330
4D
102
}
330
4D
100
AcDbScale
 70
     0
300
1/4" = 1'-0"
140
0.25
141
12.0
290
     0
  0
SCALE
  5
67
102
{ACAD_REACTORS
330
4D
102
}
330
4D
100
AcDbScale
 70
     0
300
3/8" = 1'-0"
140
0.375
141
12.0
290
     0
  0
SCALE
  5
68
102
{ACAD_REACTORS
330
4D
102
}
330
4D
100
AcDbScale
 70
     0
300
1/2" = 1'-0"
140
0.5
141
12.0
290
     0
  0
SCALE
  5
69
102
{ACAD_REACTORS
330
4D
102
}
330
4D
100
AcDbScale
 70
     0
300
3/4" = 1'-0"
140
0.75
141
12.0
290
     0
  0
SCALE
  5
6A
102
{ACAD_REACTORS
330
4D
102
}
330
4D
100
AcDbScale
 70
     0
300
1" = 1'-0"
140
1.0
141
12.0
290
     0
  0
SCALE
  5
6B
102
{ACAD_REACTORS
330
4D
102
}
330
4D
100
AcDbScale
 70
     0
300
1-1/2" = 1'-0"
140
1.5
141
12.0
290
     0
  0
SCALE
  5
6C
102
{ACAD_REACTORS
330
4D
102
}
330
4D
100
AcDbScale
 70
     0
300
3" = 1'-0"
140
3.0
141
12.0
290
     0
  0
SCALE
  5
6D
102
{ACAD_REACTORS
330
4D
102
}
330
4D
100
AcDbScale
 70
     0
300
6" = 1'-0"
140
6.0
141
12.0
290
     0
  0
SCALE
  5
6E
102
{ACAD_REACTORS
330
4D
102
}
330
4D
100
AcDbScale
 70
     0
300
1'-0" = 1'-0"
140
12.0
141
12.0
290
     0
  0
DICTIONARYVAR
  5
265
102
{ACAD_REACTORS
330
264
102
}
330
264
100
DictionaryVariables
280
     0
  1
1:1
  0
ENDSEC
  0
EOF
