0
SECTION
2
HEADER
9
$INSUNITS
70
4
9
$ACADVER
1
AC1014
9
$HANDSEED
5
FFFF
0
ENDSEC
0
SECTION
2
TABLES
0
TABLE
2
VPORT
5
8
100
AcDbSymbolTable
0
ENDTAB
0
TABLE
2
LTYPE
5
5
100
AcDbSymbolTable
0
LTYPE
5
14
100
AcDbSymbolTableRecord
100
AcDbLinetypeTableRecord
2
BYBLOCK
70
0
0
LTYPE
5
15
100
AcDbSymbolTableRecord
100
AcDbLinetypeTableRecord
2
BYLAYER
70
0
0
ENDTAB
0
TABLE
2
LAYER
5
2
100
AcDbSymbolTable
70
2
0
LAYER
5
50
100
AcDbSymbolTableRecord
100
AcDbLayerTableRecord
2
0
70
0
6
CONTINUOUS
0
ENDTAB
0
TABLE
2
STYLE
5
3
100
AcDbSymbolTable
70
1
0
STYLE
5
11
100
AcDbSymbolTableRecord
100
AcDbTextStyleTableRecord
2
STANDARD
70
0
0
ENDTAB
0
TABLE
2
VIEW
5
6
100
AcDbSymbolTable
70
0
0
ENDTAB
0
TABLE
2
UCS
5
7
100
AcDbSymbolTable
70
0
0
ENDTAB
0
TABLE
2
APPID
5
9
100
AcDbSymbolTable
70
2
0
APPID
5
12
100
AcDbSymbolTableRecord
100
AcDbRegAppTableRecord
2
ACAD
70
0
0
ENDTAB
0
TABLE
2
DIMSTYLE
5
A
100
AcDbSymbolTable
70
1
0
ENDTAB
0
TABLE
2
BLOCK_RECORD
5
1
100
AcDbSymbolTable
70
1
0
BLOCK_RECORD
5
1F
100
AcDbSymbolTableRecord
100
AcDbBlockTableRecord
2
*MODEL_SPACE
0
BLOCK_RECORD
5
1B
100
AcDbSymbolTableRecord
100
AcDbBlockTableRecord
2
*PAPER_SPACE
0
ENDTAB
0
ENDSEC
0
SECTION
2
BLOCKS
0
BLOCK
5
20
100
AcDbEntity
100
AcDbBlockBegin
2
*MODEL_SPACE
0
ENDBLK
5
21
100
AcDbEntity
100
AcDbBlockEnd
0
BLOCK
5
1C
100
AcDbEntity
100
AcDbBlockBegin
2
*PAPER_SPACE
0
ENDBLK
5
1D
100
AcDbEntity
100
AcDbBlockEnd
0
ENDSEC
0
SECTION
2
ENTITIES
0
CIRCLE
5
100
100
AcDbEntity
8
0
100
AcDbCircle
10
73.000237831914035
20
-45
30
0
40
2.9000000000000004
210
0
220
-0
230
1
0
CIRCLE
5
101
100
AcDbEntity
8
0
100
AcDbCircle
10
-73.000221538159053
20
-45
30
0
40
2.9000000000000004
210
0
220
-0
230
1
0
CIRCLE
5
102
100
AcDbEntity
8
0
100
AcDbCircle
10
-56.661922916030221
20
-2.0248576470235271
30
0
40
2.5
210
0
220
-0
230
1
0
CIRCLE
5
103
100
AcDbEntity
8
0
100
AcDbCircle
10
56.661922916030186
20
-2.0248576470247635
30
0
40
2.5
210
0
220
-0
230
1
0
CIRCLE
5
104
100
AcDbEntity
8
0
100
AcDbCircle
10
74.554577635451992
20
44.495237081003069
30
0
40
2.5
210
0
220
-0
230
1
0
CIRCLE
5
105
100
AcDbEntity
8
0
100
AcDbCircle
10
17
20
74
30
0
40
2.5
210
0
220
-0
230
1
0
CIRCLE
5
106
100
AcDbEntity
8
0
100
AcDbCircle
10
-74.554577635451011
20
44.495237081004689
30
0
40
2.5
210
0
220
-0
230
1
0
CIRCLE
5
107
100
AcDbEntity
8
0
100
AcDbCircle
10
-98.999999307595715
20
-49.999999999997861
30
0
40
2.5
210
0
220
-0
230
1
0
CIRCLE
5
108
100
AcDbEntity
8
0
100
AcDbCircle
10
98.999999307594621
20
-50.000000000000014
30
0
40
2.5
210
0
220
-0
230
1
0
CIRCLE
5
109
100
AcDbEntity
8
0
100
AcDbCircle
10
-16.999999999998387
20
74.000000000000369
30
0
40
2.5
210
0
220
-0
230
1
0
LWPOLYLINE
5
110
100
AcDbEntity
8
0
100
AcDbPolyline
90
66
70
1
43
0.0
10
-38.749999999999993
20
80
10
38.750000000000007
20
80
10
41.750000000000007
20
77.000000000000014
10
41.750000000000007
20
68
42
0.99999999999999989
10
48.249999999999993
20
68
10
48.249999999999993
20
77
10
51.25
20
80
10
55
20
80
10
110
20
25
10
110
20
11.25
10
107
20
8.2500000000000018
10
100
20
8.2500000000000107
42
0.99999999999999989
10
100
20
1.7499999999999893
10
107
20
1.7499999999999982
10
110
20
-1.25
10
109.99999903077088
20
-69.49025407090879
10
109.99999903077088
20
-70.690254070908793
10
110
20
-83.999999999999986
10
103.99999999999999
20
-90
10
69.000237831914006
20
-90
10
63.000237831914028
20
-84
10
63.000237831914028
20
-66.250000000000014
10
66.000237831914035
20
-63.250000000000014
10
78.000237831914035
20
-63.249999999999993
42
0.99999999999999989
10
78.000237831914035
20
-56.750000000000007
10
66.000237831914035
20
-56.750000000000007
10
63.000237831914028
20
-53.750000000000014
10
63.000237831914028
20
-28.231182330665341
42
0.19891236737965723
10
61.242878519033326
20
-23.988541643546082
10
34.757597144794737
20
2.4967397306927239
42
0.19891236737965831
10
30.514956457675435
20
4.254099043573456
10
6.25
20
4.2540990435734471
10
3.2499999999999996
20
7.2540990435734543
10
3.25
20
18
42
0.99999999999999989
10
-3.25
20
18
10
-3.25
20
7.2540990435734543
10
-6.25
20
4.254099043573456
10
-30.5149401639205
20
4.2540990435734507
42
0.19891236737965753
10
-34.757580851039776
20
2.4967397306927364
10
-61.242862225278358
20
-23.988541643545886
42
0.19891236737965692
10
-63.000221538159082
20
-28.231182330665163
10
-63.00022153815906
20
-53.75
10
-66.000221538159067
20
-56.749999999999986
10
-78.000221538159053
20
-56.75
42
0.99999999999999989
10
-78.000221538159053
20
-63.250000000000014
10
-66.000221538159067
20
-63.249999999999993
10
-63.00022153815906
20
-66.249999999999986
10
-63.00022153815906
20
-83.999999999999986
10
-69.000221538159053
20
-90
10
-103.99999999999999
20
-90
10
-110
20
-83.999999999999986
10
-109.99999938962964
20
-70.690254070908793
10
-109.99999938962964
20
-69.490254070908804
10
-110
20
-1.25
10
-107
20
1.7499999999999982
10
-100
20
1.7499999999999893
42
0.99999999999999989
10
-100
20
8.2500000000000107
10
-107
20
8.2500000000000018
10
-110
20
11.25
10
-110
20
25
10
-55
20
80
10
-51.25
20
80
10
-48.250000000000014
20
77.000000000000014
10
-48.25
20
68
42
0.99999999999999989
10
-41.75
20
67.999999999999986
10
-41.75
20
77
0
LINE
5
111
100
AcDbEntity
8
0
100
AcDbLine
10
-3.000000000000056
20
68.709095702724227
30
0
11
2.9999999999999449
21
68.709095702724241
31
0
0
ARC
5
112
100
AcDbEntity
8
0
100
AcDbCircle
10
0.00022153815937731025
20
-31.245900816606476
30
0
40
99.999999999997712
210
0
220
-0
230
1
100
AcDbArc
50
26.490571805293079
51
88.280995668291283
0
SPLINE
5
113
100
AcDbEntity
8
0
100
AcDbSpline
70
0
71
3
72
10
73
6
74
0
42
0.000000001
43
0.0000000001
44
0.0000000001
40
-0.83659016712613909
40
-0.83659016712613909
40
-0.83659016712613909
40
-0.83659016712613909
40
-0.80034348479884176
40
-0.80034348479884176
40
0
40
0
40
0
40
0
10
91.972037483208481
20
4.9502828654053674
30
0
10
91.952993719544821
20
5.0744718982299055
30
0
10
91.933356111696156
20
5.1986446673324238
30
0
10
91.466133161672616
20
8.0641709626187978
30
0
10
90.702405314682153
20
10.797905145924535
30
0
10
89.500998807354634
20
13.359153473345263
30
0
0
SPLINE
5
114
100
AcDbEntity
8
0
100
AcDbSpline
70
0
71
3
72
12
73
8
74
0
42
0.000000001
43
0.0000000001
44
0.0000000001
40
-6.5365687325453292
40
-6.5365687325453292
40
-6.5365687325453292
40
-6.5365687325453292
40
-5.5856712174919227
40
-5.5856712174919227
40
-3.6821640177043857
40
-3.6821640177043857
40
0
40
0
40
0
40
0
10
91.972037483210869
20
4.9502828654057289
30
0
10
92.290234845980905
20
2.8706440157464304
30
0
10
92.456676937843
20
0.65000902490820467
30
0
10
92.549014920182898
20
-6.511153807016643
30
0
10
92.064579358321055
20
-11.632631894750634
30
0
10
90.013044962987095
20
-27.842993608428841
30
0
10
88.000624563057684
20
-38.812630114751634
30
0
10
88.00022159857285
20
-51.086510167151374
30
0
0
ARC
5
115
100
AcDbEntity
8
0
100
AcDbCircle
10
10.000124946267359
20
-51.090256448121906
30
0
40
78.000096591888081
210
0
220
-0
230
1
100
AcDbArc
50
0
51
0.0027518695435239967
0
LINE
5
116
100
AcDbEntity
8
0
100
AcDbLine
10
88.000221538155444
20
-51.090255860052466
30
0
11
88.000237831909729
21
-79.595255297418589
31
0
0
ARC
5
117
100
AcDbEntity
8
0
100
AcDbCircle
10
86.500237831911875
20
-79.595256152952487
30
0
40
1.4999999999980982
210
0
220
0
230
1
100
AcDbArc
50
-179.99996732154185
51
3.2678458167185012e-05
0
LINE
5
118
100
AcDbEntity
8
0
100
AcDbLine
10
85.000237831914021
20
-79.595257008486413
30
0
11
85.000221538159053
21
-51.090256445862593
31
0
0
ARC
5
119
100
AcDbEntity
8
0
100
AcDbCircle
10
10.000221538159142
20
-51.090256445862494
30
0
40
74.999999999999915
210
-0
220
0
230
1
100
AcDbArc
50
0
51
63.612200038756491
0
ARC
5
120
100
AcDbEntity
8
0
100
AcDbCircle
10
0.00022153815904868424
20
-71.245900816608838
30
0
40
97.499999999999915
210
0
220
-0
230
1
100
AcDbArc
50
63.612200038756548
51
90.003068431786815
0
ARC
5
121
100
AcDbEntity
8
0
100
AcDbCircle
10
-0.00022153815904868424
20
-71.245900816608838
30
0
40
97.500000000000014
210
0
220
0
230
1
100
AcDbArc
50
90.002808058422801
51
116.3877999612434
0
ARC
5
122
100
AcDbEntity
8
0
100
AcDbCircle
10
-10.000221538159142
20
-51.090256445862494
30
0
40
75
210
0
220
0
230
1
100
AcDbArc
50
116.38779996124346
51
180
0
LINE
5
123
100
AcDbEntity
8
0
100
AcDbLine
10
-85.000221538159138
20
-51.090256445862529
30
0
11
-85.000237831914006
21
-79.595257008486385
31
0
0
ARC
5
124
100
AcDbEntity
8
0
100
AcDbCircle
10
-86.500237831911875
20
-79.595256152952487
30
0
40
1.499999999998116
210
0
220
0
230
1
100
AcDbArc
50
179.99996732154185
51
359.99996732154176
0
LINE
5
125
100
AcDbEntity
8
0
100
AcDbLine
10
-88.000237831909743
20
-79.595255297418589
30
0
11
-88.00023439939055
21
-73.590257574879146
31
0
0
LINE
5
126
100
AcDbEntity
8
0
100
AcDbLine
10
-88.000230398117694
20
-66.590257574880297
30
0
11
-88.000221538155387
21
-51.090255860010728
31
0
0
ARC
5
127
100
AcDbEntity
8
0
100
AcDbCircle
10
-10.00018462964599
20
-51.090256447028821
30
0
40
78.000036908509401
210
0
220
0
230
1
100
AcDbArc
50
179.99724812926448
51
180
0
SPLINE
5
128
100
AcDbEntity
8
0
100
AcDbSpline
70
0
71
3
72
12
73
8
74
0
42
0.000000001
43
0.0000000001
44
0.0000000001
40
-5.015930607845311
40
-5.015930607845311
40
-5.015930607845311
40
-5.015930607845311
40
-2.6398194744776577
40
-2.6398194744776577
40
-1.0214587809754814
40
-1.0214587809754814
40
-0.60123351898358079
40
-0.60123351898358079
40
-0.60123351898358079
40
-0.60123351898358079
10
-88.000221598572836
20
-51.086510167163546
30
0
10
-88.000600865545067
20
-39.534431718622514
30
0
10
-89.810048122543989
20
-28.999781273438458
30
0
10
-92.065645426293031
20
-11.871441388826618
30
0
10
-92.766988683192309
20
-5.1043022372442266
30
0
10
-92.287113807781722
20
2.6100116989097111
30
0
10
-92.117244794660436
20
4.1356885342535215
30
0
10
-91.866456552648188
20
5.6021583730927222
30
0
0
SPLINE
5
129
100
AcDbEntity
8
0
100
AcDbSpline
70
0
71
3
72
8
73
4
74
0
42
0.000000001
43
0.0000000001
44
0.0000000001
40
0
40
0
40
0
40
0
40
0.7731539117516163
40
0.7731539117516163
40
0.7731539117516163
40
0.7731539117516163
10
-89.500998807354151
20
13.359153473346307
30
0
10
-90.661590676203303
20
10.884916847543803
30
0
10
-91.413736721468993
20
8.249714806132765
30
0
10
-91.86645655264175
20
5.6021583731599396
30
0
0
ARC
5
130
100
AcDbEntity
8
0
100
AcDbCircle
10
-0.00022153815904424334
20
-31.245900816608795
30
0
40
100
210
0
220
0
230
1
100
AcDbArc
50
91.719004331708945
51
153.50942819470527
0
LINE
5
131
100
AcDbEntity
8
0
100
AcDbLine
10
-88.00023439939055
20
-73.590257574879146
30
0
11
-88.000230398117694
21
-66.590257574880297
31
0
0
ENDSEC
0
SECTION
2
OBJECTS
0
DICTIONARY
5
C
100
AcDbDictionary
3
ACAD_GROUP
350
D
3
ACAD_MLINESTYLE
350
17
0
DICTIONARY
5
D
100
AcDbDictionary
0
DICTIONARY
5
1A
330
C
100
AcDbDictionary
0
DICTIONARY
5
17
100
AcDbDictionary
0
ENDSEC
0
EOF
