0
SECTION
2
HEADER
9
$INSUNITS
70
4
9
$ACADVER
1
AC1014
9
$HANDSEED
5
FFFF
0
ENDSEC
0
SECTION
2
TABLES
0
TABLE
2
VPORT
5
8
100
AcDbSymbolTable
0
ENDTAB
0
TABLE
2
LTYPE
5
5
100
AcDbSymbolTable
0
LTYPE
5
14
100
AcDbSymbolTableRecord
100
AcDbLinetypeTableRecord
2
BYBLOCK
70
0
0
LTYPE
5
15
100
AcDbSymbolTableRecord
100
AcDbLinetypeTableRecord
2
BYLAYER
70
0
0
ENDTAB
0
TABLE
2
LAYER
5
2
100
AcDbSymbolTable
70
2
0
LAYER
5
50
100
AcDbSymbolTableRecord
100
AcDbLayerTableRecord
2
0
70
0
6
CONTINUOUS
0
ENDTAB
0
TABLE
2
STYLE
5
3
100
AcDbSymbolTable
70
1
0
STYLE
5
11
100
AcDbSymbolTableRecord
100
AcDbTextStyleTableRecord
2
STANDARD
70
0
0
ENDTAB
0
TABLE
2
VIEW
5
6
100
AcDbSymbolTable
70
0
0
ENDTAB
0
TABLE
2
UCS
5
7
100
AcDbSymbolTable
70
0
0
ENDTAB
0
TABLE
2
APPID
5
9
100
AcDbSymbolTable
70
2
0
APPID
5
12
100
AcDbSymbolTableRecord
100
AcDbRegAppTableRecord
2
ACAD
70
0
0
ENDTAB
0
TABLE
2
DIMSTYLE
5
A
100
AcDbSymbolTable
70
1
0
ENDTAB
0
TABLE
2
BLOCK_RECORD
5
1
100
AcDbSymbolTable
70
1
0
BLOCK_RECORD
5
1F
100
AcDbSymbolTableRecord
100
AcDbBlockTableRecord
2
*MODEL_SPACE
0
BLOCK_RECORD
5
1B
100
AcDbSymbolTableRecord
100
AcDbBlockTableRecord
2
*PAPER_SPACE
0
ENDTAB
0
ENDSEC
0
SECTION
2
BLOCKS
0
BLOCK
5
20
100
AcDbEntity
100
AcDbBlockBegin
2
*MODEL_SPACE
0
ENDBLK
5
21
100
AcDbEntity
100
AcDbBlockEnd
0
BLOCK
5
1C
100
AcDbEntity
100
AcDbBlockBegin
2
*PAPER_SPACE
0
ENDBLK
5
1D
100
AcDbEntity
100
AcDbBlockEnd
0
ENDSEC
0
SECTION
2
ENTITIES
0
CIRCLE
5
100
100
AcDbEntity
8
0
100
AcDbCircle
10
-16.999999999998966
20
47.458498675858053
30
0
40
2.5
210
0
220
-0
230
1
0
CIRCLE
5
101
100
AcDbEntity
8
0
100
AcDbCircle
10
-72.426849648544405
20
13.740069085491296
30
0
40
2.5
210
0
220
-0
230
1
0
ARC
5
102
100
AcDbEntity
8
0
100
AcDbCircle
10
-0.00022153815902647978
20
-31.24590081660887
30
0
40
96.344000000000122
210
0
220
0
230
1
100
AcDbArc
50
91.784256708629371
51
153.47969461643879
0
SPLINE
5
103
100
AcDbEntity
8
0
100
AcDbSpline
70
4
71
3
72
15
73
11
74
0
42
0.000000001
43
0.0000000001
44
0.0000000001
40
0.00085806414697753655
40
0.00085806414697753655
40
0.00085806414697753655
40
0.00085806414697753655
40
0.97331542092808876
40
0.97331542092808876
40
1.801062809425624
40
1.801062809425624
40
1.801062809425624
40
2.7015942141384368
40
2.7015942141384368
40
3.6021256188512494
40
3.6021256188512494
40
3.6021256188512494
40
3.6021256188512494
41
1
41
1
41
1
41
1
41
1
41
1
41
1
41
1
41
1
41
1
41
1
10
-86.206537320640308
20
11.773135146682991
30
0
10
-87.539260098382812
20
8.9189617119571611
30
0
10
-88.237562216456155
20
5.8654422441323497
30
0
10
-88.859155911955824
20
0.00029332563764916664
30
0
10
-88.893241801837434
20
-2.859820813613803
30
0
10
-88.756859242378027
20
-5.8389321294785299
30
0
10
-88.608484533433028
20
-9.0799973812108075
30
0
10
-88.263047694746305
20
-12.470682892765165
30
0
10
-87.408023908286424
20
-19.406339216550059
30
0
10
-86.901528510813108
20
-22.923093262308253
30
0
10
-86.407674970621983
20
-26.522390507102386
30
0
0
SPLINE
5
104
100
AcDbEntity
8
0
100
AcDbSpline
70
4
71
3
72
19
73
15
74
0
42
0.000000001
43
0.0000000001
44
0.0000000001
40
8.7993416575740618e-16
40
8.7993416575740618e-16
40
8.7993416575740618e-16
40
8.7993416575740618e-16
40
0.084789700089897155
40
0.084789700089897155
40
0.15712601773620788
40
0.15712601773620788
40
0.20233621626515208
40
0.20233621626515208
40
0.20233621626515208
40
0.24754641479409628
40
0.24754641479409628
40
0.31988273244040699
40
0.31988273244040699
40
0.40467243253030288
40
0.40467243253030288
40
0.40467243253030288
40
0.40467243253030288
41
1
41
1
41
1
41
1
41
1
41
1
41
1
41
1
41
1
41
1
41
1
41
1
41
1
41
1
41
1
10
-86.407674970621997
20
-26.522390507102372
30
0
10
-86.386057570892177
20
-26.679942171624237
30
0
10
-86.319060386785026
20
-26.830223936993232
30
0
10
-86.130118055759013
20
-27.0545992291391
30
0
10
-86.017589549819732
20
-27.136773973227424
30
0
10
-85.814538314068074
20
-27.220314230224766
30
0
10
-85.731205964812389
20
-27.240701984862667
30
0
10
-85.647145561922144
20
-27.248265625912111
30
0
10
-85.5630851590319
20
-27.255829266961555
30
0
10
-85.477547719745132
20
-27.25066227018101
30
0
10
-85.262671700182025
20
-27.204681807464507
30
0
10
-85.137356762173496
20
-27.143924557688806
30
0
10
-84.911400311480136
20
-26.956885641514706
30
0
10
-84.818591564511337
20
-26.820869711979011
30
0
10
-84.769217745822687
20
-26.669700717165753
30
0
0
ARC
5
105
100
AcDbEntity
8
0
100
AcDbCircle
10
-10.000221538159035
20
-51.090256445862579
30
0
40
78.656000000000091
210
0
220
0
230
1
100
AcDbArc
50
116.38779996124354
51
161.91226858828946
0
ARC
5
106
100
AcDbEntity
8
0
100
AcDbCircle
10
-0.00022153815905756602
20
-71.245900816608767
30
0
40
101.15600000000003
210
0
220
0
230
1
100
AcDbArc
50
91.699353937536202
51
116.38779996124346
0
LINE
5
107
100
AcDbEntity
8
0
100
AcDbLine
10
-3.0000000000001048
20
29.865610225309123
30
0
11
-2.9999999999999472
21
65.051387126405885
31
0
0
ENDSEC
0
SECTION
2
OBJECTS
0
DICTIONARY
5
C
100
AcDbDictionary
3
ACAD_GROUP
350
D
3
ACAD_MLINESTYLE
350
17
0
DICTIONARY
5
D
100
AcDbDictionary
0
DICTIONARY
5
1A
330
C
100
AcDbDictionary
0
DICTIONARY
5
17
100
AcDbDictionary
0
ENDSEC
0
EOF
