0
SECTION
2
HEADER
9
$INSUNITS
70
4
9
$ACADVER
1
AC1014
9
$HANDSEED
5
FFFF
0
ENDSEC
0
SECTION
2
TABLES
0
TABLE
2
VPORT
5
8
100
AcDbSymbolTable
0
ENDTAB
0
TABLE
2
LTYPE
5
5
100
AcDbSymbolTable
0
LTYPE
5
14
100
AcDbSymbolTableRecord
100
AcDbLinetypeTableRecord
2
BYBLOCK
70
0
0
LTYPE
5
15
100
AcDbSymbolTableRecord
100
AcDbLinetypeTableRecord
2
BYLAYER
70
0
0
ENDTAB
0
TABLE
2
LAYER
5
2
100
AcDbSymbolTable
70
2
0
LAYER
5
50
100
AcDbSymbolTableRecord
100
AcDbLayerTableRecord
2
0
70
0
6
CONTINUOUS
0
ENDTAB
0
TABLE
2
STYLE
5
3
100
AcDbSymbolTable
70
1
0
STYLE
5
11
100
AcDbSymbolTableRecord
100
AcDbTextStyleTableRecord
2
STANDARD
70
0
0
ENDTAB
0
TABLE
2
VIEW
5
6
100
AcDbSymbolTable
70
0
0
ENDTAB
0
TABLE
2
UCS
5
7
100
AcDbSymbolTable
70
0
0
ENDTAB
0
TABLE
2
APPID
5
9
100
AcDbSymbolTable
70
2
0
APPID
5
12
100
AcDbSymbolTableRecord
100
AcDbRegAppTableRecord
2
ACAD
70
0
0
ENDTAB
0
TABLE
2
DIMSTYLE
5
A
100
AcDbSymbolTable
70
1
0
ENDTAB
0
TABLE
2
BLOCK_RECORD
5
1
100
AcDbSymbolTable
70
1
0
BLOCK_RECORD
5
1F
100
AcDbSymbolTableRecord
100
AcDbBlockTableRecord
2
*MODEL_SPACE
0
BLOCK_RECORD
5
1B
100
AcDbSymbolTableRecord
100
AcDbBlockTableRecord
2
*PAPER_SPACE
0
ENDTAB
0
ENDSEC
0
SECTION
2
BLOCKS
0
BLOCK
5
20
100
AcDbEntity
100
AcDbBlockBegin
2
*MODEL_SPACE
0
ENDBLK
5
21
100
AcDbEntity
100
AcDbBlockEnd
0
BLOCK
5
1C
100
AcDbEntity
100
AcDbBlockBegin
2
*PAPER_SPACE
0
ENDBLK
5
1D
100
AcDbEntity
100
AcDbBlockEnd
0
ENDSEC
0
SECTION
2
ENTITIES
0
CIRCLE
5
100
100
AcDbEntity
8
0
100
AcDbCircle
10
-16.999999999998966
20
47.458498675858053
30
0
40
2.5
210
0
220
-0
230
1
0
CIRCLE
5
101
100
AcDbEntity
8
0
100
AcDbCircle
10
17
20
47.458498675857683
30
0
40
2.5
210
0
220
-0
230
1
0
CIRCLE
5
102
100
AcDbEntity
8
0
100
AcDbCircle
10
72.426849648544703
20
13.740069085489715
30
0
40
2.5
210
0
220
-0
230
1
0
CIRCLE
5
103
100
AcDbEntity
8
0
100
AcDbCircle
10
-72.426849648544405
20
13.740069085491296
30
0
40
2.5
210
0
220
-0
230
1
0
ARC
5
104
100
AcDbEntity
8
0
100
AcDbCircle
10
-0.00022153815902647978
20
-31.24590081660887
30
0
40
96.344000000000122
210
0
220
0
230
1
100
AcDbArc
50
91.784256708629371
51
153.47969461643879
0
SPLINE
5
105
100
AcDbEntity
8
0
100
AcDbSpline
70
0
71
3
72
12
73
8
74
0
42
0.000000001
43
0.0000000001
44
0.0000000001
40
-3.785431274341974
40
-3.785431274341974
40
-3.785431274341974
40
-3.785431274341974
40
-3.0503195356022177
40
-3.0503195356022177
40
-2.1935708419005175
40
-2.1935708419005175
40
0
40
0
40
0
40
0
10
-86.206537320640308
20
11.773135146682991
30
0
10
-87.444765782939399
20
9.1213317542311163
30
0
10
-88.132174176358774
20
6.3036218788867826
30
0
10
-88.912487327964584
20
0.016601560111086933
30
0
10
-88.871138103705391
20
-3.3456970476378256
30
0
10
-88.463510609686011
20
-12.238963118126902
30
0
10
-87.401616486826583
20
-19.278358279699241
30
0
10
-86.407674970621983
20
-26.522390507102386
30
0
0
SPLINE
5
106
100
AcDbEntity
8
0
100
AcDbSpline
70
0
71
3
72
20
73
16
74
0
42
0.000000001
43
0.0000000001
44
0.0000000001
40
-0.23376758929526015
40
-0.23376758929526015
40
-0.23376758929526015
40
-0.23376758929526015
40
-0.1922224878045013
40
-0.1922224878045013
40
-0.15050912139038083
40
-0.15050912139038083
40
-0.11909331878734106
40
-0.11909331878734106
40
-0.094057084784529593
40
-0.094057084784529593
40
-0.065435594322834023
40
-0.065435594322834023
40
-0.032059476476071519
40
-0.032059476476071519
40
0
40
0
40
0
40
0
10
-86.407674970621997
20
-26.522390507102372
30
0
10
-86.393465087129101
20
-26.625954803685161
30
0
10
-86.359611727812677
20
-26.726598448268327
30
0
10
-86.257940298696681
20
-26.909717963981304
30
0
10
-86.190969469185333
20
-26.990355927274628
30
0
10
-86.049241608562582
20
-27.107705393602416
30
0
10
-85.95467269863542
20
-27.172352708871617
30
0
10
-85.717003810702607
20
-27.246258957235447
30
0
10
-85.606446880460112
20
-27.258134989572138
30
0
10
-85.370030480665591
20
-27.236976797660883
30
0
10
-85.263749326261419
20
-27.199100749401268
30
0
10
-85.081459758470828
20
-27.103585435739745
30
0
10
-84.994810672751399
20
-27.033807352543093
30
0
10
-84.855260297798495
20
-26.866227706180645
30
0
10
-84.802396406993552
20
-26.771284613077874
30
0
10
-84.769217745822687
20
-26.669700717165753
30
0
0
ARC
5
107
100
AcDbEntity
8
0
100
AcDbCircle
10
-10.000221538159035
20
-51.090256445862579
30
0
40
78.656000000000091
210
0
220
0
230
1
100
AcDbArc
50
116.38779996124354
51
161.91226858828946
0
ARC
5
108
100
AcDbEntity
8
0
100
AcDbCircle
10
-0.00022153815905756602
20
-71.245900816608767
30
0
40
101.15600000000003
210
0
220
0
230
1
100
AcDbArc
50
91.699353937536202
51
116.38779996124346
0
ARC
5
109
100
AcDbEntity
8
0
100
AcDbCircle
10
0.00022153815871783777
20
-71.245900816610131
30
0
40
101.15600000000137
210
0
220
-0
230
1
100
AcDbArc
50
63.612200038756505
51
91.699604767435744
0
ARC
5
110
100
AcDbEntity
8
0
100
AcDbCircle
10
10.000221538159
20
-51.090256445862636
30
0
40
78.656000000000148
210
0
220
-0
230
1
100
AcDbArc
50
18.087731411710578
51
63.612200038756171
0
SPLINE
5
111
100
AcDbEntity
8
0
100
AcDbSpline
70
0
71
3
72
20
73
16
74
0
42
0.000000001
43
0.0000000001
44
0.0000000001
40
-0.23376758928953353
40
-0.23376758928953353
40
-0.23376758928953353
40
-0.23376758928953353
40
-0.19222248779997422
40
-0.19222248779997422
40
-0.150509121387223
40
-0.150509121387223
40
-0.1190933187855521
40
-0.1190933187855521
40
-0.094057084783890701
40
-0.094057084783890701
40
-0.065435594322969179
40
-0.065435594322969179
40
-0.03205947647616441
40
-0.03205947647616441
40
0
40
0
40
0
40
0
10
84.769217745822687
20
-26.669700717165753
30
0
10
84.801672907864955
20
-26.769069458590661
30
0
10
84.852935551015264
20
-26.86206050412299
30
0
10
84.985640192106729
20
-27.024107765025786
30
0
10
85.065920702381561
20
-27.091506673025027
30
0
10
85.226307722324734
20
-27.181693631936671
30
0
10
85.330891402663212
20
-27.228435560686059
30
0
10
85.577931687452917
20
-27.258762636537995
30
0
10
85.688833966205564
20
-27.250727741629419
30
0
10
85.917684836108791
20
-27.187738357424614
30
0
10
86.015505438854433
20
-27.131511953558256
30
0
10
86.177834152094505
20
-27.005012741996115
30
0
10
86.250647040110493
20
-26.920897771334516
30
0
10
86.358067583502574
20
-26.731113494109408
30
0
10
86.39314831661622
20
-26.628263486607239
30
0
10
86.407674970621997
20
-26.522390507102372
30
0
0
SPLINE
5
112
100
AcDbEntity
8
0
100
AcDbSpline
70
0
71
3
72
10
73
6
74
0
42
0.000000001
43
0.0000000001
44
0.0000000001
40
-3.4690462414778498
40
-3.4690462414778498
40
-3.4690462414778498
40
-3.4690462414778498
40
-0.88333805990803904
40
-0.88333805990803904
40
0
40
0
40
0
40
0
10
86.407674970621997
20
-26.522390507102379
30
0
10
87.910412239828133
20
-15.570159384876325
30
0
10
89.5484463202461
20
-5.201721692818948
30
0
10
88.140201809252133
20
6.2708662276377041
30
0
10
87.452301726121675
20
9.1051926972734254
30
0
10
86.206537320622118
20
11.773135146721918
30
0
0
ARC
5
113
100
AcDbEntity
8
0
100
AcDbCircle
10
0.00022153815894210283
20
-31.245900816609009
30
0
40
96.344000000000619
210
0
220
-0
230
1
100
AcDbArc
50
26.520305383586813
51
91.784520078334694
0
ENDSEC
0
SECTION
2
OBJECTS
0
DICTIONARY
5
C
100
AcDbDictionary
3
ACAD_GROUP
350
D
3
ACAD_MLINESTYLE
350
17
0
DICTIONARY
5
D
100
AcDbDictionary
0
DICTIONARY
5
1A
330
C
100
AcDbDictionary
0
DICTIONARY
5
17
100
AcDbDictionary
0
ENDSEC
0
EOF
