0
SECTION
2
HEADER
9
$INSUNITS
70
4
9
$ACADVER
1
AC1014
9
$HANDSEED
5
FFFF
0
ENDSEC
0
SECTION
2
TABLES
0
TABLE
2
VPORT
5
8
100
AcDbSymbolTable
0
ENDTAB
0
TABLE
2
LTYPE
5
5
100
AcDbSymbolTable
0
LTYPE
5
14
100
AcDbSymbolTableRecord
100
AcDbLinetypeTableRecord
2
BYBLOCK
70
0
0
LTYPE
5
15
100
AcDbSymbolTableRecord
100
AcDbLinetypeTableRecord
2
BYLAYER
70
0
0
ENDTAB
0
TABLE
2
LAYER
5
2
100
AcDbSymbolTable
70
2
0
LAYER
5
50
100
AcDbSymbolTableRecord
100
AcDbLayerTableRecord
2
0
70
0
6
CONTINUOUS
0
ENDTAB
0
TABLE
2
STYLE
5
3
100
AcDbSymbolTable
70
1
0
STYLE
5
11
100
AcDbSymbolTableRecord
100
AcDbTextStyleTableRecord
2
STANDARD
70
0
0
ENDTAB
0
TABLE
2
VIEW
5
6
100
AcDbSymbolTable
70
0
0
ENDTAB
0
TABLE
2
UCS
5
7
100
AcDbSymbolTable
70
0
0
ENDTAB
0
TABLE
2
APPID
5
9
100
AcDbSymbolTable
70
2
0
APPID
5
12
100
AcDbSymbolTableRecord
100
AcDbRegAppTableRecord
2
ACAD
70
0
0
ENDTAB
0
TABLE
2
DIMSTYLE
5
A
100
AcDbSymbolTable
70
1
0
ENDTAB
0
TABLE
2
BLOCK_RECORD
5
1
100
AcDbSymbolTable
70
1
0
BLOCK_RECORD
5
1F
100
AcDbSymbolTableRecord
100
AcDbBlockTableRecord
2
*MODEL_SPACE
0
BLOCK_RECORD
5
1B
100
AcDbSymbolTableRecord
100
AcDbBlockTableRecord
2
*PAPER_SPACE
0
ENDTAB
0
ENDSEC
0
SECTION
2
BLOCKS
0
BLOCK
5
20
100
AcDbEntity
100
AcDbBlockBegin
2
*MODEL_SPACE
0
ENDBLK
5
21
100
AcDbEntity
100
AcDbBlockEnd
0
BLOCK
5
1C
100
AcDbEntity
100
AcDbBlockBegin
2
*PAPER_SPACE
0
ENDBLK
5
1D
100
AcDbEntity
100
AcDbBlockEnd
0
ENDSEC
0
SECTION
2
ENTITIES
0
CIRCLE
5
100
100
AcDbEntity
8
0
100
AcDbCircle
10
73.000237831914035
20
-45
30
0
40
3.0499999999999972
210
0
220
-0
230
1
0
CIRCLE
5
101
100
AcDbEntity
8
0
100
AcDbCircle
10
-73.000221538159053
20
-45
30
0
40
3.0499999999999972
210
0
220
-0
230
1
0
CIRCLE
5
102
100
AcDbEntity
8
0
100
AcDbCircle
10
-56.661922916030221
20
-2.0248576470235271
30
0
40
2.5
210
0
220
-0
230
1
0
CIRCLE
5
103
100
AcDbEntity
8
0
100
AcDbCircle
10
56.661922916030186
20
-2.0248576470247635
30
0
40
2.5
210
0
220
-0
230
1
0
CIRCLE
5
104
100
AcDbEntity
8
0
100
AcDbCircle
10
74.554577635451992
20
44.495237081003069
30
0
40
2.5
210
0
220
-0
230
1
0
CIRCLE
5
105
100
AcDbEntity
8
0
100
AcDbCircle
10
17
20
74
30
0
40
2.5
210
0
220
-0
230
1
0
CIRCLE
5
106
100
AcDbEntity
8
0
100
AcDbCircle
10
-74.554577635451011
20
44.495237081004689
30
0
40
2.5
210
0
220
-0
230
1
0
CIRCLE
5
107
100
AcDbEntity
8
0
100
AcDbCircle
10
-98.999999307595715
20
-49.999999999997861
30
0
40
2.5
210
0
220
-0
230
1
0
CIRCLE
5
108
100
AcDbEntity
8
0
100
AcDbCircle
10
98.999999307594621
20
-50.000000000000014
30
0
40
2.5
210
0
220
-0
230
1
0
CIRCLE
5
109
100
AcDbEntity
8
0
100
AcDbCircle
10
-16.999999999998387
20
74.000000000000369
30
0
40
2.5
210
0
220
-0
230
1
0
LINE
5
110
100
AcDbEntity
8
0
100
AcDbLine
10
-3.000000000000056
20
68.709095702724227
30
0
11
-2.9999999999999987
21
80
31
0
0
LINE
5
111
100
AcDbEntity
8
0
100
AcDbLine
10
-2.9999999999999987
20
80
30
0
11
-38.75
21
80
31
0
0
LINE
5
112
100
AcDbEntity
8
0
100
AcDbLine
10
-38.75
20
80
30
0
11
-41.75
21
77
31
0
0
LINE
5
113
100
AcDbEntity
8
0
100
AcDbLine
10
-41.75
20
77
30
0
11
-41.75
21
67.999999999999986
31
0
0
ARC
5
114
100
AcDbEntity
8
0
100
AcDbCircle
10
-45
20
67.999999999999986
30
0
40
3.2500000000000018
210
0
220
0
230
1
100
AcDbArc
50
-180
51
0
0
LINE
5
115
100
AcDbEntity
8
0
100
AcDbLine
10
-48.25
20
68
30
0
11
-48.250000000000014
21
77.000000000000014
31
0
0
LINE
5
116
100
AcDbEntity
8
0
100
AcDbLine
10
-48.250000000000014
20
77.000000000000014
30
0
11
-51.25
21
80
31
0
0
LINE
5
117
100
AcDbEntity
8
0
100
AcDbLine
10
-51.25
20
80
30
0
11
-55
21
80
31
0
0
LINE
5
118
100
AcDbEntity
8
0
100
AcDbLine
10
-55
20
80
30
0
11
-69.831418493091064
21
65.16858150690895
31
0
0
ARC
5
119
100
AcDbEntity
8
0
100
AcDbCircle
10
-67.71009814953139
20
63.047261163349297
30
0
40
3.0000000000000253
210
0
220
0
230
1
100
AcDbArc
50
135.00000000000031
51
215.40593177313906
0
ARC
5
120
100
AcDbEntity
8
0
100
AcDbCircle
10
-72.600505063388326
20
59.571067811865476
30
0
40
3.0000000000000004
210
0
220
0
230
1
100
AcDbArc
50
-45.000000000000199
51
35.405931773139784
0
LINE
5
121
100
AcDbEntity
8
0
100
AcDbLine
10
-70.479184719828694
20
57.44974746830583
30
0
11
-87.449747468305816
21
40.479184719828709
31
0
0
ARC
5
122
100
AcDbEntity
8
0
100
AcDbCircle
10
-89.571067811865476
20
42.60050506338834
30
0
40
3
210
0
220
0
230
1
100
AcDbArc
50
234.5940682268608
51
315.00000000000034
0
ARC
5
123
100
AcDbEntity
8
0
100
AcDbCircle
10
-93.047261163349319
20
37.710098149531412
30
0
40
3.0000000000000027
210
0
220
-0
230
1
100
AcDbArc
50
54.594068226859918
51
134.99999999999991
0
LINE
5
124
100
AcDbEntity
8
0
100
AcDbLine
10
-95.16858150690895
20
39.83141849309105
30
0
11
-110
21
25
31
0
0
LINE
5
125
100
AcDbEntity
8
0
100
AcDbLine
10
-110
20
25
30
0
11
-110
21
11.25
31
0
0
LINE
5
126
100
AcDbEntity
8
0
100
AcDbLine
10
-110
20
11.25
30
0
11
-107
21
8.2500000000000018
31
0
0
LINE
5
127
100
AcDbEntity
8
0
100
AcDbLine
10
-107
20
8.2500000000000018
30
0
11
-100
21
8.2500000000000107
31
0
0
ARC
5
128
100
AcDbEntity
8
0
100
AcDbCircle
10
-100
20
5
30
0
40
3.2500000000000107
210
0
220
0
230
1
100
AcDbArc
50
-90
51
90
0
LINE
5
129
100
AcDbEntity
8
0
100
AcDbLine
10
-100
20
1.7499999999999893
30
0
11
-107
21
1.7499999999999982
31
0
0
LINE
5
130
100
AcDbEntity
8
0
100
AcDbLine
10
-107
20
1.7499999999999982
30
0
11
-110
21
-1.25
31
0
0
LINE
5
131
100
AcDbEntity
8
0
100
AcDbLine
10
-110
20
-1.25
30
0
11
-109.99999938962964
21
-69.490254070908804
31
0
0
LINE
5
132
100
AcDbEntity
8
0
100
AcDbLine
10
-109.99999938962964
20
-69.490254070908804
30
0
11
-109.99999938962964
21
-70.690254070908793
31
0
0
LINE
5
133
100
AcDbEntity
8
0
100
AcDbLine
10
-109.99999938962964
20
-70.690254070908793
30
0
11
-110
21
-83.999999999999986
31
0
0
LINE
5
134
100
AcDbEntity
8
0
100
AcDbLine
10
-110
20
-83.999999999999986
30
0
11
-103.99999999999999
21
-90
31
0
0
LINE
5
135
100
AcDbEntity
8
0
100
AcDbLine
10
-103.99999999999999
20
-90
30
0
11
-99.416190552179117
21
-90
31
0
0
ARC
5
136
100
AcDbEntity
8
0
100
AcDbCircle
10
-99.416190552179131
20
-86.999999999999972
30
0
40
3.0000000000000249
210
-0
220
0
230
1
100
AcDbArc
50
270.00000000000023
51
350.40593177313912
0
ARC
5
137
100
AcDbEntity
8
0
100
AcDbCircle
10
-93.500110769079484
20
-88
30
0
40
3.0000000000000071
210
0
220
0
230
1
100
AcDbArc
50
90.00000000000027
51
170.4059317731396
0
LINE
5
138
100
AcDbEntity
8
0
100
AcDbLine
10
-93.500110769079498
20
-85
30
0
11
-79.500110769079527
21
-85.000000000000014
31
0
0
ARC
5
139
100
AcDbEntity
8
0
100
AcDbCircle
10
-79.500110769079498
20
-87.999999999999986
30
0
40
2.999999999999968
210
0
220
-0
230
1
100
AcDbArc
50
9.5940682268602266
51
90.00000000000054
0
ARC
5
140
100
AcDbEntity
8
0
100
AcDbCircle
10
-73.584030985979908
20
-87.000000000000014
30
0
40
2.9999999999999942
210
0
220
0
230
1
100
AcDbArc
50
189.5940682268602
51
270
0
LINE
5
141
100
AcDbEntity
8
0
100
AcDbLine
10
-73.584030985979908
20
-90
30
0
11
-69.000221538159053
21
-90
31
0
0
LINE
5
142
100
AcDbEntity
8
0
100
AcDbLine
10
-69.000221538159053
20
-90
30
0
11
-63.00022153815906
21
-83.999999999999986
31
0
0
LINE
5
143
100
AcDbEntity
8
0
100
AcDbLine
10
-63.00022153815906
20
-83.999999999999986
30
0
11
-63.00022153815906
21
-66.249999999999986
31
0
0
LINE
5
144
100
AcDbEntity
8
0
100
AcDbLine
10
-63.00022153815906
20
-66.249999999999986
30
0
11
-66.000221538159067
21
-63.249999999999993
31
0
0
LINE
5
145
100
AcDbEntity
8
0
100
AcDbLine
10
-66.000221538159067
20
-63.249999999999993
30
0
11
-78.000221538159053
21
-63.250000000000014
31
0
0
ARC
5
146
100
AcDbEntity
8
0
100
AcDbCircle
10
-78.000221538159053
20
-60
30
0
40
3.2500000000000018
210
0
220
-0
230
1
100
AcDbArc
50
90
51
270
0
LINE
5
147
100
AcDbEntity
8
0
100
AcDbLine
10
-78.000221538159053
20
-56.75
30
0
11
-66.000221538159067
21
-56.749999999999986
31
0
0
LINE
5
148
100
AcDbEntity
8
0
100
AcDbLine
10
-66.000221538159067
20
-56.749999999999986
30
0
11
-63.00022153815906
21
-53.75
31
0
0
LINE
5
149
100
AcDbEntity
8
0
100
AcDbLine
10
-63.00022153815906
20
-53.75
30
0
11
-63.000221538159082
21
-28.231182330665163
31
0
0
ARC
5
150
100
AcDbEntity
8
0
100
AcDbCircle
10
-57.000221538159046
20
-28.231182330665163
30
0
40
6.0000000000000133
210
0
220
0
230
1
100
AcDbArc
50
135.00000000000026
51
180
0
LINE
5
151
100
AcDbEntity
8
0
100
AcDbLine
10
-61.242862225278358
20
-23.988541643545886
30
0
11
-58.547482701508372
21
-21.293162119775886
31
0
0
ARC
5
152
100
AcDbEntity
8
0
100
AcDbCircle
10
-60.668803045067996
20
-19.171841776216244
30
0
40
2.9999999999999831
210
-0
220
0
230
1
100
AcDbArc
50
-45.000000000000256
51
35.405931773139848
0
ARC
5
153
100
AcDbEntity
8
0
100
AcDbCircle
10
-55.778396131211096
20
-15.695648424732408
30
0
40
2.9999999999999938
210
0
220
0
230
1
100
AcDbArc
50
134.99999999999977
51
215.4059317731396
0
LINE
5
154
100
AcDbEntity
8
0
100
AcDbLine
10
-57.899716474770727
20
-13.574328081172759
30
0
11
-45.171794413412854
21
-0.84640601981489816
31
0
0
ARC
5
155
100
AcDbEntity
8
0
100
AcDbCircle
10
-43.050474069853223
20
-2.967726363374533
30
0
40
2.9999999999999942
210
0
220
-0
230
1
100
AcDbArc
50
54.594068226860436
51
134.99999999999994
0
ARC
5
156
100
AcDbEntity
8
0
100
AcDbCircle
10
-39.574280718369401
20
1.922680550482387
30
0
40
2.9999999999999942
210
0
220
0
230
1
100
AcDbArc
50
234.59406822686054
51
315.00000000000017
0
LINE
5
157
100
AcDbEntity
8
0
100
AcDbLine
10
-37.452960374809756
20
-0.19863979307724855
30
0
11
-34.757580851039776
21
2.4967397306927364
31
0
0
ARC
5
158
100
AcDbEntity
8
0
100
AcDbCircle
10
-30.514940163920489
20
-1.7459009564265564
30
0
40
6.0000000000000071
210
0
220
0
230
1
100
AcDbArc
50
90.000000000000099
51
134.99999999999997
0
LINE
5
159
100
AcDbEntity
8
0
100
AcDbLine
10
-30.5149401639205
20
4.2540990435734507
30
0
11
-6.25
21
4.254099043573456
31
0
0
LINE
5
160
100
AcDbEntity
8
0
100
AcDbLine
10
-6.25
20
4.254099043573456
30
0
11
-3.25
21
7.2540990435734543
31
0
0
LINE
5
161
100
AcDbEntity
8
0
100
AcDbLine
10
-3.25
20
7.2540990435734543
30
0
11
-3.25
21
18
31
0
0
ARC
5
162
100
AcDbEntity
8
0
100
AcDbCircle
10
1.1102230246251565e-15
20
18
30
0
40
3.2499999999999991
210
0
220
0
230
1
100
AcDbArc
50
0
51
180
0
LINE
5
163
100
AcDbEntity
8
0
100
AcDbLine
10
3.25
20
18
30
0
11
3.2499999999999996
21
7.2540990435734543
31
0
0
LINE
5
164
100
AcDbEntity
8
0
100
AcDbLine
10
3.2499999999999996
20
7.2540990435734543
30
0
11
6.25
21
4.2540990435734471
31
0
0
LINE
5
165
100
AcDbEntity
8
0
100
AcDbLine
10
6.25
20
4.2540990435734471
30
0
11
30.514956457675435
21
4.254099043573456
31
0
0
ARC
5
166
100
AcDbEntity
8
0
100
AcDbCircle
10
30.514956457675432
20
-1.7459009564265693
30
0
40
6.0000000000000222
210
0
220
-0
230
1
100
AcDbArc
50
44.999999999999922
51
89.999999999999972
0
LINE
5
167
100
AcDbEntity
8
0
100
AcDbLine
10
34.757597144794737
20
2.4967397306927235
30
0
11
37.393627967238324
21
-0.13929109175087717
31
0
0
ARC
5
168
100
AcDbEntity
8
0
100
AcDbCircle
10
39.514948310797969
20
1.9820292518087521
30
0
40
2.9999999999999938
210
0
220
0
230
1
100
AcDbArc
50
224.99999999999977
51
305.40582019095393
0
ARC
5
169
100
AcDbEntity
8
0
100
AcDbCircle
10
42.991132138322534
20
-2.9083844318438645
30
0
40
3.0000000000000195
210
0
220
-0
230
1
100
AcDbArc
50
45.00000000000005
51
125.40582019095362
0
LINE
5
170
100
AcDbEntity
8
0
100
AcDbLine
10
45.112452481882187
20
-0.78706408828420815
30
0
11
57.899716474770727
21
-13.574328081172755
31
0
0
ARC
5
171
100
AcDbEntity
8
0
100
AcDbCircle
10
55.778396131211075
20
-15.695648424732408
30
0
40
3.0000000000000062
210
-0
220
0
230
1
100
AcDbArc
50
-35.405820190954643
51
45
0
ARC
5
172
100
AcDbEntity
8
0
100
AcDbCircle
10
60.668809814863636
20
-19.171832252257058
30
0
40
3.0000000000000044
210
0
220
0
230
1
100
AcDbArc
50
144.59417980904516
51
224.99999999999963
0
LINE
5
173
100
AcDbEntity
8
0
100
AcDbLine
10
58.547489471303976
20
-21.293152595816693
30
0
11
61.242878519033326
21
-23.988541643546082
31
0
0
ARC
5
174
100
AcDbEntity
8
0
100
AcDbCircle
10
57.000237831914042
20
-28.231182330665341
30
0
40
5.9999999999999876
210
0
220
0
230
1
100
AcDbArc
50
0
51
44.999999999999837
0
LINE
5
175
100
AcDbEntity
8
0
100
AcDbLine
10
63.000237831914028
20
-28.231182330665341
30
0
11
63.000237831914028
21
-53.750000000000014
31
0
0
LINE
5
176
100
AcDbEntity
8
0
100
AcDbLine
10
63.000237831914028
20
-53.750000000000014
30
0
11
66.000237831914035
21
-56.750000000000007
31
0
0
LINE
5
177
100
AcDbEntity
8
0
100
AcDbLine
10
66.000237831914035
20
-56.750000000000007
30
0
11
78.000237831914035
21
-56.750000000000007
31
0
0
ARC
5
178
100
AcDbEntity
8
0
100
AcDbCircle
10
78.000237831914035
20
-60
30
0
40
3.2499999999999929
210
0
220
0
230
1
100
AcDbArc
50
-90
51
90
0
LINE
5
179
100
AcDbEntity
8
0
100
AcDbLine
10
78.000237831914035
20
-63.249999999999993
30
0
11
66.000237831914035
21
-63.250000000000014
31
0
0
LINE
5
180
100
AcDbEntity
8
0
100
AcDbLine
10
66.000237831914035
20
-63.250000000000014
30
0
11
63.000237831914028
21
-66.250000000000014
31
0
0
LINE
5
181
100
AcDbEntity
8
0
100
AcDbLine
10
63.000237831914028
20
-66.250000000000014
30
0
11
63.000237831914028
21
-84
31
0
0
LINE
5
182
100
AcDbEntity
8
0
100
AcDbLine
10
63.000237831914028
20
-84
30
0
11
69.000237831914006
21
-90
31
0
0
LINE
5
183
100
AcDbEntity
8
0
100
AcDbLine
10
69.000237831914006
20
-90
30
0
11
73.500110769079498
21
-90
31
0
0
ARC
5
184
100
AcDbEntity
8
0
100
AcDbCircle
10
73.500110769079555
20
-87.000000000000014
30
0
40
2.9999999999999893
210
0
220
0
230
1
100
AcDbArc
50
269.99999999999886
51
350.40593177313951
0
ARC
5
185
100
AcDbEntity
8
0
100
AcDbCircle
10
79.416190552179103
20
-87.999999999999972
30
0
40
2.9999999999999716
210
0
220
-0
230
1
100
AcDbArc
50
89.99999999999946
51
170.40593177314022
0
LINE
5
186
100
AcDbEntity
8
0
100
AcDbLine
10
79.416190552179131
20
-85
30
0
11
93.584030985979908
21
-85
31
0
0
ARC
5
187
100
AcDbEntity
8
0
100
AcDbCircle
10
93.584030985979922
20
-87.999999999999986
30
0
40
2.9999999999999853
210
0
220
-0
230
1
100
AcDbArc
50
9.5940682268601893
51
90.00000000000027
0
ARC
5
188
100
AcDbEntity
8
0
100
AcDbCircle
10
99.500110769079569
20
-86.999999999999943
30
0
40
3.0000000000000497
210
0
220
0
230
1
100
AcDbArc
50
189.5940682268614
51
269.9999999999992
0
LINE
5
189
100
AcDbEntity
8
0
100
AcDbLine
10
99.500110769079527
20
-90
30
0
11
103.99999999999999
21
-90
31
0
0
LINE
5
190
100
AcDbEntity
8
0
100
AcDbLine
10
103.99999999999999
20
-90
30
0
11
110
21
-83.999999999999986
31
0
0
LINE
5
191
100
AcDbEntity
8
0
100
AcDbLine
10
110
20
-83.999999999999986
30
0
11
109.99999903077088
21
-70.690254070908793
31
0
0
LINE
5
192
100
AcDbEntity
8
0
100
AcDbLine
10
109.99999903077088
20
-70.690254070908793
30
0
11
109.99999903077088
21
-69.49025407090879
31
0
0
LINE
5
193
100
AcDbEntity
8
0
100
AcDbLine
10
109.99999903077088
20
-69.49025407090879
30
0
11
110
21
-1.25
31
0
0
LINE
5
194
100
AcDbEntity
8
0
100
AcDbLine
10
110
20
-1.25
30
0
11
107
21
1.7499999999999982
31
0
0
LINE
5
195
100
AcDbEntity
8
0
100
AcDbLine
10
107
20
1.7499999999999982
30
0
11
100
21
1.7499999999999893
31
0
0
ARC
5
196
100
AcDbEntity
8
0
100
AcDbCircle
10
100
20
5
30
0
40
3.2500000000000107
210
0
220
-0
230
1
100
AcDbArc
50
90
51
270
0
LINE
5
197
100
AcDbEntity
8
0
100
AcDbLine
10
100
20
8.2500000000000107
30
0
11
107
21
8.2500000000000018
31
0
0
LINE
5
198
100
AcDbEntity
8
0
100
AcDbLine
10
107
20
8.2500000000000018
30
0
11
110
21
11.25
31
0
0
LINE
5
199
100
AcDbEntity
8
0
100
AcDbLine
10
110
20
11.25
30
0
11
110
21
25
31
0
0
LINE
5
200
100
AcDbEntity
8
0
100
AcDbLine
10
110
20
25
30
0
11
95.227922061357873
21
39.772077938642134
31
0
0
ARC
5
201
100
AcDbEntity
8
0
100
AcDbCircle
10
93.106601717798227
20
37.65075759508251
30
0
40
2.9999999999999849
210
0
220
-0
230
1
100
AcDbArc
50
44.999999999999709
51
125.40593177313933
0
ARC
5
202
100
AcDbEntity
8
0
100
AcDbCircle
10
89.63040836631437
20
42.541164508939417
30
0
40
2.9999999999999876
210
0
220
0
230
1
100
AcDbArc
50
225.0000000000004
51
305.40593177314037
0
LINE
5
203
100
AcDbEntity
8
0
100
AcDbLine
10
87.509088022754753
20
40.419844165379772
30
0
11
70.479184719828694
21
57.449747468305844
31
0
0
ARC
5
204
100
AcDbEntity
8
0
100
AcDbCircle
10
72.600505063388312
20
59.57106781186549
30
0
40
2.9999999999999831
210
0
220
0
230
1
100
AcDbArc
50
144.59406822686032
51
225.0000000000004
0
ARC
5
205
100
AcDbEntity
8
0
100
AcDbCircle
10
67.710098149531433
20
63.047261163349305
30
0
40
2.999999999999976
210
-0
220
0
230
1
100
AcDbArc
50
-35.405931773139663
51
45.000000000000384
0
LINE
5
206
100
AcDbEntity
8
0
100
AcDbLine
10
69.83141849309105
20
65.16858150690895
30
0
11
55
21
80
31
0
0
LINE
5
207
100
AcDbEntity
8
0
100
AcDbLine
10
55
20
80
30
0
11
51.25
21
80
31
0
0
LINE
5
208
100
AcDbEntity
8
0
100
AcDbLine
10
51.25
20
80
30
0
11
48.249999999999993
21
77
31
0
0
LINE
5
209
100
AcDbEntity
8
0
100
AcDbLine
10
48.249999999999993
20
77
30
0
11
48.249999999999993
21
68
31
0
0
ARC
5
210
100
AcDbEntity
8
0
100
AcDbCircle
10
45
20
68
30
0
40
3.2499999999999929
210
0
220
0
230
1
100
AcDbArc
50
-180
51
0
0
LINE
5
211
100
AcDbEntity
8
0
100
AcDbLine
10
41.750000000000007
20
68
30
0
11
41.750000000000007
21
77.000000000000014
31
0
0
LINE
5
212
100
AcDbEntity
8
0
100
AcDbLine
10
41.750000000000007
20
77.000000000000014
30
0
11
38.750000000000007
21
80
31
0
0
LINE
5
213
100
AcDbEntity
8
0
100
AcDbLine
10
38.750000000000007
20
80
30
0
11
2.9999999999999982
21
80
31
0
0
LINE
5
214
100
AcDbEntity
8
0
100
AcDbLine
10
2.9999999999999982
20
80
30
0
11
2.9999999999999449
21
68.709095702724241
31
0
0
ARC
5
215
100
AcDbEntity
8
0
100
AcDbCircle
10
0.00022153815935843646
20
-31.245900816607019
30
0
40
99.999999999998266
210
0
220
-0
230
1
100
AcDbArc
50
74.305039181194829
51
88.280995668291283
0
LINE
5
216
100
AcDbEntity
8
0
100
AcDbLine
10
27.051799127974853
20
65.025653392836603
30
0
11
27.051799127974903
21
67.525528890646868
31
0
0
ARC
5
217
100
AcDbEntity
8
0
100
AcDbCircle
10
29.551799127974903
20
67.525528890646868
30
0
40
2.5
210
0
220
0
230
1
100
AcDbArc
50
0
51
180
0
LINE
5
218
100
AcDbEntity
8
0
100
AcDbLine
10
32.051799127974903
20
67.525528890646868
30
0
11
32.051799127975151
21
63.478416937620409
31
0
0
ARC
5
219
100
AcDbEntity
8
0
100
AcDbCircle
10
0.00022153815935843646
20
-31.245900816607019
30
0
40
99.999999999998877
210
0
220
-0
230
1
100
AcDbArc
50
28.64287004672493
51
71.30588031474818
0
LINE
5
220
100
AcDbEntity
8
0
100
AcDbLine
10
87.762677659770816
20
16.688964318302872
30
0
11
93.143068404210965
21
16.404602185787756
31
0
0
ARC
5
221
100
AcDbEntity
8
0
100
AcDbCircle
10
93.011123614666005
20
13.908086499373608
30
0
40
2.499999999999988
210
0
220
0
230
1
100
AcDbArc
50
-93.025357464385266
51
86.974642535614763
0
LINE
5
222
100
AcDbEntity
8
0
100
AcDbLine
10
92.879178825121045
20
11.411570812959466
30
0
11
90.269625044339762
21
11.549489843985699
31
0
0
SPLINE
5
223
100
AcDbEntity
8
0
100
AcDbSpline
70
0
71
3
72
12
73
8
74
0
42
0.000000001
43
0.0000000001
44
0.0000000001
40
0.19601452092880789
40
0.19601452092880789
40
0.19601452092880789
40
0.19601452092880789
40
1.0165896681154893
40
1.0165896681154893
40
2.5432542778944089
40
2.5432542778944089
40
5.1804997202516274
40
5.1804997202516274
40
5.1804997202516274
40
5.1804997202516274
10
90.269625044339762
20
11.549489843985699
30
0
10
91.254515324746009
20
8.9743739631160437
30
0
10
91.878864436607174
20
6.1869601779306693
30
0
10
92.819090199237991
20
-2.541301831807512
30
0
10
92.36899252684843
20
-8.7755611525965698
30
0
10
90.255355185721527
20
-26.560256431844358
30
0
10
88.000647951663481
20
-38.100237452455204
30
0
10
88.00022159857285
20
-51.086510167151403
30
0
0
ARC
5
224
100
AcDbEntity
8
0
100
AcDbCircle
10
10.000124946267359
20
-51.090256448121906
30
0
40
78.000096591888081
210
0
220
-0
230
1
100
AcDbArc
50
0
51
0.0027518695435239967
0
LINE
5
225
100
AcDbEntity
8
0
100
AcDbLine
10
88.000221538155444
20
-51.090255860052466
30
0
11
88.000230683922908
21
-67.090257574880198
31
0
0
ARC
5
226
100
AcDbEntity
8
0
100
AcDbCircle
10
89.000230683922751
20
-67.090257003269798
30
0
40
1.0000000000000178
210
0
220
0
230
1
100
AcDbArc
50
180.00003273417596
51
270.00003275086425
0
LINE
5
227
100
AcDbEntity
8
0
100
AcDbLine
10
89.000231255533166
20
-68.090257003269656
30
0
11
89.500229726683528
21
-68.090256717465309
31
0
0
ARC
5
228
100
AcDbEntity
8
0
100
AcDbCircle
10
89.500228869267914
20
-66.59025671746555
30
0
40
1.5
210
-0
220
0
230
1
100
AcDbArc
50
-89.999967249136049
51
3.2745308134428406e-05
0
LINE
5
229
100
AcDbEntity
8
0
100
AcDbLine
10
91.000228869267673
20
-66.590255860049936
30
0
11
91.000228662280193
21
-66.228142997402713
31
0
0
ARC
5
230
100
AcDbEntity
8
0
100
AcDbCircle
10
92.500228297657031
20
-65.590255002634493
30
0
40
1.6300000000000023
210
0
220
-0
230
1
100
AcDbArc
50
3.2745308134428406e-05
51
203.03804878998463
0
LINE
5
231
100
AcDbEntity
8
0
100
AcDbLine
10
94.130228297656771
20
-65.590254070909523
30
0
11
94.130231839132733
21
-69.49025407090879
31
0
0
LINE
5
232
100
AcDbEntity
8
0
100
AcDbLine
10
94.130231839132733
20
-69.49025407090879
30
0
11
94.130231839132733
21
-70.690254070908793
31
0
0
LINE
5
233
100
AcDbEntity
8
0
100
AcDbLine
10
94.130231839132733
20
-70.690254070908793
30
0
11
94.130233442150413
21
-74.59025407090806
31
0
0
ARC
5
234
100
AcDbEntity
8
0
100
AcDbCircle
10
92.500233442150673
20
-74.590255002633029
30
0
40
1.6299999999999859
210
0
220
0
230
1
100
AcDbArc
50
-203.03798561699401
51
3.2745308134428406e-05
0
LINE
5
235
100
AcDbEntity
8
0
100
AcDbLine
10
91.000233103454349
20
-73.952368661729835
30
0
11
91.000234144581853
21
-73.590256624472815
31
0
0
ARC
5
236
100
AcDbEntity
8
0
100
AcDbCircle
10
89.500234144581853
20
-73.590256717463674
30
0
40
1.5000000000000062
210
0
220
-0
230
1
100
AcDbArc
50
3.5201989238640496e-06
51
90.00003275086398
0
LINE
5
237
100
AcDbEntity
8
0
100
AcDbLine
10
89.500233287166239
20
-72.090256717463902
30
0
11
89.000233541974779
21
-72.090257003268974
31
0
0
ARC
5
238
100
AcDbEntity
8
0
100
AcDbCircle
10
89.000234113585179
20
-73.090257003268817
30
0
40
1
210
0
220
0
230
1
100
AcDbArc
50
90.00003275086344
51
180.00003273417596
0
LINE
5
239
100
AcDbEntity
8
0
100
AcDbLine
10
88.00023411358535
20
-73.090257574879217
30
0
11
88.000237831909729
21
-79.595255297418589
31
0
0
ARC
5
240
100
AcDbEntity
8
0
100
AcDbCircle
10
86.500237831911875
20
-79.595256152952487
30
0
40
1.4999999999980982
210
0
220
0
230
1
100
AcDbArc
50
-179.99996732154185
51
3.2678458167185012e-05
0
LINE
5
241
100
AcDbEntity
8
0
100
AcDbLine
10
85.000237831914021
20
-79.595257008486413
30
0
11
85.000221538159053
21
-51.090256445862593
31
0
0
ARC
5
242
100
AcDbEntity
8
0
100
AcDbCircle
10
10.000221538159142
20
-51.090256445862494
30
0
40
74.999999999999915
210
-0
220
0
230
1
100
AcDbArc
50
0
51
63.612200038756491
0
ARC
5
243
100
AcDbEntity
8
0
100
AcDbCircle
10
0.00022153815904868424
20
-71.245900816608838
30
0
40
97.499999999999915
210
0
220
-0
230
1
100
AcDbArc
50
63.612200038756548
51
90.003068431786815
0
ARC
5
244
100
AcDbEntity
8
0
100
AcDbCircle
10
-0.00022153815904868424
20
-71.245900816608838
30
0
40
97.499999977278065
210
0
220
0
230
1
100
AcDbArc
50
90.00280805842273
51
116.3877999612434
0
ARC
5
245
100
AcDbEntity
8
0
100
AcDbCircle
10
-10.000221538159142
20
-51.090256445862494
30
0
40
75
210
0
220
0
230
1
100
AcDbArc
50
116.38779996124346
51
180
0
LINE
5
246
100
AcDbEntity
8
0
100
AcDbLine
10
-85.000221538159138
20
-51.090256445862529
30
0
11
-85.000237831914006
21
-79.595257008486385
31
0
0
ARC
5
247
100
AcDbEntity
8
0
100
AcDbCircle
10
-86.500237831911875
20
-79.595256152952487
30
0
40
1.499999999998116
210
0
220
0
230
1
100
AcDbArc
50
179.99996732154185
51
359.99996732154176
0
LINE
5
248
100
AcDbEntity
8
0
100
AcDbLine
10
-88.000237831909743
20
-79.595255297418589
30
0
11
-88.00023439939055
21
-73.590257574879146
31
0
0
ARC
5
249
100
AcDbEntity
8
0
100
AcDbCircle
10
-89.500234399390308
20
-73.590256717463532
30
0
40
1.5
210
-0
220
0
230
1
100
AcDbArc
50
-3.274530815614419e-05
51
155.9701228745902
0
LINE
5
250
100
AcDbEntity
8
0
100
AcDbLine
10
-90.87023425776195
20
-72.979437277643811
30
0
11
-90.870234206575617
21
-74.590255103682637
31
0
0
ARC
5
251
100
AcDbEntity
8
0
100
AcDbCircle
10
-92.500234206575669
20
-74.590255002632574
30
0
40
1.6299999999999935
210
0
220
0
230
1
100
AcDbArc
50
179.99999414682276
51
359.9999964798011
0
LINE
5
252
100
AcDbEntity
8
0
100
AcDbLine
10
-94.130234206575651
20
-74.590254835332587
30
0
11
-94.130231480273977
21
-70.690254070908793
31
0
0
LINE
5
253
100
AcDbEntity
8
0
100
AcDbLine
10
-94.130231480273977
20
-70.690254070908793
30
0
11
-94.130231480273977
21
-69.490254070908804
31
0
0
LINE
5
254
100
AcDbEntity
8
0
100
AcDbLine
10
-94.130231480273977
20
-69.490254070908804
30
0
11
-94.130228297656771
21
-65.590254046620643
31
0
0
ARC
5
255
100
AcDbEntity
8
0
100
AcDbCircle
10
-92.500228297657031
20
-65.590255002634478
30
0
40
1.6300000000000203
210
0
220
0
230
1
100
AcDbArc
50
-3.274530815614419e-05
51
179.99996640859081
0
LINE
5
256
100
AcDbEntity
8
0
100
AcDbLine
10
-90.870228297657277
20
-65.590255934359462
30
0
11
-90.870229218418331
21
-67.2010750565221
31
0
0
ARC
5
257
100
AcDbEntity
8
0
100
AcDbCircle
10
-89.500228869267914
20
-66.59025671746555
30
0
40
1.5000000000000102
210
0
220
0
230
1
100
AcDbArc
50
204.0298310895852
51
359.99990885391492
0
LINE
5
258
100
AcDbEntity
8
0
100
AcDbLine
10
-88.000228869269804
20
-66.590259103730688
30
0
11
-88.000221538155387
21
-51.090255860010728
31
0
0
ARC
5
259
100
AcDbEntity
8
0
100
AcDbCircle
10
-10.00018462964599
20
-51.090256447028821
30
0
40
78.000036908509401
210
0
220
0
230
1
100
AcDbArc
50
179.99724812926448
51
180
0
SPLINE
5
260
100
AcDbEntity
8
0
100
AcDbSpline
70
0
71
3
72
14
73
10
74
0
42
0.000000001
43
0.0000000001
44
0.0000000001
40
0
40
0
40
0
40
0
40
3.6874896674628008
40
3.6874896674628008
40
5.4219863059535625
40
5.4219863059535625
40
6.2178125715240116
40
6.2178125715240116
40
6.7528653672392664
40
6.7528653672392664
40
6.7528653672392664
40
6.7528653672392664
10
-88.000221598572836
20
-51.086510167163546
30
0
10
-88.000625145878701
20
-38.794877948911989
30
0
10
-90.050967740994778
20
-27.640574205844146
30
0
10
-92.037986307824227
20
-11.795579171635925
30
0
10
-92.637033854085246
20
-5.872712457368813
30
0
10
-92.377723826694591
20
1.9297955807178901
30
0
10
-92.135737182334253
20
4.4030842318249306
30
0
10
-91.304444301467115
20
8.4318144153518126
30
0
10
-90.85716550785888
20
10.013297843964493
30
0
10
-90.269615903292717
20
11.549513744336018
30
0
0
LINE
5
261
100
AcDbEntity
8
0
100
AcDbLine
10
-90.269615903292717
20
11.549513744336018
30
0
11
-90.383106215026032
21
11.543515602504648
31
0
0
LINE
5
262
100
AcDbEntity
8
0
100
AcDbLine
10
-90.383106215026032
20
11.543515602504648
30
0
11
-92.879621901440004
21
11.411570812959475
31
0
0
ARC
5
263
100
AcDbEntity
8
0
100
AcDbCircle
10
-93.011566690985035
20
13.908086499373645
30
0
40
2.5000000000000204
210
0
220
0
230
1
100
AcDbArc
50
93.025357464386829
51
273.02535746438684
0
LINE
5
264
100
AcDbEntity
8
0
100
AcDbLine
10
-93.143511480530066
20
16.404602185787816
30
0
11
-87.762664489320343
21
16.68898843166378
31
0
0
ARC
5
265
100
AcDbEntity
8
0
100
AcDbCircle
10
-0.00022153815904424334
20
-31.245900816608803
30
0
40
100.00000000000003
210
0
220
0
230
1
100
AcDbArc
50
108.69438768848174
51
151.35711421084889
0
LINE
5
266
100
AcDbEntity
8
0
100
AcDbLine
10
-32.052242204293051
20
63.478267014086462
30
0
11
-32.052242204293009
21
67.525528890646768
31
0
0
ARC
5
267
100
AcDbEntity
8
0
100
AcDbCircle
10
-29.552242204293009
20
67.525528890646768
30
0
40
2.5
210
0
220
0
230
1
100
AcDbArc
50
0
51
180
0
LINE
5
268
100
AcDbEntity
8
0
100
AcDbLine
10
-27.052242204293009
20
67.525528890646768
30
0
11
-27.052242204293044
21
65.025528890646854
31
0
0
ARC
5
269
100
AcDbEntity
8
0
100
AcDbCircle
10
-0.00022153815904424334
20
-31.245900816608803
30
0
40
100.00000000000001
210
0
220
0
230
1
100
AcDbArc
50
91.719004331708945
51
105.69522451476031
0
ENDSEC
0
SECTION
2
OBJECTS
0
DICTIONARY
5
C
100
AcDbDictionary
3
ACAD_GROUP
350
D
3
ACAD_MLINESTYLE
350
17
0
DICTIONARY
5
D
100
AcDbDictionary
0
DICTIONARY
5
1A
330
C
100
AcDbDictionary
0
DICTIONARY
5
17
100
AcDbDictionary
0
ENDSEC
0
EOF
