0
SECTION
2
HEADER
9
$INSUNITS
70
4
9
$ACADVER
1
AC1014
9
$HANDSEED
5
FFFF
0
ENDSEC
0
SECTION
2
TABLES
0
TABLE
2
VPORT
5
8
100
AcDbSymbolTable
0
ENDTAB
0
TABLE
2
LTYPE
5
5
100
AcDbSymbolTable
0
LTYPE
5
14
100
AcDbSymbolTableRecord
100
AcDbLinetypeTableRecord
2
BYBLOCK
70
0
0
LTYPE
5
15
100
AcDbSymbolTableRecord
100
AcDbLinetypeTableRecord
2
BYLAYER
70
0
0
ENDTAB
0
TABLE
2
LAYER
5
2
100
AcDbSymbolTable
70
2
0
LAYER
5
50
100
AcDbSymbolTableRecord
100
AcDbLayerTableRecord
2
0
70
0
6
CONTINUOUS
0
ENDTAB
0
TABLE
2
STYLE
5
3
100
AcDbSymbolTable
70
1
0
STYLE
5
11
100
AcDbSymbolTableRecord
100
AcDbTextStyleTableRecord
2
STANDARD
70
0
0
ENDTAB
0
TABLE
2
VIEW
5
6
100
AcDbSymbolTable
70
0
0
ENDTAB
0
TABLE
2
UCS
5
7
100
AcDbSymbolTable
70
0
0
ENDTAB
0
TABLE
2
APPID
5
9
100
AcDbSymbolTable
70
2
0
APPID
5
12
100
AcDbSymbolTableRecord
100
AcDbRegAppTableRecord
2
ACAD
70
0
0
ENDTAB
0
TABLE
2
DIMSTYLE
5
A
100
AcDbSymbolTable
70
1
0
ENDTAB
0
TABLE
2
BLOCK_RECORD
5
1
100
AcDbSymbolTable
70
1
0
BLOCK_RECORD
5
1F
100
AcDbSymbolTableRecord
100
AcDbBlockTableRecord
2
*MODEL_SPACE
0
BLOCK_RECORD
5
1B
100
AcDbSymbolTableRecord
100
AcDbBlockTableRecord
2
*PAPER_SPACE
0
ENDTAB
0
ENDSEC
0
SECTION
2
BLOCKS
0
BLOCK
5
20
100
AcDbEntity
100
AcDbBlockBegin
2
*MODEL_SPACE
0
ENDBLK
5
21
100
AcDbEntity
100
AcDbBlockEnd
0
BLOCK
5
1C
100
AcDbEntity
100
AcDbBlockBegin
2
*PAPER_SPACE
0
ENDBLK
5
1D
100
AcDbEntity
100
AcDbBlockEnd
0
ENDSEC
0
SECTION
2
ENTITIES
0
CIRCLE
5
100
100
AcDbEntity
8
0
100
AcDbCircle
10
72.426849648544703
20
13.740069085489715
30
0
40
3.2500000000000018
210
0
220
-0
230
1
0
CIRCLE
5
101
100
AcDbEntity
8
0
100
AcDbCircle
10
-16.999999999998387
20
74.000000000000369
30
0
40
3.2499999999999973
210
0
220
-0
230
1
0
CIRCLE
5
102
100
AcDbEntity
8
0
100
AcDbCircle
10
-56.661922916030221
20
-2.0248576470235271
30
0
40
3.2500000000000018
210
0
220
-0
230
1
0
CIRCLE
5
103
100
AcDbEntity
8
0
100
AcDbCircle
10
-72.426849648544405
20
13.740069085491296
30
0
40
3.2500000000000018
210
0
220
-0
230
1
0
CIRCLE
5
104
100
AcDbEntity
8
0
100
AcDbCircle
10
17
20
74
30
0
40
3.2499999999999996
210
0
220
-0
230
1
0
CIRCLE
5
105
100
AcDbEntity
8
0
100
AcDbCircle
10
56.661922916030186
20
-2.0248576470247635
30
0
40
3.2500000000000018
210
0
220
-0
230
1
0
CIRCLE
5
106
100
AcDbEntity
8
0
100
AcDbCircle
10
74.554577635451992
20
44.495237081003069
30
0
40
3.2500000000000018
210
0
220
-0
230
1
0
CIRCLE
5
107
100
AcDbEntity
8
0
100
AcDbCircle
10
-16.999999999998966
20
47.458498675858053
30
0
40
3.2500000000000018
210
0
220
-0
230
1
0
CIRCLE
5
108
100
AcDbEntity
8
0
100
AcDbCircle
10
-98.999999307595715
20
-49.999999999997861
30
0
40
3.2499999999999929
210
0
220
-0
230
1
0
CIRCLE
5
109
100
AcDbEntity
8
0
100
AcDbCircle
10
-74.554577635451011
20
44.495237081004689
30
0
40
3.2500000000000018
210
0
220
-0
230
1
0
CIRCLE
5
110
100
AcDbEntity
8
0
100
AcDbCircle
10
17
20
47.458498675857683
30
0
40
3.2499999999999996
210
0
220
-0
230
1
0
CIRCLE
5
111
100
AcDbEntity
8
0
100
AcDbCircle
10
98.999999307594621
20
-50.000000000000014
30
0
40
3.2499999999999929
210
0
220
-0
230
1
0
LWPOLYLINE
5
112
100
AcDbEntity
8
0
100
AcDbPolyline
90
62
70
1
43
0.0
10
-63.00022153815906
20
-83.999999999999986
10
-69.000221538159053
20
-90
10
-103.99999999999999
20
-90
10
-110
20
-83.999999999999986
10
-110
20
-1.25
10
-107
20
1.7500000000000071
10
-100
20
1.7499999999999978
42
0.99999999999999989
10
-100
20
8.2500000000000107
10
-107
20
8.2499999999999929
10
-110
20
11.25
10
-110
20
25
10
-55
20
80
10
-51.25
20
80
10
-48.25
20
77.000000000000028
10
-48.25
20
68
42
0.99999999999999989
10
-41.75
20
68
10
-41.75
20
77
10
-38.75
20
80
10
38.75
20
80
10
41.750000000000007
20
77.000000000000028
10
41.750000000000007
20
68
42
0.99999999999999989
10
48.249999999999993
20
68
10
48.249999999999993
20
77
10
51.25
20
80
10
55
20
80
10
110
20
25
10
110
20
11.25
10
107
20
8.2499999999999929
10
100
20
8.2500000000000018
42
0.99999999999999989
10
100
20
1.7499999999999893
10
107
20
1.7499999999999893
10
110
20
-1.25
10
110
20
-83.999999999999986
10
103.99999999999999
20
-90
10
69.000237831914006
20
-90
10
63.000237831914028
20
-84
10
63.000237831914028
20
-66.250000000000014
10
66.000237831914035
20
-63.250000000000014
10
78.000237831914035
20
-63.25
42
0.99999999999999989
10
78.000237831914035
20
-56.750000000000007
10
66.000237831914035
20
-56.750000000000007
10
63.000237831914028
20
-53.750000000000007
10
63.000237831914028
20
-28.231182330665341
42
0.19891236737965717
10
61.24287851903334
20
-23.988541643546082
10
34.757597144794737
20
2.4967397306927279
42
0.19891236737965981
10
30.514956457675435
20
4.2540990435734471
10
6.25
20
4.2540990435734471
10
3.2500000000000018
20
7.2540990435734543
10
3.25
20
18
42
0.99999999999999989
10
-3.2500000000000018
20
18.000000000000007
10
-3.2500000000000018
20
7.2540990435734543
10
-6.25
20
4.2540990435734471
10
-30.5149401639205
20
4.2540990435734551
42
0.19891236737965795
10
-34.757580851039783
20
2.4967397306927275
10
-61.242862225278365
20
-23.988541643545879
42
0.19891236737966081
10
-63.00022153815906
20
-28.231182330665163
10
-63.00022153815906
20
-53.75
10
-66.000221538159067
20
-56.75
10
-78.000221538159053
20
-56.750000000000007
42
0.99999999999999989
10
-78.000221538159053
20
-63.25
10
-66.000221538159067
20
-63.249999999999993
10
-63.00022153815906
20
-66.249999999999986
0
ENDSEC
0
SECTION
2
OBJECTS
0
DICTIONARY
5
C
100
AcDbDictionary
3
ACAD_GROUP
350
D
3
ACAD_MLINESTYLE
350
17
0
DICTIONARY
5
D
100
AcDbDictionary
0
DICTIONARY
5
1A
330
C
100
AcDbDictionary
0
DICTIONARY
5
17
100
AcDbDictionary
0
ENDSEC
0
EOF
