  0
SECTION
  2
HEADER
  9
$ACADVER
  1
AC1015
  9
$ACADMAINTVER
 70
     6
  9
$DWGCODEPAGE
  3
ANSI_1252
  9
$INSBASE
 10
0.0
 20
0.0
 30
0.0
  9
$EXTMIN
 10
0.0
 20
0.0
 30
0.0
  9
$EXTMAX
 10
500.0
 20
500.0
 30
0.0
  9
$LIMMIN
 10
0.0
 20
0.0
  9
$LIMMAX
 10
500.0
 20
500.0
  9
$ORTHOMODE
 70
     0
  9
$REGENMODE
 70
     1
  9
$FILLMODE
 70
     1
  9
$QTEXTMODE
 70
     0
  9
$MIRRTEXT
 70
     1
  9
$LTSCALE
 40
1.0
  9
$ATTMODE
 70
     1
  9
$TEXTSIZE
 40
3.5
  9
$TRACEWID
 40
1.0
  9
$TEXTSTYLE
  7
Standard
  9
$CLAYER
  8
0
  9
$CELTYPE
  6
ByLayer
  9
$CECOLOR
 62
   256
  9
$CELTSCALE
 40
1.0
  9
$DISPSILH
 70
     0
  9
$DIMSCALE
 40
1.0
  9
$DIMASZ
 40
3.302
  9
$DIMEXO
 40
1.0
  9
$DIMDLI
 40
3.75
  9
$DIMRND
 40
0.0
  9
$DIMDLE
 40
0.0
  9
$DIMEXE
 40
1.0
  9
$DIMTP
 40
0.0
  9
$DIMTM
 40
0.0
  9
$DIMTXT
 40
3.5
  9
$DIMCEN
 40
2.5
  9
$DIMTSZ
 40
0.0
  9
$DIMTOL
 70
     0
  9
$DIMLIM
 70
     0
  9
$DIMTIH
 70
     1
  9
$DIMTOH
 70
     1
  9
$DIMSE1
 70
     0
  9
$DIMSE2
 70
     0
  9
$DIMTAD
 70
     1
  9
$DIMZIN
 70
     1
  9
$DIMBLK
  1

  9
$DIMASO
 70
     1
  9
$DIMSHO
 70
     1
  9
$DIMPOST
  1

  9
$DIMAPOST
  1

  9
$DIMALT
 70
     0
  9
$DIMALTD
 70
     3
  9
$DIMALTF
 40
0.0393700787
  9
$DIMLFAC
 40
1.0
  9
$DIMTOFL
 70
     1
  9
$DIMTVP
 40
0.0
  9
$DIMTIX
 70
     0
  9
$DIMSOXD
 70
     0
  9
$DIMSAH
 70
     0
  9
$DIMBLK1
  1

  9
$DIMBLK2
  1

  9
$DIMSTYLE
  2
ISO-25
  9
$DIMCLRD
 70
     0
  9
$DIMCLRE
 70
     0
  9
$DIMCLRT
 70
     0
  9
$DIMTFAC
 40
1.0
  9
$DIMGAP
 40
1.524
  9
$DIMJUST
 70
     0
  9
$DIMSD1
 70
     0
  9
$DIMSD2
 70
     0
  9
$DIMTOLJ
 70
     0
  9
$DIMTZIN
 70
     1
  9
$DIMALTZ
 70
     0
  9
$DIMALTTZ
 70
     0
  9
$DIMUPT
 70
     0
  9
$DIMDEC
 70
     2
  9
$DIMTDEC
 70
     2
  9
$DIMALTU
 70
     2
  9
$DIMALTTD
 70
     3
  9
$DIMTXSTY
  7
Standard
  9
$DIMAUNIT
 70
     0
  9
$DIMADEC
 70
     2
  9
$DIMALTRND
 40
0.0
  9
$DIMAZIN
 70
     0
  9
$DIMDSEP
 70
    44
  9
$DIMATFIT
 70
     3
  9
$DIMFRAC
 70
     0
  9
$DIMLDRBLK
  1

  9
$DIMLUNIT
 70
     2
  9
$DIMLWD
 70
    -2
  9
$DIMLWE
 70
    -2
  9
$DIMTMOVE
 70
     0
  9
$LUNITS
 70
     2
  9
$LUPREC
 70
     2
  9
$SKETCHINC
 40
1.0
  9
$FILLETRAD
 40
10.0
  9
$AUNITS
 70
     0
  9
$AUPREC
 70
     2
  9
$MENU
  1
.
  9
$ELEVATION
 40
0.0
  9
$PELEVATION
 40
0.0
  9
$THICKNESS
 40
0.0
  9
$LIMCHECK
 70
     0
  9
$CHAMFERA
 40
0.0
  9
$CHAMFERB
 40
0.0
  9
$CHAMFERC
 40
0.0
  9
$CHAMFERD
 40
0.0
  9
$SKPOLY
 70
     0
  9
$TDCREATE
 40
2458922.693499583
  9
$TDUCREATE
 40
2458922.651832917
  9
$TDUPDATE
 40
2458922.693500116
  9
$TDUUPDATE
 40
2458922.651833449
  9
$TDINDWG
 40
0.0000000116
  9
$TDUSRTIMER
 40
0.0000000116
  9
$USRTIMER
 70
     1
  9
$ANGBASE
 50
0.0
  9
$ANGDIR
 70
     0
  9
$PDMODE
 70
     0
  9
$PDSIZE
 40
-1.0
  9
$PLINEWID
 40
0.0
  9
$SPLFRAME
 70
     0
  9
$SPLINETYPE
 70
     6
  9
$SPLINESEGS
 70
     8
  9
$HANDSEED
  5
89
  9
$SURFTAB1
 70
     6
  9
$SURFTAB2
 70
     6
  9
$SURFTYPE
 70
     6
  9
$SURFU
 70
     6
  9
$SURFV
 70
     6
  9
$UCSBASE
  2

  9
$UCSNAME
  2

  9
$UCSORG
 10
0.0
 20
0.0
 30
0.0
  9
$UCSXDIR
 10
1.0
 20
0.0
 30
0.0
  9
$UCSYDIR
 10
0.0
 20
1.0
 30
0.0
  9
$UCSORTHOREF
  2

  9
$UCSORTHOVIEW
 70
     0
  9
$UCSORGTOP
 10
0.0
 20
0.0
 30
0.0
  9
$UCSORGBOTTOM
 10
0.0
 20
0.0
 30
0.0
  9
$UCSORGLEFT
 10
0.0
 20
0.0
 30
0.0
  9
$UCSORGRIGHT
 10
0.0
 20
0.0
 30
0.0
  9
$UCSORGFRONT
 10
0.0
 20
0.0
 30
0.0
  9
$UCSORGBACK
 10
0.0
 20
0.0
 30
0.0
  9
$PUCSBASE
  2

  9
$PUCSNAME
  2

  9
$PUCSORG
 10
0.0
 20
0.0
 30
0.0
  9
$PUCSXDIR
 10
1.0
 20
0.0
 30
0.0
  9
$PUCSYDIR
 10
0.0
 20
1.0
 30
0.0
  9
$PUCSORTHOREF
  2

  9
$PUCSORTHOVIEW
 70
     0
  9
$PUCSORGTOP
 10
0.0
 20
0.0
 30
0.0
  9
$PUCSORGBOTTOM
 10
0.0
 20
0.0
 30
0.0
  9
$PUCSORGLEFT
 10
0.0
 20
0.0
 30
0.0
  9
$PUCSORGRIGHT
 10
0.0
 20
0.0
 30
0.0
  9
$PUCSORGFRONT
 10
0.0
 20
0.0
 30
0.0
  9
$PUCSORGBACK
 10
0.0
 20
0.0
 30
0.0
  9
$USERI1
 70
     0
  9
$USERI2
 70
     0
  9
$USERI3
 70
     0
  9
$USERI4
 70
     0
  9
$USERI5
 70
     0
  9
$USERR1
 40
0.0
  9
$USERR2
 40
0.0
  9
$USERR3
 40
0.0
  9
$USERR4
 40
0.0
  9
$USERR5
 40
0.0
  9
$WORLDVIEW
 70
     1
  9
$SHADEDGE
 70
     3
  9
$SHADEDIF
 70
    70
  9
$TILEMODE
 70
     1
  9
$MAXACTVP
 70
    64
  9
$PINSBASE
 10
0.0
 20
0.0
 30
0.0
  9
$PLIMCHECK
 70
     0
  9
$PEXTMIN
 10
1.0000000000E+20
 20
1.0000000000E+20
 30
1.0000000000E+20
  9
$PEXTMAX
 10
-1.0000000000E+20
 20
-1.0000000000E+20
 30
-1.0000000000E+20
  9
$PLIMMIN
 10
0.0
 20
0.0
  9
$PLIMMAX
 10
420.0
 20
297.0
  9
$UNITMODE
 70
     0
  9
$VISRETAIN
 70
     1
  9
$PLINEGEN
 70
     0
  9
$PSLTSCALE
 70
     1
  9
$TREEDEPTH
 70
  3020
  9
$CMLSTYLE
  2
Standard
  9
$CMLJUST
 70
     0
  9
$CMLSCALE
 40
20.0
  9
$PROXYGRAPHICS
 70
     1
  9
$MEASUREMENT
 70
     1
  9
$CELWEIGHT
370
    -1
  9
$ENDCAPS
280
     0
  9
$JOINSTYLE
280
     0
  9
$LWDISPLAY
290
     1
  9
$INSUNITS
 70
     4
  9
$HYPERLINKBASE
  1

  9
$STYLESHEET
  1

  9
$XEDIT
290
     1
  9
$CEPSNTYPE
380
     0
  9
$PSTYLEMODE
290
     1
  9
$FINGERPRINTGUID
  2
{6281f515-52e0-413a-86a2-dfa9d79399c9}
  9
$VERSIONGUID
  2
{FAEB1C32-E019-11D5-929B-00C0DF256EC4}
  9
$EXTNAMES
290
     1
  9
$PSVPSCALE
 40
0.0
  9
$OLESTARTUP
290
     0
  0
ENDSEC
  0
SECTION
  2
CLASSES
  0
CLASS
  1
ACDBDICTIONARYWDFLT
  2
AcDbDictionaryWithDefault
  3
ObjectDBX Classes
 90
        0
280
     0
281
     0
  0
CLASS
  1
VISUALSTYLE
  2
AcDbVisualStyle
  3
ObjectDBX Classes
 90
     4095
280
     0
281
     0
  0
CLASS
  1
MATERIAL
  2
AcDbMaterial
  3
ObjectDBX Classes
 90
     1153
280
     0
281
     0
  0
CLASS
  1
SCALE
  2
AcDbScale
  3
ObjectDBX Classes
 90
     1153
280
     0
281
     0
  0
CLASS
  1
TABLESTYLE
  2
AcDbTableStyle
  3
ObjectDBX Classes
 90
     4095
280
     0
281
     0
  0
CLASS
  1
MLEADERSTYLE
  2
AcDbMLeaderStyle
  3
ACDB_MLEADERSTYLE_CLASS
 90
     4095
280
     0
281
     0
  0
CLASS
  1
SUN
  2
AcDbSun
  3
SCENEOE
 90
     1153
280
     0
281
     0
  0
CLASS
  1
ACDBPLACEHOLDER
  2
AcDbPlaceHolder
  3
ObjectDBX Classes
 90
        0
280
     0
281
     0
  0
CLASS
  1
LAYOUT
  2
AcDbLayout
  3
ObjectDBX Classes
 90
        0
280
     0
281
     0
  0
ENDSEC
  0
SECTION
  2
TABLES
  0
TABLE
  2
VPORT
  5
8
330
0
100
AcDbSymbolTable
 70
     1
  0
VPORT
  5
29
330
8
100
AcDbSymbolTableRecord
100
AcDbViewportTableRecord
  2
*Active
 70
     0
 10
0.0
 20
0.0
 11
1.0
 21
1.0
 12
250.0
 22
250.0
 13
0.0
 23
0.0
 14
10.0
 24
10.0
 15
10.0
 25
10.0
 16
0.0
 26
0.0
 36
1.0
 17
0.0
 27
0.0
 37
0.0
 40
500.0
 41
1.0
 42
50.0
 43
0.0
 44
0.0
 50
0.0
 51
0.0
 71
     0
 72
  2000
 73
     1
 74
     3
 75
     0
 76
     0
 77
     0
 78
     0
281
     0
 65
     1
110
0.0
120
0.0
130
0.0
111
1.0
121
0.0
131
0.0
112
0.0
122
1.0
132
0.0
 79
     0
146
0.0
  0
ENDTAB
  0
TABLE
  2
LTYPE
  5
5
330
0
100
AcDbSymbolTable
 70
     6
  0
LTYPE
  5
14
330
5
100
AcDbSymbolTableRecord
100
AcDbLinetypeTableRecord
  2
ByBlock
 70
     0
  3

 72
    65
 73
     0
 40
0.0
  0
LTYPE
  5
15
330
5
100
AcDbSymbolTableRecord
100
AcDbLinetypeTableRecord
  2
ByLayer
 70
     0
  3

 72
    65
 73
     0
 40
0.0
  0
LTYPE
  5
16
330
5
100
AcDbSymbolTableRecord
100
AcDbLinetypeTableRecord
  2
Continuous
 70
     0
  3
Solid line
 72
    65
 73
     0
 40
0.0
  0
LTYPE
  5
6E
330
5
100
AcDbSymbolTableRecord
100
AcDbLinetypeTableRecord
  2
HIDDEN
 70
     0
  3
Hidden __ __ __ __ __ __ __ __ __ __ __ __ __ __
 72
    65
 73
     2
 40
1.905
 49
1.27
 74
     0
 49
-0.635
 74
     0
  0
LTYPE
  5
6F
330
5
100
AcDbSymbolTableRecord
100
AcDbLinetypeTableRecord
  2
PHANTOM
 70
     0
  3
Phantom ______  __  __  ______  __  __  ______
 72
    65
 73
     6
 40
12.7
 49
6.35
 74
     0
 49
-1.27
 74
     0
 49
1.27
 74
     0
 49
-1.27
 74
     0
 49
1.27
 74
     0
 49
-1.27
 74
     0
  0
LTYPE
  5
70
330
5
100
AcDbSymbolTableRecord
100
AcDbLinetypeTableRecord
  2
CENTER
 70
     0
  3
Center ____ _ ____ _ ____ _ ____ _ ____ _ ____
 72
    65
 73
     4
 40
10.16
 49
6.35
 74
     0
 49
-1.27
 74
     0
 49
1.27
 74
     0
 49
-1.27
 74
     0
  0
LTYPE
  5
71
330
5
100
AcDbSymbolTableRecord
100
AcDbLinetypeTableRecord
  2
CENTERX2
 70
     0
  3
Center (2x) ________  __  ________  __  _____
 72
    65
 73
     4
 40
20.32
 49
12.7
 74
     0
 49
-2.54
 74
     0
 49
2.54
 74
     0
 49
-2.54
 74
     0
  0
LTYPE
  5
72
330
5
100
AcDbSymbolTableRecord
100
AcDbLinetypeTableRecord
  2
DOT2
 70
     0
  3
Dot (.5x) ........................................
 72
    65
 73
     2
 40
0.635
 49
0.0
 74
     0
 49
-0.635
 74
     0
  0
ENDTAB
  0
TABLE
  2
LAYER
  5
2
330
0
100
AcDbSymbolTable
 70
     2
  0
LAYER
  5
10
330
2
100
AcDbSymbolTableRecord
100
AcDbLayerTableRecord
  2
0
 70
     0
 62
     7
  6
Continuous
370
    -3
390
F
  0
LAYER
  5
73
330
2
100
AcDbSymbolTableRecord
100
AcDbLayerTableRecord
  2
DEFAULT
 70
     0
 62
     7
  6
Continuous
370
    -3
390
F
  0
ENDTAB
  0
TABLE
  2
STYLE
  5
3
330
0
100
AcDbSymbolTable
 70
     1
  0
STYLE
  5
11
330
3
100
AcDbSymbolTableRecord
100
AcDbTextStyleTableRecord
  2
Standard
 70
     0
 40
0.0
 41
1.0
 50
0.0
 71
     0
 42
3.5
  3
txt
  4

  0
ENDTAB
  0
TABLE
  2
VIEW
  5
6
330
0
100
AcDbSymbolTable
 70
     0
  0
ENDTAB
  0
TABLE
  2
UCS
  5
7
330
0
100
AcDbSymbolTable
 70
     0
  0
ENDTAB
  0
TABLE
  2
APPID
  5
9
330
0
100
AcDbSymbolTable
 70
     1
  0
APPID
  5
12
330
9
100
AcDbSymbolTableRecord
100
AcDbRegAppTableRecord
  2
ACAD
 70
     0
  0
ENDTAB
  0
TABLE
  2
DIMSTYLE
  5
A
330
0
100
AcDbSymbolTable
 70
     1
100
AcDbDimStyleTable
  0
DIMSTYLE
105
27
330
A
100
AcDbSymbolTableRecord
100
AcDbDimStyleTableRecord
  2
ISO-25
 70
     0
 41
2.5
 42
0.625
 43
3.75
 44
1.25
 73
     0
 74
     0
 77
     1
 78
     8
140
2.5
141
2.5
143
0.0393700787
147
0.625
171
     3
172
     1
178
     0
271
     2
272
     2
274
     3
278
    44
283
     0
284
     8
340
11
  0
ENDTAB
  0
TABLE
  2
BLOCK_RECORD
  5
1
330
0
100
AcDbSymbolTable
 70
     1
  0
BLOCK_RECORD
  5
1F
330
1
100
AcDbSymbolTableRecord
100
AcDbBlockTableRecord
  2
*Model_Space
340
22
  0
BLOCK_RECORD
  5
1B
330
1
100
AcDbSymbolTableRecord
100
AcDbBlockTableRecord
  2
*Paper_Space
340
1E
  0
BLOCK_RECORD
  5
23
330
1
100
AcDbSymbolTableRecord
100
AcDbBlockTableRecord
  2
*Paper_Space0
340
26
  0
ENDTAB
  0
ENDSEC
  0
SECTION
  2
BLOCKS
  0
BLOCK
  5
20
330
1F
100
AcDbEntity
  8
0
100
AcDbBlockBegin
  2
*Model_Space
 70
     0
 10
0.0
 20
0.0
 30
0.0
  3
*Model_Space
  1

  0
ENDBLK
  5
21
330
1F
100
AcDbEntity
  8
0
100
AcDbBlockEnd
  0
BLOCK
  5
1C
330
1B
100
AcDbEntity
 67
     1
  8
0
100
AcDbBlockBegin
  2
*Paper_Space
 70
     0
 10
0.0
 20
0.0
 30
0.0
  3
*Paper_Space
  1

  0
ENDBLK
  5
1D
330
1B
100
AcDbEntity
 67
     1
  8
0
100
AcDbBlockEnd
  0
BLOCK
  5
24
330
23
100
AcDbEntity
  8
0
100
AcDbBlockBegin
  2
*Paper_Space0
 70
     0
 10
0.0
 20
0.0
 30
0.0
  3
*Paper_Space0
  1

  0
ENDBLK
  5
25
330
23
100
AcDbEntity
  8
0
100
AcDbBlockEnd
  0
ENDSEC
  0
SECTION
  2
ENTITIES
  0
SPLINE
  5
74
330
1F
100
AcDbEntity
  8
0
  6
Continuous
 62
     7
370
    25
100
AcDbSpline
210
0.0
220
0.0
230
1.0
 70
    11
 71
     3
 72
    31
 73
    27
 74
     0
 42
0.000000001
 43
0.00000001
 40
0.0
 40
0.0
 40
0.0
 40
0.0
 40
0.0392518561853666
 40
0.0813383751613709
 40
0.1250000156724998
 40
0.1686617929424213
 40
0.2107483119184256
 40
0.2500001402508799
 40
0.2892519685833342
 40
0.3313384875593385
 40
0.37500026482926
 40
0.4186619053403889
 40
0.4607484243163932
 40
0.5000002247972225
 40
0.53925180048067
 40
0.5813383194566742
 40
0.6249999599678032
 40
0.6686617372377246
 40
0.710748256213729
 40
0.7500000845461832
 40
0.7892519128786374
 40
0.8313384318546416
 40
0.8750002091245631
 40
0.9186618496356921
 40
0.9607483686116963
 40
1.0
 40
1.0
 40
1.0
 40
1.0
 10
192.8347128872788
 20
331.3793849482114
 30
0.0
 10
192.8037050074896
 20
330.9479771544955
 30
0.0
 10
192.739449942778
 20
330.0540064641137
 30
0.0
 10
192.2069221075594
 20
328.7655999653862
 30
0.0
 10
191.3451162843322
 20
327.6201824948261
 30
0.0
 10
190.1981811684402
 20
326.7527217255561
 30
0.0
 10
188.9101609378822
 20
326.2400840044123
 30
0.0
 10
187.584686240771
 20
326.075954134551
 30
0.0
 10
186.2593327879405
 20
326.2400840019009
 30
0.0
 10
184.9709173704689
 20
326.752721736625
 30
0.0
 10
183.8255053603859
 20
327.6201824516821
 30
0.0
 10
182.9580517501963
 20
328.7656001237798
 30
0.0
 10
182.445408783743
 20
330.0540053386455
 30
0.0
 10
182.2812953148835
 20
331.379382528502
 30
0.0
 10
182.4454097081773
 20
332.7047594050584
 30
0.0
 10
182.9580517494761
 20
333.9931623275731
 30
0.0
 10
183.8255053605809
 20
335.1385799926589
 30
0.0
 10
184.970917370423
 20
336.0060407096034
 30
0.0
 10
186.2593327879362
 20
336.5186784438508
 30
0.0
 10
187.5846862408254
 20
336.6828083113026
 30
0.0
 10
188.9101609376606
 20
336.5186784414736
 30
0.0
 10
190.1981811693523
 20
336.0060407200802
 30
0.0
 10
191.3451162807931
 20
335.1385799518226
 30
0.0
 10
192.206922120548
 20
333.9931624774945
 30
0.0
 10
192.7394489398851
 20
332.7047583090765
 30
0.0
 10
192.8037047430285
 20
331.8107902120445
 30
0.0
 10
192.8347128872788
 20
331.3793849482114
 30
0.0
  0
SPLINE
  5
75
330
1F
100
AcDbEntity
  8
0
  6
Continuous
 62
     7
370
    25
100
AcDbSpline
210
0.0
220
0.0
230
1.0
 70
    11
 71
     3
 72
    31
 73
    27
 74
     0
 42
0.000000001
 43
0.00000001
 40
0.0
 40
0.0
 40
0.0
 40
0.0
 40
0.0392518253164523
 40
0.0813385296945807
 40
0.1250003333368754
 40
0.1686617667588285
 40
0.2107481278788226
 40
0.2500002479518916
 40
0.2892518434980602
 40
0.3313382046180542
 40
0.3750000593778166
 40
0.4186618630201113
 40
0.460748371958926
 40
0.5000002622634369
 40
0.5392518903047279
 40
0.5813383992435427
 40
0.6250002028858374
 40
0.6686620576455996
 40
0.7107484187655938
 40
0.7500000143117623
 40
0.7892521343848313
 40
0.8313384955048254
 40
0.8749999289267786
 40
0.9186617325690732
 40
0.9607484369472017
 40
1.0
 40
1.0
 40
1.0
 40
1.0
 10
169.0847057347214
 20
330.9708770646627
 30
0.0
 10
169.0581341069316
 20
330.6010983276066
 30
0.0
 10
169.0030717724134
 20
329.8348343757527
 30
0.0
 10
168.5466062639543
 20
328.7304858815656
 30
0.0
 10
167.8079140675887
 20
327.7487016927871
 30
0.0
 10
166.8248279034933
 20
327.0051679751808
 30
0.0
 10
165.7208129372495
 20
326.5657629744696
 30
0.0
 10
164.5846920881059
 20
326.4250846432113
 30
0.0
 10
163.4486751977965
 20
326.5657642230464
 30
0.0
 10
162.3443242926956
 20
327.0051721006213
 30
0.0
 10
161.3625338154517
 20
327.7486967006399
 30
0.0
 10
160.6189911787269
 20
328.7304828584934
 30
0.0
 10
160.1796055879184
 20
329.8348387343514
 30
0.0
 10
160.0389043312109
 20
330.9708746449696
 30
0.0
 10
160.179606512339
 20
332.1069102422499
 30
0.0
 10
160.6189911779961
 20
333.2112638257663
 30
0.0
 10
161.3625338156495
 20
334.1930499766024
 30
0.0
 10
162.3443242926491
 20
334.9365745785098
 30
0.0
 10
163.4486751977924
 20
335.3759824556077
 30
0.0
 10
164.5846920881604
 20
335.5166620355449
 30
0.0
 10
165.7208129370281
 20
335.3759837043189
 30
0.0
 10
166.8248279044047
 20
334.9365787033578
 30
0.0
 10
167.8079140640533
 20
334.1930449867648
 30
0.0
 10
168.5466062769297
 20
333.2112607942146
 30
0.0
 10
169.0030707695407
 20
332.1069146303485
 30
0.0
 10
169.0581338424628
 20
331.3406532718353
 30
0.0
 10
169.0847057347214
 20
330.9708770646627
 30
0.0
  0
SPLINE
  5
76
330
1F
100
AcDbEntity
  8
0
  6
Continuous
 62
     7
370
    25
100
AcDbSpline
210
0.0
220
0.0
230
1.0
 70
    11
 71
     3
 72
    31
 73
    27
 74
     0
 42
0.000000001
 43
0.00000001
 40
0.0
 40
0.0
 40
0.0
 40
0.0
 40
0.0392520872756193
 40
0.0813385457900541
 40
0.1250005597620495
 40
0.168661833293801
 40
0.2107482918082358
 40
0.2500003790838551
 40
0.2892519418321438
 40
0.3313384003465785
 40
0.3750000952176756
 40
0.4186621091896712
 40
0.4607483722636535
 40
0.5000005245268966
 40
0.5392521522636774
 40
0.5813384153376597
 40
0.6250004293096552
 40
0.6686621241807523
 40
0.710748582695187
 40
0.7500001454434757
 40
0.789252232719095
 40
0.8313386912335298
 40
0.8749999647652812
 40
0.9186619787372766
 40
0.9607484372517113
 40
1.0
 40
1.0
 40
1.0
 40
1.0
 10
169.0847057347214
 20
225.9708803429182
 30
0.0
 10
169.0581348288868
 20
225.6010988254963
 30
0.0
 10
169.0030743469885
 20
224.8348340743777
 30
0.0
 10
168.5466014724628
 20
223.7304874980128
 30
0.0
 10
167.8079196876542
 20
222.7486961393815
 30
0.0
 10
166.8248231223164
 20
222.0051755985046
 30
0.0
 10
165.7208155453072
 20
221.5657526175844
 30
0.0
 10
164.5846920885742
 20
221.4250945760805
 30
0.0
 10
163.4486725879991
 20
221.5657538661278
 30
0.0
 10
162.3443290803658
 20
222.0051797243088
 30
0.0
 10
161.3625281670454
 20
222.7486911460377
 30
0.0
 10
160.6189960543622
 20
223.7304844791292
 30
0.0
 10
160.1796026271036
 20
224.8348384182492
 30
0.0
 10
160.0389053195487
 20
225.9708755035287
 30
0.0
 10
160.1796044759631
 20
227.1069119621291
 30
0.0
 10
160.6189960529039
 20
228.2112613165741
 30
0.0
 10
161.3625281674403
 20
229.193054635633
 30
0.0
 10
162.3443290802728
 20
229.9365660611387
 30
0.0
 10
163.4486725879908
 20
230.3759919183659
 30
0.0
 10
164.584692088683
 20
230.5166512086174
 30
0.0
 10
165.7208155448643
 20
230.3759931671781
 30
0.0
 10
166.8248231241385
 20
229.9365701857578
 30
0.0
 10
167.8079196805847
 20
229.1930496469085
 30
0.0
 10
168.5466014984093
 20
228.2112582807313
 30
0.0
 10
169.0030723412306
 20
227.106916365
 30
0.0
 10
169.0581342999392
 20
226.340656800568
 30
0.0
 10
169.0847057347214
 20
225.9708803429182
 30
0.0
  0
SPLINE
  5
77
330
1F
100
AcDbEntity
  8
0
  6
Continuous
 62
     7
370
    25
100
AcDbSpline
210
0.0
220
0.0
230
1.0
 70
    11
 71
     3
 72
    31
 73
    27
 74
     0
 42
0.000000001
 43
0.00000001
 40
0.0
 40
0.0
 40
0.0
 40
0.0
 40
0.039251849854236
 40
0.0813383620418926
 40
0.1249999955106144
 40
0.1686619024976241
 40
0.2107484146852807
 40
0.2500002088349885
 40
0.2892520029846963
 40
0.3313385151723529
 40
0.3750004221593627
 40
0.4186620556280845
 40
0.4607485678157411
 40
0.500000361965449
 40
0.539251706520485
 40
0.5813382187081416
 40
0.6250002133240551
 40
0.668661846792777
 40
0.7107483589804335
 40
0.7500001531301412
 40
0.789251947279849
 40
0.8313384594675055
 40
0.8750000929362275
 40
0.9186620875521408
 40
0.9607485997397975
 40
1.0
 40
1.0
 40
1.0
 40
1.0
 10
192.8347128872788
 20
225.9708803429182
 30
0.0
 10
192.8037049812073
 20
225.5394725786937
 30
0.0
 10
192.7394498620327
 20
224.6455019494244
 30
0.0
 10
192.2069224634372
 20
223.3570949607639
 30
0.0
 10
191.3451139864536
 20
222.2116782355547
 30
0.0
 10
190.1981836916403
 20
221.3442097140256
 30
0.0
 10
188.910161222959
 20
220.8315687976609
 30
0.0
 10
187.5846862406663
 20
220.6674546648206
 30
0.0
 10
186.2593325033276
 20
220.8315687953364
 30
0.0
 10
184.9709148448204
 20
221.3442097242707
 30
0.0
 10
183.8255076702754
 20
222.2116781956216
 30
0.0
 10
182.9580513661622
 20
223.357095107369
 30
0.0
 10
182.4454089639499
 20
224.645500864987
 30
0.0
 10
182.2812952765899
 20
225.9708753106518
 30
0.0
 10
182.4454100146905
 20
227.2962503146547
 30
0.0
 10
182.9580563635885
 20
228.5846513477405
 30
0.0
 10
183.8254974459651
 20
229.7300831131915
 30
0.0
 10
184.9709206572673
 20
230.5975335768885
 30
0.0
 10
186.25933182417
 20
231.1101779300634
 30
0.0
 10
187.5846862407751
 20
231.2742906659425
 30
0.0
 10
188.9101619016654
 20
231.1101779274994
 30
0.0
 10
190.1981778817873
 20
230.5975335881892
 30
0.0
 10
191.3451241998221
 20
229.7300830691436
 30
0.0
 10
192.206917448778
 20
228.5846515094541
 30
0.0
 10
192.7394486508179
 20
227.2962491776335
 30
0.0
 10
192.8037047109169
 20
226.4022832712171
 30
0.0
 10
192.8347128872788
 20
225.9708803429182
 30
0.0
  0
SPLINE
  5
78
330
1F
100
AcDbEntity
  8
0
  6
Continuous
 62
     7
370
    25
100
AcDbSpline
210
0.0
220
0.0
230
1.0
 70
    11
 71
     3
 72
    47
 73
    43
 74
     0
 42
0.000000001
 43
0.00000001
 40
0.0
 40
0.0
 40
0.0
 40
0.0
 40
0.0231497018145231
 40
0.0474670106369995
 40
0.0727401307268687
 40
0.0986931150534121
 40
0.1249999959563836
 40
0.1513068768593552
 40
0.1772598611858986
 40
0.2025329812757678
 40
0.2268502900982442
 40
0.2499999919127673
 40
0.2731496937272905
 40
0.2974670025497668
 40
0.322740122639636
 40
0.348693155490249
 40
0.3749999932606118
 40
0.4013068741635833
 40
0.4272598584901267
 40
0.4525329785799959
 40
0.4768502874024723
 40
0.4999999892169954
 40
0.5231496910315185
 40
0.5474669998539948
 40
0.572740119943864
 40
0.5986932013185791
 40
0.6249999959563837
 40
0.6513068337267464
 40
0.6772598665773594
 40
0.7025329866672285
 40
0.7268502954897049
 40
0.7499999973042281
 40
0.7731496991187512
 40
0.7974670079412276
 40
0.8227401280310968
 40
0.8486931123576401
 40
0.8749999932606117
 40
0.9013067878984163
 40
0.9272598692731313
 40
0.9525329893630005
 40
0.9768502981854768
 40
1.0
 40
1.0
 40
1.0
 40
1.0
 10
233.5847097878373
 20
275.9708773626859
 30
0.0
 10
233.6276779433799
 20
276.9888767031927
 30
0.0
 10
233.7157814495304
 20
279.0762204586953
 30
0.0
 10
234.4485587668387
 20
282.206071818364
 30
0.0
 10
235.6698120509262
 20
285.3043783946536
 30
0.0
 10
237.426890855951
 20
288.2417620140906
 30
0.0
 10
239.6675496701478
 20
290.8879110545049
 30
0.0
 10
242.3138558257922
 20
293.1291550903043
 30
0.0
 10
245.2511981047581
 20
294.8840972376865
 30
0.0
 10
248.3495153499253
 20
296.1130038409639
 30
0.0
 10
251.4793640017307
 20
296.8188452557944
 30
0.0
 10
254.5847078008473
 20
297.0450203826753
 30
0.0
 10
257.6900506312836
 20
296.8188451603503
 30
0.0
 10
260.8199023771675
 20
296.1130042519662
 30
0.0
 10
263.9182096066627
 20
294.8840948236429
 30
0.0
 10
266.8555983294725
 20
293.1291599858414
 30
0.0
 10
269.5017413091223
 20
290.8879080211795
 30
0.0
 10
271.7429857014774
 20
288.2417624314776
 30
0.0
 10
273.4979274305339
 20
285.3043782873147
 30
0.0
 10
274.7268341444754
 20
282.2060718428947
 30
0.0
 10
275.4326755216971
 20
279.076220462243
 30
0.0
 10
275.6588506919085
 20
275.9708773276618
 30
0.0
 10
275.4326753308086
 20
272.8655344067583
 30
0.0
 10
274.726834966481
 20
269.7356823435949
 30
0.0
 10
273.4979226024389
 20
266.637374567205
 30
0.0
 10
271.742995492584
 20
263.6999802234554
 30
0.0
 10
269.5017352423669
 20
261.053846753214
 30
0.0
 10
266.8555991646842
 20
258.812594076395
 30
0.0
 10
263.9182093904011
 20
257.0576600735545
 30
0.0
 10
260.8199024318762
 20
255.8287504295108
 30
0.0
 10
257.6900506185789
 20
255.1229095767209
 30
0.0
 10
254.5847078008474
 20
254.8967343369908
 30
0.0
 10
251.4793640144353
 20
255.1229094812764
 30
0.0
 10
248.3495152952166
 20
255.828750840515
 30
0.0
 10
245.2511983210195
 20
257.0576576595025
 30
0.0
 10
242.313854990582
 20
258.8125989719646
 30
0.0
 10
239.6675557370868
 20
261.0538437197823
 30
0.0
 10
237.4268810638814
 20
263.6999806412795
 30
0.0
 10
235.6698168718711
 20
266.6373744582826
 30
0.0
 10
234.4485579441547
 20
269.7356823737729
 30
0.0
 10
233.7157816405764
 20
272.8655343905058
 30
0.0
 10
233.627678006009
 20
274.9528780627732
 30
0.0
 10
233.5847097878373
 20
275.9708773626859
 30
0.0
  0
LINE
  5
79
330
1F
100
AcDbEntity
  8
0
  6
Continuous
 62
     7
370
    25
100
AcDbLine
 10
176.4847117906
 20
288.5708671345
 30
0.0
 11
179.6847063546
 21
288.5708671345
 31
0.0
  0
LINE
  5
7A
330
1F
100
AcDbEntity
  8
0
  6
Continuous
 62
     7
370
    25
100
AcDbLine
 10
176.4847117906
 20
263.3708726897
 30
0.0
 11
176.4847117906
 21
288.5708671345
 31
0.0
  0
LINE
  5
7B
330
1F
100
AcDbEntity
  8
0
  6
Continuous
 62
     7
370
    25
100
AcDbLine
 10
179.6847063546
 20
263.3708726897
 30
0.0
 11
176.4847117906
 21
263.3708726897
 31
0.0
  0
LINE
  5
7C
330
1F
100
AcDbEntity
  8
0
  6
Continuous
 62
     7
370
    25
100
AcDbLine
 10
179.6847063546
 20
288.5708671345
 30
0.0
 11
179.6847063546
 21
263.3708726897
 31
0.0
  0
LINE
  5
7D
330
1F
100
AcDbEntity
  8
0
  6
Continuous
 62
     7
370
    25
100
AcDbLine
 10
321.7847089713
 20
263.4708743825
 30
0.0
 11
318.5847069566
 21
263.4708743825
 31
0.0
  0
LINE
  5
7E
330
1F
100
AcDbEntity
  8
0
  6
Continuous
 62
     7
370
    25
100
AcDbLine
 10
321.7847089713
 20
288.6708688273
 30
0.0
 11
321.7847089713
 21
263.4708743825
 31
0.0
  0
LINE
  5
7F
330
1F
100
AcDbEntity
  8
0
  6
Continuous
 62
     7
370
    25
100
AcDbLine
 10
318.5847069566
 20
288.6708688273
 30
0.0
 11
321.7847089713
 21
288.6708688273
 31
0.0
  0
LINE
  5
80
330
1F
100
AcDbEntity
  8
0
  6
Continuous
 62
     7
370
    25
100
AcDbLine
 10
318.5847069566
 20
263.4708743825
 30
0.0
 11
318.5847069566
 21
288.6708688273
 31
0.0
  0
SPLINE
  5
81
330
1F
100
AcDbEntity
  8
0
  6
Continuous
 62
     7
370
    25
100
AcDbSpline
210
0.0
220
0.0
230
1.0
 70
    11
 71
     3
 72
    23
 73
    19
 74
     0
 42
0.000000001
 43
0.00000001
 40
0.0
 40
0.0
 40
0.0
 40
0.0
 40
0.0600270981052574
 40
0.1249995692196405
 40
0.1899728210481149
 40
0.2499999191533724
 40
0.3100270172586299
 40
0.3750002690871044
 40
0.4399727402014874
 40
0.4999998383067448
 40
0.5600269364120023
 40
0.6249998787300587
 40
0.689972821048115
 40
0.7499999191533725
 40
0.8100270172586299
 40
0.8749999595766863
 40
0.9399729018947426
 40
1.0
 40
1.0
 40
1.0
 40
1.0
 10
301.7017099504387
 20
332.9708736671979
 30
0.0
 10
301.6723037047668
 20
332.7049474825633
 30
0.0
 10
301.6110685600176
 20
332.1511866050132
 30
0.0
 10
301.1198158309718
 20
331.431655312308
 30
0.0
 10
300.4054092441341
 20
330.9593383553158
 30
0.0
 10
299.5844487565979
 20
330.8032271270627
 30
0.0
 10
298.7650952690541
 20
330.9593383487467
 30
0.0
 10
298.0454669199489
 20
331.4316553411298
 30
0.0
 10
297.5731792354622
 20
332.1511865006837
 30
0.0
 10
297.4170597365899
 20
332.9708740237728
 30
0.0
 10
297.5731812083474
 20
333.7905614361355
 30
0.0
 10
298.0454619840988
 20
334.5100998907756
 30
0.0
 10
298.7650978688197
 20
334.9824073406573
 30
0.0
 10
299.5844487565138
 20
335.1385211195347
 30
0.0
 10
300.4054066420303
 20
334.9824073472265
 30
0.0
 10
301.1198207753709
 20
334.5100998619537
 30
0.0
 10
301.6110667122065
 20
333.7905615404658
 30
0.0
 10
301.6723031801821
 20
333.2367994377396
 30
0.0
 10
301.7017099504387
 20
332.9708736671979
 30
0.0
  0
SPLINE
  5
82
330
1F
100
AcDbEntity
  8
0
  6
Continuous
 62
     7
370
    25
100
AcDbSpline
210
0.0
220
0.0
230
1.0
 70
    11
 71
     3
 72
    23
 73
    19
 74
     0
 42
0.000000001
 43
0.00000001
 40
0.0
 40
0.0
 40
0.0
 40
0.0
 40
0.0600271369282409
 40
0.1250002690932084
 40
0.1899730917418955
 40
0.2500002286701364
 40
0.3100273655983773
 40
0.3750001882470645
 40
0.4399727013828887
 40
0.4999998383111295
 40
0.5600269752393704
 40
0.6249999595791726
 40
0.6899724727149968
 40
0.7499996096432378
 40
0.8100267465714788
 40
0.874999259707303
 40
0.9399728630717591
 40
1.0
 40
1.0
 40
1.0
 40
1.0
 10
211.7017138247406
 20
332.9708736671979
 30
0.0
 10
211.6723085708863
 20
332.7049467559343
 30
0.0
 10
211.6110751882425
 20
332.1511816228943
 30
0.0
 10
211.1198036346476
 20
331.4316624413643
 30
0.0
 10
210.4054053729486
 20
330.9593358166277
 30
0.0
 10
209.5844449231789
 20
330.8032280072184
 30
0.0
 10
208.7650930545227
 20
330.9593364266554
 30
0.0
 10
208.0454702463414
 20
331.4316582258369
 30
0.0
 10
207.573182946097
 20
332.1511862499641
 30
0.0
 10
207.4170636894865
 20
332.9708740237734
 30
0.0
 10
207.5731849189865
 20
333.7905616868532
 30
0.0
 10
208.0454653104864
 20
334.5100970060465
 30
0.0
 10
208.7650956543089
 20
334.9824092627497
 30
0.0
 10
209.5844449230954
 20
335.1385202393824
 30
0.0
 10
210.4054027708195
 20
334.9824098859087
 30
0.0
 10
211.1198085790748
 20
334.5100927329514
 30
0.0
 10
211.6110733404305
 20
333.7905665225405
 30
0.0
 10
211.6723080462999
 20
333.2368001643603
 30
0.0
 10
211.7017138247406
 20
332.9708736671979
 30
0.0
  0
LINE
  5
83
330
1F
100
AcDbEntity
  8
0
  6
Continuous
 62
     7
370
    25
100
AcDbLine
 10
149.5847034697
 20
345.9708702101
 30
0.0
 11
149.5847034697
 21
210.9708797469
 31
0.0
  0
LINE
  5
84
330
1F
100
AcDbEntity
  8
0
  6
Continuous
 62
     7
370
    25
100
AcDbLine
 10
359.5847080891
 20
345.9708702101
 30
0.0
 11
149.5847034697
 21
345.9708702101
 31
0.0
  0
LINE
  5
85
330
1F
100
AcDbEntity
  8
0
  6
Continuous
 62
     7
370
    25
100
AcDbLine
 10
359.5847080891
 20
210.9708797469
 30
0.0
 11
359.5847080891
 21
345.9708702101
 31
0.0
  0
LINE
  5
86
330
1F
100
AcDbEntity
  8
0
  6
Continuous
 62
     7
370
    25
100
AcDbLine
 10
149.5847034697
 20
210.9708797469
 30
0.0
 11
359.5847080891
 21
210.9708797469
 31
0.0
  0
SPLINE
  5
87
330
1F
100
AcDbEntity
  8
0
  6
Continuous
 62
     7
370
    25
100
AcDbSpline
210
0.0
220
0.0
230
1.0
 70
    11
 71
     3
 72
    31
 73
    27
 74
     0
 42
0.000000001
 43
0.00000001
 40
0.0
 40
0.0
 40
0.0
 40
0.0
 40
0.0392518645041839
 40
0.0813384783399969
 40
0.1250002495409719
 40
0.1686617957438279
 40
0.2107484095796409
 40
0.2500001429520807
 40
0.2892518763245205
 40
0.3313384901603335
 40
0.3750000363631896
 40
0.4186617676761938
 40
0.4607483815120068
 40
0.5000002622634272
 40
0.5392518807514746
 40
0.5813384945872876
 40
0.6250002259002918
 40
0.6686617721031478
 40
0.710748385938961
 40
0.7500001193114008
 40
0.7892518526838406
 40
0.8313384665196536
 40
0.8750000127225096
 40
0.9186617839234845
 40
0.9607483977592975
 40
1.0
 40
1.0
 40
1.0
 40
1.0
 10
349.0847072993433
 20
330.9708770646627
 30
0.0
 10
349.0581319840998
 20
330.6010986266937
 30
0.0
 10
349.0030620981054
 20
329.8348365434204
 30
0.0
 10
348.5466100490141
 20
328.7304848040573
 30
0.0
 10
347.80791656356
 20
327.7487002498617
 30
0.0
 10
346.8248265406772
 20
327.0051667715311
 30
0.0
 10
345.7208107186295
 20
326.5657657726267
 30
0.0
 10
344.5846905785979
 20
326.4250838163571
 30
0.0
 10
343.448674368558
 20
326.5657657527042
 30
0.0
 10
342.3443197935424
 20
327.0051668593378
 30
0.0
 10
341.362535670009
 20
327.7486996784346
 30
0.0
 10
340.619001027617
 20
328.7304854199322
 30
0.0
 10
340.1796012515974
 20
329.8348367387905
 30
0.0
 10
340.0389115698076
 20
330.9708746449641
 30
0.0
 10
340.1796021760333
 20
332.1069122378081
 30
0.0
 10
340.6190010268905
 20
333.2112612643258
 30
0.0
 10
341.3625356702057
 20
334.1930469988083
 30
0.0
 10
342.3443197934961
 20
334.9365798197932
 30
0.0
 10
343.4486743685537
 20
335.3759809259499
 30
0.0
 10
344.5846905786524
 20
335.516662862399
 30
0.0
 10
345.7208107184079
 20
335.3759809061619
 30
0.0
 10
346.8248265415891
 20
334.9365799070076
 30
0.0
 10
347.8079165600224
 20
334.1930464296898
 30
0.0
 10
348.5466100619975
 20
333.2112618717249
 30
0.0
 10
349.0030610952328
 20
332.1069124626806
 30
0.0
 10
349.0581317196391
 20
331.3406529727501
 30
0.0
 10
349.0847072993433
 20
330.9708770646627
 30
0.0
  0
SPLINE
  5
88
330
1F
100
AcDbEntity
  8
0
  6
Continuous
 62
     7
370
    25
100
AcDbSpline
210
0.0
220
0.0
230
1.0
 70
    11
 71
     3
 72
    31
 73
    27
 74
     0
 42
0.000000001
 43
0.00000001
 40
0.0
 40
0.0
 40
0.0
 40
0.0
 40
0.0392521264633042
 40
0.0813384944349471
 40
0.1250004759659915
 40
0.1686618622791427
 40
0.210748573508976
 40
0.2500002740837637
 40
0.2892519746585515
 40
0.3313386858883847
 40
0.3750000722015359
 40
0.4186620138448024
 40
0.4607483818164453
 40
0.5000005245268773
 40
0.5392521427105404
 40
0.5813385106821835
 40
0.6250004523254499
 40
0.6686618386386012
 40
0.7107485498684344
 40
0.7500002504432222
 40
0.7892519510180099
 40
0.8313386622478431
 40
0.8750000485609944
 40
0.9186620300920387
 40
0.9607483980636817
 40
1.0
 40
1.0
 40
1.0
 40
1.0
 10
349.0847072993433
 20
225.9708803429182
 30
0.0
 10
349.0581327060428
 20
225.6010991245885
 30
0.0
 10
349.0030646726893
 20
224.8348362420573
 30
0.0
 10
348.5466052575463
 20
223.7304864204739
 30
0.0
 10
347.8079221836206
 20
222.7486946964578
 30
0.0
 10
346.8248217595022
 20
222.0051743948931
 30
0.0
 10
345.7208133266714
 20
221.5657554157377
 30
0.0
 10
344.5846905790474
 20
221.4250937492062
 30
0.0
 10
343.4486717587671
 20
221.5657553957483
 30
0.0
 10
342.3443245812193
 20
222.0051744829957
 30
0.0
 10
341.3625300216109
 20
222.7486941238837
 30
0.0
 10
340.6190059032746
 20
223.7304870405808
 30
0.0
 10
340.1795982907772
 20
224.8348364226738
 30
0.0
 10
340.038912558161
 20
225.970875503518
 30
0.0
 10
340.179600139667
 20
227.106913957699
 30
0.0
 10
340.6190059018248
 20
228.2112587551191
 30
0.0
 10
341.3625300220035
 20
229.193051657788
 30
0.0
 10
342.344324581127
 20
229.9365713024517
 30
0.0
 10
343.4486717587586
 20
230.3759903887455
 30
0.0
 10
344.5846905791564
 20
230.5166520354916
 30
0.0
 10
345.7208133262283
 20
230.3759903690247
 30
0.0
 10
346.8248217613256
 20
229.9365713893698
 30
0.0
 10
347.8079221765465
 20
229.1930510898312
 30
0.0
 10
348.546605283509
 20
228.2112593582741
 30
0.0
 10
349.0030626669316
 20
227.10691419732
 30
0.0
 10
349.0581321771114
 20
226.3406565014797
 30
0.0
 10
349.0847072993433
 20
225.9708803429182
 30
0.0
  0
ENDSEC
  0
SECTION
  2
OBJECTS
  0
DICTIONARY
  5
C
330
0
100
AcDbDictionary
281
     1
  3
ACAD_GROUP
350
D
  3
ACAD_LAYOUT
350
1A
  3
ACAD_MLINESTYLE
350
17
  3
ACAD_PLOTSETTINGS
350
19
  3
ACAD_PLOTSTYLENAME
350
E
  3
ACAD_SCALELIST
350
47
  0
DICTIONARY
  5
D
102
{ACAD_REACTORS
330
C
102
}
330
C
100
AcDbDictionary
281
     1
  0
DICTIONARY
  5
1A
102
{ACAD_REACTORS
330
C
102
}
330
C
100
AcDbDictionary
281
     1
  3
Layout1
350
1E
  3
Layout2
350
26
  3
Model
350
22
  0
DICTIONARY
  5
17
102
{ACAD_REACTORS
330
C
102
}
330
C
100
AcDbDictionary
281
     1
  3
Standard
350
18
  0
DICTIONARY
  5
19
102
{ACAD_REACTORS
330
C
102
}
330
C
100
AcDbDictionary
281
     1
  0
ACDBDICTIONARYWDFLT
  5
E
102
{ACAD_REACTORS
330
C
102
}
330
C
100
AcDbDictionary
281
     1
  3
Normal
350
F
100
AcDbDictionaryWithDefault
340
F
  0
DICTIONARY
  5
47
102
{ACAD_REACTORS
330
C
102
}
330
C
100
AcDbDictionary
281
     1
  3
A0
350
48
  3
A1
350
49
  3
A2
350
4A
  3
A3
350
4B
  3
A4
350
4C
  3
A5
350
4D
  3
A6
350
4E
  3
A7
350
4F
  3
A8
350
50
  3
A9
350
51
  3
B0
350
52
  3
B1
350
53
  3
B2
350
54
  3
B3
350
55
  3
B4
350
56
  3
B5
350
57
  3
B6
350
58
  3
B7
350
59
  3
B8
350
5A
  3
B9
350
5B
  3
C0
350
5C
  3
C1
350
5D
  3
C2
350
5E
  3
C3
350
5F
  3
C4
350
60
  3
C5
350
61
  3
C6
350
62
  3
C7
350
63
  3
C8
350
64
  3
C9
350
65
  3
D0
350
66
  3
D1
350
67
  3
D2
350
68
  0
LAYOUT
  5
1E
102
{ACAD_REACTORS
330
1A
102
}
330
1A
100
AcDbPlotSettings
  1

  2
none_device
  4

  6

 40
0.0
 41
0.0
 42
0.0
 43
0.0
 44
0.0
 45
0.0
 46
0.0
 47
0.0
 48
0.0
 49
0.0
140
0.0
141
0.0
142
1.0
143
1.0
 70
   688
 72
     1
 73
     0
 74
     5
  7

 75
    16
147
1.0
148
0.0
149
0.0
100
AcDbLayout
  1
Layout1
 70
     1
 71
     1
 10
0.0
 20
0.0
 11
420.0
 21
297.0
 12
0.0
 22
0.0
 32
0.0
 14
1.0000000000E+20
 24
1.0000000000E+20
 34
1.0000000000E+20
 15
-1.0000000000E+20
 25
-1.0000000000E+20
 35
-1.0000000000E+20
146
0.0
 13
0.0
 23
0.0
 33
0.0
 16
1.0
 26
0.0
 36
0.0
 17
0.0
 27
1.0
 37
0.0
 76
     0
330
1B
  0
LAYOUT
  5
26
102
{ACAD_REACTORS
330
1A
102
}
330
1A
100
AcDbPlotSettings
  1

  2
none_device
  4

  6

 40
0.0
 41
0.0
 42
0.0
 43
0.0
 44
0.0
 45
0.0
 46
0.0
 47
0.0
 48
0.0
 49
0.0
140
0.0
141
0.0
142
1.0
143
1.0
 70
   688
 72
     1
 73
     0
 74
     5
  7

 75
    16
147
1.0
148
0.0
149
0.0
100
AcDbLayout
  1
Layout2
 70
     1
 71
     2
 10
0.0
 20
0.0
 11
0.0
 21
0.0
 12
0.0
 22
0.0
 32
0.0
 14
0.0
 24
0.0
 34
0.0
 15
0.0
 25
0.0
 35
0.0
146
0.0
 13
0.0
 23
0.0
 33
0.0
 16
1.0
 26
0.0
 36
0.0
 17
0.0
 27
1.0
 37
0.0
 76
     0
330
23
  0
LAYOUT
  5
22
102
{ACAD_REACTORS
330
1A
102
}
330
1A
100
AcDbPlotSettings
  1

  2
none_device
  4
Letter_(8.50_x_11.00_Inches)
  6

 40
6.35
 41
6.35
 42
6.35000508
 43
6.35000508
 44
215.9
 45
279.4
 46
0.0
 47
0.0
 48
0.0
 49
0.0
140
0.0
141
0.0
142
1.0
143
1.0
 70
  1712
 72
     1
 73
     0
 74
     0
  7

 75
     0
147
1.0
148
0.0
149
0.0
100
AcDbLayout
  1
Model
 70
     1
 71
     0
 10
0.0
 20
0.0
 11
500.0
 21
500.0
 12
0.0
 22
0.0
 32
0.0
 14
0.0
 24
0.0
 34
0.0
 15
500.0
 25
500.0
 35
0.0
146
0.0
 13
0.0
 23
0.0
 33
0.0
 16
1.0
 26
0.0
 36
0.0
 17
0.0
 27
1.0
 37
0.0
 76
     0
330
1F
331
29
  0
MLINESTYLE
  5
18
102
{ACAD_REACTORS
330
17
102
}
330
17
100
AcDbMlineStyle
  2
Standard
 70
     0
  3

 62
   256
 51
90.0
 52
90.0
 71
     2
 49
0.5
 62
   256
  6
BYLAYER
 49
-0.5
 62
   256
  6
BYLAYER
  0
ACDBPLACEHOLDER
  5
F
102
{ACAD_REACTORS
330
E
102
}
330
E
  0
SCALE
  5
48
102
{ACAD_REACTORS
330
47
102
}
330
47
100
AcDbScale
 70
     0
300
1:1
140
1.0
141
1.0
290
     1
  0
SCALE
  5
49
102
{ACAD_REACTORS
330
47
102
}
330
47
100
AcDbScale
 70
     0
300
1:2
140
1.0
141
2.0
290
     0
  0
SCALE
  5
4A
102
{ACAD_REACTORS
330
47
102
}
330
47
100
AcDbScale
 70
     0
300
1:4
140
1.0
141
4.0
290
     0
  0
SCALE
  5
4B
102
{ACAD_REACTORS
330
47
102
}
330
47
100
AcDbScale
 70
     0
300
1:5
140
1.0
141
5.0
290
     0
  0
SCALE
  5
4C
102
{ACAD_REACTORS
330
47
102
}
330
47
100
AcDbScale
 70
     0
300
1:8
140
1.0
141
8.0
290
     0
  0
SCALE
  5
4D
102
{ACAD_REACTORS
330
47
102
}
330
47
100
AcDbScale
 70
     0
300
1:10
140
1.0
141
10.0
290
     0
  0
SCALE
  5
4E
102
{ACAD_REACTORS
330
47
102
}
330
47
100
AcDbScale
 70
     0
300
1:16
140
1.0
141
16.0
290
     0
  0
SCALE
  5
4F
102
{ACAD_REACTORS
330
47
102
}
330
47
100
AcDbScale
 70
     0
300
1:20
140
1.0
141
20.0
290
     0
  0
SCALE
  5
50
102
{ACAD_REACTORS
330
47
102
}
330
47
100
AcDbScale
 70
     0
300
1:30
140
1.0
141
30.0
290
     0
  0
SCALE
  5
51
102
{ACAD_REACTORS
330
47
102
}
330
47
100
AcDbScale
 70
     0
300
1:40
140
1.0
141
40.0
290
     0
  0
SCALE
  5
52
102
{ACAD_REACTORS
330
47
102
}
330
47
100
AcDbScale
 70
     0
300
1:50
140
1.0
141
50.0
290
     0
  0
SCALE
  5
53
102
{ACAD_REACTORS
330
47
102
}
330
47
100
AcDbScale
 70
     0
300
1:100
140
1.0
141
100.0
290
     0
  0
SCALE
  5
54
102
{ACAD_REACTORS
330
47
102
}
330
47
100
AcDbScale
 70
     0
300
2:1
140
2.0
141
1.0
290
     0
  0
SCALE
  5
55
102
{ACAD_REACTORS
330
47
102
}
330
47
100
AcDbScale
 70
     0
300
4:1
140
4.0
141
1.0
290
     0
  0
SCALE
  5
56
102
{ACAD_REACTORS
330
47
102
}
330
47
100
AcDbScale
 70
     0
300
8:1
140
8.0
141
1.0
290
     0
  0
SCALE
  5
57
102
{ACAD_REACTORS
330
47
102
}
330
47
100
AcDbScale
 70
     0
300
10:1
140
10.0
141
1.0
290
     0
  0
SCALE
  5
58
102
{ACAD_REACTORS
330
47
102
}
330
47
100
AcDbScale
 70
     0
300
100:1
140
100.0
141
1.0
290
     0
  0
SCALE
  5
59
102
{ACAD_REACTORS
330
47
102
}
330
47
100
AcDbScale
 70
     0
300
1/128" = 1'-0"
140
0.0078125
141
12.0
290
     0
  0
SCALE
  5
5A
102
{ACAD_REACTORS
330
47
102
}
330
47
100
AcDbScale
 70
     0
300
1/64" = 1'-0"
140
0.015625
141
12.0
290
     0
  0
SCALE
  5
5B
102
{ACAD_REACTORS
330
47
102
}
330
47
100
AcDbScale
 70
     0
300
1/32" = 1'-0"
140
0.03125
141
12.0
290
     0
  0
SCALE
  5
5C
102
{ACAD_REACTORS
330
47
102
}
330
47
100
AcDbScale
 70
     0
300
1/16" = 1'-0"
140
0.0625
141
12.0
290
     0
  0
SCALE
  5
5D
102
{ACAD_REACTORS
330
47
102
}
330
47
100
AcDbScale
 70
     0
300
3/32" = 1'-0"
140
0.09375
141
12.0
290
     0
  0
SCALE
  5
5E
102
{ACAD_REACTORS
330
47
102
}
330
47
100
AcDbScale
 70
     0
300
1/8" = 1'-0"
140
0.125
141
12.0
290
     0
  0
SCALE
  5
5F
102
{ACAD_REACTORS
330
47
102
}
330
47
100
AcDbScale
 70
     0
300
3/16" = 1'-0"
140
0.1875
141
12.0
290
     0
  0
SCALE
  5
60
102
{ACAD_REACTORS
330
47
102
}
330
47
100
AcDbScale
 70
     0
300
1/4" = 1'-0"
140
0.25
141
12.0
290
     0
  0
SCALE
  5
61
102
{ACAD_REACTORS
330
47
102
}
330
47
100
AcDbScale
 70
     0
300
3/8" = 1'-0"
140
0.375
141
12.0
290
     0
  0
SCALE
  5
62
102
{ACAD_REACTORS
330
47
102
}
330
47
100
AcDbScale
 70
     0
300
1/2" = 1'-0"
140
0.5
141
12.0
290
     0
  0
SCALE
  5
63
102
{ACAD_REACTORS
330
47
102
}
330
47
100
AcDbScale
 70
     0
300
3/4" = 1'-0"
140
0.75
141
12.0
290
     0
  0
SCALE
  5
64
102
{ACAD_REACTORS
330
47
102
}
330
47
100
AcDbScale
 70
     0
300
1" = 1'-0"
140
1.0
141
12.0
290
     0
  0
SCALE
  5
65
102
{ACAD_REACTORS
330
47
102
}
330
47
100
AcDbScale
 70
     0
300
1-1/2" = 1'-0"
140
1.5
141
12.0
290
     0
  0
SCALE
  5
66
102
{ACAD_REACTORS
330
47
102
}
330
47
100
AcDbScale
 70
     0
300
3" = 1'-0"
140
3.0
141
12.0
290
     0
  0
SCALE
  5
67
102
{ACAD_REACTORS
330
47
102
}
330
47
100
AcDbScale
 70
     0
300
6" = 1'-0"
140
6.0
141
12.0
290
     0
  0
SCALE
  5
68
102
{ACAD_REACTORS
330
47
102
}
330
47
100
AcDbScale
 70
     0
300
1'-0" = 1'-0"
140
12.0
141
12.0
290
     0
  0
ENDSEC
  0
EOF
